<svg width="53" height="52" viewBox="0 0 53 52" fill="none" xmlns="http://www.w3.org/2000/svg">
<rect x="1" y="0.5" width="51" height="51" rx="25.5" fill="white"/>
<rect x="1" y="0.5" width="51" height="51" rx="25.5" stroke="#EFEFEF"/>
<g clip-path="url(#clip0_960_15801)">
<path d="M32.4143 21.1378C32.3181 21.1378 32.2281 21.084 32.1795 20.9975C30.3712 17.7757 26.9556 15.7742 23.2656 15.7742C23.2283 15.7742 23.1911 15.7744 23.1538 15.7748C20.4835 15.8035 17.9649 16.8631 16.0622 18.7583C14.1593 20.6536 13.0889 23.169 13.0481 25.8411C13.0059 28.6035 14.0488 31.2081 15.9846 33.1751C17.9208 35.1424 20.5065 36.2258 23.2656 36.2258H32.4143C36.5712 36.2258 39.9531 32.8416 39.9531 28.6818C39.9531 24.5221 36.5712 21.1378 32.4143 21.1378ZM23.2656 28.6201C21.8195 28.6201 20.6473 27.4471 20.6473 26C20.6473 24.553 21.8195 23.3799 23.2656 23.3799C24.7116 23.3799 25.8839 24.5529 25.8839 26C25.8839 27.447 24.7116 28.6201 23.2656 28.6201Z" fill="#FDE0BE"/>
<path d="M21.4936 27.9289C20.9733 27.4501 20.6473 26.7632 20.6473 26C20.6473 25.9263 20.6504 25.8533 20.6563 25.7811C20.1766 24.2364 19.9181 22.5941 19.9181 20.8915C19.9181 19.2327 20.1634 17.6312 20.6198 16.1213C18.9149 16.5786 17.348 17.4777 16.0622 18.7583C14.1593 20.6536 13.0889 23.169 13.0481 25.8411C13.0059 28.6035 14.0488 31.2081 15.9846 33.1751C17.9208 35.1424 20.5065 36.2258 23.2656 36.2258H30.3763C26.4642 34.6924 23.2817 31.7052 21.4936 27.9289Z" fill="#F7B073"/>
<path d="M32.4144 23.9737C31.2918 23.9737 30.2585 23.3657 29.7088 22.3863C28.4315 20.1106 25.9852 18.5804 23.1844 18.6105C19.1994 18.6534 15.9426 21.897 15.8817 25.8845C15.8186 30.0188 19.1487 33.39 23.2657 33.39H32.4144C35.0128 33.39 37.1193 31.2821 37.1193 28.6819C37.1192 26.0816 35.0128 23.9737 32.4144 23.9737ZM23.2656 28.6201C21.8196 28.6201 20.6473 27.4471 20.6473 26C20.6473 24.553 21.8196 23.3799 23.2656 23.3799C24.7117 23.3799 25.884 24.5529 25.884 26C25.884 27.447 24.7117 28.6201 23.2656 28.6201Z" fill="#FD7DA0"/>
<path d="M21.4937 27.9289C20.9734 27.4501 20.6474 26.7632 20.6474 26C20.6474 25.9263 20.6505 25.8533 20.6565 25.7811C20.1767 24.2364 19.9182 22.5941 19.9182 20.8915C19.9182 20.3829 19.9413 19.8797 19.9864 19.3829C17.5908 20.58 15.9251 23.0434 15.8817 25.8844C15.8186 30.0187 19.1487 33.3899 23.2657 33.3899H25.6648C23.9183 31.891 22.4897 30.0324 21.4937 27.9289Z" fill="#DB4B86"/>
<path d="M32.4143 36.7727H23.2656C20.3589 36.7727 17.6347 35.6312 15.5949 33.5586C13.5555 31.4864 12.4568 28.7427 12.5013 25.8328C12.5443 23.0174 13.6718 20.3674 15.6763 18.3709C17.6808 16.3744 20.3342 15.2582 23.148 15.228C23.1873 15.2275 23.2264 15.2274 23.2657 15.2274C27.1005 15.2274 30.6539 17.2791 32.5781 20.5926C36.9613 20.6801 40.5 24.2752 40.5 28.6818C40.5 33.1431 36.8728 36.7727 32.4143 36.7727ZM23.2657 16.3211C23.2303 16.3211 23.1951 16.3212 23.1597 16.3216C20.6328 16.3488 18.2493 17.3518 16.4481 19.1457C14.6468 20.9399 13.6335 23.3207 13.5949 25.8495C13.555 28.4642 14.542 30.9296 16.3743 32.7915C18.2069 34.6535 20.6542 35.6789 23.2655 35.6789H32.4143C36.2697 35.6789 39.4062 32.5401 39.4062 28.6818C39.4062 24.8236 36.2697 21.6847 32.4142 21.6847C32.1205 21.6847 31.8479 21.524 31.7026 21.2652C29.991 18.2155 26.7582 16.3211 23.2657 16.3211Z" fill="#052A75"/>
<path d="M35.2988 32.5762L35.1517 32.1422C34.5359 30.325 33.2425 28.8501 31.5708 27.9988L34.6942 25.0391C34.9134 24.8314 34.9228 24.4853 34.715 24.266C34.5073 24.0468 34.1612 24.0374 33.9419 24.2452L30.4603 27.5444C30.3644 27.5141 30.2675 27.4856 30.1699 27.4591L26.0273 26.3364C25.7359 26.2574 25.4354 26.4297 25.3563 26.7212C25.2773 27.0127 25.4496 27.313 25.7411 27.3921L29.8837 28.5148C30.0547 28.5612 30.2227 28.6145 30.3874 28.6746C30.4 28.6798 30.4128 28.6845 30.4257 28.6887C32.1574 29.3334 33.5156 30.7219 34.1159 32.4934L34.2629 32.9274C34.3401 33.1553 34.5529 33.2989 34.7808 33.2989C34.839 33.2989 34.8982 33.2895 34.9564 33.2698C35.2424 33.1727 35.3957 32.8622 35.2988 32.5762Z" fill="white"/>
<path d="M22.9839 28.2126L22.2809 28.6352C20.8649 29.4864 19.983 30.9804 19.9218 32.632C19.9106 32.9338 20.1462 33.1875 20.448 33.1987C20.4549 33.199 20.4618 33.1991 20.4686 33.1991C20.7613 33.1991 21.0038 32.9674 21.0148 32.6724C21.0622 31.3916 21.7462 30.2328 22.8444 29.5727L23.5474 29.1501C23.8062 28.9945 23.8899 28.6585 23.7343 28.3996C23.5788 28.1407 23.243 28.057 22.9839 28.2126Z" fill="white"/>
<path d="M23.2656 23.5755C23.5676 23.5755 23.8125 23.3307 23.8125 23.0287V18.7544C23.8125 18.4524 23.5676 18.2075 23.2656 18.2075C22.9636 18.2075 22.7188 18.4524 22.7188 18.7544V23.0287C22.7188 23.3307 22.9636 23.5755 23.2656 23.5755Z" fill="white"/>
<path d="M32.4144 33.9369H23.2657C21.1251 33.9369 19.1187 33.0966 17.6161 31.5708C16.1123 30.0439 15.3022 28.0215 15.3349 25.8761C15.3665 23.8043 16.1979 21.8527 17.6756 20.3808C19.1534 18.9088 21.1077 18.086 23.1785 18.0636C26.082 18.0336 28.7644 19.5862 30.1858 22.1186C30.6387 22.9255 31.4926 23.4268 32.4144 23.4268C35.3103 23.4268 37.6662 25.7841 37.6662 28.6818C37.6662 31.5794 35.3103 33.9369 32.4144 33.9369ZM23.2642 19.157C23.2396 19.157 23.215 19.1571 23.1903 19.1573C19.518 19.1969 16.4847 22.2184 16.4286 25.8928C16.4003 27.7429 17.0988 29.4868 18.3953 30.8033C19.6907 32.1187 21.4204 32.8431 23.2657 32.8431H32.4144C34.7072 32.8431 36.5724 30.9764 36.5724 28.6819C36.5724 26.3874 34.7072 24.5206 32.4144 24.5206C31.0977 24.5206 29.8783 23.8053 29.232 22.654C28.0184 20.4918 25.7368 19.157 23.2642 19.157Z" fill="#052A75"/>
<path d="M23.2655 29.167C21.5202 29.167 20.1003 27.7463 20.1003 26C20.1003 24.2537 21.5202 22.833 23.2655 22.833C25.0108 22.833 26.4307 24.2537 26.4307 26C26.4307 27.7463 25.0108 29.167 23.2655 29.167ZM23.2655 23.9267C22.1233 23.9267 21.1941 24.8568 21.1941 26C21.1941 27.1432 22.1233 28.0733 23.2655 28.0733C24.4077 28.0733 25.3369 27.1432 25.3369 26C25.3369 24.8568 24.4076 23.9267 23.2655 23.9267Z" fill="#052A75"/>
</g>
<defs>
<clipPath id="clip0_960_15801">
<rect width="28" height="28" fill="white" transform="translate(12.5 12)"/>
</clipPath>
</defs>
</svg>
