<svg width="53" height="52" viewBox="0 0 53 52" fill="none" xmlns="http://www.w3.org/2000/svg">
<rect x="1" y="0.5" width="51" height="51" rx="25.5" fill="white"/>
<rect x="1" y="0.5" width="51" height="51" rx="25.5" stroke="#EFEFEF"/>
<g clip-path="url(#clip0_960_15687)">
<path d="M26.5076 39.5783C34.0089 39.5783 40.09 33.4973 40.09 25.996C40.09 18.4947 34.0089 12.4136 26.5076 12.4136C19.0063 12.4136 12.9253 18.4947 12.9253 25.996C12.9253 33.4973 19.0063 39.5783 26.5076 39.5783Z" fill="#EAF6FF"/>
<path d="M26.5077 35.9983C32.0318 35.9983 36.5099 31.5201 36.5099 25.996C36.5099 20.4719 32.0318 15.9937 26.5077 15.9937C20.9835 15.9937 16.5054 20.4719 16.5054 25.996C16.5054 31.5201 20.9835 35.9983 26.5077 35.9983Z" fill="#D8ECFE"/>
<path d="M17.2663 22.7737C16.9962 22.8283 16.7162 22.863 16.4716 22.9902C16.2271 23.1173 16.0208 23.3658 16.0401 23.6407C16.0656 24.0018 16.4497 24.2458 16.5203 24.6009C16.6628 25.3173 15.5108 25.7511 15.5573 26.4801C15.5888 26.9733 16.1657 27.2873 16.2291 27.7774C16.2946 28.283 15.7887 28.7075 15.7787 29.2172C15.763 30.0165 16.8847 30.3755 17.0987 31.1457C17.25 31.6906 16.9377 32.398 17.3624 32.7713C17.5983 32.9787 17.9588 32.9622 18.23 33.1205C18.6214 33.3489 18.7205 33.856 18.9231 34.2612C19.1492 34.7135 19.5688 35.0875 20.0679 35.1692C20.5669 35.251 21.127 34.988 21.3076 34.5157C21.435 34.1822 21.3682 33.8091 21.2886 33.461C21.084 32.5668 20.803 31.6774 20.7961 30.7602C20.7892 29.8429 21.1128 28.8615 21.8738 28.3494C22.2829 28.0741 22.8159 27.9269 23.062 27.4996C23.3213 27.0491 23.1673 26.4261 23.4872 26.0165C23.9852 25.379 25.1898 25.7657 25.6664 25.1121C25.9867 24.6729 25.7616 24.045 25.9143 23.5234C26.097 22.8992 26.815 22.4262 26.7021 21.7856C26.6481 21.4795 26.4006 21.2358 26.1191 21.1038C25.8377 20.9718 25.5229 20.9331 25.2142 20.8962C24.0724 20.7594 22.9104 20.6298 21.7621 20.7671C21.2059 20.8336 20.6156 20.9545 20.1103 21.2061C19.6995 21.4106 19.393 21.8246 18.9963 22.076C18.4682 22.4104 17.8792 22.6496 17.2663 22.7737Z" fill="#80D261"/>
<path d="M26.7021 21.7856C26.6481 21.4794 26.4005 21.2357 26.119 21.1038C25.8376 20.9718 25.5228 20.9331 25.2142 20.8961C24.1615 20.77 23.0915 20.6506 22.0311 20.7402C22.5476 20.7752 23.063 20.8349 23.5745 20.8961C23.8831 20.9331 24.1978 20.9718 24.4793 21.1038C24.7608 21.2357 25.0083 21.4794 25.0624 21.7856C25.1753 22.4261 24.4572 22.8992 24.2745 23.5233C24.1219 24.045 24.3469 24.6728 24.0266 25.112C23.55 25.7656 22.3454 25.379 21.8475 26.0164C21.5275 26.4261 21.6816 27.0491 21.4222 27.4995C21.1762 27.9269 20.6431 28.074 20.234 28.3493C19.473 28.8614 19.1495 29.8429 19.1564 30.7601C19.1632 31.6774 19.4441 32.5668 19.6488 33.461C19.7285 33.809 19.7953 34.1821 19.6678 34.5156C19.6145 34.6549 19.5278 34.7754 19.4199 34.8747C19.6096 35.0238 19.8295 35.1301 20.0679 35.1692C20.567 35.2509 21.127 34.988 21.3076 34.5156C21.435 34.1821 21.3682 33.809 21.2886 33.461C21.084 32.5668 20.803 31.6774 20.7961 30.7601C20.7892 29.8429 21.1128 28.8614 21.8738 28.3493C22.2829 28.074 22.8159 27.9269 23.062 27.4995C23.3214 27.0491 23.1673 26.426 23.4872 26.0164C23.9852 25.379 25.1898 25.7656 25.6664 25.112C25.9867 24.6728 25.7616 24.045 25.9143 23.5233C26.0969 22.8992 26.815 22.4261 26.7021 21.7856Z" fill="#4FC123"/>
<path d="M27.9833 36.9274C31.0019 36.9274 33.449 34.4804 33.449 31.4617C33.449 28.4431 31.0019 25.996 27.9833 25.996C24.9647 25.996 22.5176 28.4431 22.5176 31.4617C22.5176 34.4804 24.9647 36.9274 27.9833 36.9274Z" fill="#918291"/>
<path d="M27.9832 35.2877C30.0963 35.2877 31.8092 33.5748 31.8092 31.4617C31.8092 29.3487 30.0963 27.6357 27.9832 27.6357C25.8702 27.6357 24.1572 29.3487 24.1572 31.4617C24.1572 33.5748 25.8702 35.2877 27.9832 35.2877Z" fill="#FD5426"/>
<path d="M27.9834 27.6357C27.702 27.6357 27.4279 27.6671 27.1636 27.7251C28.8805 28.1015 30.1697 29.6335 30.1697 31.4617C30.1697 33.2899 28.8805 34.8219 27.1636 35.1984C27.4279 35.2563 27.702 35.2877 27.9834 35.2877C30.0931 35.2877 31.8094 33.5714 31.8094 31.4617C31.8094 29.3521 30.0931 27.6357 27.9834 27.6357Z" fill="#EF4424"/>
<path d="M31.05 23.0001L32.7101 26.1781C32.9143 26.5689 33.4011 26.7216 33.7919 26.5175L37.3446 24.6617C37.7354 24.4575 37.8881 23.9708 37.6839 23.58L36.0238 20.4019C35.8197 20.0111 35.3329 19.8584 34.9421 20.0626L31.3894 21.9183C30.9986 22.1225 30.8459 22.6093 31.05 23.0001Z" fill="#F0BDB1"/>
<path d="M37.6839 23.58L36.0238 20.4019C35.8197 20.0111 35.3329 19.8584 34.9421 20.0626L34.3625 20.3653C34.3697 20.3775 34.3774 20.3892 34.3841 20.4019L36.0442 23.58C36.2483 23.9708 36.0956 24.4575 35.7048 24.6617L32.7317 26.2147C32.9466 26.5777 33.4137 26.715 33.7918 26.5175L37.3445 24.6617C37.7353 24.4575 37.8881 23.9708 37.6839 23.58Z" fill="#EAA998"/>
<path d="M28.6192 20.9566L31.3184 23.3167C31.6503 23.607 32.1594 23.5729 32.4495 23.2409L35.0879 20.2235C35.3781 19.8916 35.344 19.3826 35.0121 19.0924L32.313 16.7322C31.981 16.442 31.472 16.4761 31.1818 16.808L28.5435 19.8254C28.2532 20.1573 28.2873 20.6664 28.6192 20.9566Z" fill="#F0BDB1"/>
<path d="M35.0121 19.0924L32.3129 16.7322C31.981 16.442 31.472 16.4761 31.1818 16.808L30.999 17.0171L33.3725 19.0924C33.7044 19.3826 33.7385 19.8916 33.4483 20.2235L30.9927 23.0319L31.3184 23.3167C31.6504 23.607 32.1594 23.5729 32.4496 23.2409L35.0879 20.2235C35.3782 19.8916 35.3441 19.3826 35.0121 19.0924Z" fill="#EAA998"/>
<path d="M25.6875 20.2959L29.1114 21.3603C29.5325 21.4912 29.984 21.2539 30.1149 20.8328L31.3048 17.0053C31.4357 16.5843 31.1983 16.1327 30.7773 16.0018L27.3534 14.9374C26.9324 14.8065 26.4808 15.0439 26.3499 15.465L25.16 19.2925C25.0291 19.7135 25.2665 20.165 25.6875 20.2959Z" fill="#F0BDB1"/>
<path d="M30.7772 16.0018L27.3533 14.9374C26.9414 14.8093 26.5011 15.0343 26.3596 15.4384L29.0524 16.2755C29.4734 16.4064 29.7108 16.8579 29.58 17.279L28.3901 21.1065C28.3872 21.1156 28.3835 21.1241 28.3804 21.133L29.1114 21.3603C29.5325 21.4912 29.9841 21.2538 30.1149 20.8327L31.3048 17.0052C31.4356 16.5843 31.1983 16.1327 30.7772 16.0018Z" fill="#EAA998"/>
<path d="M23.2474 21.0733L26.7826 20.4742C27.2173 20.4005 27.5127 19.9846 27.439 19.5499L26.7692 15.598C26.6955 15.1633 26.2796 14.8679 25.8449 14.9416L22.3098 15.5408C21.8751 15.6144 21.5797 16.0304 21.6534 16.4651L22.3231 20.4169C22.3968 20.8516 22.8128 21.147 23.2474 21.0733Z" fill="#F0BDB1"/>
<path d="M27.4392 19.5499L26.7694 15.5981C26.6957 15.1634 26.2798 14.868 25.8451 14.9417L24.8439 15.1114C24.9901 15.2299 25.096 15.3991 25.1297 15.5981L25.7995 19.5499C25.8732 19.9846 25.5778 20.4006 25.143 20.4742L22.6091 20.9037C22.7822 21.0441 23.012 21.1133 23.2476 21.0734L26.7828 20.4742C27.2175 20.4006 27.5129 19.9846 27.4392 19.5499Z" fill="#EAA998"/>
<path d="M21.4605 22.8302L24.2461 20.5727C24.5886 20.2951 24.6418 19.7877 24.3642 19.4451L21.8405 16.3312C21.5629 15.9886 21.0555 15.9355 20.713 16.2131L17.9273 18.4707C17.5848 18.7483 17.5317 19.2556 17.8093 19.5982L20.333 22.7122C20.6106 23.0547 21.118 23.1078 21.4605 22.8302Z" fill="#F0BDB1"/>
<path d="M24.3643 19.4451L21.8406 16.3312C21.563 15.9886 21.0556 15.9355 20.7131 16.2131L20.3461 16.5104L22.7245 19.4451C23.0021 19.7876 22.949 20.295 22.6064 20.5726L20.1877 22.5328L20.333 22.7121C20.6106 23.0546 21.118 23.1077 21.4605 22.8301L24.2462 20.5726C24.5887 20.2951 24.6419 19.7877 24.3643 19.4451Z" fill="#EAA998"/>
<path d="M27.9921 25.6438C29.2317 25.6438 30.2367 24.6389 30.2367 23.3993C30.2367 22.1596 29.2317 21.1547 27.9921 21.1547C26.7525 21.1547 25.7476 22.1596 25.7476 23.3993C25.7476 24.6389 26.7525 25.6438 27.9921 25.6438Z" fill="#FFE177"/>
<path d="M27.992 21.1547C27.7025 21.1547 27.4262 21.2101 27.1721 21.3099C28.0061 21.6374 28.5968 22.4491 28.5968 23.3993C28.5968 24.3494 28.0061 25.1611 27.1721 25.4887C27.4262 25.5885 27.7025 25.6438 27.992 25.6438C29.2316 25.6438 30.2365 24.6389 30.2365 23.3993C30.2365 22.1596 29.2316 21.1547 27.992 21.1547Z" fill="#FFD15B"/>
<path d="M36.4016 16.1019C32.2229 11.8023 25.2994 10.7682 20.0273 13.5917C18.1068 14.597 16.4202 16.0599 15.1497 17.8222C15.0173 18.0059 15.0589 18.262 15.2425 18.3945C15.4261 18.5269 15.6824 18.4853 15.8148 18.3017C23.2651 8.00822 39.6449 13.2725 39.68 25.9962C39.68 33.2592 33.7709 39.1683 26.5076 39.1683C16.735 39.2873 10.1966 28.4349 14.8499 19.8577C14.9554 19.6575 14.8787 19.4096 14.6784 19.3039C14.4783 19.1983 14.2302 19.2749 14.1246 19.4752C9.20748 28.6785 16.0613 40.066 26.5077 39.9881C38.9272 39.9766 45.1754 24.8915 36.4016 16.1019Z" fill="#052A75"/>
<path d="M15.1482 26.5062C15.1724 26.8847 15.3926 27.1685 15.5694 27.3966C15.6911 27.5536 15.806 27.7018 15.8227 27.83C15.8411 27.9721 15.7502 28.1483 15.645 28.3524C15.1023 29.2917 15.4114 29.9245 16.1549 30.5683C16.403 30.7986 16.6373 31.016 16.7037 31.2555C16.7448 31.4033 16.7358 31.598 16.7262 31.8041C16.7072 32.2124 16.6836 32.7204 17.0919 33.0793C17.2974 33.2599 17.5413 33.3245 17.7374 33.3765C18.1455 33.4518 18.227 33.6577 18.3976 34.0811C18.4459 34.2004 18.496 34.3237 18.5566 34.4447C18.8609 35.0534 19.4012 35.4755 20.0016 35.574C20.5232 35.6635 21.0871 35.4658 21.4259 35.0876C22.3838 35.6239 23.414 36.0026 24.4925 36.2138C24.5085 36.217 24.5245 36.2188 24.5403 36.2201C27.4912 38.4377 31.9419 37.1791 33.354 33.8438C34.497 32.846 35.4239 31.5884 36.035 30.2059C36.1265 29.9988 36.0328 29.7567 35.8258 29.6652C35.6187 29.5738 35.3766 29.6673 35.2851 29.8744C34.9125 30.7174 34.4117 31.5095 33.8107 32.2158C34.225 29.2017 32.1422 26.3418 29.2657 25.7275C30.124 25.2609 30.6976 24.3089 30.6431 23.271L30.8011 23.4092L32.3467 26.368C32.4961 26.6541 32.7488 26.8651 33.0582 26.9622C33.3655 27.0587 33.6946 27.031 33.9816 26.8809L36.0971 25.7758C36.1157 26.5573 36.0379 27.3432 35.8691 28.0997C35.8197 28.3207 35.9589 28.5398 36.1799 28.5891C36.3951 28.6389 36.6209 28.5009 36.6693 28.2784C36.8818 27.3277 36.9603 26.3343 36.9002 25.3563L37.5343 25.0251C37.8204 24.8756 38.0314 24.623 38.1285 24.3136C38.2255 24.0042 38.1967 23.6763 38.0473 23.3902L36.3872 20.2121C36.2391 19.9286 35.9881 19.7211 35.6929 19.6239C35.6742 19.3112 35.5359 19.0058 35.282 18.7838L32.5828 16.4236C32.3035 16.1794 31.9303 16.0826 31.5757 16.1442C31.4222 15.8882 31.185 15.6993 30.899 15.6103L27.4751 14.5459C27.1543 14.4462 26.8086 14.4862 26.5193 14.6499C26.2904 14.5348 26.0329 14.494 25.7765 14.5375L22.2414 15.1366C21.9143 15.192 21.6291 15.3811 21.4459 15.6476C21.4122 15.6412 21.3784 15.6355 21.3439 15.6319C21.0214 15.5984 20.7057 15.6914 20.455 15.8947L17.6693 18.1522C17.4186 18.3554 17.2619 18.645 17.2281 18.9674C17.1943 19.2899 17.2876 19.6056 17.4909 19.8563L17.8168 20.2586C17.3598 20.9499 16.9875 21.6924 16.708 22.4703C16.5668 22.5062 16.4224 22.5538 16.2825 22.6265C15.8578 22.8473 15.6021 23.2567 15.6312 23.6696C15.6529 23.977 15.8176 24.2056 15.9499 24.3893C16.0283 24.4983 16.1025 24.6011 16.1183 24.6808C16.1487 24.834 15.9924 25.0188 15.7503 25.2832C15.467 25.5926 15.1145 25.9777 15.1482 26.5062ZM16.7126 29.9674C16.3835 29.6619 16.184 29.4595 16.1886 29.2252C16.2253 28.8664 16.5515 28.5154 16.6186 28.1129C17.1178 28.0405 17.754 27.8997 18.1813 27.4253C18.5112 27.066 18.6034 26.6142 18.8536 26.249C19.0423 25.9898 19.3553 25.8083 19.6654 25.6508C19.7227 25.6216 19.7804 25.593 19.8382 25.5643C20.1602 25.4045 20.4931 25.2393 20.7887 24.986C21.3928 24.4685 21.6548 23.8852 21.572 23.2496C21.6227 23.2196 21.672 23.1864 21.7186 23.1486L23.9035 21.3778L24.2084 21.3261C24.303 22.129 23.6768 23.1923 22.6549 23.9061C21.8339 24.4796 21.5389 25.2994 21.3018 25.9582C21.1748 26.3112 21.0548 26.6447 20.8926 26.796C20.5636 27.0806 20.0266 27.1474 19.6409 27.4097C19.0918 27.7603 18.7206 28.3778 18.5378 29.2452C18.4845 29.4979 18.4488 29.7513 18.4142 29.9965C18.362 30.3675 18.3126 30.7179 18.2083 31.0486C18.0689 31.4906 17.8276 31.8328 17.539 32.0131C17.5465 31.6956 17.5865 31.374 17.4936 31.0359C17.3651 30.573 17.0185 30.2512 16.7126 29.9674ZM20.9247 34.3694C20.8206 34.6417 20.466 34.8191 20.1342 34.7648C19.7977 34.7096 19.4741 34.4464 19.2898 34.0779C19.2436 33.9855 19.2016 33.8821 19.1572 33.7727C19.0111 33.4129 18.8456 33.0052 18.4366 32.7665C18.3225 32.6999 18.2058 32.6578 18.0947 32.6248C18.4921 32.3303 18.8103 31.8657 18.9902 31.2953C19.115 30.8998 19.1715 30.4988 19.2261 30.111C19.2602 29.8687 19.2925 29.6399 19.34 29.4145C19.4333 28.9718 19.6378 28.3846 20.082 28.1009C20.222 28.0116 20.3941 27.9459 20.5764 27.8764C20.8621 27.7674 21.1859 27.6439 21.452 27.3956C21.7592 27.109 21.9118 26.6849 22.0733 26.2359C22.2915 25.6296 22.5171 25.0026 23.1244 24.5783C24.4399 23.6594 25.1744 22.3153 25.0175 21.1891L26.4176 20.9519C26.4197 20.9525 26.4215 20.9534 26.4236 20.9541L26.7484 21.0551C25.675 21.5956 25.0651 22.9765 25.4514 24.1678C25.4463 24.1937 25.4435 24.2204 25.4436 24.2478C25.4441 24.5157 25.4365 24.7317 25.3352 24.8705C24.9338 25.3351 23.7508 24.9881 23.1642 25.7641C22.9235 26.0723 22.8781 26.4307 22.8381 26.7469C22.8114 26.9578 22.7862 27.1571 22.7067 27.2951C22.5209 27.6089 21.9745 27.7729 21.6449 28.0093C20.0705 29.1049 20.2554 31.2556 20.7509 32.9805C20.7975 33.1685 20.8456 33.363 20.889 33.5525C20.955 33.8406 21.012 34.1409 20.9247 34.3694ZM21.6883 33.3696C21.4902 32.5025 21.2106 31.6131 21.2062 30.7571C21.1994 29.8448 21.5345 29.0719 22.1028 28.6894C22.2111 28.6165 22.3361 28.5507 22.4683 28.4811C23.2158 28.115 23.5789 27.7204 23.6516 26.8497C23.6822 26.6079 23.7086 26.3991 23.8104 26.2688C23.9571 26.081 24.2869 26.0305 24.6361 25.9771C25.1146 25.9039 25.6568 25.821 25.9977 25.3536C26.0266 25.3139 26.0519 25.2733 26.0749 25.2324C26.261 25.4269 26.476 25.5936 26.7135 25.7247C22.5817 26.5857 20.6825 31.715 23.3359 35.0524C22.7957 34.8636 22.2729 34.6265 21.7721 34.3418C21.8199 34.0035 21.7566 33.6682 21.6883 33.3696ZM33.0392 31.4617C33.0392 34.2495 30.7712 36.5175 27.9834 36.5175C21.2854 36.2634 21.2872 26.659 27.9834 26.4059C30.7712 26.4059 33.0392 28.6739 33.0392 31.4617ZM27.9921 25.2339C26.9805 25.2339 26.1575 24.4109 26.1575 23.3993C26.2497 20.9688 29.7348 20.9694 29.8267 23.3993C29.8267 24.4109 29.0036 25.2339 27.9921 25.2339ZM37.3206 23.7698C37.3686 23.8617 37.3777 23.9677 37.3462 24.0681C37.3147 24.1685 37.2467 24.2503 37.1547 24.2983L33.602 26.1542C33.5099 26.2022 33.404 26.2112 33.3036 26.1798C33.2032 26.1483 33.1215 26.0803 33.0734 25.9883L31.9899 23.9139C32.2885 23.8786 32.5596 23.7379 32.7581 23.5108L35.3965 20.4934C35.4196 20.467 35.4405 20.4395 35.4609 20.4117C35.5456 20.4461 35.617 20.5086 35.6604 20.5918L37.3206 23.7698ZM32.0431 17.0408L34.7423 19.401C34.9049 19.5431 34.9215 19.7911 34.7793 19.9537L32.141 22.9711C32.0727 23.0492 31.9772 23.0961 31.8722 23.1032C31.7672 23.1105 31.6664 23.0765 31.5883 23.0082L29.9975 21.6172C30.2322 21.4687 30.4177 21.2399 30.5065 20.9546L31.6963 17.1271C31.7145 17.0683 31.7268 17.0088 31.7359 16.9491C31.8452 16.9352 31.9578 16.9662 32.0431 17.0408ZM27.2317 15.3288L30.6557 16.3932C30.7547 16.424 30.8363 16.4923 30.8852 16.5855C30.9342 16.6786 30.9443 16.7845 30.9134 16.8836L29.7236 20.7111C29.6594 20.9173 29.4395 21.033 29.2332 20.9688L27.5817 20.4554C27.7983 20.1932 27.9045 19.8422 27.8433 19.4814L27.1736 15.5295C27.1609 15.4546 27.1409 15.3821 27.1151 15.3122C27.1542 15.312 27.1935 15.317 27.2317 15.3288ZM22.3784 15.9449L25.9135 15.3458C26.0158 15.3285 26.1194 15.3525 26.2052 15.4135C26.291 15.4744 26.3478 15.5643 26.3652 15.6666L27.0349 19.6184C27.0711 19.8314 26.9272 20.034 26.7142 20.07L24.8716 20.3823C24.9085 20.2849 24.9343 20.1825 24.9455 20.0759C24.9792 19.7535 24.8859 19.4378 24.6827 19.1871L22.159 16.0731C22.1578 16.0716 22.1564 16.0703 22.1552 16.0689C22.2132 16.0048 22.291 15.9598 22.3784 15.9449ZM18.0436 19.0528C18.0545 18.9481 18.1049 18.8545 18.1855 18.7891L20.9711 16.5316C21.0515 16.4661 21.1555 16.4362 21.2584 16.4474C21.3632 16.4583 21.4567 16.5087 21.522 16.5893L24.0457 19.7033C24.1817 19.8711 24.1558 20.1182 23.988 20.2542L21.2024 22.5118C21.1218 22.5771 21.0196 22.6071 20.9151 22.5961C20.8104 22.5851 20.7168 22.5347 20.6515 22.4541L18.1278 19.3401C18.0625 19.2595 18.0326 19.1575 18.0436 19.0528ZM18.9236 21.6242C18.8741 21.663 18.8256 21.6987 18.7769 21.7296C18.4297 21.9496 18.0608 22.1208 17.6761 22.2433C17.8693 21.7886 18.0985 21.3494 18.3603 20.929L18.9236 21.6242ZM16.6608 23.3539C16.8073 23.2777 16.9956 23.2423 17.1949 23.2049C17.246 23.1953 17.297 23.1857 17.3477 23.1754C18.0097 23.0414 18.6382 22.788 19.2157 22.4221C19.2937 22.3726 19.367 22.3193 19.44 22.2614L19.7681 22.6662C19.0027 23.7587 17.7934 24.1442 16.837 24.2666C16.7723 24.1289 16.6882 24.0115 16.6152 23.9102C16.5324 23.7953 16.4543 23.6869 16.449 23.6118C16.4436 23.5332 16.5385 23.4175 16.6608 23.3539ZM16.355 25.8368C16.5476 25.6264 16.7696 25.3832 16.8774 25.0876C17.9809 24.9569 19.4 24.5234 20.3522 23.2569C20.4781 23.3292 20.6171 23.378 20.764 23.4013C20.7978 23.8306 20.5311 24.1274 20.2554 24.3635C20.0373 24.5504 19.7636 24.6862 19.4738 24.8301C19.0021 25.0637 18.5275 25.3071 18.1909 25.7666C17.9298 26.1085 17.8313 26.5702 17.5722 26.8767C17.338 27.1367 16.9385 27.2361 16.4962 27.3017C16.4154 27.15 16.313 27.0176 16.2173 26.8942C16.0926 26.7333 15.9747 26.5813 15.9665 26.454C15.955 26.2738 16.1493 26.0616 16.355 25.8368Z" fill="#052A75"/>
<path d="M23.7473 31.4617C23.7473 33.7974 25.6475 35.6977 27.9833 35.6977C33.5951 35.4847 33.5936 27.4378 27.9832 27.2258C25.6475 27.2258 23.7473 29.126 23.7473 31.4617ZM31.3993 31.4617C31.3993 33.3453 29.8669 34.8778 27.9833 34.8778C23.4576 34.7061 23.4588 28.2167 27.9833 28.0456C29.8669 28.0456 31.3993 29.5781 31.3993 31.4617Z" fill="#052A75"/>
<path d="M28.1742 22.3073C27.3956 22.3073 26.7622 22.9408 26.7622 23.7193C26.7622 23.9457 26.9457 24.1292 27.1721 24.1292C27.3985 24.1292 27.5821 23.9457 27.5821 23.7193C27.5798 23.1635 28.2959 22.9144 28.6384 23.3516C28.7791 23.529 29.037 23.5586 29.2143 23.4178C29.3916 23.2771 29.4213 23.0192 29.2805 22.8419C29.0108 22.5021 28.6075 22.3073 28.1742 22.3073Z" fill="#052A75"/>
<path d="M26.4907 30.4983C26.6137 30.4983 26.7353 30.4432 26.816 30.3382C26.954 30.1587 26.9204 29.9014 26.7409 29.7633L26.6149 29.6665C26.4354 29.5286 26.1781 29.5622 26.04 29.7416C25.9021 29.9211 25.9356 30.1785 26.1151 30.3165L26.2411 30.4133C26.3157 30.4706 26.4036 30.4983 26.4907 30.4983Z" fill="#052A75"/>
<path d="M29.007 32.9945C28.9676 32.7715 28.7549 32.6226 28.532 32.6622C28.309 32.7016 28.1602 32.9143 28.1997 33.1372L28.2274 33.2937C28.2657 33.5179 28.4847 33.6662 28.7024 33.626C28.9253 33.5866 29.0741 33.3739 29.0346 33.151L29.007 32.9945Z" fill="#052A75"/>
<path d="M27.7559 30.9736C27.7559 31.2 27.9394 31.3836 28.1658 31.3836H28.3247C28.8675 31.3647 28.867 30.5823 28.3247 30.5637H28.1658C27.9394 30.5637 27.7559 30.7472 27.7559 30.9736Z" fill="#052A75"/>
<path d="M29.0835 30.0535C29.1537 30.0535 29.2249 30.0354 29.2899 29.9974L29.4271 29.9172C29.6226 29.803 29.6885 29.5519 29.5742 29.3565C29.46 29.1609 29.2089 29.0952 29.0135 29.2093L28.8763 29.2895C28.6808 29.4038 28.6149 29.6548 28.7292 29.8502C28.8054 29.9807 28.9425 30.0535 29.0835 30.0535Z" fill="#052A75"/>
<path d="M26.5853 31.5813L26.4456 31.6571C26.2467 31.7651 26.173 32.014 26.2809 32.2129C26.3895 32.4138 26.6416 32.4846 26.8368 32.3777L26.9765 32.3018C27.1754 32.1938 27.2492 31.945 27.1412 31.746C27.0332 31.547 26.7844 31.4734 26.5853 31.5813Z" fill="#052A75"/>
<path d="M29.2517 31.4653C29.1872 31.6823 29.3109 31.9105 29.5279 31.975L29.6802 32.0203C29.8914 32.0847 30.1261 31.963 30.19 31.7441C30.2545 31.527 30.1308 31.2988 29.9138 31.2343L29.7614 31.1891C29.5442 31.1245 29.3162 31.2483 29.2517 31.4653Z" fill="#052A75"/>
</g>
<defs>
<clipPath id="clip0_960_15687">
<rect width="28" height="28" fill="white" transform="translate(12.5 12)"/>
</clipPath>
</defs>
</svg>
