<svg width="24" height="24" viewBox="0 0 24 24" fill="none" xmlns="http://www.w3.org/2000/svg">
<path fill-rule="evenodd" clip-rule="evenodd" d="M17.5395 9.07408C17.1882 10.2711 16.4726 11.3288 15.4922 12.1001C17.1791 12.7696 18.6521 13.8856 19.7531 15.3283C20.8541 16.7711 21.5417 18.4863 21.7422 20.2901C21.7703 20.5525 21.6936 20.8153 21.5288 21.0214C21.364 21.2274 21.1244 21.36 20.8622 21.3901H20.7522C20.7445 21.3902 20.7368 21.3901 20.7292 21.39H2.96339C2.89046 21.3981 2.81631 21.3983 2.74222 21.3901C2.47701 21.361 2.23424 21.2276 2.06733 21.0195C1.98469 20.9164 1.92316 20.798 1.88625 20.6712C1.84934 20.5443 1.83778 20.4115 1.85222 20.2801C2.05179 18.4814 2.73572 16.7706 3.83112 15.3301C4.92651 13.8895 6.3923 12.7732 8.07222 12.1001C7.09183 11.3288 6.37623 10.2711 6.02498 9.07408C5.67374 7.8771 5.7043 6.6004 6.11244 5.42161C6.52057 4.24281 7.28597 3.22053 8.30215 2.49699C9.31834 1.77346 10.5348 1.38464 11.7822 1.38464C13.0297 1.38464 14.2461 1.77346 15.2623 2.49699C16.2785 3.22053 17.0439 4.24281 17.452 5.42161C17.8601 6.6004 17.8907 7.8771 17.5395 9.07408ZM4.05705 19.39H19.5474C19.1539 17.8684 18.3182 16.4875 17.134 15.4289C15.6675 14.1179 13.7693 13.3932 11.8022 13.3932C9.83512 13.3932 7.93698 14.1179 6.47044 15.4289C5.28629 16.4875 4.45058 17.8684 4.05705 19.39ZM9.55994 10.716C10.2177 11.1555 10.9911 11.3901 11.7822 11.3901C12.8431 11.3901 13.8605 10.9687 14.6107 10.2186C15.3608 9.46842 15.7822 8.45101 15.7822 7.39014C15.7822 6.59901 15.5476 5.82566 15.1081 5.16786C14.6686 4.51006 14.0439 3.99737 13.313 3.69462C12.5821 3.39187 11.7778 3.31266 11.0019 3.467C10.2259 3.62134 9.51321 4.0023 8.9538 4.56171C8.39439 5.12112 8.01342 5.83385 7.85908 6.60978C7.70474 7.3857 7.78395 8.18997 8.08671 8.92087C8.38946 9.65178 8.90215 10.2765 9.55994 10.716Z" fill="#858585"/>
</svg>
