<svg width="53" height="52" viewBox="0 0 53 52" fill="none" xmlns="http://www.w3.org/2000/svg">
<rect x="1" y="0.5" width="51" height="51" rx="25.5" fill="white"/>
<rect x="1" y="0.5" width="51" height="51" rx="25.5" stroke="#EFEFEF"/>
<g clip-path="url(#clip0_960_15837)">
<path d="M28.2609 27.3956H32.0234C33.3491 27.3956 34.4237 26.3209 34.4237 24.9952V24.3981C34.4237 23.0724 33.349 21.9977 32.0234 21.9977H28.2609C26.9352 21.9977 25.8606 23.0724 25.8606 24.3981V24.9952C25.8605 26.3209 26.9352 27.3956 28.2609 27.3956Z" fill="#D46B5C"/>
<path d="M27.0825 24.8525H24.7292V22.4993C24.7292 20.8094 26.0992 19.4394 27.7891 19.4394H30.1424V21.7926C30.1424 23.4826 28.7724 24.8525 27.0825 24.8525Z" fill="#91B706"/>
<path d="M17.495 28.7806L19.7552 28.1255L19.1 25.8653C18.6296 24.2422 16.9324 23.3078 15.3093 23.7782L13.0491 24.4334L13.7042 26.6935C14.1747 28.3167 15.8719 29.2511 17.495 28.7806Z" fill="#91B706"/>
<path d="M35.5048 28.7806L33.2446 28.1255L33.8998 25.8653C34.3702 24.2422 36.0674 23.3078 37.6905 23.7782L39.9507 24.4334L39.2956 26.6935C38.8251 28.3167 37.128 29.2511 35.5048 28.7806Z" fill="#91B706"/>
<path d="M24.7387 27.3956H20.9763C19.6506 27.3956 18.5759 26.3209 18.5759 24.9952V24.3981C18.5759 23.0724 19.6506 21.9977 20.9763 21.9977H24.7387C26.0644 21.9977 27.1391 23.0724 27.1391 24.3981V24.9952C27.1391 26.3209 26.0644 27.3956 24.7387 27.3956Z" fill="#D46B5C"/>
<path d="M13.0491 33.4321C13.0491 28.6937 16.8902 24.8525 21.6286 24.8525H31.3713C36.1096 24.8525 39.9508 28.6937 39.9508 33.4321C39.9508 35.0571 38.6335 36.3744 37.0085 36.3744H15.9913C14.3664 36.3744 13.0491 35.0571 13.0491 33.4321Z" fill="#FDE0BE"/>
<path d="M20.8819 28.8043C20.8819 27.4007 21.1714 26.0649 21.693 24.8525H21.6286C16.8902 24.8525 13.0491 28.6937 13.0491 33.432C13.0491 35.057 14.3664 36.3744 15.9914 36.3744H24.3438C22.2234 34.5394 20.8819 31.8285 20.8819 28.8043Z" fill="#F7B073"/>
<path d="M39.8231 26.8464L40.4782 24.5862C40.5627 24.295 40.395 23.9905 40.1038 23.9061L37.8436 23.2509C36.8207 22.9545 35.7431 23.1386 34.886 23.6874C34.567 22.4033 33.405 21.4486 32.0237 21.4486H30.6914V19.4394C30.6914 19.1362 30.4456 18.8904 30.1424 18.8904H27.7892C26.18 18.8904 24.7908 19.9435 24.3362 21.4486H20.9765C19.5956 21.4486 18.4338 22.4027 18.1145 23.6862C17.2581 23.1374 16.1815 22.9539 15.1566 23.2509L12.8963 23.9061C12.605 23.9905 12.4374 24.295 12.5219 24.5862L13.177 26.8464C13.3428 27.4184 13.6411 27.9304 14.0488 28.3507C13.0713 29.8041 12.5002 31.5526 12.5002 33.4321C12.5002 35.3572 14.0663 36.9234 15.9915 36.9234H37.0086C38.9337 36.9234 40.4999 35.3571 40.4999 33.432C40.4999 31.5526 39.9288 29.8041 38.9512 28.3506C39.3589 27.9303 39.6573 27.4182 39.8231 26.8464ZM37.5379 24.3055L39.2707 24.8078L38.7685 26.5406C38.6688 26.8844 38.5004 27.1972 38.2738 27.4644C37.376 26.4274 36.2488 25.5944 34.9721 25.0442C34.9721 25.0423 34.9722 25.0404 34.9723 25.0385C35.6043 24.3397 36.6037 24.0349 37.5379 24.3055ZM33.8749 24.398V24.6526C33.0791 24.4253 32.2392 24.3035 31.3713 24.3035H29.6711C30.1347 23.8257 30.4676 23.221 30.6115 22.5467H32.0236C33.0445 22.5467 33.8749 23.3772 33.8749 24.398ZM27.7891 19.9884H29.5933V21.7926C29.5933 22.9701 28.7784 23.9604 27.6832 24.2304C27.6099 22.9297 26.6903 21.8517 25.4673 21.5399C25.847 20.6161 26.7525 19.9884 27.7891 19.9884ZM20.9764 22.5467H24.7389C25.728 22.5467 26.5385 23.3264 26.5878 24.3035H21.6287C20.7609 24.3035 19.921 24.4253 19.1251 24.6526V24.398C19.1251 23.3772 19.9556 22.5467 20.9764 22.5467ZM14.2316 26.5407L13.7294 24.8078L15.4622 24.3055C16.3982 24.0343 17.3961 24.339 18.0279 25.0382C18.0279 25.0403 18.028 25.0423 18.028 25.0443C16.7514 25.5944 15.6241 26.4274 14.7263 27.4644C14.4996 27.1972 14.3313 26.8845 14.2316 26.5407ZM37.0086 35.8253H15.9915C14.6718 35.8253 13.5981 34.7517 13.5981 33.4321C13.5981 29.004 17.2006 25.4016 21.6286 25.4016H31.3713C35.7993 25.4016 39.4018 29.004 39.4018 33.4321C39.4019 34.7517 38.3282 35.8253 37.0086 35.8253Z" fill="#052A75"/>
<path d="M20.0949 32.9954C20.0018 32.9954 19.9075 32.9717 19.821 32.9218C19.5584 32.7702 19.4684 32.4345 19.6201 32.1719L21.7365 28.506C21.8881 28.2435 22.2238 28.1535 22.4865 28.3051C22.749 28.4567 22.839 28.7925 22.6874 29.0551L20.5709 32.7209C20.4693 32.897 20.2847 32.9954 20.0949 32.9954Z" fill="#FD8F01"/>
<path d="M25.4411 32.9954C25.348 32.9954 25.2537 32.9717 25.1672 32.9218C24.9046 32.7702 24.8146 32.4345 24.9662 32.1719L27.0827 28.506C27.2344 28.2435 27.57 28.1535 27.8327 28.3051C28.0953 28.4567 28.1853 28.7925 28.0336 29.0551L25.9171 32.7209C25.8155 32.897 25.6309 32.9954 25.4411 32.9954Z" fill="#FD8F01"/>
<path d="M30.7873 32.9954C30.6942 32.9954 30.5998 32.9717 30.5134 32.9218C30.2508 32.7702 30.1608 32.4345 30.3124 32.1719L32.4289 28.506C32.5805 28.2435 32.9162 28.1535 33.1788 28.3051C33.4414 28.4567 33.5314 28.7925 33.3798 29.0551L31.2633 32.7209C31.1617 32.897 30.9771 32.9954 30.7873 32.9954Z" fill="#FD8F01"/>
<path d="M22.5191 19.3461C22.0358 19.349 21.7866 18.7483 22.131 18.409C22.3344 18.1963 22.7037 18.196 22.9072 18.409C23.2522 18.7484 23.0024 19.3492 22.5191 19.3461Z" fill="#93B2F4"/>
<path d="M19.1186 17.3675C18.7402 17.3776 18.4556 16.9546 18.6113 16.6082C18.793 16.1604 19.4442 16.1599 19.6253 16.6082C19.7814 16.9541 19.4971 17.3777 19.1186 17.3675Z" fill="#93B2F4"/>
<path d="M28.9189 16.1706C28.5412 16.1818 28.2557 15.7572 28.4116 15.4119C28.5882 14.9651 29.2497 14.9646 29.4256 15.4119C29.5816 15.757 29.297 16.1818 28.9189 16.1706Z" fill="#93B2F4"/>
<path d="M33.7415 19.3461C33.3631 19.3563 33.0788 18.9328 33.2348 18.5869C33.4157 18.1387 34.0677 18.1389 34.2488 18.5869C34.4049 18.9331 34.12 19.3566 33.7415 19.3461Z" fill="#93B2F4"/>
</g>
<defs>
<clipPath id="clip0_960_15837">
<rect width="28" height="28" fill="white" transform="translate(12.5 12)"/>
</clipPath>
</defs>
</svg>
