<svg width="53" height="52" viewBox="0 0 53 52" fill="none" xmlns="http://www.w3.org/2000/svg">
<rect x="1" y="0.5" width="51" height="51" rx="25.5" fill="white"/>
<rect x="1" y="0.5" width="51" height="51" rx="25.5" stroke="#EFEFEF"/>
<g clip-path="url(#clip0_960_15039)">
<path d="M38.9593 28.8995H14.4092V38.3685H38.9593V28.8995Z" fill="#F7B073"/>
<path d="M23.4606 15.9047H15.8208V25.5014H23.4606V15.9047Z" fill="white"/>
<path d="M37.1789 15.9047H29.5391V25.5014H37.1789V15.9047Z" fill="white"/>
<path d="M15.8208 15.9047V25.5014H19.151C19.1619 22.1929 19.5729 18.9788 20.3382 15.9047H15.8208Z" fill="#D2DCFD"/>
<path d="M14.4092 28.8995V38.3685H21.2116C20.2049 35.3554 19.5459 32.1832 19.2817 28.8995H14.4092Z" fill="#D46B5C"/>
<path d="M29.5391 15.9047V25.5014H32.8693C32.8801 22.1929 33.2912 18.9788 34.0565 15.9047H29.5391Z" fill="#D2DCFD"/>
<path d="M39.9543 28.3503H36.9743L36.4972 26.0506H38.4522C39.1798 26.0236 39.1797 24.9791 38.4522 24.9522H37.7281V15.9047C37.7281 15.6015 37.4822 15.3556 37.1789 15.3556H33.9081V13.6315C33.9081 13.3283 33.6623 13.0824 33.359 13.0824C33.0557 13.0824 32.8098 13.3283 32.8098 13.6315V15.3556H29.539C29.2357 15.3556 28.9899 15.6015 28.9899 15.9047V24.9522H28.2658C27.5382 24.9791 27.5382 26.0237 28.2658 26.0506H30.2208L29.7437 28.3503H23.2564L22.7793 26.0506H24.7343C25.4619 26.0236 25.4618 24.9791 24.7343 24.9522H24.0102V15.9047C24.0102 15.6015 23.7643 15.3556 23.461 15.3556H20.1903V13.6315C20.1903 13.3283 19.9444 13.0824 19.6411 13.0824C19.3378 13.0824 19.0919 13.3283 19.0919 13.6315V15.3556H15.8212C15.5179 15.3556 15.272 15.6015 15.272 15.9047V24.9522H14.5478C13.8203 24.9791 13.8203 26.0237 14.5478 26.0506H16.5028L16.0257 28.3503H13.0457C12.3182 28.3772 12.3181 29.4218 13.0457 29.4486H13.8602V38.3685C13.8602 38.6717 14.106 38.9176 14.4093 38.9176H38.9595C39.2628 38.9176 39.5086 38.6717 39.5086 38.3685V29.4486H39.9543C40.6821 29.4217 40.6818 28.3771 39.9543 28.3503ZM30.0882 16.4539H36.6298V24.9522H30.0882V16.4539ZM31.3425 26.0506H35.3755L35.8526 28.3503H30.8653L31.3425 26.0506ZM16.3703 16.4539H22.9119V24.9522H16.3703V16.4539ZM17.6246 26.0506H21.6576L22.1347 28.3503H17.1474L17.6246 26.0506ZM14.9585 37.8193V34.1831H38.4103V37.8193H14.9585ZM38.4103 33.0848H14.9585V29.4486C22.2232 29.4486 31.1472 29.4486 38.4103 29.4486V33.0848Z" fill="#052A75"/>
</g>
<defs>
<clipPath id="clip0_960_15039">
<rect width="28" height="28" fill="white" transform="translate(12.5 12)"/>
</clipPath>
</defs>
</svg>
