<svg width="16" height="16" viewBox="0 0 16 16" fill="none" xmlns="http://www.w3.org/2000/svg">
<path d="M12.9601 8.66662C12.8134 8.66662 12.6601 8.61995 12.5134 8.58662C12.2164 8.52117 11.9245 8.43428 11.6401 8.32662C11.3308 8.21411 10.9908 8.21995 10.6856 8.34303C10.3804 8.4661 10.1315 8.69771 9.98673 8.99329L9.84007 9.29329C9.19074 8.93207 8.59406 8.48344 8.06673 7.95995C7.54325 7.43263 7.09462 6.83595 6.7334 6.18662L7.0134 5.99995C7.30898 5.85523 7.54059 5.60631 7.66366 5.30108C7.78674 4.99585 7.79258 4.65589 7.68007 4.34662C7.57422 4.06157 7.48736 3.76982 7.42007 3.47329C7.38673 3.32662 7.36007 3.17329 7.34007 3.01995C7.25911 2.55037 7.01315 2.12511 6.64648 1.82078C6.27981 1.51644 5.81653 1.35303 5.34007 1.35995H3.34007C3.05275 1.35726 2.76823 1.4165 2.50587 1.53364C2.24351 1.65078 2.00947 1.82308 1.81969 2.03881C1.6299 2.25453 1.48882 2.50862 1.40606 2.78376C1.32329 3.05891 1.30079 3.34866 1.34007 3.63329C1.69523 6.42621 2.97075 9.02121 4.96517 11.0084C6.95958 12.9956 9.55921 14.2616 12.3534 14.6066H12.6067C13.0983 14.6073 13.573 14.427 13.9401 14.1C14.151 13.9113 14.3195 13.6801 14.4344 13.4215C14.5493 13.1629 14.608 12.8829 14.6067 12.6V10.6C14.5986 10.1369 14.4299 9.69099 14.1296 9.3384C13.8293 8.98581 13.4159 8.74837 12.9601 8.66662ZM13.2934 12.6666C13.2933 12.7613 13.273 12.8548 13.2339 12.941C13.1948 13.0272 13.1378 13.1041 13.0667 13.1666C12.9922 13.2309 12.9051 13.279 12.811 13.3077C12.7169 13.3364 12.6178 13.3451 12.5201 13.3333C10.0233 13.0132 7.70422 11.8709 5.92854 10.0868C4.15286 8.30268 3.02167 5.97818 2.7134 3.47995C2.70279 3.3823 2.71209 3.28351 2.74074 3.18955C2.76938 3.09559 2.81678 3.00841 2.88007 2.93329C2.94254 2.86217 3.01944 2.80518 3.10565 2.7661C3.19186 2.72702 3.28541 2.70674 3.38007 2.70662H5.38007C5.5351 2.70317 5.68648 2.75387 5.80816 2.85C5.92984 2.94613 6.01421 3.08167 6.04673 3.23329C6.0734 3.41551 6.10673 3.59551 6.14673 3.77329C6.22375 4.12472 6.32624 4.47007 6.4534 4.80662L5.52007 5.23995C5.44027 5.27657 5.36848 5.32858 5.30884 5.39302C5.2492 5.45745 5.20287 5.53303 5.17251 5.61542C5.14216 5.6978 5.12838 5.78537 5.13197 5.8731C5.13555 5.96083 5.15643 6.04698 5.1934 6.12662C6.15287 8.18179 7.8049 9.83382 9.86007 10.7933C10.0224 10.86 10.2044 10.86 10.3667 10.7933C10.4499 10.7635 10.5263 10.7176 10.5915 10.6581C10.6567 10.5986 10.7095 10.5267 10.7467 10.4466L11.1601 9.51329C11.5047 9.63654 11.8565 9.73895 12.2134 9.81995C12.3912 9.85995 12.5712 9.89329 12.7534 9.91995C12.905 9.95248 13.0406 10.0368 13.1367 10.1585C13.2328 10.2802 13.2835 10.4316 13.2801 10.5866L13.2934 12.6666Z" fill="white"/>
<path d="M13.2934 12.6666C13.2933 12.7613 13.273 12.8548 13.2339 12.941C13.1948 13.0272 13.1378 13.1041 13.0667 13.1666C12.9922 13.2309 12.9051 13.279 12.811 13.3077C12.7169 13.3364 12.6178 13.3451 12.5201 13.3333C10.0233 13.0132 7.70422 11.8709 5.92854 10.0868C4.15286 8.30268 3.02167 5.97818 2.7134 3.47995C2.70279 3.3823 2.71209 3.28351 2.74074 3.18955C2.76938 3.09559 2.81678 3.00841 2.88007 2.93329C2.94254 2.86217 3.01944 2.80518 3.10565 2.7661C3.19186 2.72702 3.28541 2.70674 3.38007 2.70662H5.38007C5.5351 2.70317 5.68648 2.75387 5.80816 2.85C5.92984 2.94613 6.01421 3.08167 6.04673 3.23329C6.0734 3.41551 6.10673 3.59551 6.14673 3.77329C6.22375 4.12472 6.32624 4.47007 6.4534 4.80662L5.52007 5.23995C5.44027 5.27657 5.36848 5.32858 5.30884 5.39302C5.2492 5.45745 5.20287 5.53303 5.17251 5.61542C5.14216 5.6978 5.12838 5.78537 5.13197 5.8731C5.13555 5.96083 5.15643 6.04698 5.1934 6.12662C6.15287 8.18179 7.8049 9.83382 9.86007 10.7933C10.0224 10.86 10.2044 10.86 10.3667 10.7933C10.4499 10.7635 10.5263 10.7176 10.5915 10.6581C10.6567 10.5986 10.7095 10.5267 10.7467 10.4466L11.1601 9.51329C11.5047 9.63654 11.8565 9.73895 12.2134 9.81995C12.3912 9.85995 12.5712 9.89329 12.7534 9.91995C12.905 9.95248 13.0406 10.0368 13.1367 10.1585C13.2328 10.2802 13.2835 10.4316 13.2801 10.5866L13.2934 12.6666Z" fill="white"/>
</svg>
