<svg width="53" height="52" viewBox="0 0 53 52" fill="none" xmlns="http://www.w3.org/2000/svg">
<rect x="1" y="0.5" width="51" height="51" rx="25.5" fill="white"/>
<rect x="1" y="0.5" width="51" height="51" rx="25.5" stroke="#EFEFEF"/>
<g clip-path="url(#clip0_960_16218)">
<path d="M13.0491 14.3425L14.8426 12.549L16.636 14.3425L18.4295 12.549L20.2229 14.3425L22.0164 12.549L23.8099 14.3425L25.6033 12.549L27.3968 14.3425L29.1902 12.549L30.9837 14.3425V35.8641C30.9837 37.8451 32.5898 39.451 34.5706 39.451H35.4674H16.636C14.6551 39.451 13.0491 37.8451 13.0491 35.8641C13.0491 29.1237 13.0491 14.3425 13.0491 14.3425Z" fill="white"/>
<path d="M17.7324 25.8019C17.7324 21.5659 18.3458 17.4733 19.4879 13.6075L18.4295 12.549L16.636 14.3425L14.8426 12.549L13.0491 14.3425C13.0491 14.3425 13.0491 29.1237 13.0491 35.8641C13.0491 37.8451 14.6551 39.451 16.636 39.451H19.9464C18.5108 35.1627 17.7324 30.5733 17.7324 25.8019Z" fill="#D2DCFD"/>
<path d="M25.6033 23.3098C25.6033 21.3288 23.9972 19.7229 22.0164 19.7229C20.0283 19.7295 18.4214 21.3223 18.4295 23.3394C18.4295 24.3136 18.4295 25.1033 18.4295 25.1033H25.6033L25.6033 23.3098Z" fill="#D2DCFD"/>
<path d="M34.5705 39.451C32.636 39.4835 30.9511 37.7984 30.9836 35.864C30.9836 31.1083 30.9836 23.3098 30.9836 23.3098L32.7771 25.1033L34.5705 23.3098L36.364 25.1033L38.1575 23.3098L39.9509 25.1033V35.8641C39.9509 37.8451 38.3449 39.451 36.364 39.451C35.7735 39.451 35.1611 39.451 34.5705 39.451Z" fill="#D2DCFD"/>
<path d="M27.3967 24.5543H26.1523V23.3098C26.1523 21.2155 24.5871 19.4809 22.5653 19.2114V18.8261C22.5653 18.5229 22.3195 18.2771 22.0163 18.2771C21.7131 18.2771 21.4673 18.5229 21.4673 18.8261V19.2114C19.4455 19.4809 17.8804 21.2155 17.8804 23.3098V24.5543H16.6359C15.9103 24.5819 15.9053 25.6224 16.6359 25.6523C17.779 25.6521 24.314 25.6524 25.6033 25.6523H27.3967C28.1217 25.6245 28.1283 24.585 27.3967 24.5543ZM18.9784 24.5543V23.3098C18.9784 21.6347 20.3412 20.2719 22.0163 20.2719C23.6915 20.2719 25.0542 21.6347 25.0542 23.3098V24.5543H18.9784Z" fill="#052A75"/>
<path d="M22.0163 31.7281H16.6359C16.3328 31.7281 16.0869 31.9739 16.0869 32.2772C16.0869 32.5804 16.3328 32.8262 16.6359 32.8262H22.0163C22.7431 32.798 22.7458 31.7575 22.0163 31.7281Z" fill="#052A75"/>
<path d="M27.3967 31.7281H25.6032C24.8755 31.7569 24.8747 32.7972 25.6032 32.8262H27.3967C28.1244 32.7975 28.1252 31.7571 27.3967 31.7281Z" fill="#052A75"/>
<path d="M22.0163 28.1412H16.6359C16.3328 28.1412 16.0869 28.387 16.0869 28.6902C16.0869 28.9934 16.3328 29.2392 16.6359 29.2392H22.0163C22.7431 29.211 22.7458 28.1706 22.0163 28.1412Z" fill="#052A75"/>
<path d="M22.0163 35.3151H16.6359C16.3328 35.3151 16.0869 35.5609 16.0869 35.8641C16.0869 36.1673 16.3328 36.4131 16.6359 36.4131H22.0163C22.7431 36.3849 22.7458 35.3444 22.0163 35.3151Z" fill="#052A75"/>
<path d="M27.3967 28.1412H25.6032C24.8755 28.1699 24.8747 29.2102 25.6032 29.2392H27.3967C28.1244 29.2105 28.1252 28.1702 27.3967 28.1412Z" fill="#052A75"/>
<path d="M27.3967 35.3151H25.6032C24.8755 35.3438 24.8747 36.3841 25.6032 36.4131H27.3967C28.1244 36.3844 28.1252 35.3441 27.3967 35.3151Z" fill="#052A75"/>
<path d="M40.3392 24.715L38.5457 22.9215C38.4427 22.8186 38.3031 22.7607 38.1575 22.7607C38.0119 22.7607 37.8723 22.8186 37.7693 22.9215L36.3641 24.3268L34.9588 22.9215C34.7444 22.7071 34.3968 22.7071 34.1823 22.9215L32.7771 24.3268L31.5326 23.0823V14.3425C31.5326 14.1969 31.4748 14.0572 31.3718 13.9543L29.5784 12.1608C29.364 11.9464 29.0164 11.9464 28.8019 12.1608L27.3967 13.5661L25.9915 12.1608C25.8885 12.0579 25.7489 12 25.6033 12C25.4577 12 25.3181 12.0579 25.2151 12.1608L23.8098 13.5661L22.4045 12.1608C22.3015 12.0579 22.162 12 22.0163 12C21.8707 12 21.7311 12.0579 21.6281 12.1608L20.2229 13.566L18.8176 12.1608C18.6032 11.9464 18.2556 11.9464 18.0411 12.1608L16.6359 13.5661L15.2307 12.1608C15.1277 12.0579 14.9881 12 14.8425 12C14.6969 12 14.5573 12.0579 14.4543 12.1608L12.6608 13.9542C12.5579 14.0572 12.5 14.1968 12.5 14.3425V35.8641C12.5 38.1446 14.3554 40 16.6359 40H34.5706H35.4673H36.3641C38.6446 40 40.5 38.1446 40.5 35.8641V25.1033C40.5 24.9576 40.4421 24.818 40.3392 24.715ZM16.6359 38.902C14.9608 38.902 13.598 37.5392 13.598 35.8641V14.5699L14.8425 13.3254L16.2477 14.7307C16.3507 14.8336 16.4903 14.8915 16.6359 14.8915C16.7815 14.8915 16.9211 14.8336 17.0241 14.7307L18.4294 13.3254L19.8347 14.7307C19.9377 14.8337 20.0773 14.8915 20.2229 14.8915C20.3685 14.8915 20.5081 14.8337 20.6111 14.7307L22.0163 13.3255L23.4216 14.7308C23.636 14.9452 23.9836 14.9452 24.1981 14.7308L25.6033 13.3255L27.0086 14.7307C27.1116 14.8337 27.2512 14.8915 27.3968 14.8915C27.5424 14.8915 27.682 14.8337 27.785 14.7307L29.1902 13.3254L30.4347 14.5699C30.4561 19.8485 30.3929 30.9453 30.4575 36.2981C30.5604 37.2873 31.0205 38.219 31.765 38.902H16.6359V38.902ZM39.402 35.8641C39.402 37.5392 38.0392 38.902 36.3641 38.902H35.4673C35.2285 38.8983 34.4807 38.9141 34.2569 38.8858C32.7859 38.7375 31.6189 37.5181 31.5383 36.0414C31.5339 35.9825 31.533 35.9236 31.5327 35.8641V24.6353L32.3889 25.4915C32.5934 25.7042 32.9609 25.7042 33.1654 25.4915L34.5706 24.0862L35.9759 25.4915C36.0789 25.5944 36.2185 25.6523 36.3641 25.6523C36.5097 25.6523 36.6493 25.5944 36.7523 25.4915L38.1576 24.0863L39.402 25.3307V35.8641Z" fill="#052A75"/>
</g>
<defs>
<clipPath id="clip0_960_16218">
<rect width="28" height="28" fill="white" transform="translate(12.5 12)"/>
</clipPath>
</defs>
</svg>
