<svg width="40" height="40" viewBox="0 0 40 40" fill="none" xmlns="http://www.w3.org/2000/svg">
<g clip-path="url(#clip0_770_29063)">
<path fill-rule="evenodd" clip-rule="evenodd" d="M20 36C16.8355 36 13.7421 35.0616 11.1109 33.3035C8.4797 31.5454 6.42894 29.0465 5.21794 26.1229C4.00693 23.1993 3.69008 19.9822 4.30744 16.8785C4.92481 13.7749 6.44866 10.9239 8.6863 8.68629C10.9239 6.44865 13.7749 4.9248 16.8786 4.30743C19.9823 3.69007 23.1993 4.00692 26.1229 5.21793C29.0466 6.42893 31.5454 8.47969 33.3035 11.1109C35.0616 13.7421 36 16.8355 36 20C36 24.2435 34.3143 28.3131 31.3137 31.3137C28.3131 34.3143 24.2435 36 20 36ZM16.86 22.18L25.44 13.58C25.8147 13.2075 26.3216 12.9984 26.85 12.9984C27.3784 12.9984 27.8853 13.2075 28.26 13.58C28.4475 13.7659 28.5963 13.9871 28.6978 14.2308C28.7993 14.4746 28.8516 14.736 28.8516 15C28.8516 15.264 28.7993 15.5254 28.6978 15.7691C28.5963 16.0129 28.4475 16.2341 28.26 16.42L18.26 26.42C17.8875 26.7895 17.3847 26.9978 16.86 27C16.5968 27.0015 16.3359 26.9511 16.0922 26.8515C15.8485 26.752 15.6269 26.6054 15.44 26.42L10.74 21.7C10.5306 21.5207 10.3606 21.3001 10.2406 21.0519C10.1205 20.8038 10.053 20.5335 10.0424 20.2581C10.0318 19.9827 10.0782 19.708 10.1787 19.4513C10.2793 19.1947 10.4318 18.9616 10.6267 18.7667C10.8216 18.5718 11.0547 18.4193 11.3114 18.3187C11.568 18.2182 11.8427 18.1718 12.1181 18.1824C12.3936 18.193 12.6638 18.2605 12.9119 18.3805C13.1601 18.5006 13.3807 18.6706 13.56 18.88L16.86 22.18Z" fill="#FFA31F"/>
<path fill-rule="evenodd" clip-rule="evenodd" d="M8.8886 3.37061C12.1776 1.17298 16.0444 0 20 0C22.6264 0 25.2272 0.517315 27.6537 1.52241C30.0802 2.5275 32.285 4.00069 34.1421 5.85786C35.9993 7.71503 37.4725 9.91982 38.4776 12.3463C39.4827 14.7728 40 17.3736 40 20C40 23.9556 38.827 27.8224 36.6294 31.1114C34.4318 34.4004 31.3082 36.9638 27.6537 38.4776C23.9992 39.9913 19.9778 40.3874 16.0982 39.6157C12.2186 38.844 8.65492 36.9392 5.85787 34.1421C3.06082 31.3451 1.15601 27.7814 0.384303 23.9018C-0.387401 20.0222 0.00866568 16.0008 1.52242 12.3463C3.03617 8.69181 5.59962 5.56823 8.8886 3.37061ZM11.1109 33.3035C13.7421 35.0616 16.8355 36 20 36C24.2435 36 28.3131 34.3143 31.3137 31.3137C34.3143 28.3131 36 24.2435 36 20C36 16.8355 35.0616 13.7421 33.3035 11.1109C31.5454 8.47969 29.0466 6.42893 26.1229 5.21793C23.1993 4.00692 19.9823 3.69007 16.8786 4.30743C13.7749 4.9248 10.9239 6.44865 8.6863 8.68629C6.44866 10.9239 4.92481 13.7749 4.30744 16.8785C3.69008 19.9822 4.00693 23.1993 5.21794 26.1229C6.42894 29.0465 8.4797 31.5454 11.1109 33.3035Z" fill="#FFA31F"/>
</g>
<defs>
<clipPath id="clip0_770_29063">
<rect width="40" height="40" fill="white"/>
</clipPath>
</defs>
</svg>
