<svg width="53" height="52" viewBox="0 0 53 52" fill="none" xmlns="http://www.w3.org/2000/svg">
<rect x="1" y="0.5" width="51" height="51" rx="25.5" fill="white"/>
<rect x="1" y="0.5" width="51" height="51" rx="25.5" stroke="#EFEFEF"/>
<g clip-path="url(#clip0_960_15178)">
<path d="M25.3855 18.4647C25.1957 18.4647 25.0112 18.3662 24.9095 18.1901C24.5183 17.5124 24.7124 16.9063 24.8541 16.4637C24.9808 16.0681 25.0354 15.867 24.8935 15.6212C24.7419 15.3586 24.8319 15.0228 25.0945 14.8713C25.3571 14.7196 25.6928 14.8096 25.8444 15.0722C26.2357 15.7499 26.0416 16.356 25.8998 16.7986C25.7731 17.1942 25.7185 17.3953 25.8604 17.6411C26.012 17.9037 25.9221 18.2394 25.6595 18.391C25.573 18.4409 25.4786 18.4647 25.3855 18.4647Z" fill="#FDCB50"/>
<path d="M22.6403 18.4647C22.4506 18.4647 22.2661 18.3662 22.1644 18.1901C21.7732 17.5124 21.9672 16.9063 22.109 16.4637C22.2357 16.0681 22.2903 15.867 22.1484 15.6212C21.9967 15.3586 22.0867 15.0228 22.3493 14.8713C22.6119 14.7196 22.9476 14.8096 23.0993 15.0722C23.4905 15.7499 23.2964 16.356 23.1547 16.7986C23.0279 17.1942 22.9734 17.3953 23.1153 17.6411C23.2669 17.9037 23.1769 18.2394 22.9143 18.391C22.8279 18.4409 22.7334 18.4647 22.6403 18.4647Z" fill="#FDCB50"/>
<path d="M28.1306 18.4647C27.9408 18.4647 27.7563 18.3662 27.6546 18.1901C27.2634 17.5124 27.4575 16.9063 27.5992 16.4637C27.7259 16.0681 27.7805 15.867 27.6386 15.6212C27.487 15.3586 27.577 15.0228 27.8396 14.8713C28.1022 14.7196 28.4379 14.8096 28.5895 15.0722C28.9808 15.7499 28.7867 16.356 28.6449 16.7986C28.5182 17.1942 28.4637 17.3953 28.6055 17.6411C28.7572 17.9037 28.6672 18.2394 28.4046 18.391C28.3181 18.4409 28.2237 18.4647 28.1306 18.4647Z" fill="#FDCB50"/>
<path fill-rule="evenodd" clip-rule="evenodd" d="M34.0186 19.1923L36.1581 20.4276L37.5172 18.0735C41.4135 17.8297 39.9004 14.2257 38.0206 14.7299C37.517 12.8484 33.6445 13.3379 35.3789 16.836L34.0186 19.1923Z" fill="white"/>
<path fill-rule="evenodd" clip-rule="evenodd" d="M14.9594 26.0914C13.7966 27.7318 13.0803 29.6776 13.0803 31.8352C13.0803 33.7425 14.29 35.1714 15.7579 35.8824H37.1196C39.0696 35.2282 39.951 33.8436 39.951 32.647C39.951 30.2896 38.1676 29.9167 37.009 28.4234C34.4187 25.8332 32.869 22.1915 28.3888 20.991C27.4981 20.7963 26.5023 20.6805 25.3849 20.6607C21.5804 20.6607 17.3367 22.7377 14.9594 26.0914Z" fill="#F7B073"/>
<path fill-rule="evenodd" clip-rule="evenodd" d="M37.1197 35.8824H15.758H13.0491V37.1176C13.0491 37.7971 13.6017 38.3529 14.2771 38.3529H38.723C39.3984 38.3529 39.951 37.7971 39.951 37.1176V35.8824H37.1197Z" fill="#D2DCFD"/>
<path fill-rule="evenodd" clip-rule="evenodd" d="M14.9594 26.0914C13.7966 27.7318 13.0803 29.6776 13.0803 31.8352C13.0803 33.7425 14.29 35.1714 15.7579 35.8824H20.5618C18.4047 32.9006 17.1323 29.2367 17.1323 25.2752C17.1323 24.7472 17.1562 24.225 17.2004 23.7085C16.3509 24.4032 15.5896 25.2024 14.9594 26.0914Z" fill="#D46B5C"/>
<path fill-rule="evenodd" clip-rule="evenodd" d="M25.9701 23.4587C26.5815 22.3985 27.4261 21.5642 28.3889 20.991C27.4982 20.7963 26.5024 20.6805 25.385 20.6607C21.5805 20.6607 17.3368 22.7377 14.9595 26.0914C15.9715 26.3065 16.1465 27.581 17.3284 27.581C18.6192 27.581 18.7089 26.0608 19.9999 26.0608C21.2908 26.0608 21.3805 27.581 22.6713 27.581C23.8731 27.581 24.0338 26.2635 25.0917 26.0815C25.1986 25.1901 25.4869 24.2966 25.9701 23.4587Z" fill="#FDE0BE"/>
<path fill-rule="evenodd" clip-rule="evenodd" d="M17.2005 23.7084C16.351 24.4031 15.5896 25.2024 14.9595 26.0914C15.9568 26.3034 16.1412 27.5442 17.2777 27.5802C17.1818 26.8253 17.1324 26.0561 17.1324 25.2752C17.1324 24.7472 17.1563 24.225 17.2005 23.7084Z" fill="#F7B073"/>
<path fill-rule="evenodd" clip-rule="evenodd" d="M36.1581 20.4276L34.0185 19.1923L33.0406 18.6278L32.1808 20.117C30.8794 19.9887 29.5484 20.3005 28.3889 20.9909C27.4261 21.5642 26.5814 22.3985 25.97 23.4587C25.4869 24.2966 25.1986 25.1901 25.0917 26.0815C24.8012 28.5055 25.8524 30.9133 27.9762 32.141C30.8811 33.8201 34.6928 32.6553 36.4896 29.5393C36.699 29.1762 36.8718 28.8027 37.0091 28.4234C37.7555 26.3611 37.4524 24.1286 36.2749 22.4834L37.1358 20.9921L36.1581 20.4276Z" fill="#F7B073"/>
<path d="M39.951 35.3333H39.196C40.1323 34.497 40.5 33.4627 40.5 32.647C40.5 30.7893 39.5289 29.9793 38.5899 29.1961C38.2613 28.9221 37.9228 28.6397 37.6271 28.308C38.2518 26.3204 38.0103 24.1737 36.9218 22.4609L37.6113 21.2666C37.763 21.004 37.673 20.6683 37.4104 20.5167L36.908 20.2266L37.8496 18.5958C39.5529 18.407 40.1468 17.5864 40.3508 17.0963C40.6508 16.3759 40.4855 15.5003 39.9297 14.8655C39.5074 14.3832 38.9448 14.1252 38.3659 14.1321C38.0809 13.6253 37.5773 13.2675 36.9483 13.1427C36.1224 12.979 35.2831 13.2728 34.8097 13.8913C34.4871 14.313 34.0727 15.2376 34.7605 16.809L33.8176 18.4423L33.3151 18.1523C33.0525 18.0007 32.7168 18.0906 32.5652 18.3532L31.8769 19.5452C30.623 19.4913 29.3876 19.8017 28.2945 20.4101C27.4022 20.2304 26.427 20.13 25.3947 20.1117C25.3915 20.1116 25.3882 20.1116 25.385 20.1116C22.4262 20.1116 19.2007 21.327 16.7568 23.3627C14.0319 25.6325 12.5313 28.6414 12.5313 31.8352C12.5313 33.1733 13.069 34.4027 14.0214 35.3333H13.049C12.7458 35.3333 12.5 35.5791 12.5 35.8824V37.1176C12.5 38.1015 13.2972 38.902 14.2771 38.902H38.7229C39.7028 38.902 40.5 38.1015 40.5 37.1176V35.8824C40.5 35.5791 40.2541 35.3333 39.951 35.3333ZM35.8543 17.1105C35.9462 16.9513 35.9524 16.7568 35.8707 16.5921C35.4283 15.6997 35.3611 14.9776 35.6817 14.5587C35.9027 14.2698 36.3161 14.1368 36.7346 14.2199C36.9191 14.2565 37.3621 14.3932 37.4902 14.8719C37.5278 15.0126 37.6198 15.1326 37.746 15.2055C37.8722 15.2783 38.0221 15.2981 38.1628 15.2603C38.6401 15.1324 38.9797 15.4475 39.1035 15.5889C39.3858 15.9113 39.4775 16.3373 39.3371 16.6743C39.1344 17.1612 38.4759 17.4635 37.4829 17.5256C37.2993 17.5371 37.1336 17.6397 37.0417 17.799L35.957 19.6777L34.7683 18.9914L35.8543 17.1105ZM32.1269 20.6633C32.341 20.6847 32.5484 20.5782 32.6562 20.3914L33.2415 19.3777L36.3859 21.1931L35.7994 22.2089C35.6917 22.3954 35.7031 22.6277 35.8284 22.8029C37.1445 24.6417 37.2174 27.1782 36.014 29.2649C35.1874 30.6983 33.8318 31.7567 32.295 32.1685C30.8965 32.5433 29.4603 32.3646 28.2509 31.6656C25.6125 30.1405 24.8027 26.5819 26.4456 23.7329C27.554 21.811 29.5334 20.6372 31.5958 20.6372C31.7723 20.6372 31.9496 20.6459 32.1269 20.6633ZM13.6293 31.8352C13.6293 25.7556 19.8324 21.2125 25.3803 21.2097C25.9463 21.2199 26.4926 21.2562 27.0144 21.3181C26.4235 21.8416 25.9069 22.469 25.4944 23.1845C23.5492 26.5575 24.5393 30.7886 27.7014 32.6163C28.6663 33.1741 29.7481 33.4587 30.8553 33.4587C31.4273 33.4587 32.0062 33.3827 32.5791 33.2292C34.3954 32.7426 35.994 31.4976 36.9652 29.8135C37.04 29.6838 37.1107 29.5524 37.1771 29.4198C37.4117 29.6433 37.6515 29.8432 37.8866 30.0394C38.7332 30.7455 39.402 31.3033 39.402 32.647C39.402 33.502 38.7793 34.7149 37.0277 35.3333H15.8876C14.4725 34.6028 13.6293 33.2986 13.6293 31.8352ZM39.402 37.1177C39.402 37.4961 39.0974 37.804 38.7229 37.804H14.2771C13.9026 37.8039 13.598 37.4961 13.598 37.1177V36.4314H39.402V37.1177Z" fill="#052A75"/>
</g>
<defs>
<clipPath id="clip0_960_15178">
<rect width="28" height="28" fill="white" transform="translate(12.5 12)"/>
</clipPath>
</defs>
</svg>
