<svg width="53" height="52" viewBox="0 0 53 52" fill="none" xmlns="http://www.w3.org/2000/svg">
<rect x="1" y="0.5" width="51" height="51" rx="25.5" fill="white"/>
<rect x="1" y="0.5" width="51" height="51" rx="25.5" stroke="#EFEFEF"/>
<path fill-rule="evenodd" clip-rule="evenodd" d="M16.6161 13.9199C17.2957 13.9199 17.8516 14.4758 17.8516 15.1554C17.8516 14.4758 18.4076 13.9199 19.0871 13.9199C19.7667 13.9199 20.3226 14.4758 20.3226 15.1554C20.3226 14.4758 20.8786 13.9199 21.5581 13.9199C22.2377 13.9199 22.7936 14.4758 22.7936 15.1554V29.0461H20.3226H17.8516H15.3806V15.1554C15.3806 14.4758 15.9366 13.9199 16.6161 13.9199Z" fill="#A84830"/>
<path fill-rule="evenodd" clip-rule="evenodd" d="M19.0868 13.9199C19.7664 13.9199 20.3223 14.4758 20.3223 15.1553V29.0461H17.8513V15.1553C17.8513 14.4758 18.4073 13.9199 19.0868 13.9199Z" fill="#722815"/>
<path fill-rule="evenodd" clip-rule="evenodd" d="M36.1093 16.0063C36.9395 15.9808 37.6193 16.6858 37.6193 17.5163C37.6193 18.3469 36.9395 19.0519 36.1093 19.0264L25.5165 18.7518C25.1925 19.4824 24.7148 19.8775 24.0339 19.8775H22.7935V15.1552H24.0339C24.7148 15.1552 25.1925 15.5502 25.5165 16.2808L36.1093 16.0063Z" fill="#D2DCFD"/>
<path fill-rule="evenodd" clip-rule="evenodd" d="M21.558 32.3148H13.0469C13.0469 33.6739 14.1588 34.7858 15.5178 34.7858H37.4821C38.8412 34.7858 39.9531 33.6739 39.9531 32.3148H31.4419H28.9709H26.5H24.029H21.558Z" fill="white"/>
<path fill-rule="evenodd" clip-rule="evenodd" d="M37.4819 34.7859H15.5176L16.6158 36.9824C16.9367 37.6242 17.419 38.0806 18.373 38.0806H34.6265C35.5805 38.0806 36.0628 37.6243 36.3837 36.9824L37.4819 34.7859Z" fill="white"/>
<path fill-rule="evenodd" clip-rule="evenodd" d="M19.087 32.3148H14.145C14.145 29.5855 16.3576 27.3728 19.087 27.3728C21.8164 27.3728 24.0289 29.5855 24.0289 32.3148H19.087Z" fill="#A84830"/>
<path fill-rule="evenodd" clip-rule="evenodd" d="M19.087 32.3147H21.558C21.558 30.9501 20.4517 29.8437 19.087 29.8437C17.7223 29.8437 16.616 30.95 16.616 32.3147H19.087Z" fill="#722815"/>
<path fill-rule="evenodd" clip-rule="evenodd" d="M33.9131 32.3148H28.9712C28.9712 29.5855 31.1838 27.3728 33.9131 27.3728C36.6425 27.3728 38.8551 29.5855 38.8551 32.3148H33.9131Z" fill="#A84830"/>
<path fill-rule="evenodd" clip-rule="evenodd" d="M33.9131 32.3147H36.3841C36.3841 30.9501 35.2779 29.8437 33.9131 29.8437C32.5485 29.8437 31.4421 30.95 31.4421 32.3147H33.9131Z" fill="#722815"/>
<path fill-rule="evenodd" clip-rule="evenodd" d="M26.5001 32.3148H21.5581C21.5581 29.5855 23.7707 27.3728 26.5001 27.3728C29.2294 27.3728 31.442 29.5855 31.442 32.3148H26.5001Z" fill="#A84830"/>
<path fill-rule="evenodd" clip-rule="evenodd" d="M26.4998 32.3147H28.9708C28.9708 30.9501 27.8645 29.8437 26.4998 29.8437C25.1351 29.8437 24.0288 30.95 24.0288 32.3147H26.4998Z" fill="#722815"/>
<path fill-rule="evenodd" clip-rule="evenodd" d="M22.9943 34.7858C22.807 33.9872 22.6907 33.1612 22.6527 32.3148H21.558H19.087H16.6161H14.1451H13.0469C13.0469 33.6739 14.1588 34.7858 15.5178 34.7858H22.9943Z" fill="#D2DCFD"/>
<path fill-rule="evenodd" clip-rule="evenodd" d="M22.994 34.7859H15.5176L16.6158 36.9824C16.9367 37.6242 17.419 38.0806 18.373 38.0806H24.2443C23.691 37.0551 23.267 35.9496 22.994 34.7859Z" fill="#D2DCFD"/>
<path d="M40.5 32.3147C40.5 32.0127 40.2552 31.7678 39.9531 31.7678H39.3746C39.2465 30.4739 38.6687 29.2769 37.7258 28.3664C36.6971 27.373 35.343 26.8259 33.9129 26.8259C32.5428 26.8259 31.213 27.3467 30.2066 28.2665C29.1918 27.3364 27.8814 26.8259 26.5 26.8259C25.3555 26.8259 24.2597 27.1763 23.3404 27.8255V20.4243H24.034C24.5834 20.4243 25.318 20.2207 25.8471 19.3075L36.0925 19.573C36.6279 19.5896 37.1405 19.3887 37.5335 19.0076C37.9356 18.6177 38.1663 18.0741 38.1663 17.5163C38.1663 16.9585 37.9356 16.415 37.5335 16.025C37.1405 15.6439 36.6299 15.4438 36.0951 15.4596L25.8471 15.7252C25.3179 14.8119 24.5833 14.6083 24.0339 14.6083H23.2545C23.0231 13.8922 22.3501 13.3728 21.5579 13.3728C21.0787 13.3728 20.6431 13.5629 20.3224 13.8716C20.0018 13.5629 19.5662 13.3728 19.0869 13.3728C18.6077 13.3728 18.1721 13.5629 17.8514 13.8716C17.5308 13.5629 17.0952 13.3728 16.6159 13.3728C15.6332 13.3728 14.8336 14.1724 14.8336 15.1551V28.8445C14.1512 29.6785 13.7321 30.6895 13.6252 31.7679H13.0469C12.7448 31.7679 12.5 32.0127 12.5 32.3148C12.5 33.8612 13.6691 35.1396 15.1698 35.3127L16.1269 37.2267C16.5981 38.1691 17.3328 38.6272 18.3732 38.6272H34.6267C35.667 38.6272 36.4018 38.1691 36.873 37.2267L37.83 35.3127C39.3309 35.1395 40.5 33.8611 40.5 32.3147ZM38.2743 31.7678H31.9617C31.8647 30.7895 31.5109 29.8667 30.9365 29.0812C31.7433 28.3397 32.8118 27.9196 33.9129 27.9196C36.16 27.9196 38.0053 29.5805 38.2743 31.7678ZM26.5 27.9196C28.7471 27.9196 30.5924 29.5805 30.8614 31.7678H22.1386C22.4076 29.5805 24.2529 27.9196 26.5 27.9196ZM25.0166 16.5025C25.1064 16.7049 25.3076 16.8344 25.5307 16.8274L36.1261 16.5529C36.3642 16.546 36.5934 16.6369 36.7721 16.8102C36.963 16.9953 37.0725 17.2527 37.0725 17.5163C37.0725 17.7799 36.963 18.0372 36.7721 18.2224C36.5934 18.3957 36.3643 18.4866 36.1235 18.4797L25.5307 18.2051C25.3088 18.1986 25.1064 18.3277 25.0166 18.5301C24.702 19.2396 24.3262 19.3306 24.034 19.3306H23.3404V15.702H24.034C24.3262 15.702 24.702 15.793 25.0166 16.5025ZM16.6161 14.4665C16.9957 14.4665 17.3047 14.7754 17.3047 15.1551C17.3047 15.4572 17.5495 15.702 17.8516 15.702C18.1536 15.702 18.3984 15.4572 18.3984 15.1551C18.3984 14.7755 18.7073 14.4665 19.0871 14.4665C19.4668 14.4665 19.7757 14.7754 19.7757 15.1551C19.7757 15.4572 20.0205 15.702 20.3226 15.702C20.6246 15.702 20.8694 15.4572 20.8694 15.1551C20.8694 14.7755 21.1783 14.4665 21.5581 14.4665C21.9378 14.4665 22.2467 14.7754 22.2467 15.1551V27.8278C21.3283 27.183 20.2215 26.826 19.0871 26.826C17.9427 26.826 16.8468 27.1763 15.9275 27.8255V15.1551C15.9274 14.7754 16.2364 14.4665 16.6161 14.4665ZM19.0871 27.9196C20.1882 27.9196 21.2567 28.3397 22.0635 29.0812C21.4891 29.8667 21.1353 30.7895 21.0383 31.7678H14.7256C14.9947 29.5805 16.84 27.9196 19.0871 27.9196ZM35.8948 36.7376C35.6559 37.2153 35.3489 37.5335 34.6268 37.5335H18.3732C17.6511 37.5335 17.3441 37.2153 17.1052 36.7376L16.4027 35.3326H36.5972L35.8948 36.7376ZM37.4919 34.2388C37.4852 34.2387 37.4785 34.2387 37.4719 34.2388H15.5268C15.5209 34.2387 15.515 34.2387 15.5091 34.2388C14.6419 34.2349 13.9083 33.6543 13.6729 32.8616H39.3271C39.0917 33.654 38.3587 34.2345 37.4919 34.2388Z" fill="#052A75"/>
</svg>
