<svg width="53" height="52" viewBox="0 0 53 52" fill="none" xmlns="http://www.w3.org/2000/svg">
<rect x="1" y="0.5" width="51" height="51" rx="25.5" fill="white"/>
<rect x="1" y="0.5" width="51" height="51" rx="25.5" stroke="#EFEFEF"/>
<path d="M33.487 26.2677L32.6235 27.1312C32.203 27.5517 31.6711 27.7928 31.1228 27.8547C30.4514 27.9305 29.8232 28.2234 29.3454 28.7012L18.9925 39.0541C18.4702 39.5765 17.6026 39.5891 17.0902 39.0569C16.5936 38.5411 16.5995 37.7202 17.1081 37.2117L27.4819 26.8377C27.9597 26.3599 28.2526 25.7317 28.3284 25.0603C28.3903 24.512 28.6314 23.9801 29.0519 23.5596L29.9154 22.6961L33.487 26.2677Z" fill="#93B2F4"/>
<path d="M17.0761 20.5844L33.6934 37.2016C34.208 37.7162 34.208 38.5505 33.6934 39.0651C33.1788 39.5797 32.3445 39.5797 31.8299 39.0651L23.802 31.0371C22.6037 30.8369 21.4978 30.2676 20.6387 29.4085L18.2265 26.9962C16.54 25.3098 16.081 22.7519 17.0761 20.5844Z" fill="#D2DCFD"/>
<path d="M30.4927 13.6018C29.0891 12.1981 26.8133 12.1981 25.4097 13.6018C24.0061 12.1981 21.7303 12.1981 20.3266 13.6018C18.923 15.0054 18.923 17.2811 20.3266 18.6848L25.4097 23.7678L30.4927 18.6848C31.8964 17.2811 31.8964 15.0054 30.4927 13.6018Z" fill="#FD7DA0"/>
<path d="M23.0277 14.3631C23.0277 13.7445 23.1041 13.1439 23.2471 12.5696C22.2054 12.4598 21.125 12.8034 20.3266 13.6018C18.923 15.0054 18.923 17.2812 20.3266 18.6848L25.4097 23.7678L27.8698 21.3077C25.0435 20.267 23.0277 17.5505 23.0277 14.3631Z" fill="#DB4B86"/>
<path d="M31.1845 28.4002C31.8724 28.3227 32.5214 28.0098 33.0118 27.5194L36.8332 23.6981C37.0476 23.4837 37.0476 23.136 36.8332 22.9216C36.6188 22.7072 36.2712 22.7072 36.0567 22.9216L33.4871 25.4912L32.4777 24.4818L35.0474 21.9122C35.2618 21.6978 35.2618 21.3502 35.0474 21.1357C34.8329 20.9214 34.4854 20.9214 34.2709 21.1357L31.7013 23.7054L30.6919 22.696L33.2616 20.1264C33.476 19.912 33.476 19.5644 33.2616 19.3499C33.0471 19.1356 32.6996 19.1356 32.4851 19.3499L28.6637 23.1713C28.1733 23.6617 27.8605 24.3107 27.7828 24.9986C27.7204 25.5523 27.4756 26.0675 27.0937 26.4494L25.4056 28.1375L17.4643 20.1961C17.3373 20.0691 17.1559 20.012 16.9791 20.0439C16.8022 20.0757 16.6521 20.192 16.5771 20.3553C16.0419 21.5212 15.8788 22.805 16.1053 24.0677C16.3319 25.3304 16.9311 26.4774 17.8382 27.3844L20.2505 29.7967C20.858 30.4042 21.5696 30.8751 22.3504 31.1929L16.72 36.8235C16.0058 37.5376 15.9945 38.7103 16.6948 39.4377C17.0392 39.7955 17.5071 39.9951 18.012 39.9999C18.018 40 18.0239 40 18.0298 40C18.5343 40 19.0259 39.7973 19.3808 39.4423L25.4057 33.4174L31.4416 39.4533C31.8055 39.8172 32.2835 39.9991 32.7615 39.9991C33.2395 39.9991 33.7175 39.8172 34.0815 39.4533C34.8093 38.7254 34.8093 37.5412 34.0815 36.8134L28.0456 30.7774L29.7336 29.0893C30.1156 28.7074 30.6308 28.4627 31.1845 28.4002ZM18.6044 38.6659C18.4542 38.8161 18.2453 38.9019 18.0302 38.9019C18.0276 38.9019 18.025 38.9019 18.0224 38.9019C17.8147 38.9 17.6242 38.8198 17.4859 38.6761C17.1976 38.3768 17.2024 37.894 17.4965 37.5999L23.5424 31.5539L24.6293 32.6408L18.6044 38.6659ZM33.3052 38.6768C33.0055 38.9765 32.5178 38.9764 32.2181 38.6768L24.1902 30.6489C24.1093 30.568 24.0052 30.5144 23.8924 30.4956C22.8006 30.3132 21.8097 29.8031 21.027 29.0203L18.6148 26.608C17.2927 25.286 16.8056 23.3468 17.2951 21.5798L33.3052 37.5898C33.6048 37.8895 33.6048 38.3771 33.3052 38.6768ZM27.2692 30.001L26.1822 28.914L27.8703 27.2259C28.4273 26.6689 28.7838 25.9215 28.874 25.1218C28.9246 24.6736 29.1204 24.2676 29.4402 23.9478L29.9155 23.4725L32.7106 26.2677L32.2353 26.7429C31.9155 27.0628 31.5095 27.2586 31.0613 27.3091C30.2616 27.3994 29.5143 27.7558 28.9572 28.3128L27.2692 30.001Z" fill="#052A75"/>
<path d="M25.0214 24.1561C25.1286 24.2632 25.2691 24.3169 25.4096 24.3169C25.5501 24.3169 25.6906 24.2632 25.7978 24.1561L30.8808 19.073C32.4962 17.4575 32.4962 14.829 30.8808 13.2135H30.8808C30.0983 12.431 29.0579 12 27.9512 12C27.0187 12 26.1331 12.306 25.4094 12.8705C23.7854 11.6075 21.4301 11.7219 19.9384 13.2135C18.3229 14.829 18.3229 17.4575 19.9384 19.073L25.0214 24.1561ZM20.7148 13.99C21.3085 13.3963 22.0883 13.0995 22.8681 13.0995C23.6479 13.0995 24.4277 13.3963 25.0214 13.99C25.2359 14.2043 25.5834 14.2043 25.7979 13.99C26.9853 12.8026 28.9171 12.8026 30.1045 13.99C31.2918 15.1773 31.2918 17.1092 30.1045 18.2965L25.4096 22.9914L20.7148 18.2965C19.5274 17.1093 19.5274 15.1773 20.7148 13.99Z" fill="#052A75"/>
</svg>
