<svg width="53" height="52" viewBox="0 0 53 52" fill="none" xmlns="http://www.w3.org/2000/svg">
<rect x="1" y="0.5" width="51" height="51" rx="25.5" fill="white"/>
<rect x="1" y="0.5" width="51" height="51" rx="25.5" stroke="#EFEFEF"/>
<g clip-path="url(#clip0_960_14761)">
<path fill-rule="evenodd" clip-rule="evenodd" d="M26.4999 19.9788C27.5583 19.9788 28.4215 19.1156 28.4215 18.0572C28.4215 16.9994 27.5593 16.1366 26.5017 16.1356C26.5011 16.1356 26.5005 16.1356 26.4999 16.1356C25.4415 16.1356 24.5784 16.9988 24.5784 18.0572C24.5784 19.1156 25.4416 19.9788 26.4999 19.9788Z" fill="#FD6050"/>
<path fill-rule="evenodd" clip-rule="evenodd" d="M33.659 31.0369C33.659 26.091 29.4707 20.0317 24.304 20.0317C19.1373 20.0317 14.949 26.091 14.949 31.0369C14.949 33.7787 16.2262 34.8886 18.2503 35.3334H23.0518H30.3576C32.3817 34.8886 33.659 33.7787 33.659 31.0369Z" fill="#F7B073"/>
<path fill-rule="evenodd" clip-rule="evenodd" d="M24.304 20.0317C29.4706 20.0317 33.659 26.091 33.659 31.0369C33.659 33.7787 32.3817 34.8886 30.3576 35.3334H34.7499C36.7739 34.8886 38.0512 33.7787 38.0512 31.0369C38.0512 26.091 33.8628 20.0317 28.6962 20.0317H24.304Z" fill="#D46B5C"/>
<path fill-rule="evenodd" clip-rule="evenodd" d="M30.3576 35.3334H23.0518H18.2503H13.0491V36.5687C13.0491 37.2481 13.6027 37.804 14.2793 37.804H38.7208C39.3974 37.804 39.951 37.2481 39.951 36.5687V35.3334H34.7498H30.3576Z" fill="#D2DCFD"/>
<path d="M22.9372 35.7997C22.8233 35.7997 22.7086 35.7644 22.6101 35.6913C20.815 34.3573 19.7432 32.1116 19.7432 29.6841C19.7432 26.9423 21.7258 24.7116 24.1628 24.7116C26.5998 24.7116 28.5824 26.9422 28.5824 29.6841C28.5824 31.2065 27.4679 32.4449 26.0981 32.4449C24.7282 32.4449 23.6138 31.2065 23.6138 29.6841C23.6138 29.3809 23.8595 29.1351 24.1628 29.1351C24.466 29.1351 24.7118 29.3809 24.7118 29.6841C24.7118 30.601 25.3337 31.3469 26.0981 31.3469C26.8625 31.3469 27.4843 30.601 27.4843 29.6841C27.4843 27.5477 25.9943 25.8096 24.1628 25.8096C22.3312 25.8096 20.8412 27.5477 20.8412 29.6841C20.8412 31.766 21.7473 33.6822 23.265 34.8099C23.5084 34.9907 23.5591 35.3346 23.3782 35.578C23.2706 35.723 23.1049 35.7997 22.9372 35.7997Z" fill="white"/>
<path fill-rule="evenodd" clip-rule="evenodd" d="M20.8068 35.3334C19.4585 32.7991 18.6945 29.9067 18.6945 26.8359C18.6945 25.1493 18.925 23.5166 19.3561 21.9674C16.7097 24.1553 14.949 27.8301 14.949 31.0369C14.949 33.7787 16.2262 34.8886 18.2503 35.3334H20.8068V35.3334Z" fill="#D46B5C"/>
<path d="M39.951 34.7844H37.2057C38.149 33.9577 38.6001 32.7265 38.6001 31.0369C38.6001 25.8035 34.1823 19.4826 28.6961 19.4826H28.5169C28.8025 19.0796 28.9706 18.5877 28.9706 18.0572C28.9706 16.9038 28.1762 15.9326 27.1058 15.6618C27.2411 15.2064 27.606 14.8499 28.0663 14.7265C28.3592 14.648 28.533 14.3469 28.4545 14.0541C28.376 13.7612 28.0749 13.5874 27.7821 13.6659C26.9323 13.8936 26.2629 14.563 26.0351 15.4128C26.0151 15.4876 25.9985 15.5639 25.9855 15.6405C24.8694 15.8779 24.0294 16.8713 24.0294 18.0572C24.0294 18.5877 24.1975 19.0797 24.4832 19.4826H24.3039C18.8177 19.4826 14.3999 25.8035 14.3999 31.0369C14.3999 32.7266 14.851 33.9578 15.7943 34.7844H13.049C12.7458 34.7844 12.5 35.0302 12.5 35.3334V36.5687C12.5 37.5525 13.2982 38.353 14.2793 38.353H38.7207C39.7018 38.353 40.5 37.5526 40.5 36.5687V35.3334C40.5 35.0302 40.2542 34.7844 39.951 34.7844ZM26.5 16.6846C27.2568 16.6846 27.8725 17.3003 27.8725 18.0572C27.8725 18.814 27.2568 19.4297 26.5 19.4297C25.7432 19.4297 25.1275 18.814 25.1275 18.0572C25.1275 17.3003 25.7432 16.6846 26.5 16.6846ZM34.8811 24.0208C36.5223 26.0888 37.5021 28.7116 37.5021 31.0369C37.5021 33.2421 36.6868 34.3285 34.6889 34.7844H32.8136C33.7569 33.9578 34.208 32.7266 34.208 31.0369C34.208 28.4846 33.1475 25.6172 31.3713 23.3665C30.4526 22.2024 29.4074 21.2737 28.2647 20.6063C28.2499 20.5977 28.2353 20.5892 28.2206 20.5807H28.6961C30.9238 20.5807 33.1204 21.8025 34.8811 24.0208ZM15.4979 31.0369C15.4979 28.7116 16.4777 26.0888 18.1189 24.0208C19.8795 21.8024 22.0761 20.5807 24.3039 20.5807H24.3506C24.355 20.5808 24.3594 20.581 24.3638 20.581C26.5803 20.6029 28.7628 21.8337 30.5093 24.0466C32.1377 26.11 33.1099 28.7232 33.1099 31.0368C33.1099 33.2423 32.2947 34.3284 30.2968 34.7843H18.311C16.3131 34.3285 15.4979 33.2421 15.4979 31.0369ZM39.402 36.5687C39.402 36.9471 39.0964 37.255 38.7207 37.255H14.2793C13.9036 37.255 13.598 36.9472 13.598 36.5687V35.8825H39.402V36.5687Z" fill="#052A75"/>
</g>
<defs>
<clipPath id="clip0_960_14761">
<rect width="28" height="28" fill="white" transform="translate(12.5 12)"/>
</clipPath>
</defs>
</svg>
