<svg width="24" height="24" viewBox="0 0 24 24" fill="none" xmlns="http://www.w3.org/2000/svg">
<g clip-path="url(#clip0_906_37965)">
<path d="M16.8771 5.49964H2.4956C1.37729 5.49964 0.470703 4.5931 0.470703 3.4748V3.19103C0.470703 2.07273 1.37729 1.16614 2.4956 1.16614H16.8771C17.9954 1.16614 18.902 2.07273 18.902 3.19103V3.4748C18.902 4.5931 17.9954 5.49964 16.8771 5.49964Z" fill="#FDCB50"/>
<path d="M18.7282 4.2964C18.4133 5.00511 17.7032 5.4997 16.8773 5.4997H9.50464C11.2035 4.40934 13.2246 3.77734 15.3931 3.77734C16.5564 3.77734 17.6769 3.95899 18.7282 4.2964Z" fill="#FD8F01"/>
<path d="M6.87039 9.83319C5.67373 9.83319 4.70361 8.86307 4.70361 7.66641C4.70361 6.46975 5.67368 5.49963 6.87039 5.49963H20.9681C22.1648 5.49963 23.1349 6.4697 23.1349 7.66641C23.1349 7.66641 23.0843 9.51959 21.6699 9.51959L6.87039 9.83319Z" fill="#FD8F01"/>
<path d="M23.1347 7.66634C23.1347 7.66634 23.122 8.12987 22.9328 8.59293C22.7432 9.05599 22.377 9.51952 21.6698 9.51952L6.87022 9.8334C6.46834 9.8334 6.09187 9.72376 5.76904 9.53317C6.6514 7.89176 7.94175 6.50211 9.50457 5.49976H20.9681C21.0905 5.49976 21.2109 5.51011 21.3276 5.5294C21.9159 5.91105 22.465 6.34776 22.9681 6.83246C23.0754 7.08893 23.1347 7.37081 23.1347 7.66634Z" fill="#FD6050"/>
<path d="M15.5648 22.8338H3.44388C2.24722 22.8338 1.2771 21.8637 1.2771 20.667C1.2771 19.4704 2.24722 18.5002 3.44388 18.5002H15.5648V22.8338Z" fill="#FDCB50"/>
<path d="M15.5649 18.5002V22.8339H8.11074C6.80156 21.6617 5.77709 20.1784 5.15356 18.5002H15.5649Z" fill="#FD8F01"/>
<path d="M13.3559 18.5003H3.44388C2.24722 18.5003 1.2771 17.5302 1.2771 16.3335C1.2771 15.1369 2.24722 14.1667 3.44388 14.1667H13.3559V18.5003Z" fill="#FD8F01"/>
<path d="M13.3557 14.1665V18.5002H5.15337C4.71337 17.3162 4.4729 16.0347 4.4729 14.6973C4.4729 14.5194 4.47714 14.3425 4.48561 14.1665H13.3557Z" fill="#FD6050"/>
<path d="M14.1058 14.1668H3.44388C2.24722 14.1668 1.2771 13.1967 1.2771 12C1.2771 10.8034 2.24722 9.83325 3.44388 9.83325H14.1058V14.1668Z" fill="#FDCB50"/>
<path d="M14.1058 9.8335V14.1667H4.4856C4.55995 12.6151 4.9576 11.1488 5.6136 9.8335H14.1058Z" fill="#FD8F01"/>
<path d="M15.3929 22.8338C19.8866 22.8338 23.5295 19.1909 23.5295 14.6972C23.5295 10.2035 19.8866 6.56067 15.3929 6.56067C10.8992 6.56067 7.25635 10.2035 7.25635 14.6972C7.25635 19.1909 10.8992 22.8338 15.3929 22.8338Z" fill="#FDCB50"/>
<path d="M22.4734 9.8085C23.3148 9.38356 23.5882 8.30967 23.6052 7.67909V7.66638C23.6052 6.21226 22.4221 5.0292 20.968 5.0292H18.8278C19.1685 4.60285 19.3722 4.06214 19.3722 3.47485V3.19109C19.3722 1.81509 18.2532 0.695557 16.8772 0.695557H2.49553C1.11953 0.695557 0 1.81509 0 3.19109V3.47485C0 4.85085 1.11953 5.97038 2.49553 5.97038H4.85224C4.46588 6.4292 4.23294 7.0212 4.23294 7.66638C4.23294 8.31203 4.46635 8.90403 4.85224 9.36285H3.44376C1.98965 9.36285 0.806588 10.5459 0.806588 12C0.806588 12.8965 1.25647 13.6899 1.94212 14.1671C1.25647 14.6433 0.806588 15.4372 0.806588 16.3337C0.806588 17.2301 1.25647 18.0236 1.94212 18.5003C1.25647 18.977 0.806588 19.7704 0.806588 20.6673C0.806588 22.1214 1.98965 23.3045 3.44376 23.3045H15.3929C15.4673 23.3045 15.5412 23.3036 15.6146 23.3017H15.6165C20.2598 23.1826 24 19.3685 24 14.6974C24 12.8829 23.4358 11.1977 22.4734 9.8085ZM20.968 5.97038C21.9007 5.97038 22.6598 6.72662 22.664 7.65838C22.6598 7.76379 22.5948 8.86167 21.864 9.02779C20.2847 7.22826 17.9694 6.09038 15.3929 6.09038C12.6602 6.09038 10.2202 7.37085 8.64282 9.36285H6.87012C5.93506 9.36285 5.17412 8.60191 5.17412 7.66638C5.17412 6.73132 5.93506 5.97038 6.87012 5.97038H20.968ZM2.49553 5.0292C1.63859 5.0292 0.941176 4.33179 0.941176 3.47485V3.19109C0.941176 2.33414 1.63859 1.63673 2.49553 1.63673H16.8772C17.7341 1.63673 18.4311 2.33414 18.4311 3.19109V3.47485C18.4311 4.33179 17.7341 5.0292 16.8772 5.0292H2.49553ZM1.74776 12C1.74776 11.0645 2.50871 10.304 3.44376 10.304H7.99388C7.38871 11.3191 6.98682 12.4683 6.84376 13.696H3.44376C2.50871 13.696 1.74776 12.9356 1.74776 12ZM1.74776 16.3337C1.74776 15.3981 2.50871 14.6372 3.44376 14.6372H6.78635C6.78588 14.6574 6.78588 14.6772 6.78588 14.6974C6.78588 15.8781 7.02494 17.0043 7.45741 18.0297H3.44376C2.50871 18.0297 1.74776 17.2687 1.74776 16.3337ZM3.44376 22.3633C2.50871 22.3633 1.74776 21.6024 1.74776 20.6673C1.74776 19.7318 2.50871 18.9709 3.44376 18.9709H7.92377C8.75482 20.4174 9.99341 21.601 11.4824 22.3633H3.44376ZM15.3929 22.3633C11.1656 22.3633 7.72706 18.9243 7.72706 14.6974C7.72706 12.0292 9.16188 9.50544 11.4447 8.1285C12.632 7.41226 14.0066 7.03156 15.3929 7.03156C19.6198 7.03156 23.0588 10.4701 23.0588 14.6974C23.0588 18.9243 19.6198 22.3633 15.3929 22.3633Z" fill="#052A75"/>
<path d="M17.3869 14.8489C16.9634 14.5313 16.4344 14.3257 15.8636 14.2532V11.5751C16.7022 11.7242 17.3431 12.2607 17.3431 12.8781C17.3431 13.1384 17.5535 13.3487 17.8137 13.3487C18.0735 13.3487 18.2843 13.1384 18.2843 12.8781C18.2843 12.2414 17.9657 11.6518 17.3869 11.2179C16.9634 10.9002 16.4344 10.6951 15.8636 10.6221V10.1624C15.8636 9.9026 15.6528 9.69177 15.393 9.69177C15.1328 9.69177 14.9224 9.9026 14.9224 10.1624V10.6221C14.3516 10.6951 13.8227 10.9002 13.3991 11.2179C12.8203 11.6518 12.5017 12.2414 12.5017 12.8781C12.5017 13.5148 12.8203 14.1045 13.3991 14.5384C13.8227 14.856 14.3516 15.0617 14.9224 15.1341V17.8127C14.0838 17.6631 13.4429 17.1266 13.4429 16.5092C13.4429 16.2494 13.2321 16.0386 12.9723 16.0386C12.7125 16.0386 12.5017 16.2494 12.5017 16.5092C12.5017 17.1459 12.8203 17.7355 13.3991 18.1694C13.8227 18.4871 14.3516 18.6922 14.9224 18.7652V19.232C14.9224 19.4918 15.1328 19.7026 15.393 19.7026C15.6528 19.7026 15.8636 19.4918 15.8636 19.232V18.7652C16.4344 18.6927 16.9634 18.4871 17.3869 18.1694C17.9657 17.7355 18.2843 17.1459 18.2843 16.5092C18.2843 15.8725 17.9657 15.2828 17.3869 14.8489ZM13.4429 12.8781C13.4429 12.2607 14.0838 11.7242 14.9224 11.5751V14.1817C14.0838 14.032 13.4429 13.4955 13.4429 12.8781ZM15.8636 17.8127V15.2061C16.7022 15.3553 17.3431 15.8918 17.3431 16.5092C17.3431 17.1266 16.7022 17.6631 15.8636 17.8127Z" fill="#052A75"/>
</g>
<defs>
<clipPath id="clip0_906_37965">
<rect width="24" height="24" fill="white"/>
</clipPath>
</defs>
</svg>
