<svg width="53" height="52" viewBox="0 0 53 52" fill="none" xmlns="http://www.w3.org/2000/svg">
<rect x="1" y="0.5" width="51" height="51" rx="25.5" fill="white"/>
<rect x="1" y="0.5" width="51" height="51" rx="25.5" stroke="#EFEFEF"/>
<g clip-path="url(#clip0_960_15744)">
<path d="M27.7902 34.8766V39.1765H13.0491V34.8766C13.0491 31.5881 15.7149 28.9222 19.0035 28.9222H21.8359C25.1244 28.9222 27.7902 31.5881 27.7902 34.8766Z" fill="#FD8F01"/>
<path d="M27.7902 34.8766C27.7902 31.5881 25.1243 28.9222 21.8358 28.9222H21.7823C21.5635 29.4817 21.4432 30.0903 21.4432 30.7264V32.6114C21.4432 32.8855 21.464 33.157 21.5045 33.4239C20.1706 34.6289 19.3416 36.3706 19.3416 38.2819V39.1765H27.7902V34.8766Z" fill="#FD6050"/>
<path d="M19.0447 27.7745V29.3587C19.0447 30.1181 19.6603 30.7337 20.4197 30.7337C21.1791 30.7337 21.7947 30.1181 21.7947 29.3587V27.7745H19.0447Z" fill="#F7B073"/>
<path d="M16.7344 21.7824V24.3917C16.7344 26.427 18.3843 28.077 20.4197 28.077C22.455 28.077 24.105 26.427 24.105 24.3917V21.7824H16.7344Z" fill="#FDE0BE"/>
<path d="M21.5019 24.1808C22.2667 24.6506 23.154 24.9129 24.0667 24.9201C24.0915 24.7475 24.105 24.5712 24.105 24.3917V21.7824H16.7344V24.3917C16.7344 24.5713 16.7479 24.7477 16.7727 24.9204C18.3944 24.9165 19.9793 24.6685 21.5019 24.1808Z" fill="#F7B073"/>
<path d="M24.105 22.5938V20.6076C24.105 19.1259 22.9039 17.9247 21.4221 17.9247H19.4173C17.9356 17.9247 16.7344 19.1259 16.7344 20.6076V22.5938C18.5963 22.5938 20.3688 22.2113 21.9783 21.5215C22.4617 22.1711 23.2331 22.5938 24.105 22.5938Z" fill="#D46B5C"/>
<path d="M33.393 20.4929C34.5718 20.4929 35.5273 19.5373 35.5273 18.3586C35.5273 17.1799 34.5718 16.2243 33.393 16.2243C32.2143 16.2243 31.2588 17.1799 31.2588 18.3586C31.2588 19.5373 32.2143 20.4929 33.393 20.4929Z" fill="#FDCB50"/>
<path d="M39.951 35.1197V39.1765H26.8352V35.1197C26.8352 32.0314 29.3388 29.5278 32.4271 29.5278H34.3591C37.4474 29.5279 39.951 32.0314 39.951 35.1197Z" fill="#67CCD1"/>
<path d="M32.2294 33.4238C32.2699 33.1569 32.2907 32.8854 32.2907 32.6113V30.7264C32.2907 30.3157 32.2403 29.9167 32.1459 29.5348C29.1882 29.6813 26.8352 32.1257 26.8352 35.1197V39.1765H34.3923V38.2819C34.3924 36.3706 33.5633 34.6288 32.2294 33.4238Z" fill="#27A2CC"/>
<path d="M32.1238 28.4344V29.8967C32.1238 30.5977 32.692 31.1659 33.393 31.1659C34.094 31.1659 34.6622 30.5977 34.6622 29.8967V28.4344H32.1238Z" fill="#FD7DA0"/>
<path d="M33.3931 27.4676C35.6924 27.4676 37.5564 25.6036 37.5564 23.3042C37.5564 21.0049 35.6924 19.1409 33.3931 19.1409C31.0937 19.1409 29.2297 21.0049 29.2297 23.3042C29.2297 25.6036 31.0937 27.4676 33.3931 27.4676Z" fill="#FDCB50"/>
<path d="M36.3922 24.0673V25.7469C36.3922 27.4032 35.0495 28.7459 33.3933 28.7459C31.737 28.7459 30.3943 27.4032 30.3943 25.7469V24.0673H36.3922Z" fill="#FDBEB9"/>
<path d="M30.3943 24.0673V25.7469C30.3943 25.9736 30.4203 26.1942 30.468 26.4065H36.3185C36.3662 26.1942 36.3922 25.9736 36.3922 25.7468V24.0672L30.3943 24.0673Z" fill="#FD7DA0"/>
<path d="M31.4825 38.2819V39.1765H22.2515V38.2819C22.2515 36.2747 23.8785 34.6477 25.8856 34.6477H27.8484C29.8554 34.6477 31.4825 36.2748 31.4825 38.2819Z" fill="white"/>
<path d="M26.4877 37.0504C26.4877 36.1604 26.7583 35.3336 27.2216 34.6477H25.8856C23.8785 34.6477 22.2515 36.2748 22.2515 38.2819V39.1765H27.051C26.6933 38.5493 26.4877 37.824 26.4877 37.0504Z" fill="#D2DCFD"/>
<path d="M24.353 30.8314V32.6113C24.353 33.9997 25.4786 35.1253 26.867 35.1253C28.2554 35.1253 29.3809 33.9997 29.3809 32.6113V30.8314H24.353Z" fill="#FDE0BE"/>
<path d="M27.322 28.6675H26.4119C25.2748 28.6675 24.353 29.5893 24.353 30.7264V31.6759H26.4017L26.8669 31.0226L27.3321 31.6759H29.3808V30.7264C29.3809 29.5893 28.4591 28.6675 27.322 28.6675Z" fill="#D46B5C"/>
<path d="M26.5001 17.8745L28.6269 16.2168C29.2827 15.7056 29.6661 14.9206 29.6661 14.0891C29.6661 13.0669 28.8213 12.2319 27.8002 12.2762C27.2771 12.2989 26.8124 12.5464 26.5001 12.9246C26.1879 12.5464 25.7232 12.2989 25.2002 12.2762C24.179 12.2319 23.3342 13.0669 23.3342 14.0891C23.3342 14.9206 23.7177 15.7056 24.3735 16.2168L26.5001 17.8745Z" fill="#FD7DA0"/>
<path d="M35.2113 29.0339V28.7921C36.0419 28.2944 36.6526 27.4668 36.8618 26.4918C37.6645 25.6197 38.1055 24.495 38.1055 23.3043C38.1055 21.6267 37.2236 20.152 35.8998 19.3168C36.0304 18.9762 36.0902 18.6111 36.0737 18.238C36.0135 16.8738 34.9417 15.7748 33.5805 15.6818C32.8281 15.6303 32.1109 15.8845 31.5618 16.3974C31.0203 16.9031 30.7097 17.618 30.7097 18.3586C30.7097 18.6892 30.7699 19.0131 30.8863 19.3169C29.5625 20.1521 28.6807 21.6267 28.6807 23.3043C28.6807 24.495 29.1216 25.6197 29.9244 26.4918C30.1336 27.4668 30.7444 28.2944 31.5748 28.7921V29.0347C30.9164 29.1267 30.2773 29.3252 29.6836 29.6217C29.2669 28.7346 28.3652 28.1185 27.322 28.1185H26.4118C25.6612 28.1185 24.9841 28.4377 24.5078 28.947C23.8262 28.6401 23.0918 28.4525 22.3436 28.3938V28.1617C23.7136 27.4597 24.6539 26.0339 24.6539 24.3917V20.6077C24.6539 18.8256 23.2041 17.3758 21.4221 17.3758H19.4172C17.6351 17.3758 16.1853 18.8256 16.1853 20.6077V24.3917C16.1853 26.0339 17.1256 27.4597 18.4956 28.1617V28.3929C15.146 28.6528 12.5 31.4614 12.5 34.8766V39.1765C12.5 39.4797 12.7459 39.7255 13.049 39.7255L39.951 39.7214C40.2541 39.7214 40.5 39.4756 40.5 39.1724V35.1156C40.5 32.027 38.216 29.45 35.2113 29.0339ZM32.6729 29.2213C32.9056 29.2694 33.1464 29.2949 33.3931 29.2949C33.6398 29.2949 33.8807 29.2694 34.1133 29.2213V29.8967C34.1133 30.2938 33.7902 30.6169 33.3931 30.6169C32.996 30.6169 32.6729 30.2938 32.6729 29.8967V29.2213ZM31.8078 18.3586C31.8078 17.9146 31.9866 17.503 32.3113 17.1998C32.6357 16.8968 33.0597 16.7467 33.5057 16.7772C34.2956 16.8312 34.9418 17.4941 34.9768 18.2864C34.9852 18.4772 34.959 18.6641 34.9024 18.8412C34.4282 18.6804 33.9209 18.5919 33.3931 18.5919C32.8652 18.5919 32.3578 18.6805 31.8836 18.8413C31.834 18.6864 31.8078 18.5241 31.8078 18.3586ZM30.3941 23.5183C30.1096 23.5183 29.8756 23.7348 29.8479 24.0121C29.8022 23.7814 29.7788 23.5445 29.7788 23.3042C29.7788 21.3113 31.4002 19.6899 33.3931 19.6899C35.386 19.6899 37.0074 21.3113 37.0074 23.3042C37.0074 23.5445 36.984 23.7814 36.9383 24.0121C36.9106 23.7348 36.6766 23.5183 36.3921 23.5183H30.3941ZM30.9432 24.6163H35.8431V25.7469C35.8431 27.0978 34.744 28.1969 33.3931 28.1969C32.0422 28.1969 30.9432 27.0978 30.9432 25.7469V24.6163ZM26.867 34.5762C25.7835 34.5762 24.902 33.6947 24.902 32.6112V32.225H26.4017C26.5793 32.225 26.746 32.1391 26.849 31.9944L26.867 31.9691L26.885 31.9944C26.988 32.139 27.1546 32.225 27.3322 32.225H28.8319V32.6112C28.8319 33.6947 27.9504 34.5762 26.867 34.5762ZM26.4119 29.2165H27.322C28.1546 29.2165 28.8319 29.8938 28.8319 30.7263V31.1269H27.6152L27.3142 30.7041C27.2112 30.5594 27.0446 30.4735 26.867 30.4735C26.6894 30.4735 26.5227 30.5594 26.4197 30.7041L26.1187 31.1269H24.902V30.7263C24.902 29.8938 25.5793 29.2165 26.4119 29.2165ZM19.5936 28.5445C19.8609 28.5976 20.137 28.626 20.4196 28.626C20.7022 28.626 20.9783 28.5976 21.2456 28.5445V29.3587C21.2456 29.8142 20.8751 30.1847 20.4196 30.1847C19.9641 30.1847 19.5936 29.8142 19.5936 29.3587V28.5445ZM17.2833 20.6077C17.2833 19.4311 18.2406 18.4738 19.4172 18.4738H21.4221C22.5987 18.4738 23.5559 19.4311 23.5559 20.6077V21.9727C23.1063 21.8517 22.7078 21.5822 22.4186 21.1937C22.2669 20.99 21.9955 20.9168 21.7619 21.0169C20.3379 21.6272 18.8339 21.9683 17.2833 22.0333V20.6077ZM17.2833 24.3917V23.1314C18.848 23.0709 20.3701 22.7524 21.8197 22.1804C22.2913 22.6651 22.8946 22.9819 23.5559 23.0954V24.3917C23.5559 26.1211 22.149 27.528 20.4196 27.528C18.6903 27.528 17.2833 26.1211 17.2833 24.3917ZM13.598 34.8766C13.598 32.0655 15.7551 29.7491 18.5009 29.4947C18.571 30.4924 19.4044 31.2827 20.4196 31.2827C21.4348 31.2827 22.2683 30.4923 22.3383 29.4946C22.8901 29.5461 23.4316 29.6822 23.9401 29.8967C23.8523 30.1575 23.804 30.4364 23.804 30.7264V32.6114C23.804 33.2714 24.0145 33.8828 24.3711 34.3834C22.7972 34.9949 21.7024 36.5259 21.7024 38.2819V38.6275H17.0661V34.7575C17.0661 34.4543 16.8202 34.2085 16.5171 34.2085C16.2139 34.2085 15.968 34.4543 15.968 34.7575V38.6275H13.598V34.8766ZM30.9334 38.6275H22.8004V38.2818C22.8004 36.7913 23.8694 35.5205 25.3159 35.2509C25.7712 35.5195 26.3012 35.6742 26.8669 35.6742C27.4326 35.6742 27.9626 35.5195 28.4179 35.2509C29.8644 35.5205 30.9334 36.7913 30.9334 38.2818V38.6275H30.9334ZM39.402 38.6233H37.032V34.7575C37.032 34.4543 36.7861 34.2085 36.4829 34.2085C36.1798 34.2085 35.9339 34.4543 35.9339 34.7575V38.6233H32.0315V38.2818C32.0315 36.5258 30.9368 34.9949 29.3629 34.3834C29.7193 33.8827 29.9299 33.2713 29.9299 32.6113V30.734C30.4447 30.4403 31.008 30.2404 31.5919 30.1426C31.7124 31.0292 32.4739 31.7149 33.3931 31.7149C34.3122 31.7149 35.0737 31.0292 35.1943 30.1427C37.5944 30.5414 39.402 32.6257 39.402 35.1156V38.6233Z" fill="#052A75"/>
</g>
<defs>
<clipPath id="clip0_960_15744">
<rect width="28" height="28" fill="white" transform="translate(12.5 12)"/>
</clipPath>
</defs>
</svg>
