<svg width="53" height="52" viewBox="0 0 53 52" fill="none" xmlns="http://www.w3.org/2000/svg">
<rect x="1" y="0.5" width="51" height="51" rx="25.5" fill="white"/>
<rect x="1" y="0.5" width="51" height="51" rx="25.5" stroke="#EFEFEF"/>
<path d="M37.8491 39.451L39.0186 19.9525H26.0598L27.2292 39.451H37.8491Z" fill="#67CCD1"/>
<path d="M27.2292 39.451H32.5529C33.0982 38.585 33.4142 37.5607 33.4142 36.4639C33.4142 35.9575 33.311 35.4748 33.1247 35.0356C33.3118 34.5325 33.4142 33.9883 33.4142 33.4208C33.4142 32.9793 33.3512 32.5438 33.23 32.1262C33.3223 31.8163 33.3809 31.4959 33.4034 31.1711C33.4419 30.6139 33.3772 30.065 33.2185 29.5475C33.2266 29.5217 33.2345 29.4956 33.2422 29.4696C33.4944 28.6116 33.47 27.7098 33.1718 26.8619C32.0692 23.7273 29.736 21.269 26.8302 19.9525H26.0598L27.2292 39.451Z" fill="#27A2CC"/>
<path d="M39.951 16.817H25.1274V19.9525H39.951V16.817Z" fill="white"/>
<path d="M33.389 32.9396C34.7813 32.5655 35.8062 31.2945 35.8062 29.784C35.8062 28.157 34.6169 26.8078 33.0602 26.5582L31.8557 30.7833L33.389 32.9396Z" fill="white"/>
<path d="M29.272 29.7841C29.272 31.5885 30.7348 33.0513 32.5392 33.0513C32.8332 33.0513 33.1179 33.0118 33.389 32.939C33.3601 32.6629 33.3069 32.3909 33.23 32.1263C33.3223 31.8163 33.3809 31.496 33.4034 31.1711C33.4419 30.6139 33.3772 30.065 33.2185 29.5476C33.2266 29.5217 33.2345 29.4957 33.2422 29.4696C33.4944 28.6116 33.47 27.7098 33.1718 26.862C33.136 26.7602 33.0987 26.6591 33.0603 26.5588C32.8906 26.5315 32.7166 26.5169 32.5392 26.5169C30.7348 26.5169 29.272 27.9796 29.272 29.7841Z" fill="#D2DCFD"/>
<path d="M28.7687 35.4308H15.0589C13.9488 35.4308 13.0488 34.5309 13.0488 33.4207C13.0488 32.3106 13.9488 31.4107 15.0589 31.4107H28.7687C29.8788 31.4107 30.7788 32.3106 30.7788 33.4207C30.7788 34.5309 29.8788 35.4308 28.7687 35.4308Z" fill="#FD7DA0"/>
<path d="M27.7916 39.451H16.036C14.3862 39.451 13.0488 38.1136 13.0488 36.4639C13.0488 35.8934 13.5113 35.4309 14.0818 35.4309H29.7458C30.3163 35.4309 30.7788 35.8934 30.7788 36.4639C30.7788 38.1136 29.4414 39.451 27.7916 39.451Z" fill="#FDCB50"/>
<path d="M21.6806 35.4308H14.0818C13.5113 35.4308 13.0488 35.8933 13.0488 36.4638C13.0488 38.1135 14.3862 39.451 16.036 39.451H25.4473C23.9154 38.4061 22.6262 37.0321 21.6806 35.4308Z" fill="#FD8F01"/>
<path d="M14.8751 29.033C13.8236 29.033 12.9795 29.9218 13.0533 30.9892C13.1164 31.9017 13.8643 32.6356 14.7777 32.6831C15.1639 32.7032 15.5255 32.6032 15.8286 32.4172C16.3258 32.112 16.9486 32.1174 17.4469 32.4208C17.7231 32.5889 18.0474 32.6857 18.3945 32.6857C18.7415 32.6857 19.0658 32.5889 19.342 32.4208C19.8425 32.1162 20.4658 32.1162 20.9662 32.4208C21.2425 32.5889 21.5668 32.6857 21.9138 32.6857C22.2608 32.6857 22.5851 32.5889 22.8613 32.4208C23.3618 32.1162 23.9851 32.1162 24.4856 32.4208C24.7618 32.5889 25.0861 32.6857 25.4331 32.6857C25.7802 32.6857 26.1045 32.5889 26.3807 32.4208C26.8791 32.1175 27.5018 32.112 27.999 32.4172C28.3021 32.6032 28.6638 32.7032 29.05 32.6831C29.9634 32.6356 30.7112 31.9016 30.7743 30.9892C30.8481 29.9218 30.004 29.033 28.9524 29.033H14.8751V29.033Z" fill="#B1D952"/>
<path d="M29.1576 29.8943C30.2746 29.8943 31.0563 28.7901 30.6856 27.7364C29.4132 24.1189 25.9664 21.5256 21.9138 21.5256C17.8612 21.5256 14.4144 24.1189 13.142 27.7364C12.7713 28.7901 13.553 29.8943 14.67 29.8943H29.1576Z" fill="#FDCB50"/>
<path d="M19.937 29.033C19.937 26.2259 20.8553 23.6336 22.4071 21.5389C22.2437 21.5303 22.0793 21.5256 21.9138 21.5256C17.8612 21.5256 14.4144 24.1189 13.142 27.7364C12.7713 28.7901 13.553 29.8943 14.67 29.8943H19.9669C19.9477 29.6096 19.937 29.3225 19.937 29.033Z" fill="#FD8F01"/>
<path d="M32.5395 17.366C32.2363 17.366 31.9905 17.1202 31.9905 16.817V13.5628C31.9905 13.3357 32.1302 13.1321 32.342 13.0505L34.9723 12.0368C35.2552 11.9278 35.573 12.0687 35.6821 12.3516C35.7911 12.6345 35.6502 12.9523 35.3672 13.0613L33.0885 13.9395V16.817C33.0885 17.1202 32.8427 17.366 32.5395 17.366Z" fill="#27A2CC"/>
<path d="M21.914 25.375C21.6108 25.375 21.365 25.1292 21.365 24.8259V24.3836C21.365 24.0804 21.6108 23.8346 21.914 23.8346C22.2172 23.8346 22.463 24.0804 22.463 24.3836V24.8259C22.463 25.1292 22.2172 25.375 21.914 25.375Z" fill="white"/>
<path d="M23.7807 28.0338C23.4775 28.0338 23.2317 27.788 23.2317 27.4847V27.0424C23.2317 26.7392 23.4775 26.4934 23.7807 26.4934C24.0839 26.4934 24.3297 26.7392 24.3297 27.0424V27.4847C24.3297 27.788 24.0839 28.0338 23.7807 28.0338Z" fill="white"/>
<path d="M26.2402 26.4707C25.937 26.4707 25.6912 26.2249 25.6912 25.9217V25.4793C25.6912 25.1761 25.937 24.9303 26.2402 24.9303C26.5434 24.9303 26.7892 25.1761 26.7892 25.4793V25.9217C26.7892 26.2249 26.5434 26.4707 26.2402 26.4707Z" fill="white"/>
<path d="M20.0473 28.0338C19.7441 28.0338 19.4983 27.788 19.4983 27.4847V27.0424C19.4983 26.7392 19.7441 26.4934 20.0473 26.4934C20.3505 26.4934 20.5963 26.7392 20.5963 27.0424V27.4847C20.5963 27.788 20.3505 28.0338 20.0473 28.0338Z" fill="white"/>
<path d="M17.5881 26.4707C17.2849 26.4707 17.0391 26.2249 17.0391 25.9217V25.4793C17.0391 25.1761 17.2849 24.9303 17.5881 24.9303C17.8913 24.9303 18.1371 25.1761 18.1371 25.4793V25.9217C18.1371 26.2249 17.8913 26.4707 17.5881 26.4707Z" fill="white"/>
<path d="M39.951 16.268H25.1275C24.8243 16.268 24.5785 16.5138 24.5785 16.817V19.9525C24.5785 20.2557 24.8243 20.5015 25.1275 20.5015H25.5428L25.6147 21.7001C24.4614 21.2313 23.2089 20.9766 21.914 20.9766C17.7414 20.9766 14.0081 23.6199 12.6242 27.5542C12.3911 28.2169 12.4944 28.9548 12.9005 29.5281C12.9018 29.53 12.9033 29.5318 12.9047 29.5337C12.6115 29.9682 12.4687 30.4903 12.5058 31.0271C12.5333 31.4252 12.6593 31.7955 12.8586 32.1151C12.6253 32.5079 12.5 32.9586 12.5 33.4208C12.5 34.0926 12.7606 34.7043 13.1855 35.1614C12.7718 35.4471 12.5 35.9243 12.5 36.4639C12.5 38.4137 14.0863 40.0001 16.0362 40.0001H37.8492C38.1396 40.0001 38.3798 39.7738 38.3972 39.4839L39.5357 20.5016H39.951C40.2541 20.5016 40.5 20.2558 40.5 19.9526V16.8171C40.5001 16.5138 40.2543 16.268 39.951 16.268ZM25.6765 17.366H39.402V19.4034H25.6765V17.366ZM13.6602 27.9185C14.8897 24.4231 18.2066 22.0746 21.914 22.0746C25.6215 22.0746 28.9384 24.4231 30.1679 27.9185C30.2848 28.2507 30.2351 28.6061 30.0316 28.8934C29.8282 29.1805 29.5097 29.3453 29.1579 29.3453H14.6703C14.3184 29.3453 14 29.1805 13.7966 28.8934C13.593 28.6061 13.5433 28.2507 13.6602 27.9185ZM13.6882 32.9171C14.0036 33.0992 14.3644 33.2114 14.7494 33.2314C15.2332 33.2565 15.7059 33.1368 16.1161 32.8851C16.4348 32.6894 16.8356 32.6911 17.1617 32.8897C17.5325 33.1154 17.9589 33.2347 18.3948 33.2347C18.8306 33.2347 19.2569 33.1154 19.6278 32.8897C19.9526 32.692 20.3563 32.692 20.6812 32.8897C21.052 33.1154 21.4783 33.2347 21.9141 33.2347C22.35 33.2347 22.7763 33.1154 23.1471 32.8897C23.472 32.692 23.8757 32.692 24.2005 32.8897C24.5713 33.1154 24.9977 33.2347 25.4335 33.2347C25.8693 33.2347 26.2957 33.1154 26.6666 32.8897C26.9927 32.6911 27.3934 32.6894 27.7123 32.8851C28.1225 33.1368 28.5949 33.2565 29.079 33.2314C29.464 33.2113 29.8248 33.0992 30.1401 32.917C30.1991 33.0772 30.2302 33.2475 30.2302 33.4207C30.2302 34.2264 29.5748 34.8818 28.7692 34.8818H15.0592C14.2536 34.8818 13.5981 34.2264 13.5981 33.4207C13.5981 33.2475 13.6293 33.0772 13.6882 32.9171ZM13.7584 30.241C14.0406 30.372 14.3511 30.4433 14.6703 30.4433H29.1578C29.477 30.4433 29.7875 30.372 30.0697 30.241C30.1881 30.4546 30.2442 30.6999 30.2268 30.9513C30.1832 31.5821 29.6538 32.1019 29.0217 32.1349C28.7615 32.1483 28.5064 32.0843 28.2865 31.9493C27.6148 31.537 26.7753 31.538 26.0955 31.9518C25.8967 32.0728 25.6677 32.1367 25.4334 32.1367C25.199 32.1367 24.97 32.0727 24.7712 31.9518C24.0943 31.5398 23.2532 31.5397 22.5762 31.9518C22.3775 32.0727 22.1485 32.1367 21.914 32.1367C21.6796 32.1367 21.4507 32.0727 21.2519 31.9518C20.575 31.5398 19.7338 31.5397 19.0568 31.9518C18.8581 32.0727 18.6291 32.1367 18.3947 32.1367C18.1603 32.1367 17.9313 32.0727 17.7326 31.9518C17.0528 31.538 16.2133 31.5371 15.5416 31.9493C15.3217 32.0843 15.0675 32.1485 14.8064 32.1349C14.1742 32.102 13.6449 31.5822 13.6012 30.9514C13.5839 30.6998 13.64 30.4545 13.7584 30.241ZM16.0362 38.902C14.6919 38.902 13.5981 37.8082 13.5981 36.4638C13.5981 36.197 13.8152 35.9799 14.0821 35.9799H29.746C30.0128 35.9799 30.2299 36.197 30.2299 36.4638C30.2299 37.8082 29.1362 38.902 27.7918 38.902H16.0362ZM37.3322 38.902H30.3494C30.955 38.267 31.328 37.4084 31.328 36.4638C31.328 35.9242 31.0562 35.4471 30.6426 35.1614C31.0675 34.7043 31.328 34.0926 31.328 33.4208C31.328 32.9586 31.2027 32.5079 30.9694 32.1151C31.1688 31.7955 31.2947 31.4251 31.3222 31.027C31.3593 30.4903 31.2165 29.9682 30.9233 29.5337C30.9247 29.5318 30.9261 29.5301 30.9275 29.5281C31.3336 28.9548 31.4368 28.217 31.2037 27.5542C30.3945 25.2536 28.7816 23.3948 26.7475 22.2474L26.6428 20.5015H38.4357L37.3322 38.902Z" fill="#052A75"/>
</svg>
