<svg width="53" height="52" viewBox="0 0 53 52" fill="none" xmlns="http://www.w3.org/2000/svg">
<rect x="1" y="0.5" width="51" height="51" rx="25.5" fill="white"/>
<rect x="1" y="0.5" width="51" height="51" rx="25.5" stroke="#EFEFEF"/>
<path d="M36.5883 26.0019H16.4119V39.451H36.5883V26.0019Z" fill="#FDBEB9"/>
<path d="M21.798 32.7256C21.798 30.3256 22.3233 28.0485 23.264 26.0019H16.4119V39.451H23.2648C22.3237 37.4039 21.798 35.1262 21.798 32.7256Z" fill="#FD7DA0"/>
<path d="M28.1001 29.5327C27.462 29.5327 26.8899 29.8141 26.5002 30.2592C26.1103 29.8141 25.5383 29.5327 24.9002 29.5327C23.7258 29.5327 22.7737 30.4847 22.7737 31.6591C22.7737 32.8312 23.7698 34.2087 26.5002 35.9182C29.2305 34.2088 30.2266 32.8312 30.2266 31.6591C30.2266 30.4847 29.2746 29.5327 28.1001 29.5327Z" fill="#D63B78"/>
<path d="M21.456 26.0019V20.9559C21.456 18.1701 23.7143 15.9118 26.5001 15.9118C29.2859 15.9118 31.5442 18.1701 31.5442 20.9559V22.6372H34.907V20.9559C34.907 16.3129 31.1431 12.549 26.5001 12.549C21.8572 12.549 18.0933 16.3129 18.0933 20.9559V26.0019H21.456Z" fill="#D2DCFD"/>
<path d="M36.5883 25.4529H22.005V20.9559C22.2523 14.9919 30.7493 14.9948 30.9951 20.9559V22.6373C30.9951 22.9405 31.241 23.1863 31.5442 23.1863H34.9069C35.2101 23.1863 35.4559 22.9405 35.4559 22.6373V20.9559C35.4559 16.0176 31.4383 12 26.5 12C21.5618 12 17.5442 16.0176 17.5442 20.9559V25.4529H16.4118C16.1086 25.4529 15.8628 25.6987 15.8628 26.0019V39.451C15.8628 39.7542 16.1086 40 16.4118 40H36.5883C36.8915 40 37.1373 39.7542 37.1373 39.451V26.0019C37.1373 25.6987 36.8915 25.4529 36.5883 25.4529ZM18.6422 20.9559C18.6422 16.6231 22.1672 13.098 26.5 13.098C30.8329 13.098 34.3579 16.6231 34.3579 20.9559V22.0882H32.0932V20.9559C32.0932 17.8718 29.5841 15.3627 26.5 15.3627C23.416 15.3627 20.9069 17.8718 20.9069 20.9559V25.4529H18.6422V20.9559ZM36.0393 38.902H16.9608V26.5509H36.0393V38.902Z" fill="#052A75"/>
<path d="M18.6749 28.8631C18.0298 28.8778 17.932 27.8866 18.5679 27.7755C19.3442 27.6357 19.4639 28.8482 18.6749 28.8631Z" fill="#052A75"/>
<path d="M34.3171 28.9186C33.6717 28.9351 33.5731 27.9418 34.2095 27.8315C34.986 27.691 35.1059 28.9044 34.3171 28.9186Z" fill="#052A75"/>
<path d="M18.6748 37.4125C18.0299 37.4284 17.9319 36.4356 18.5678 36.3254C19.3444 36.1849 19.4633 37.399 18.6748 37.4125Z" fill="#052A75"/>
<path d="M34.317 37.4685C33.6717 37.4842 33.5732 36.4919 34.2094 36.3814C34.9857 36.2411 35.1057 37.4535 34.317 37.4685Z" fill="#052A75"/>
</svg>
