<svg width="20" height="20" viewBox="0 0 20 20" fill="none" xmlns="http://www.w3.org/2000/svg">
<path d="M9.40866 12.742C9.37282 12.7816 9.33943 12.8233 9.30866 12.867C9.27712 12.9134 9.2519 12.9639 9.23366 13.017C9.20964 13.0642 9.19278 13.1148 9.18366 13.167C9.17957 13.2225 9.17957 13.2782 9.18366 13.3337C9.18085 13.443 9.20368 13.5514 9.25033 13.6503C9.28776 13.7537 9.34747 13.8477 9.42523 13.9254C9.503 14.0032 9.59692 14.0629 9.70033 14.1003C9.80008 14.1444 9.90794 14.1672 10.017 14.1672C10.1261 14.1672 10.2339 14.1444 10.3337 14.1003C10.4371 14.0629 10.531 14.0032 10.6088 13.9254C10.6865 13.8477 10.7462 13.7537 10.7837 13.6503C10.8207 13.549 10.8376 13.4415 10.8337 13.3337C10.8343 13.224 10.8133 13.1153 10.7718 13.0137C10.7303 12.9122 10.6692 12.8199 10.592 12.742C10.5145 12.6639 10.4224 12.6019 10.3208 12.5596C10.2193 12.5173 10.1103 12.4955 10.0003 12.4955C9.89032 12.4955 9.7814 12.5173 9.67985 12.5596C9.5783 12.6019 9.48613 12.6639 9.40866 12.742ZM10.0003 1.66699C8.35215 1.66699 6.74099 2.15573 5.37058 3.07141C4.00017 3.98709 2.93206 5.28858 2.30133 6.8113C1.6706 8.33401 1.50558 10.0096 1.82712 11.6261C2.14866 13.2426 2.94234 14.7274 4.10777 15.8929C5.27321 17.0583 6.75807 17.852 8.37458 18.1735C9.99109 18.4951 11.6666 18.3301 13.1894 17.6993C14.7121 17.0686 16.0136 16.0005 16.9292 14.6301C17.8449 13.2597 18.3337 11.6485 18.3337 10.0003C18.3337 8.90598 18.1181 7.82234 17.6993 6.8113C17.2805 5.80025 16.6667 4.88159 15.8929 4.10777C15.1191 3.33395 14.2004 2.72012 13.1894 2.30133C12.1783 1.88254 11.0947 1.66699 10.0003 1.66699ZM10.0003 16.667C8.68179 16.667 7.39286 16.276 6.29653 15.5435C5.2002 14.8109 4.34572 13.7697 3.84113 12.5515C3.33655 11.3334 3.20453 9.99293 3.46176 8.69972C3.719 7.40652 4.35393 6.21863 5.28628 5.28628C6.21863 4.35393 7.40652 3.71899 8.69973 3.46176C9.99293 3.20452 11.3334 3.33654 12.5516 3.84113C13.7697 4.34571 14.8109 5.2002 15.5435 6.29652C16.276 7.39285 16.667 8.68178 16.667 10.0003C16.667 11.7684 15.9646 13.4641 14.7144 14.7144C13.4641 15.9646 11.7684 16.667 10.0003 16.667ZM10.0003 5.83366C9.56122 5.83338 9.12977 5.94876 8.74942 6.16819C8.36907 6.38763 8.05322 6.70338 7.83366 7.08366C7.77337 7.17851 7.73288 7.28457 7.71464 7.39547C7.6964 7.50637 7.70078 7.61982 7.72752 7.72898C7.75426 7.83814 7.8028 7.94077 7.87023 8.03069C7.93766 8.1206 8.02258 8.19595 8.11989 8.2522C8.21719 8.30844 8.32487 8.34442 8.43644 8.35797C8.54801 8.37153 8.66117 8.36237 8.76911 8.33106C8.87705 8.29974 8.97754 8.24692 9.06454 8.17576C9.15153 8.1046 9.22323 8.01658 9.27533 7.91699C9.34875 7.78982 9.45447 7.68431 9.58178 7.61114C9.7091 7.53797 9.85349 7.49974 10.0003 7.50033C10.2213 7.50033 10.4333 7.58812 10.5896 7.7444C10.7459 7.90068 10.8337 8.11265 10.8337 8.33366C10.8337 8.55467 10.7459 8.76663 10.5896 8.92291C10.4333 9.0792 10.2213 9.16699 10.0003 9.16699C9.77932 9.16699 9.56735 9.25479 9.41107 9.41107C9.25479 9.56735 9.167 9.77931 9.167 10.0003V10.8337C9.167 11.0547 9.25479 11.2666 9.41107 11.4229C9.56735 11.5792 9.77932 11.667 10.0003 11.667C10.2213 11.667 10.4333 11.5792 10.5896 11.4229C10.7459 11.2666 10.8337 11.0547 10.8337 10.8337V10.6837C11.3848 10.4837 11.8481 10.0963 12.1426 9.58938C12.4372 9.08242 12.5441 8.48807 12.4448 7.91023C12.3455 7.3324 12.0463 6.80784 11.5995 6.42826C11.1527 6.04867 10.5866 5.83821 10.0003 5.83366Z" fill="#5E5E5E"/>
</svg>
