<svg width="53" height="52" viewBox="0 0 53 52" fill="none" xmlns="http://www.w3.org/2000/svg">
<rect x="1" y="0.5" width="51" height="51" rx="25.5" fill="white"/>
<rect x="1" y="0.5" width="51" height="51" rx="25.5" stroke="#EFEFEF"/>
<g clip-path="url(#clip0_960_16097)">
<path d="M34.8787 23.613H23.6546C22.6394 23.613 21.8164 24.4359 21.8164 25.4512V33.933C21.8164 34.9482 22.6393 35.7712 23.6546 35.7712H32.9085C33.41 35.7712 33.8959 35.9452 34.2835 36.2635L35.8315 37.5351C36.1849 37.8254 36.7168 37.574 36.7168 37.1166V25.4512C36.7168 24.436 35.8938 23.613 34.8787 23.613Z" fill="#FD7DA0"/>
<path d="M23.6546 23.6131C22.6394 23.6131 21.8164 24.436 21.8164 25.4512V32.2367H26.1091C28.1479 32.2367 29.8066 30.578 29.8066 28.5392V23.6131H23.6546Z" fill="#DB4B86"/>
<path d="M38.115 14.3403H26.8909C25.8757 14.3403 25.0527 15.1632 25.0527 16.1785V24.6603C25.0527 25.6755 25.8757 26.4985 26.8909 26.4985H36.1448C36.6463 26.4985 37.1323 26.6725 37.5198 26.9908L39.0678 28.2624C39.4212 28.5527 39.9531 28.3013 39.9531 27.8439V16.1785C39.9531 15.1632 39.1302 14.3403 38.115 14.3403Z" fill="#67CCD1"/>
<path d="M26.1091 16.3598H25.0527V24.6603C25.0527 25.6755 25.8757 26.4985 26.8908 26.4985H29.8066V20.0573C29.8066 18.0185 28.1479 16.3598 26.1091 16.3598Z" fill="#27A2CC"/>
<path d="M14.885 18.2192H26.1091C27.1243 18.2192 27.9473 19.0421 27.9473 20.0573V28.5391C27.9473 29.5543 27.1244 30.3773 26.1091 30.3773H16.8551C16.3537 30.3773 15.8677 30.5513 15.4802 30.8696L13.9322 32.1412C13.5788 32.4315 13.0469 32.1801 13.0469 31.7227V20.0573C13.0469 19.0421 13.8698 18.2192 14.885 18.2192Z" fill="#FDCB50"/>
<path d="M17.3889 24.4405C16.5844 23.636 16.6466 22.2879 17.5757 21.5675C17.8466 21.3574 18.1721 21.224 18.5127 21.1845C19.1088 21.1153 19.6818 21.3164 20.0974 21.732L20.497 22.1316L20.8966 21.732C21.3123 21.3163 21.8855 21.1152 22.4817 21.1845C22.8223 21.2241 23.1478 21.3576 23.4188 21.5679C24.3473 22.2884 24.4094 23.6361 23.605 24.4405L20.8582 27.1873C20.6587 27.3868 20.3352 27.3868 20.1357 27.1873L17.3889 24.4405Z" fill="#FD7DA0"/>
<path d="M34.2262 29.8304H26.1091C25.8071 29.8304 25.5623 30.0753 25.5623 30.3773C25.5623 30.6793 25.8071 30.9242 26.1091 30.9242H34.2262C34.5282 30.9242 34.7731 30.6793 34.7731 30.3773C34.7731 30.0753 34.5283 29.8304 34.2262 29.8304Z" fill="white"/>
<path d="M34.2262 32.2467H24.3069C24.0048 32.2467 23.76 32.4916 23.76 32.7936C23.76 33.0956 24.0048 33.3405 24.3069 33.3405H34.2262C34.5281 33.3405 34.773 33.0956 34.773 32.7936C34.773 32.4916 34.5282 32.2467 34.2262 32.2467Z" fill="white"/>
<path d="M36.4734 19.5876C36.7754 19.5876 37.0203 19.3427 37.0203 19.0407C37.0203 18.7387 36.7754 18.4939 36.4734 18.4939H35.988L36.2324 17.6016C36.3121 17.3103 36.1406 17.0094 35.8494 16.9297C35.5581 16.85 35.2572 17.0213 35.1775 17.3127L34.854 18.4939H33.146L33.3904 17.6016C33.4702 17.3103 33.2987 17.0095 33.0074 16.9297C32.7161 16.8501 32.4153 17.0214 32.3355 17.3127L32.0121 18.494H31.0066C30.7046 18.494 30.4598 18.7389 30.4598 19.0408C30.4598 19.3428 30.7046 19.5877 31.0066 19.5877H31.7124L31.2708 21.2002H30.4922C30.1902 21.2002 29.9453 21.4451 29.9453 21.7471C29.9453 22.0491 30.1902 22.294 30.4922 22.294H30.9713L30.7188 23.2162C30.639 23.5076 30.8105 23.8084 31.1017 23.8881C31.1501 23.9014 31.1986 23.9077 31.2465 23.9077C31.4868 23.9077 31.7071 23.7481 31.7736 23.5051L32.1053 22.294H33.8133L33.5608 23.2162C33.481 23.5076 33.6525 23.8084 33.9437 23.8881C33.9921 23.9014 34.0406 23.9077 34.0885 23.9077C34.3288 23.9077 34.5491 23.7481 34.6156 23.5051L34.9473 22.294H35.9589C36.2609 22.294 36.5058 22.0491 36.5058 21.7471C36.5058 21.4451 36.2609 21.2002 35.9589 21.2002H35.2468L35.6884 19.5877H36.4734V19.5876ZM34.1128 21.2001H32.4048L32.8464 19.5876H34.5544L34.1128 21.2001Z" fill="white"/>
<path d="M38.115 13.7934H26.8909C25.5758 13.7934 24.5059 14.8633 24.5059 16.1784V17.6722H14.885C13.5699 17.6723 12.5 18.7422 12.5 20.0573V31.7228C12.5 32.148 12.7388 32.525 13.1233 32.7068C13.2737 32.7779 13.4329 32.8128 13.5908 32.8128C13.8367 32.8128 14.0792 32.7282 14.2793 32.5638L15.8272 31.2922C16.1162 31.0549 16.4812 30.9242 16.8551 30.9242H21.2695V33.9331C21.2695 35.2482 22.3394 36.3181 23.6545 36.3181H32.9084C33.2823 36.3181 33.6474 36.4488 33.9363 36.6861L35.4843 37.9576C35.6844 38.122 35.9269 38.2066 36.1727 38.2066C36.3307 38.2066 36.49 38.1717 36.6403 38.1007C37.0248 37.919 37.2636 37.5419 37.2636 37.1166V27.4881L38.7206 28.6849C38.9207 28.8493 39.1632 28.9339 39.4091 28.9339C39.567 28.9339 39.7264 28.899 39.8767 28.8279C40.2611 28.6462 40.4999 28.2691 40.4999 27.8439V16.1784C40.5 14.8633 39.4301 13.7934 38.115 13.7934ZM15.133 30.447L13.5938 31.7112V20.0573C13.5938 19.3452 14.173 18.7661 14.885 18.7661H26.1091C26.8211 18.7661 27.4003 19.3453 27.4003 20.0573V28.5392C27.4003 29.2512 26.8211 29.8304 26.1091 29.8304H16.8551C16.2288 29.8304 15.6172 30.0494 15.133 30.447ZM34.6306 35.8409C34.1465 35.4432 33.5349 35.2243 32.9086 35.2243H23.6546C22.9425 35.2243 22.3633 34.645 22.3633 33.933V30.9242H26.1091C27.4242 30.9242 28.4941 29.8543 28.4941 28.5392V27.0454H36.1448C36.1532 27.0454 36.1615 27.0463 36.1698 27.0464L36.1697 37.1052L34.6306 35.8409ZM39.4061 27.8325L37.8669 26.5682C37.3828 26.1705 36.7712 25.9516 36.1449 25.9516H28.4941V20.0573C28.4941 18.7422 27.4243 17.6723 26.1091 17.6723H25.5997V16.1784C25.5997 15.4664 26.1789 14.8872 26.8909 14.8872H38.115C38.8271 14.8872 39.4062 15.4664 39.4062 16.1784L39.4061 27.8325Z" fill="#052A75"/>
</g>
<defs>
<clipPath id="clip0_960_16097">
<rect width="28" height="28" fill="white" transform="translate(12.5 12)"/>
</clipPath>
</defs>
</svg>
