<svg width="53" height="52" viewBox="0 0 53 52" fill="none" xmlns="http://www.w3.org/2000/svg">
<rect x="1" y="0.5" width="51" height="51" rx="25.5" fill="white"/>
<rect x="1" y="0.5" width="51" height="51" rx="25.5" stroke="#EFEFEF"/>
<g clip-path="url(#clip0_960_16069)">
<path fill-rule="evenodd" clip-rule="evenodd" d="M37.8956 16.3582L39.484 14.3788C39.913 13.8441 40.1796 13.3118 39.6798 12.8119C39.18 12.3121 38.5833 12.6304 38.113 13.0078L36.1335 14.5962C36.7219 15.1743 37.3174 15.7699 37.8956 16.3582Z" fill="#FDE0BE"/>
<path fill-rule="evenodd" clip-rule="evenodd" d="M37.8957 16.3582C37.3176 15.7699 36.722 15.1742 36.1337 14.5962C36.0307 14.4949 35.9279 14.3943 35.8255 14.2943C32.9673 11.5038 29.2126 15.4367 31.3356 17.5598L34.9321 21.1563C37.0552 23.2794 40.9881 19.5246 38.1976 16.6665C38.0976 16.564 37.997 16.4613 37.8957 16.3582Z" fill="#D46B5C"/>
<path fill-rule="evenodd" clip-rule="evenodd" d="M34.932 21.1563L31.3355 17.5598C31.3337 17.5581 31.332 17.5564 31.3303 17.5546L30.6489 16.8733C30.0632 16.2875 29.1048 16.2875 28.5191 16.8733C27.9334 17.459 27.9334 18.4174 28.5191 19.0031L29.8172 20.3012C29.8174 20.3014 29.8176 20.3016 29.8178 20.3018L32.19 22.674C32.1902 22.6742 32.1904 22.6744 32.1907 22.6746L33.4887 23.9727C34.0744 24.5584 35.0328 24.5584 35.6185 23.9727C36.2043 23.387 36.2043 22.4286 35.6185 21.8428L34.932 21.1563Z" fill="#B1D952"/>
<path fill-rule="evenodd" clip-rule="evenodd" d="M32.1901 22.674L29.8179 20.3018L29.8173 20.3011C26.9592 17.5119 23.2052 21.4443 25.3281 23.5673L28.9246 27.1637C31.0475 29.2867 34.9799 25.5326 32.1907 22.6745L32.1901 22.674Z" fill="#D46B5C"/>
<path fill-rule="evenodd" clip-rule="evenodd" d="M28.9246 27.1638L25.3281 23.5673L25.3229 23.5621L24.6416 22.8807C24.0559 22.295 23.0975 22.295 22.5118 22.8807C21.9261 23.4664 21.9261 24.4248 22.5118 25.0106L23.8098 26.3086C23.8101 26.3088 23.8103 26.3091 23.8105 26.3093L26.1827 28.6815L27.4814 29.9802C28.0671 30.5659 29.0255 30.5659 29.6112 29.9802C30.1969 29.3944 30.1969 28.4361 29.6112 27.8503L28.9246 27.1638Z" fill="#B1D952"/>
<path fill-rule="evenodd" clip-rule="evenodd" d="M26.1825 28.6814L23.8104 26.3092L23.8097 26.3086C20.9516 23.5194 17.1976 27.4518 19.3205 29.5748L22.917 33.1712C25.0401 35.2943 28.973 31.5396 26.1825 28.6814Z" fill="#D46B5C"/>
<path fill-rule="evenodd" clip-rule="evenodd" d="M19.8704 34.3842L18.1076 32.6215L13.4126 37.3165C12.9279 37.8012 12.9279 38.5945 13.4126 39.0792C13.8973 39.564 14.6906 39.564 15.1753 39.0792L19.8704 34.3842Z" fill="#FDE0BE"/>
<path fill-rule="evenodd" clip-rule="evenodd" d="M18.1076 32.6215L19.8704 34.3842L21.4738 35.9876C22.0595 36.5733 23.0179 36.5733 23.6036 35.9876C24.1893 35.4019 24.1893 34.4435 23.6036 33.8578L22.9171 33.1712L19.3206 29.5747L19.3154 29.5695L18.634 28.8882C18.0483 28.3025 17.0899 28.3025 16.5042 28.8882C15.9185 29.4739 15.9185 30.4323 16.5042 31.018L18.1076 32.6215Z" fill="#B1D952"/>
<path fill-rule="evenodd" clip-rule="evenodd" d="M24.073 33.7719C22.2518 31.7667 21.0274 28.5727 21.3247 25.3619C19.3014 25.5974 17.801 28.0462 19.3153 29.5696C19.317 29.5713 19.3188 29.5731 19.3205 29.5748L22.917 33.1712C23.2661 33.5203 23.6641 33.7105 24.073 33.7719Z" fill="#B55348"/>
<path fill-rule="evenodd" clip-rule="evenodd" d="M30.0806 27.7644C28.2593 25.7592 27.0349 22.5652 27.3322 19.3543C25.309 19.5899 23.8086 22.0387 25.3229 23.5621C25.3246 23.5638 25.3263 23.5656 25.3281 23.5673L28.9246 27.1637C29.2737 27.5128 29.6716 27.703 30.0806 27.7644Z" fill="#B55348"/>
<path fill-rule="evenodd" clip-rule="evenodd" d="M36.0879 21.757C34.2667 19.7518 33.0423 16.5578 33.3395 13.3469C31.3163 13.5824 29.8159 16.0313 31.3302 17.5546C31.3319 17.5564 31.3337 17.5581 31.3354 17.5598L34.9319 21.1563C35.281 21.5053 35.679 21.6955 36.0879 21.757Z" fill="#B55348"/>
<path d="M40.0681 12.4237C39.7182 12.0739 38.9543 11.6288 37.7694 12.5795L36.1695 13.8634C35.1618 12.901 34.1434 12.7448 33.4627 12.7852C32.6064 12.8358 31.7849 13.2177 31.1496 13.8607C30.5871 14.4301 30.2077 15.1901 30.1653 15.9674C29.9791 15.9131 29.7839 15.885 29.5841 15.885C29.034 15.885 28.518 16.0981 28.131 16.4851C27.7441 16.8721 27.531 17.3882 27.531 17.9383C27.531 18.2365 27.5937 18.5247 27.7127 18.7878C27.6225 18.786 27.5365 18.788 27.4553 18.7928C26.599 18.8433 25.7775 19.2253 25.1423 19.8682C24.5797 20.4376 24.2003 21.1976 24.1579 21.975C23.9717 21.9207 23.7765 21.8926 23.5767 21.8926C23.0266 21.8926 22.5106 22.1057 22.1237 22.4927C21.7367 22.8796 21.5235 23.3957 21.5235 23.9458C21.5235 24.2441 21.5862 24.5322 21.7052 24.7953C21.615 24.7935 21.529 24.7955 21.4478 24.8003C20.5915 24.8508 19.7701 25.2328 19.1348 25.8757C18.5722 26.4451 18.1928 27.2052 18.1504 27.9825C17.4522 27.7779 16.6659 27.9504 16.1162 28.5001C15.3149 29.3014 15.3149 30.6052 16.1162 31.4065L17.3313 32.6217L13.0244 36.9283C12.6862 37.2664 12.5 37.7173 12.5 38.1978C12.5 38.6784 12.6862 39.1293 13.0244 39.4674C13.3625 39.8055 13.8134 39.9918 14.2939 39.9918C14.7744 39.9918 15.2254 39.8056 15.5635 39.4675L19.8703 35.1606L21.0856 36.3759C21.4862 36.7765 22.0124 36.9768 22.5387 36.9768C23.0649 36.9768 23.5912 36.7765 23.9918 36.3759C24.3788 35.9889 24.5919 35.4728 24.5919 34.9227C24.5919 34.723 24.5638 34.5277 24.5095 34.3416C25.2868 34.2991 26.0469 33.9198 26.6163 33.3572C27.2593 32.722 27.6412 31.9005 27.6917 31.0442C27.6965 30.963 27.6985 30.8769 27.6967 30.7866C27.9658 30.9084 28.256 30.9693 28.5462 30.9693C29.0724 30.9693 29.5987 30.7691 29.9993 30.3684C30.5491 29.8187 30.7216 29.0324 30.517 28.3341C31.2943 28.2917 32.0544 27.9123 32.6238 27.3498C33.2667 26.7145 33.6486 25.8931 33.6992 25.0368C33.7039 24.9555 33.706 24.8694 33.7041 24.7791C33.9732 24.901 34.2634 24.9619 34.5537 24.9619C35.0799 24.9619 35.6062 24.7616 36.0068 24.361C36.5565 23.8112 36.729 23.0249 36.5244 22.3267C37.3017 22.2842 38.0619 21.9049 38.6312 21.3423C39.2742 20.7071 39.6561 19.8856 39.7066 19.0293C39.7468 18.3487 39.5908 17.3302 38.6283 16.3224L39.9122 14.7225C40.2259 14.3316 40.3968 14.0164 40.4664 13.7005C40.5702 13.2295 40.4324 12.7881 40.0681 12.4237ZM14.7871 38.691C14.6564 38.8218 14.4812 38.8938 14.294 38.8938C14.1067 38.8938 13.9316 38.8218 13.8008 38.691C13.5289 38.4191 13.5289 37.9766 13.8008 37.7047L18.1077 33.3979L19.094 34.3842L14.7871 38.691ZM23.2154 35.5994C22.8423 35.9726 22.2352 35.9726 21.862 35.5994L16.8924 30.6298C16.5193 30.2567 16.5193 29.6495 16.8924 29.2764C17.2655 28.9033 17.8726 28.9032 18.2458 29.2764L23.2154 34.246C23.395 34.4256 23.4939 34.6659 23.4939 34.9227C23.4939 35.1795 23.395 35.4199 23.2154 35.5994ZM25.8445 32.5761C25.1793 33.2336 24.1009 33.5786 23.3053 32.7831L19.7088 29.1866C18.9132 28.391 19.2583 27.3126 19.9157 26.6473C20.7595 25.7933 22.1712 25.4787 23.4241 26.6994L25.7934 29.0687C27.013 30.3213 26.6983 31.7325 25.8445 32.5761ZM29.2229 29.5919C28.8497 29.965 28.2426 29.965 27.8695 29.5919L22.8999 24.6223C22.7203 24.4427 22.6214 24.2024 22.6214 23.9456C22.6214 23.6888 22.7203 23.4485 22.8999 23.2689C22.8999 23.2689 22.8999 23.2689 22.8999 23.2689C23.0794 23.0893 23.3197 22.9904 23.5765 22.9904C23.8333 22.9904 24.0736 23.0894 24.2532 23.2689L29.2228 28.2385C29.596 28.6116 29.596 29.2189 29.2229 29.5919ZM31.8519 26.5686C31.1868 27.2261 30.1084 27.5711 29.3127 26.7756C29.3127 26.7755 29.3126 26.7755 29.3126 26.7754L25.716 23.1788C24.9207 22.3833 25.2659 21.3051 25.9232 20.6399C26.7669 19.786 28.1785 19.4713 29.4313 20.6917L31.7988 23.0592C33.0208 24.3122 32.7062 25.7246 31.8519 26.5686ZM35.2304 23.5845C34.8572 23.9576 34.2501 23.9576 33.877 23.5845L28.9074 18.6148C28.7278 18.4352 28.6289 18.1949 28.6289 17.9382C28.6289 17.6813 28.7278 17.441 28.9074 17.2615C29.0869 17.0819 29.3272 16.983 29.584 16.983C29.8408 16.983 30.0811 17.0819 30.2607 17.2615L35.2303 22.2311C35.6035 22.6041 35.6035 23.2114 35.2304 23.5845ZM37.8595 20.5611C37.1942 21.2185 36.1159 21.5636 35.3202 20.7681C35.3201 20.768 35.32 20.7679 35.32 20.7678L31.7245 17.1724C31.7242 17.1721 31.724 17.1718 31.7238 17.1716C30.9282 16.3761 31.2733 15.2977 31.9307 14.6324C32.7751 13.7779 34.1883 13.4633 35.4419 14.6872C36.2237 15.4505 37.0408 16.2676 37.8047 17.0501C39.0286 18.3035 38.7141 19.7167 37.8595 20.5611ZM39.0558 14.0352L37.8532 15.5338C37.5568 15.2348 37.2569 14.9349 36.958 14.6386L38.4566 13.436C39.0506 12.9592 39.2073 13.116 39.2916 13.2002C39.4101 13.3186 39.5326 13.4411 39.0558 14.0352Z" fill="#052A75"/>
</g>
<defs>
<clipPath id="clip0_960_16069">
<rect width="28" height="28" fill="white" transform="translate(12.5 12)"/>
</clipPath>
</defs>
</svg>
