<svg width="53" height="52" viewBox="0 0 53 52" fill="none" xmlns="http://www.w3.org/2000/svg">
<rect x="1" y="0.5" width="51" height="51" rx="25.5" fill="white"/>
<rect x="1" y="0.5" width="51" height="51" rx="25.5" stroke="#EFEFEF"/>
<g clip-path="url(#clip0_960_16164)">
<path d="M35.0166 39.4509H17.9836C17.0777 39.4509 16.3433 38.7165 16.3433 37.8106V26.2745H36.6569V37.8106C36.6569 38.7165 35.9225 39.4509 35.0166 39.4509Z" fill="#F7B073"/>
<path d="M21.1718 26H16.3433V37.5294C16.3433 38.439 17.0806 39.1764 17.9903 39.1764H27.2341C23.8527 35.7078 21.6251 31.1089 21.1718 26Z" fill="#D46B5C"/>
<path d="M27.3236 26.2745C27.3236 24.5067 26.5274 23.0135 25.229 22.0099H18.3759C17.0775 23.0135 16.3433 24.5067 16.3433 26.2745H27.3236Z" fill="#D46B5C"/>
<path d="M16.8921 17.9706C16.8921 15.2417 19.1043 13.6471 21.8332 13.6471C24.5622 13.6471 26.7744 15.2417 26.7744 17.9706C26.7744 20.6996 24.5622 23.5294 21.8332 23.5294C19.1043 23.5294 16.8921 20.6996 16.8921 17.9706Z" fill="#D46B5C"/>
<path d="M26.1948 12.5491C25.2194 12.5491 24.4306 13.0771 24.144 13.958L26.6498 16.8955C29.1981 16.3026 28.835 12.6121 26.1948 12.5491Z" fill="#D46B5C"/>
<path d="M17.4718 12.5491C14.8297 12.6129 14.4703 16.3037 17.0169 16.8955L19.5081 13.9212C19.2216 13.0403 18.4473 12.5491 17.4718 12.5491Z" fill="#D46B5C"/>
<path d="M20.4607 19.6863C20.4607 19.0799 21.0752 19.1373 21.8332 19.1373C22.5913 19.1373 23.2058 19.0799 23.2058 19.6863C23.2058 20.2928 22.5913 21.3334 21.8332 21.3334C21.0752 21.3334 20.4607 20.2928 20.4607 19.6863Z" fill="#6864F7"/>
<path d="M31.7157 20.2353C29.4378 20.2353 27.5549 21.8133 26.9834 24.1422L27.2878 25.7255H36.6569C36.6569 22.6933 34.4449 20.2353 31.7157 20.2353Z" fill="#FDCB50"/>
<path d="M31.7157 20.2353C30.8059 20.2353 30.0686 22.6933 30.0686 25.7255H33.3627C33.3627 22.6933 32.6254 20.2353 31.7157 20.2353Z" fill="#6864F7"/>
<path d="M26.5203 30.7422C29.2921 27.7724 33.2273 32.8985 26.4259 35.9331C19.7376 32.6514 23.8603 27.6742 26.5203 30.7422Z" fill="#FD7DA0"/>
<path d="M40.2554 28.0137L37.158 25.9488C37.5035 19.6623 29.5727 17.1941 26.835 22.9031C26.5805 22.5379 26.2814 22.1986 25.9398 21.8897C26.9665 20.5533 27.4854 18.8864 27.2765 17.2695C29.9853 16.0754 29.1763 12.0351 26.1948 12.0001C25.1293 12.0001 24.2466 12.516 23.797 13.3727C22.6226 13.0089 21.0487 13.0084 19.8738 13.3715C19.4364 12.5053 18.5656 12.0001 17.4718 12.0001C14.4894 12.0351 13.6823 16.0766 16.3902 17.2695C16.1827 18.8734 16.6921 20.5262 17.7024 21.8577C16.539 22.9032 15.8734 24.3425 15.8012 25.976L12.7445 28.0137C12.4922 28.182 12.4241 28.5228 12.5923 28.7751C12.7615 29.0294 13.1046 29.0942 13.3536 28.9274L15.7942 27.3004V37.8106C15.7942 39.0178 16.7763 40 17.9835 40H35.0165C36.2237 40 37.2058 39.0178 37.2058 37.8106V27.3004L39.6464 28.9274C39.8953 29.0942 40.2385 29.0293 40.4077 28.7751C40.5759 28.5229 40.5077 28.182 40.2554 28.0137ZM31.7156 20.7843C34.1374 20.7843 36.1078 23.0009 36.1078 25.7255H27.8484C27.8034 25.2088 27.6946 24.7113 27.5254 24.2397C28.0472 22.1716 29.7268 20.7843 31.7156 20.7843ZM26.745 25.7255H25.5546C25.7785 24.7085 25.7139 23.6722 25.2236 22.7225C26.0927 23.5187 26.6195 24.5599 26.745 25.7255ZM19.2448 25.7255C19.0203 24.9945 19.0351 23.9894 19.294 23.3273C20.8324 24.3107 22.7644 24.3262 24.314 23.3637C24.6373 24.0136 24.6497 24.9956 24.4218 25.7255H19.2448ZM21.8333 20.7843C21.463 20.7843 21.03 20.0913 21.0105 19.7123C21.2727 19.6661 21.7154 19.6926 22.0183 19.6855C22.2224 19.6843 22.5162 19.6825 22.6562 19.7123C22.6366 20.0913 22.2036 20.7843 21.8333 20.7843ZM26.1948 13.0981C27.8929 13.1112 28.4622 15.3583 26.9975 16.1853C26.5951 15.156 25.8376 14.3287 24.8229 13.7906C25.0985 13.3512 25.5887 13.0981 26.1948 13.0981ZM15.8232 14.7466C15.823 13.1101 17.9989 12.4955 18.8481 13.7883C17.8312 14.3264 17.072 15.1545 16.6691 16.1853C16.1599 15.9001 15.8232 15.3531 15.8232 14.7466ZM17.5397 17.0624C18.4175 13.248 25.1552 13.2149 26.11 16.9932C26.6985 19.4208 24.9028 22.4999 22.3823 22.9356V21.7725C23.3876 21.365 24.2132 19.7141 23.4655 18.9344C23.0414 18.5023 22.2804 18.5999 21.6553 18.5876C21.0899 18.5841 20.5571 18.5807 20.2012 18.9344C19.4534 19.7146 20.2789 21.3644 21.2843 21.7725V22.9356C18.7857 22.5052 17.0035 19.4739 17.5397 17.0624ZM18.3365 22.7671C17.9644 23.5854 17.8943 24.7779 18.112 25.7255H16.9197C17.0366 24.5639 17.527 23.54 18.3365 22.7671ZM36.1078 37.8106C36.1078 38.4124 35.6182 38.9019 35.0164 38.9019H17.9835C17.3817 38.9019 16.8921 38.4124 16.8921 37.8106V26.8235C21.7097 26.8235 31.2029 26.8235 36.1078 26.8235V37.8106Z" fill="#052A75"/>
<path d="M24.6956 29.2436C23.319 29.1959 22.2463 30.4295 22.2483 31.7846C22.2305 32.7588 22.7173 34.6567 26.1763 36.4222C26.2546 36.4622 26.3402 36.4822 26.4259 36.4822C26.5049 36.4822 26.5841 36.4652 26.6576 36.4309C30.1785 34.7923 30.734 32.9134 30.7517 31.9392C30.7624 29.4919 28.2319 28.5744 26.5347 29.9534C26.1605 29.6286 25.5495 29.2591 24.6956 29.2436ZM26.9658 31.0631C27.2494 30.6207 28.5464 29.9561 29.2946 30.8455C30.4344 32.4541 28.7333 34.1962 26.437 35.3195C24.1845 34.1149 22.5461 32.3102 23.7441 30.7446C23.9102 30.5561 24.2327 30.3293 24.6756 30.3415C25.5662 30.3577 26.026 30.9928 26.0618 31.0443C26.1604 31.2006 26.3238 31.2987 26.5087 31.3021C26.6939 31.305 26.8617 31.2168 26.9658 31.0631Z" fill="#052A75"/>
<path d="M23.4804 17.4902C23.7836 17.4902 24.0294 17.2444 24.0294 16.9412V16.3922C24.0026 15.6649 22.9582 15.6648 22.9314 16.3922V16.9412C22.9314 17.2444 23.1772 17.4902 23.4804 17.4902Z" fill="#052A75"/>
<path d="M20.1862 17.4902C20.4894 17.4902 20.7352 17.2444 20.7352 16.9412V16.3922C20.7084 15.6649 19.6641 15.6648 19.6372 16.3922V16.9412C19.6372 17.2444 19.883 17.4902 20.1862 17.4902Z" fill="#052A75"/>
</g>
<defs>
<clipPath id="clip0_960_16164">
<rect width="28" height="28" fill="white" transform="translate(12.5 12)"/>
</clipPath>
</defs>
</svg>
