<svg width="53" height="52" viewBox="0 0 53 52" fill="none" xmlns="http://www.w3.org/2000/svg">
<rect x="1" y="0.5" width="51" height="51" rx="25.5" fill="white"/>
<rect x="1" y="0.5" width="51" height="51" rx="25.5" stroke="#EFEFEF"/>
<g clip-path="url(#clip0_960_14990)">
<path fill-rule="evenodd" clip-rule="evenodd" d="M26.5 39.4509C33.9288 39.4509 39.951 33.4287 39.951 26C39.951 23.6325 39.3385 21.4085 38.2647 19.4761L39.4365 18.3043C39.8636 17.8773 39.8636 17.1785 39.4365 16.7515L35.7485 13.0634C35.3215 12.6364 34.6226 12.6365 34.1957 13.0634L33.0238 14.2353C31.0917 13.1613 28.8674 12.5491 26.5 12.5491C19.0713 12.5491 13.0491 18.5713 13.0491 26C13.0491 28.3674 13.6614 30.5917 14.7353 32.5238L13.5634 33.6956C13.1365 34.1226 13.1364 34.8214 13.5634 35.2485L17.2515 38.9365C17.6785 39.3636 18.3773 39.3636 18.8043 38.9365L19.9762 37.7647C21.9086 38.8385 24.1326 39.4509 26.5 39.4509Z" fill="#D2DCFD"/>
<path fill-rule="evenodd" clip-rule="evenodd" d="M26.5 39.4509C27.4525 39.4509 28.3817 39.3513 29.2783 39.163C23.5653 36.0281 19.6921 29.9569 19.6921 22.9804C19.6921 19.3641 20.7336 15.9915 22.5317 13.1444C17.04 14.8376 13.0491 19.9526 13.0491 26C13.0491 28.3675 13.6614 30.5917 14.7353 32.5239L13.5634 33.6956C13.1364 34.1226 13.1364 34.8214 13.5634 35.2485L17.2514 38.9366C17.6785 39.3636 18.3772 39.3636 18.8043 38.9366L19.9761 37.7647C21.9085 38.8386 24.1325 39.4509 26.5 39.4509Z" fill="#93B2F4"/>
<path d="M34.07 33.5701C38.2508 29.3893 38.2508 22.6108 34.07 18.4299C29.8891 14.2491 23.1106 14.2491 18.9297 18.4299C14.7489 22.6108 14.7489 29.3893 18.9297 33.5701C23.1106 37.751 29.8891 37.751 34.07 33.5701Z" fill="#FDE0BE"/>
<path fill-rule="evenodd" clip-rule="evenodd" d="M25.7883 36.6817C20.2075 36.3153 15.7942 31.6734 15.7942 26C15.7942 22.2339 17.7391 18.9225 20.679 17.0141C20.0396 18.8856 19.6922 20.8923 19.6922 22.9804C19.6922 28.418 22.0454 33.3055 25.7883 36.6817Z" fill="#F7B073"/>
<path fill-rule="evenodd" clip-rule="evenodd" d="M37.2059 26C37.2059 20.0873 32.4127 15.2942 26.5 15.2942C26.4879 15.2942 26.4758 15.2942 26.4636 15.2942V15.4433C26.011 17.4961 27.5358 19.5243 27.523 21.6808C28.4512 21.6529 29.3111 21.94 29.9356 22.5645C31.0012 23.6301 31.0843 25.3812 30.2964 26.988C32.6497 27.2937 34.8389 25.4747 37.0568 25.9636L37.2059 26.0036C37.2059 26.0024 37.2059 26.0012 37.2059 26Z" fill="#91B706"/>
<path fill-rule="evenodd" clip-rule="evenodd" d="M15.7942 26C15.7942 31.9127 20.5873 36.7059 26.5001 36.7059C26.5122 36.7059 26.5243 36.7059 26.5365 36.7058V36.5568C26.9891 34.5039 25.4643 32.4758 25.4771 30.3193C24.5488 30.3472 23.689 30.0601 23.0645 29.4356C21.9989 28.3699 21.9157 26.6188 22.7036 25.012C21.7292 24.8855 20.783 25.1232 19.8512 25.4105C17.7993 26.4679 15.958 26.297 15.7942 26Z" fill="#FD6050"/>
<path fill-rule="evenodd" clip-rule="evenodd" d="M15.7942 26C15.7764 31.5989 20.1767 36.3249 25.7884 36.6818C22.6124 33.8171 20.4375 29.8642 19.8513 25.4105C18.5326 25.8171 17.2429 26.323 15.9434 26.0365L15.7942 25.9965C15.7942 25.9975 15.7942 25.999 15.7942 26Z" fill="#BC3C85"/>
<path fill-rule="evenodd" clip-rule="evenodd" d="M29.9355 22.5645C29.311 21.94 28.4512 21.653 27.5229 21.6808C26.2999 21.7175 24.9582 22.3009 23.8796 23.3796C23.3793 23.8798 22.9856 24.4366 22.7035 25.012C21.9157 26.6188 21.9988 28.3699 23.0645 29.4356C23.689 30.0601 24.5488 30.3471 25.4771 30.3193C26.7001 30.2825 28.0418 29.6991 29.1204 28.6205C29.6207 28.1202 30.0144 27.5634 30.2965 26.9881C31.0843 25.3812 31.0012 23.6301 29.9355 22.5645Z" fill="white"/>
<path d="M26.5001 27.6471C27.4097 27.6471 28.1471 26.9097 28.1471 26C28.1471 25.0904 27.4097 24.353 26.5001 24.353C25.5904 24.353 24.853 25.0904 24.853 26C24.853 26.9097 25.5904 27.6471 26.5001 27.6471Z" fill="#FDCB50"/>
<path d="M38.9411 19.5762L39.8247 18.6926C40.4669 18.0504 40.4669 17.0055 39.8247 16.3633L36.1366 12.6752C35.8265 12.365 35.4128 12.1941 34.972 12.1941C34.5312 12.1941 34.1176 12.3649 33.8073 12.6752L32.9238 13.5588C30.9487 12.5379 28.7368 12.0001 26.5 12.0001C23.8794 12.0001 21.3687 12.7152 19.1908 14.0532L17.9842 12.2444C17.8159 11.9921 17.475 11.9242 17.2228 12.0923C16.9706 12.2606 16.9025 12.6014 17.0707 12.8537L18.2786 14.6644C17.6881 15.0946 17.127 15.574 16.6005 16.1005C16.074 16.627 15.5946 17.1881 15.1644 17.7786L13.3537 16.5708C13.1015 16.4025 12.7606 16.4706 12.5923 16.7229C12.4241 16.9752 12.4922 17.316 12.7444 17.4843L14.5533 18.6909C13.2153 20.8687 12.5001 23.3795 12.5001 26C12.5001 28.2368 13.038 30.4488 14.0589 32.4239L13.1752 33.3074C12.865 33.6176 12.6941 34.0312 12.6941 34.472C12.694 34.9129 12.8649 35.3265 13.1752 35.6367L16.8632 39.3248C17.5054 39.967 18.5503 39.9671 19.1926 39.3248L20.0762 38.4412C22.0517 39.4622 24.2635 40 26.5001 40C30.2396 40 33.7552 38.5438 36.3995 35.8995C39.0438 33.2552 40.5 29.7396 40.5 26C40.4999 23.7634 39.9622 21.5517 38.9411 19.5762ZM18.8928 15.5851L19.8075 16.9563C18.913 17.62 18.12 18.413 17.4563 19.3074L16.0851 18.3928C16.8713 17.3193 17.8193 16.3714 18.8928 15.5851ZM22.942 19.6768L21.3299 17.26C22.8453 16.3602 24.6134 15.8432 26.4999 15.8432C32.1005 15.8432 36.6568 20.3995 36.6568 26C36.6568 31.6006 32.1005 36.1569 26.4999 36.1569C20.8994 36.1569 16.343 31.6006 16.343 26C16.343 24.1134 16.8601 22.3454 17.7599 20.83L20.1767 22.4422C20.2703 22.5046 20.3761 22.5345 20.4808 22.5345C20.6581 22.5345 20.8322 22.4488 20.9381 22.2901C21.1063 22.0379 21.0382 21.697 20.7859 21.5287L18.3706 19.9175C18.9522 19.1422 19.6419 18.4524 20.4173 17.8708L22.0285 20.2862C22.1344 20.4448 22.3084 20.5306 22.4857 20.5306C22.5904 20.5306 22.6963 20.5007 22.7899 20.4382C23.0422 20.2699 23.1103 19.929 22.942 19.6768ZM26.5 38.902C24.3102 38.902 22.1466 38.3427 20.2428 37.2848C20.1592 37.2383 20.0674 37.2157 19.9763 37.2157C19.8342 37.2157 19.6937 37.2709 19.588 37.3765L18.4161 38.5484C18.2021 38.7626 17.8537 38.7625 17.6397 38.5484L13.9515 34.8603C13.8487 34.7575 13.7921 34.6196 13.7921 34.4722C13.7921 34.3246 13.8487 34.1868 13.9515 34.0839L15.1235 32.9121C15.2968 32.7388 15.3343 32.4715 15.2151 32.2571C14.1572 30.3539 13.5981 28.1902 13.5981 26C13.5981 23.5505 14.2842 21.2583 15.4744 19.3054L16.8456 20.22C15.8297 21.9105 15.2451 23.8882 15.2451 26C15.2451 32.206 20.2941 37.2549 26.5001 37.2549C32.706 37.2549 37.7549 32.206 37.7549 26C37.7549 19.7941 32.706 14.7451 26.5001 14.7451C24.3883 14.7451 22.4105 15.3297 20.72 16.3456L19.8053 14.9745C21.7582 13.7843 24.0505 13.0981 26.5 13.0981C28.6901 13.0981 30.8538 13.6573 32.7571 14.7152C32.9713 14.8343 33.2386 14.7969 33.412 14.6235L34.5839 13.4517C34.6867 13.3488 34.8245 13.2922 34.9721 13.2922C35.1196 13.2922 35.2574 13.3488 35.3602 13.4517L39.0483 17.1397C39.2624 17.3538 39.2624 17.7021 39.0483 17.9162L37.8765 19.088C37.7032 19.2613 37.6657 19.5286 37.7848 19.7429C38.8428 21.6466 39.4019 23.8103 39.4019 26.0001C39.4019 33.1142 33.6141 38.902 26.5 38.902Z" fill="#052A75"/>
<path d="M22.6763 29.8238C23.3618 30.5093 24.2932 30.8709 25.3458 30.8709C25.5582 30.8709 25.7757 30.8561 25.9969 30.8263C27.2593 30.6564 28.5064 30.0109 29.5087 29.0087C30.5109 28.0065 31.1565 26.7593 31.3264 25.4969C31.5036 24.1794 31.1476 23 30.3237 22.1762C29.4999 21.3524 28.3205 20.9965 27.0031 21.1737C25.7407 21.3436 24.4935 21.9891 23.4913 22.9913C22.4891 23.9935 21.8435 25.2407 21.6737 26.5031C21.4963 27.8206 21.8524 28.9999 22.6763 29.8238ZM24.2678 23.7678C25.2767 22.7588 26.5336 22.2239 27.6434 22.2239C28.382 22.2239 29.0556 22.4609 29.5473 22.9526C30.7779 24.1836 30.4125 26.5521 28.7322 28.2322C27.052 29.9124 24.6836 30.2781 23.4527 29.0473C22.2218 27.8165 22.5875 25.4481 24.2678 23.7678Z" fill="#052A75"/>
<path d="M30.2978 19.7022C29.9946 19.7022 29.7485 19.4563 29.7485 19.1532C29.7485 18.85 29.9942 18.6041 30.2973 18.6041H30.2978C30.6009 18.6041 30.8468 18.85 30.8468 19.1532C30.8468 19.4563 30.6009 19.7022 30.2978 19.7022Z" fill="white"/>
<path d="M18.8779 29.2208C18.5747 29.2208 18.3286 28.9749 18.3286 28.6718C18.3286 28.3686 18.5743 28.1228 18.8775 28.1228H18.8779C19.181 28.1228 19.4269 28.3686 19.4269 28.6718C19.4269 28.9749 19.1811 29.2208 18.8779 29.2208Z" fill="white"/>
<path d="M33.3171 23.3943C33.0139 23.3943 32.7678 23.1485 32.7678 22.8453C32.7678 22.5421 33.0135 22.2963 33.3166 22.2963H33.3171C33.6202 22.2963 33.8661 22.5421 33.8661 22.8453C33.8661 23.1485 33.6203 23.3943 33.3171 23.3943Z" fill="white"/>
<path d="M33.2626 30.0786C32.9594 30.0786 32.7134 29.8327 32.7134 29.5296C32.7134 29.2264 32.9591 28.9805 33.2622 28.9805H33.2626C33.5658 28.9805 33.8116 29.2264 33.8116 29.5296C33.8116 29.8327 33.5658 30.0786 33.2626 30.0786Z" fill="#F7B073"/>
<path d="M30.655 31.6433C30.3518 31.6433 30.1057 31.3974 30.1057 31.0943C30.1057 30.7911 30.3514 30.5452 30.6546 30.5452H30.655C30.9581 30.5452 31.204 30.7911 31.204 31.0943C31.204 31.3974 30.9581 31.6433 30.655 31.6433Z" fill="#F7B073"/>
<path d="M29.1176 34.1413C28.8144 34.1413 28.5684 33.8955 28.5684 33.5923C28.5684 33.2891 28.814 33.0433 29.1172 33.0433H29.1176C29.4208 33.0433 29.6666 33.2891 29.6666 33.5923C29.6666 33.8955 29.4208 34.1413 29.1176 34.1413Z" fill="#F7B073"/>
</g>
<defs>
<clipPath id="clip0_960_14990">
<rect width="28" height="28" fill="white" transform="translate(12.5 12)"/>
</clipPath>
</defs>
</svg>
