<svg width="88" height="48" viewBox="0 0 88 48" fill="none" xmlns="http://www.w3.org/2000/svg">
<g filter="url(#filter0_d_12_4779)">
<mask id="path-1-inside-1_12_4779" fill="white">
<path fill-rule="evenodd" clip-rule="evenodd" d="M15.7736 39.8947C9.27121 39.8947 4 34.6235 4 28.1211C4 21.6188 9.27122 16.3475 15.7736 16.3475H68.3117L71.7005 9.7249L75.2961 16.7517C80.3099 18.1021 84 22.6807 84 28.1211C84 34.6235 78.7288 39.8947 72.2264 39.8947H15.7736Z"/>
</mask>
<path fill-rule="evenodd" clip-rule="evenodd" d="M15.7736 39.8947C9.27121 39.8947 4 34.6235 4 28.1211C4 21.6188 9.27122 16.3475 15.7736 16.3475H68.3117L71.7005 9.7249L75.2961 16.7517C80.3099 18.1021 84 22.6807 84 28.1211C84 34.6235 78.7288 39.8947 72.2264 39.8947H15.7736Z" fill="white"/>
<path d="M68.3117 16.3475L69.2019 16.8031L68.9233 17.3475H68.3117V16.3475ZM71.7005 9.7249L70.8103 9.26938L71.7005 7.52964L72.5907 9.26938L71.7005 9.7249ZM75.2961 16.7517L75.036 17.7173L74.6079 17.602L74.4059 17.2072L75.2961 16.7517ZM5 28.1211C5 34.0712 9.8235 38.8947 15.7736 38.8947V40.8947C8.71893 40.8947 3 35.1758 3 28.1211H5ZM15.7736 17.3475C9.8235 17.3475 5 22.171 5 28.1211H3C3 21.0665 8.71893 15.3475 15.7736 15.3475V17.3475ZM68.3117 17.3475H15.7736V15.3475H68.3117V17.3475ZM72.5907 10.1804L69.2019 16.8031L67.4215 15.892L70.8103 9.26938L72.5907 10.1804ZM74.4059 17.2072L70.8103 10.1804L72.5907 9.26938L76.1863 16.2962L74.4059 17.2072ZM83 28.1211C83 23.1442 79.6244 18.9531 75.036 17.7173L75.5562 15.7861C80.9955 17.2511 85 22.2172 85 28.1211H83ZM72.2264 38.8947C78.1765 38.8947 83 34.0712 83 28.1211H85C85 35.1758 79.2811 40.8947 72.2264 40.8947V38.8947ZM15.7736 38.8947H72.2264V40.8947H15.7736V38.8947Z" fill="white" mask="url(#path-1-inside-1_12_4779)"/>
</g>
<path d="M23.4081 28.4147H24.2481V30.3747H23.4081V28.4147ZM23.4081 25.2347H24.0781V25.4347C24.0781 27.0147 23.0481 28.2347 21.5281 28.7147L21.1481 28.0647C22.4881 27.6647 23.4081 26.6547 23.4081 25.4347V25.2347ZM23.5681 25.2347H24.2381V25.4347C24.2381 26.6047 25.1881 27.5847 26.5181 27.9747L26.1381 28.6147C24.6181 28.1647 23.5681 26.9647 23.5681 25.4347V25.2347ZM21.3581 24.8147H26.3281V25.4847H21.3581V24.8147ZM23.4081 23.6947H24.2481V25.1047H23.4081V23.6947ZM27.3581 23.6247H28.1881V32.6847H27.3581V23.6247ZM20.9881 30.8247L20.8681 30.1247C22.5181 30.1247 24.7981 30.1147 26.7681 29.8147L26.8381 30.4247C24.8081 30.8047 22.5981 30.8147 20.9881 30.8247ZM30.8173 24.1647H36.5873V24.8447H30.8173V24.1647ZM29.7773 27.7847H37.9673V28.4747H29.7773V27.7847ZM36.0973 24.1647H36.9073V24.8747C36.9073 25.7047 36.9073 26.6947 36.6173 28.0747L35.8073 27.9847C36.0973 26.6447 36.0973 25.6847 36.0973 24.8747V24.1647ZM30.8473 31.7847H37.1773V32.4747H30.8473V31.7847ZM30.8473 29.4747H31.6773V31.8847H30.8473V29.4747ZM41.0742 30.8747H49.2642V31.5647H41.0742V30.8747ZM44.7342 28.9347H45.5642V31.1647H44.7342V28.9347ZM42.0642 24.3047H48.2542V27.0447H42.9142V28.8547H42.0942V26.3747H47.4342V24.9747H42.0642V24.3047ZM42.0942 28.5047H48.4642V29.1847H42.0942V28.5047ZM50.9034 24.5947H56.7234V25.2647H50.9034V24.5947ZM50.0234 30.6647H58.1934V31.3547H50.0234V30.6647ZM56.2834 24.5947H57.0934V25.4947C57.0934 26.6547 57.0934 27.9447 56.7534 29.8947L55.9234 29.8147C56.2834 27.9647 56.2834 26.6147 56.2834 25.4947V24.5947ZM65.5427 23.6447H66.3827V30.2447H65.5427V23.6447ZM60.5727 31.7947H66.6527V32.4747H60.5727V31.7947ZM60.5727 29.5647H61.3927V32.0247H60.5727V29.5647ZM61.5327 24.2647C62.8827 24.2647 63.8827 25.1847 63.8827 26.4947C63.8827 27.7947 62.8827 28.7247 61.5327 28.7247C60.1827 28.7247 59.1727 27.7947 59.1727 26.4947C59.1727 25.1847 60.1827 24.2647 61.5327 24.2647ZM61.5327 24.9847C60.6527 24.9847 59.9827 25.6047 59.9827 26.4947C59.9827 27.3747 60.6527 27.9947 61.5327 27.9947C62.4127 27.9947 63.0827 27.3747 63.0827 26.4947C63.0827 25.6047 62.4127 24.9847 61.5327 24.9847Z" fill="#17171B"/>
<defs>
<filter id="filter0_d_12_4779" x="0" y="0.894714" width="88" height="47" filterUnits="userSpaceOnUse" color-interpolation-filters="sRGB">
<feFlood flood-opacity="0" result="BackgroundImageFix"/>
<feColorMatrix in="SourceAlpha" type="matrix" values="0 0 0 0 0 0 0 0 0 0 0 0 0 0 0 0 0 0 127 0" result="hardAlpha"/>
<feOffset dy="4"/>
<feGaussianBlur stdDeviation="2"/>
<feComposite in2="hardAlpha" operator="out"/>
<feColorMatrix type="matrix" values="0 0 0 0 0 0 0 0 0 0 0 0 0 0 0 0 0 0 0.04 0"/>
<feBlend mode="normal" in2="BackgroundImageFix" result="effect1_dropShadow_12_4779"/>
<feBlend mode="normal" in="SourceGraphic" in2="effect1_dropShadow_12_4779" result="shape"/>
</filter>
</defs>
</svg>
