<svg width="360" height="328" viewBox="0 0 360 328" fill="none" xmlns="http://www.w3.org/2000/svg">
<g clip-path="url(#clip0_836_14448)">
<path d="M99.2707 18.4774C97.4352 18.4774 95.8224 18.0912 94.4323 17.3158C93.0395 16.5432 91.9539 15.4605 91.1729 14.0677C90.3891 12.6776 90 11.0733 90 9.25187C90 7.43326 90.3863 5.82894 91.1617 4.43608C91.9342 3.04604 93.0169 1.96334 94.4098 1.18796C95.7998 0.415404 97.4041 0.0263062 99.2256 0.0263062C100.805 0.0263062 102.231 0.330817 103.511 0.93984C104.797 1.54886 105.871 2.40319 106.737 3.49999C107.608 4.59116 108.195 5.88533 108.496 7.37969H103.342C103.071 6.59022 102.581 5.95582 101.876 5.47367C101.168 4.99435 100.353 4.75187 99.4286 4.75187C98.5996 4.75187 97.8665 4.9436 97.2293 5.32706C96.5893 5.70488 96.0846 6.22931 95.718 6.90601C95.3571 7.57706 95.1767 8.35807 95.1767 9.25187C95.1767 10.1259 95.3515 10.9041 95.7068 11.5865C96.0592 12.2716 96.5526 12.8045 97.1842 13.188C97.8158 13.5658 98.5432 13.7519 99.3722 13.7519C100.334 13.7519 101.168 13.5037 101.876 13.0075C102.581 12.5113 103.097 11.8515 103.421 11.0225H108.598C108.341 12.5197 107.786 13.828 106.929 14.9474C106.071 16.0695 104.989 16.938 103.68 17.5526C102.378 18.1673 100.909 18.4774 99.2707 18.4774Z" fill="#FFA31F"/>
<path d="M109.523 18.094L116.392 0.40976H121.444L128.324 18.094H122.888L121.929 15.5902H115.896L114.937 18.094H109.523ZM116.956 11.8571H120.892L118.918 6.37593L116.956 11.8571Z" fill="#FFA31F"/>
<path d="M134.534 18.094V5.13532H129.154V0.40976H144.989V5.13532H139.609V18.094H134.534Z" fill="#FFA31F"/>
<path d="M155.822 18.4774C153.987 18.4774 152.374 18.0912 150.984 17.3158C149.591 16.5432 148.505 15.4605 147.724 14.0677C146.941 12.6776 146.552 11.0733 146.552 9.25187C146.552 7.43326 146.938 5.82894 147.713 4.43608C148.486 3.04604 149.568 1.96334 150.961 1.18796C152.351 0.415404 153.956 0.0263062 155.777 0.0263062C157.356 0.0263062 158.783 0.330817 160.063 0.93984C161.349 1.54886 162.423 2.40319 163.288 3.49999C164.16 4.59116 164.746 5.88533 165.048 7.37969H159.894C159.623 6.59022 159.132 5.95582 158.427 5.47367C157.72 4.99435 156.905 4.75187 155.98 4.75187C155.151 4.75187 154.418 4.9436 153.781 5.32706C153.141 5.70488 152.636 6.22931 152.27 6.90601C151.909 7.57706 151.728 8.35807 151.728 9.25187C151.728 10.1259 151.903 10.9041 152.258 11.5865C152.611 12.2716 153.104 12.8045 153.736 13.188C154.367 13.5658 155.095 13.7519 155.924 13.7519C156.885 13.7519 157.72 13.5037 158.427 13.0075C159.132 12.5113 159.648 11.8515 159.973 11.0225H165.149C164.893 12.5197 164.337 13.828 163.48 14.9474C162.623 16.0695 161.54 16.938 160.232 17.5526C158.929 18.1673 157.46 18.4774 155.822 18.4774Z" fill="#FFA31F"/>
<path d="M178.379 18.094V11.4511H172.921V18.094H167.823V0.40976H172.921V6.74811H178.379V0.40976H183.488V18.094H178.379Z" fill="#FFA31F"/>
<path d="M187.221 18.094V0.40976H191.382L197.326 8.82329L203.281 0.40976H207.431V18.094H202.378V9.15036L198.995 13.8985H195.679L192.273 9.1278V18.094H187.221Z" fill="#FFA31F"/>
<path d="M219.781 18.4774C218.36 18.4774 217.063 18.2547 215.89 17.812C214.723 17.3609 213.714 16.7237 212.856 15.8947C211.999 15.0686 211.334 14.0902 210.86 12.9624C210.386 11.8346 210.15 10.5996 210.15 9.25187C210.15 7.90695 210.386 6.66916 210.86 5.54134C211.334 4.41352 211.999 3.43796 212.856 2.60901C213.714 1.78289 214.723 1.14849 215.89 0.702998C217.063 0.25187 218.36 0.0263062 219.781 0.0263062C221.194 0.0263062 222.482 0.25187 223.65 0.702998C224.823 1.14849 225.838 1.78289 226.695 2.60901C227.558 3.43796 228.223 4.41352 228.691 5.54134C229.165 6.66916 229.402 7.90695 229.402 9.25187C229.402 10.5996 229.165 11.8346 228.691 12.9624C228.223 14.0902 227.558 15.0686 226.695 15.8947C225.838 16.7237 224.823 17.3609 223.65 17.812C222.482 18.2547 221.194 18.4774 219.781 18.4774ZM215.326 9.25187C215.326 10.1259 215.512 10.9041 215.89 11.5865C216.274 12.2716 216.798 12.8045 217.469 13.188C218.146 13.5658 218.916 13.7519 219.781 13.7519C220.652 13.7519 221.419 13.5658 222.082 13.188C222.75 12.8045 223.272 12.2716 223.65 11.5865C224.033 10.9041 224.225 10.1259 224.225 9.25187C224.225 8.35807 224.033 7.57706 223.65 6.90601C223.272 6.22931 222.75 5.70488 222.082 5.32706C221.419 4.9436 220.652 4.75187 219.781 4.75187C218.916 4.75187 218.146 4.9436 217.469 5.32706C216.798 5.70488 216.274 6.22931 215.89 6.90601C215.512 7.57706 215.326 8.35807 215.326 9.25187Z" fill="#FFA31F"/>
<path d="M232.154 18.094V0.40976H236.315L243.037 9.37593V0.40976H248.067V18.094H243.928L237.206 9.07141V18.094H232.154Z" fill="#FFA31F"/>
<path d="M260.265 18.4774C258.393 18.4774 256.747 18.0912 255.326 17.3158C253.904 16.5432 252.794 15.4605 251.998 14.0677C251.209 12.6776 250.814 11.0733 250.814 9.25187C250.814 7.43326 251.209 5.83458 251.998 4.45864C252.794 3.07706 253.896 1.99435 255.303 1.21052C256.707 0.421043 258.337 0.0263062 260.186 0.0263062C261.689 0.0263062 263.062 0.291344 264.303 0.81578C265.549 1.33458 266.607 2.06766 267.472 3.01503C268.343 3.95676 268.95 5.07612 269.288 6.37593H263.852C263.513 5.82048 263.029 5.38345 262.397 5.06766C261.765 4.74623 261.055 4.5827 260.265 4.5827C259.386 4.5827 258.61 4.78289 257.942 5.18044C257.279 5.57236 256.763 6.11653 256.397 6.81578C256.028 7.51503 255.844 8.32706 255.844 9.25187C255.844 10.1485 256.019 10.9492 256.374 11.6541C256.727 12.3618 257.234 12.9173 257.897 13.3233C258.565 13.7237 259.369 13.921 260.31 13.921C261.326 13.921 262.171 13.6927 262.848 13.2331C263.53 12.7678 264.001 12.1673 264.258 11.4286H259.386V7.8421H269.615C269.75 9.39285 269.626 10.8167 269.243 12.1165C268.865 13.4107 268.262 14.5357 267.427 15.4887C266.592 16.4361 265.569 17.1748 264.359 17.6992C263.147 18.218 261.782 18.4774 260.265 18.4774Z" fill="#FFA31F"/>
</g>
<path d="M225.902 201.571C213.102 208.058 196.314 213.48 175.111 211.492C156.842 209.774 141.855 207.674 130.605 201.13C133.286 188.58 139.823 180.889 140.242 180.636C147.136 186.514 161.386 190.633 178.033 190.927C178.105 190.933 178.18 190.933 178.255 190.933C178.523 190.942 178.786 190.942 179.052 190.946C179.361 190.949 179.667 190.949 179.977 190.949C180.267 190.949 180.555 190.949 180.845 190.946C181.136 190.946 181.42 190.942 181.708 190.933C196.042 190.708 208.627 187.646 216.289 183.061L216.323 183.121C216.323 183.121 223.17 188.089 225.902 201.571Z" fill="black"/>
<path d="M226.12 201.13C227.461 201.13 228.548 202.208 228.548 203.546C228.548 212.986 228.548 231.374 228.548 239.552C228.548 241.011 227.364 242.183 225.902 242.183C220.427 242.183 205.855 242.183 176.742 242.183C147.052 242.183 135.636 242.183 131.342 242.183C129.88 242.183 128.986 241.005 128.986 239.546C128.986 234.302 128.986 222.317 128.986 212.858V203.774C128.986 202.314 130.17 201.13 131.633 201.13C132.461 201.13 133.473 201.13 134.652 201.13C135.902 201.13 157.72 201.13 175.123 201.13C195.008 201.13 203.455 201.13 216.405 201.13C221.067 201.13 214.786 201.13 226.12 201.13Z" fill="#547355"/>
<path d="M221.942 206.421C223.155 206.421 224.136 207.399 224.136 208.608C224.136 215.486 224.136 228.099 224.136 234.355C224.136 235.814 222.961 236.992 221.498 236.992C216.373 236.992 203.223 236.992 177.373 236.992C151.123 236.992 140.698 236.992 136.639 236.992C135.177 236.992 134.267 235.808 134.267 234.349C134.267 230.167 134.267 222.017 134.267 215.155V209.064C134.267 207.602 135.452 206.417 136.911 206.417C137.608 206.417 138.433 206.417 139.38 206.417C151.802 206.417 160.205 206.417 175.914 206.417C193.861 206.417 201.486 206.417 213.177 206.417C217.383 206.417 211.714 206.421 221.942 206.421Z" fill="#E1EDCD"/>
<path d="M226.461 143.499C233.495 143.499 239.205 149.196 239.205 156.23C239.205 163.258 233.495 168.958 226.461 168.958C225.458 168.958 224.48 168.842 223.542 168.627L223.161 168.805C221.942 166.442 219.623 164.246 216.433 162.317C216.552 162.161 216.673 162.005 216.786 161.846L217.067 162.055C219.758 164.261 222.792 164.902 223.542 164.902C227.986 164.902 231.589 161.299 231.589 156.858C231.589 152.417 227.986 148.821 223.542 148.821C223.445 148.821 223.358 148.821 223.261 148.824L223.055 148.767C223.473 147.124 223.773 145.449 223.948 143.733L223.998 143.736C224.792 143.577 225.62 143.499 226.461 143.499Z" fill="black"/>
<path d="M223.542 148.821C227.986 148.821 231.589 152.417 231.589 156.858C231.589 161.299 227.986 164.902 223.542 164.902C222.792 164.902 219.758 164.261 217.067 162.055L216.786 161.846C219.711 157.921 221.864 153.508 223.055 148.767L223.261 148.824C223.358 148.821 223.445 148.821 223.542 148.821Z" fill="white"/>
<mask id="mask0_836_14448" style="mask-type:luminance" maskUnits="userSpaceOnUse" x="135" y="84" width="90" height="108">
<path d="M135.498 84.7643H224.298V191.177H135.498V84.7643Z" fill="white"/>
</mask>
<g mask="url(#mask0_836_14448)">
<path d="M140.242 180.636C137.408 178.224 135.817 175.514 135.817 172.649C135.817 171.211 136.217 169.811 136.977 168.467C138.236 166.233 140.486 164.155 143.523 162.317C143.411 162.171 143.289 162.014 143.183 161.864C140.258 157.942 138.098 153.527 136.902 148.783C136.48 147.139 136.18 145.449 136.005 143.736C135.877 142.539 135.817 141.317 135.817 140.092C135.817 121.874 149.695 106.542 168.533 102.046C166.898 100.636 165.758 97.4737 165.758 93.7987C165.758 88.808 167.855 84.7643 170.442 84.7643C173.023 84.7643 175.123 88.808 175.123 93.7987C175.123 94.2924 175.095 94.7737 175.058 95.2455C175.583 94.4487 176.18 93.6487 176.852 92.8643C180.702 88.3862 185.408 86.1237 187.37 87.808C189.198 89.3799 187.995 93.8174 184.711 98.033C185.936 97.133 187.498 96.3424 189.277 95.7893C194.042 94.3018 198.533 95.0987 199.302 97.5643C199.867 99.3737 198.267 101.574 195.502 103.208C212.23 108.814 224.136 123.208 224.136 140.092C224.136 141.317 224.077 142.533 223.948 143.733C223.773 145.449 223.473 147.124 223.055 148.767C221.864 153.508 219.711 157.921 216.786 161.846C216.673 162.005 216.552 162.161 216.433 162.317C219.623 164.246 221.942 166.442 223.161 168.805C223.802 170.046 224.136 171.33 224.136 172.649C224.136 176.514 221.239 180.105 216.289 183.061C208.627 187.646 196.042 190.708 181.708 190.933C199.452 190.552 212.664 184.361 213.677 176.983C214.714 169.364 210.445 167.705 206.742 165.458C210.445 160.633 212.958 152.789 212.958 146.502C212.958 129.902 193.386 114.536 179.977 133.736C164.236 115.999 146.283 127.877 146.283 144.471C146.283 150.767 148.802 160.467 152.508 165.299C152.417 165.18 149.683 168.077 149.452 168.352C145.52 173.014 145.748 178.255 150.242 182.492C157.211 189.067 168.602 190.739 178.033 190.927C161.386 190.633 147.136 186.514 140.242 180.636Z" fill="black"/>
</g>
<path d="M206.742 165.458C210.445 167.705 214.714 169.364 213.677 176.983C212.664 184.361 199.452 190.552 181.708 190.933C181.423 190.936 181.136 190.942 180.845 190.946C180.555 190.949 180.267 190.949 179.977 190.949C179.667 190.949 179.361 190.949 179.052 190.946C178.792 190.942 178.523 190.936 178.255 190.933C178.18 190.933 178.105 190.933 178.033 190.927C168.602 190.739 157.211 189.067 150.242 182.492C145.748 178.255 145.52 173.014 149.452 168.352C149.683 168.077 152.417 165.18 152.508 165.299C148.802 160.467 146.283 150.767 146.283 144.471C146.283 127.877 164.236 115.999 179.977 133.736C193.386 114.536 212.958 129.902 212.958 146.502C212.958 152.789 210.445 160.633 206.742 165.458Z" fill="white"/>
<path d="M143.183 161.864C143.289 162.014 143.411 162.171 143.523 162.317C140.486 164.155 138.236 166.233 136.977 168.467L136.458 168.627C135.52 168.842 134.545 168.958 133.539 168.958C126.502 168.958 120.795 163.258 120.795 156.23C120.795 149.196 126.502 143.499 133.539 143.499C134.383 143.499 135.208 143.577 136.005 143.736C136.18 145.449 136.48 147.139 136.902 148.783L136.736 148.824C136.645 148.821 136.552 148.821 136.458 148.821C132.011 148.821 128.411 152.417 128.411 156.858C128.411 161.299 132.011 164.902 136.458 164.902C137.205 164.902 140.248 164.261 142.933 162.055L143.183 161.864Z" fill="black"/>
<path d="M143.183 161.864L142.933 162.055C140.248 164.261 137.205 164.902 136.458 164.902C132.011 164.902 128.411 161.299 128.411 156.858C128.411 152.417 132.011 148.821 136.458 148.821C136.552 148.821 136.645 148.821 136.736 148.824L136.902 148.783C138.098 153.527 140.258 157.942 143.183 161.864Z" fill="white"/>
<path d="M211.948 207.939C211.948 214.008 207.02 218.927 200.952 218.927C194.877 218.927 189.955 214.008 189.955 207.939C189.955 201.874 194.877 196.952 200.952 196.952C207.02 196.952 211.948 201.874 211.948 207.939Z" fill="white"/>
<path d="M200.945 220.367C194.086 220.367 188.505 214.792 188.505 207.939C188.505 201.083 194.086 195.508 200.945 195.508C207.808 195.508 213.386 201.083 213.386 207.939C213.386 214.792 207.808 220.367 200.945 220.367ZM200.945 198.392C195.677 198.392 191.392 202.674 191.392 207.939C191.392 213.205 195.677 217.483 200.945 217.483C206.217 217.483 210.502 213.205 210.502 207.939C210.505 202.674 206.217 198.392 200.945 198.392Z" fill="black"/>
<path d="M168.277 207.939C168.277 214.008 163.348 218.927 157.28 218.927C151.205 218.927 146.283 214.008 146.283 207.939C146.283 201.874 151.205 196.952 157.28 196.952C163.348 196.952 168.277 201.874 168.277 207.939Z" fill="white"/>
<path d="M190.605 221.846C190.605 227.933 185.664 232.864 179.577 232.864C173.483 232.864 168.548 227.933 168.548 221.846C168.548 215.764 173.483 210.827 179.577 210.827C185.664 210.827 190.605 215.764 190.605 221.846Z" fill="#547355"/>
<path d="M157.28 220.367C150.417 220.367 144.839 214.792 144.839 207.939C144.839 201.083 150.417 195.508 157.28 195.508C164.136 195.508 169.714 201.083 169.714 207.939C169.714 214.792 164.136 220.367 157.28 220.367ZM157.28 198.392C152.008 198.392 147.72 202.674 147.72 207.939C147.72 213.205 152.008 217.483 157.28 217.483C162.545 217.483 166.833 213.205 166.833 207.939C166.833 202.674 162.545 198.392 157.28 198.392Z" fill="black"/>
<path d="M174.723 153.967C174.723 158.105 171.364 161.458 167.223 161.458C163.083 161.458 159.723 158.105 159.723 153.967C159.723 149.827 163.083 146.474 167.23 146.474C171.367 146.474 174.723 149.827 174.723 153.967Z" fill="black"/>
<path d="M201.195 153.967C201.195 158.105 197.836 161.458 193.692 161.458C189.552 161.458 186.195 158.105 186.195 153.967C186.195 149.827 189.552 146.474 193.692 146.474C197.836 146.474 201.195 149.827 201.195 153.967Z" fill="black"/>
<path d="M187.077 170.274V170.696C187.077 171.021 183.92 172.039 180.017 172.039C176.123 172.039 172.958 171.021 172.958 170.696V170.274H187.077Z" fill="black"/>
<path d="M182.645 221.002H180.977L181.208 221.921H182.436L182.645 221.002ZM182.305 222.486H181.352L181.642 223.649C181.673 223.817 181.708 224.005 181.748 224.214C181.792 224.421 181.833 224.633 181.873 224.849C181.895 224.633 181.92 224.421 181.952 224.214C181.98 224.002 182.011 223.814 182.039 223.649L182.305 222.486ZM180.32 221.921L180.089 221.002H179.07L178.839 221.921H180.32ZM177.873 222.486H176.905L177.17 223.649C177.198 223.817 177.23 224.008 177.258 224.224C177.289 224.436 177.32 224.649 177.352 224.871C177.389 224.649 177.427 224.436 177.467 224.224C177.511 224.008 177.548 223.817 177.577 223.649L177.873 222.486ZM176.773 221.921H178.017L178.248 221.002H176.564L176.773 221.921ZM179.214 220.43H179.945L179.78 219.761C179.755 219.627 179.72 219.477 179.683 219.302C179.645 219.127 179.611 218.955 179.583 218.78C179.552 218.955 179.517 219.127 179.477 219.302C179.442 219.477 179.411 219.627 179.383 219.761L179.214 220.43ZM183.648 221.002L183.417 221.921H184.87V222.217C184.87 222.286 184.842 222.346 184.789 222.402C184.736 222.458 184.67 222.486 184.583 222.486H183.273L182.43 225.814H181.289L180.458 222.486H178.695L177.858 225.814H176.717L175.873 222.486H174.283V221.921H175.733L175.502 221.002H174.283V220.696C174.283 220.63 174.308 220.571 174.361 220.514C174.414 220.458 174.486 220.43 174.57 220.43H175.358L174.711 217.88H175.539C175.633 217.88 175.714 217.902 175.78 217.952C175.848 217.996 175.889 218.055 175.902 218.133L176.43 220.43H178.392L178.977 218.133C178.986 218.067 179.027 218.008 179.098 217.958C179.167 217.905 179.248 217.88 179.339 217.88H179.886C179.98 217.88 180.061 217.902 180.127 217.952C180.192 217.996 180.233 218.055 180.248 218.133L180.827 220.43H182.777L183.305 218.133C183.32 218.064 183.361 218.005 183.427 217.958C183.498 217.905 183.577 217.88 183.67 217.88H184.442L183.795 220.43H184.87V221.002H183.648Z" fill="#FFD94F"/>
<path d="M101.419 311.424H102.595V320.776H101.419V311.424ZM94.4611 322.834H102.973V323.786H94.4611V322.834ZM94.4611 319.894H95.6091V323.338H94.4611V319.894ZM95.6511 313.832H96.6031V314.364C96.6031 316.632 95.1611 318.508 93.0471 319.236L92.4731 318.326C94.3491 317.71 95.6511 316.114 95.6511 314.364V313.832ZM95.8471 313.832H96.7991V314.364C96.7991 316.016 98.1151 317.514 100.005 318.102L99.4451 319.012C97.3031 318.326 95.8471 316.534 95.8471 314.364V313.832ZM92.7671 313.104H99.6551V314.042H92.7671V313.104ZM95.6511 311.466H96.7991V313.552H95.6511V311.466ZM106.178 312.236H114.088V313.174H106.178V312.236ZM104.75 317.668H116.188V318.62H104.75V317.668ZM109.86 318.298H111.022V324.08H109.86V318.298ZM113.542 312.236H114.676V313.328C114.676 314.644 114.676 316.128 114.2 318.27L113.052 318.116C113.542 316.072 113.542 314.602 113.542 313.328V312.236ZM120.566 321.504H132.032V322.47H120.566V321.504ZM125.704 318.648H126.866V322.022H125.704V318.648ZM125.704 314.056H126.726V314.336C126.726 316.926 124.374 318.606 121.63 319.082L121.182 318.158C123.66 317.766 125.704 316.296 125.704 314.336V314.056ZM125.858 314.056H126.866V314.336C126.866 316.296 128.91 317.766 131.388 318.158L130.94 319.082C128.196 318.606 125.858 316.926 125.858 314.336V314.056ZM121.616 313.398H130.94V314.364H121.616V313.398ZM125.704 311.676H126.866V313.748H125.704V311.676ZM142.713 311.41H143.833V324.066H142.713V311.41ZM140.571 316.478H143.007V317.444H140.571V316.478ZM139.843 311.69H140.935V323.422H139.843V311.69ZM133.543 319.978H134.369C136.217 319.978 137.477 319.908 138.947 319.6L139.059 320.566C137.547 320.888 136.273 320.944 134.369 320.944H133.543V319.978ZM133.543 312.95H138.247V313.902H134.691V320.412H133.543V312.95ZM152.242 312.502H153.194V314.77C153.194 317.682 151.626 320.384 149.554 321.434L148.84 320.482C150.716 319.586 152.242 317.164 152.242 314.77V312.502ZM152.438 312.502H153.39V314.77C153.39 317.08 154.902 319.404 156.778 320.272L156.078 321.196C154.02 320.188 152.438 317.584 152.438 314.77V312.502ZM158.094 311.396H159.256V324.08H158.094V311.396ZM168.996 322.974H167.792V315.988C167.792 315.717 167.792 315.488 167.792 315.302C167.801 315.115 167.81 314.942 167.82 314.784C167.829 314.616 167.838 314.443 167.848 314.266C167.698 314.415 167.563 314.541 167.442 314.644C167.32 314.746 167.166 314.877 166.98 315.036L165.916 315.904L165.272 315.078L167.974 312.978H168.996V322.974ZM174.418 312.838C175.108 312.838 175.631 313.113 175.986 313.664C176.34 314.205 176.518 314.97 176.518 315.96C176.518 316.949 176.345 317.724 176 318.284C175.664 318.834 175.136 319.11 174.418 319.11C173.979 319.11 173.606 318.984 173.298 318.732C172.99 318.48 172.756 318.12 172.598 317.654C172.448 317.178 172.374 316.613 172.374 315.96C172.374 314.97 172.537 314.205 172.864 313.664C173.19 313.113 173.708 312.838 174.418 312.838ZM174.418 313.706C174.063 313.706 173.802 313.897 173.634 314.28C173.475 314.653 173.396 315.213 173.396 315.96C173.396 316.706 173.475 317.271 173.634 317.654C173.802 318.036 174.063 318.228 174.418 318.228C174.782 318.228 175.052 318.041 175.23 317.668C175.407 317.285 175.496 316.716 175.496 315.96C175.496 315.213 175.407 314.653 175.23 314.28C175.052 313.897 174.782 313.706 174.418 313.706ZM180.816 312.978L175.272 322.974H174.194L179.738 312.978H180.816ZM180.536 316.842C180.993 316.842 181.376 316.968 181.684 317.22C181.992 317.462 182.225 317.817 182.384 318.284C182.552 318.741 182.636 319.301 182.636 319.964C182.636 320.953 182.463 321.728 182.118 322.288C181.782 322.838 181.254 323.114 180.536 323.114C180.097 323.114 179.724 322.988 179.416 322.736C179.108 322.484 178.874 322.124 178.716 321.658C178.566 321.182 178.492 320.617 178.492 319.964C178.492 318.974 178.655 318.209 178.982 317.668C179.308 317.117 179.826 316.842 180.536 316.842ZM180.536 317.724C180.181 317.724 179.92 317.91 179.752 318.284C179.593 318.657 179.514 319.217 179.514 319.964C179.514 320.72 179.593 321.289 179.752 321.672C179.92 322.045 180.181 322.232 180.536 322.232C180.9 322.232 181.17 322.045 181.348 321.672C181.525 321.298 181.614 320.729 181.614 319.964C181.614 319.217 181.525 318.657 181.348 318.284C181.17 317.91 180.9 317.724 180.536 317.724ZM192.097 319.46H193.245V324.08H192.097V319.46ZM186.959 319.054H198.397V320.02H186.959V319.054ZM192.083 313.58H193.105V313.902C193.105 316.086 190.739 317.696 188.079 318.102L187.673 317.178C189.955 316.87 192.083 315.484 192.083 313.902V313.58ZM192.237 313.58H193.245V313.902C193.245 315.47 195.387 316.87 197.655 317.178L197.235 318.102C194.589 317.71 192.237 316.058 192.237 313.902V313.58ZM188.065 312.964H197.291V313.916H188.065V312.964ZM192.097 311.41H193.245V313.3H192.097V311.41ZM208.042 311.396H209.218V324.066H208.042V311.396ZM208.896 316.534H211.234V317.5H208.896V316.534ZM204.808 312.768H205.942C205.942 316.366 204.29 319.614 200.202 321.672L199.558 320.776C203.058 318.998 204.808 316.296 204.808 312.95V312.768ZM200.146 312.768H205.41V313.72H200.146V312.768ZM221.649 311.41H222.769V324.066H221.649V311.41ZM219.325 311.676H220.417V323.436H219.325V311.676ZM217.575 315.694H219.829V316.632H217.575V315.694ZM217.477 318.592H219.745V319.53H217.477V318.592ZM211.989 313.58H218.219V314.518H211.989V313.58ZM215.083 315.386C216.623 315.386 217.743 316.576 217.743 318.312C217.743 320.034 216.623 321.238 215.083 321.238C213.557 321.238 212.437 320.034 212.437 318.312C212.437 316.576 213.557 315.386 215.083 315.386ZM215.083 316.366C214.145 316.366 213.459 317.164 213.459 318.312C213.459 319.446 214.145 320.244 215.083 320.244C216.035 320.244 216.707 319.446 216.707 318.312C216.707 317.164 216.035 316.366 215.083 316.366ZM214.523 311.732H215.671V314.112H214.523V311.732ZM225.078 317.458H225.89C227.878 317.458 229.054 317.416 230.468 317.136L230.58 318.088C229.124 318.368 227.92 318.424 225.89 318.424H225.078V317.458ZM225.078 312.334H229.978V313.286H226.198V317.976H225.078V312.334ZM225.848 314.854H229.824V315.764H225.848V314.854ZM234.094 311.41H235.2V319.082H234.094V311.41ZM232.05 314.714H234.444V315.666H232.05V314.714ZM231.308 311.648H232.4V319.012H231.308V311.648ZM226.716 319.754H235.2V324.066H234.052V320.706H226.716V319.754ZM249.979 311.41H251.099V324.066H249.979V311.41ZM245.373 315.946H247.795V316.912H245.373V315.946ZM247.445 311.704H248.537V323.422H247.445V311.704ZM242.937 313.37H243.833V314.98C243.833 317.752 242.769 320.37 240.907 321.546L240.193 320.678C241.957 319.614 242.937 317.304 242.937 314.98V313.37ZM243.175 313.37H244.071V314.98C244.071 317.178 245.023 319.376 246.759 320.384L246.045 321.238C244.197 320.118 243.175 317.626 243.175 314.98V313.37ZM240.543 312.88H246.325V313.846H240.543V312.88ZM258.56 319.39C261.248 319.39 262.97 320.272 262.97 321.728C262.97 323.17 261.248 324.038 258.56 324.038C255.858 324.038 254.15 323.17 254.15 321.728C254.15 320.272 255.858 319.39 258.56 319.39ZM258.56 320.3C256.572 320.3 255.298 320.846 255.298 321.728C255.298 322.596 256.572 323.142 258.56 323.142C260.548 323.142 261.808 322.596 261.808 321.728C261.808 320.846 260.548 320.3 258.56 320.3ZM254.248 312.04H262.396V312.992H254.248V312.04ZM252.89 317.304H264.314V318.242H252.89V317.304ZM257.58 314.868H258.728V317.57H257.58V314.868ZM261.724 312.04H262.858V313.118C262.858 314.14 262.858 315.162 262.522 316.478L261.374 316.338C261.724 315.036 261.724 314.112 261.724 313.118V312.04ZM267.001 320.16H266.203L265.853 312.978H267.351L267.001 320.16ZM265.727 322.218C265.727 321.872 265.811 321.63 265.979 321.49C266.147 321.35 266.352 321.28 266.595 321.28C266.828 321.28 267.029 321.35 267.197 321.49C267.374 321.63 267.463 321.872 267.463 322.218C267.463 322.554 267.374 322.796 267.197 322.946C267.029 323.095 266.828 323.17 266.595 323.17C266.352 323.17 266.147 323.095 265.979 322.946C265.811 322.796 265.727 322.554 265.727 322.218Z" fill="#17171B"/>
<defs>
<clipPath id="clip0_836_14448">
<rect width="180" height="18.9474" fill="white" transform="translate(90 0.0263062)"/>
</clipPath>
</defs>
</svg>
