<svg width="360" height="274" viewBox="0 0 360 274" fill="none" xmlns="http://www.w3.org/2000/svg">
<g clip-path="url(#clip0_6_1130)">
<path d="M112.726 15.4812C111.196 15.4812 109.852 15.1593 108.694 14.5132C107.533 13.8694 106.628 12.9671 105.977 11.8064C105.324 10.648 105 9.31111 105 7.79326C105 6.27775 105.322 4.94081 105.968 3.7801C106.612 2.62173 107.514 1.71948 108.675 1.07333C109.833 0.429533 111.17 0.105286 112.688 0.105286C114.004 0.105286 115.193 0.359045 116.259 0.866564C117.331 1.37408 118.226 2.08602 118.947 3.00002C119.673 3.90933 120.162 4.9878 120.414 6.23311H116.118C115.893 5.57521 115.484 5.04655 114.897 4.64476C114.307 4.24532 113.628 4.04326 112.857 4.04326C112.166 4.04326 111.555 4.20303 111.024 4.52258C110.491 4.83743 110.07 5.27446 109.765 5.83837C109.464 6.39758 109.314 7.04843 109.314 7.79326C109.314 8.52164 109.46 9.17014 109.756 9.73874C110.049 10.3097 110.461 10.7538 110.987 11.0733C111.513 11.3882 112.119 11.5433 112.81 11.5433C113.611 11.5433 114.307 11.3365 114.897 10.923C115.484 10.5094 115.914 9.95961 116.184 9.26882H120.498C120.284 10.5165 119.821 11.6067 119.107 12.5395C118.393 13.4746 117.491 14.1983 116.4 14.7105C115.315 15.2228 114.091 15.4812 112.726 15.4812Z" fill="white"/>
<path d="M121.27 15.1617L126.993 0.424835H131.204L136.937 15.1617H132.407L131.608 13.0752H126.58L125.781 15.1617H121.27ZM127.463 9.96431H130.743L129.098 5.39664L127.463 9.96431Z" fill="white"/>
<path d="M142.111 15.1617V4.36281H137.628V0.424835H150.824V4.36281H146.341V15.1617H142.111Z" fill="white"/>
<path d="M159.852 15.4812C158.322 15.4812 156.978 15.1593 155.82 14.5132C154.659 13.8694 153.755 12.9671 153.104 11.8064C152.451 10.648 152.126 9.31111 152.126 7.79326C152.126 6.27775 152.448 4.94081 153.094 3.7801C153.738 2.62173 154.64 1.71948 155.801 1.07333C156.959 0.429533 158.296 0.105286 159.814 0.105286C161.13 0.105286 162.319 0.359045 163.386 0.866564C164.457 1.37408 165.352 2.08602 166.074 3.00002C166.8 3.90933 167.288 4.9878 167.54 6.23311H163.245C163.019 5.57521 162.61 5.04655 162.023 4.64476C161.433 4.24532 160.754 4.04326 159.983 4.04326C159.293 4.04326 158.682 4.20303 158.151 4.52258C157.617 4.83743 157.197 5.27446 156.891 5.83837C156.591 6.39758 156.44 7.04843 156.44 7.79326C156.44 8.52164 156.586 9.17014 156.882 9.73874C157.176 10.3097 157.587 10.7538 158.113 11.0733C158.639 11.3882 159.246 11.5433 159.936 11.5433C160.738 11.5433 161.433 11.3365 162.023 10.923C162.61 10.5094 163.04 9.95961 163.31 9.26882H167.624C167.411 10.5165 166.948 11.6067 166.233 12.5395C165.519 13.4746 164.617 14.1983 163.527 14.7105C162.441 15.2228 161.217 15.4812 159.852 15.4812Z" fill="white"/>
<path d="M178.65 15.1617V9.62596H174.101V15.1617H169.853V0.424835H174.101V5.70679H178.65V0.424835H182.907V15.1617H178.65Z" fill="white"/>
<path d="M186.017 15.1617V0.424835H189.485L194.438 7.43611L199.401 0.424835H202.859V15.1617H198.649V7.70867L195.829 11.6654H193.066L190.228 7.68987V15.1617H186.017Z" fill="white"/>
<path d="M213.151 15.4812C211.967 15.4812 210.886 15.2956 209.909 14.9267C208.936 14.5508 208.095 14.0198 207.38 13.329C206.666 12.6405 206.112 11.8252 205.717 10.8854C205.322 9.94551 205.125 8.91638 205.125 7.79326C205.125 6.67249 205.322 5.641 205.717 4.70115C206.112 3.7613 206.666 2.94833 207.38 2.25754C208.095 1.5691 208.936 1.04044 209.909 0.669195C210.886 0.293256 211.967 0.105286 213.151 0.105286C214.328 0.105286 215.402 0.293256 216.375 0.669195C217.352 1.04044 218.198 1.5691 218.912 2.25754C219.631 2.94833 220.186 3.7613 220.576 4.70115C220.971 5.641 221.168 6.67249 221.168 7.79326C221.168 8.91638 220.971 9.94551 220.576 10.8854C220.186 11.8252 219.631 12.6405 218.912 13.329C218.198 14.0198 217.352 14.5508 216.375 14.9267C215.402 15.2956 214.328 15.4812 213.151 15.4812ZM209.439 7.79326C209.439 8.52164 209.594 9.17014 209.909 9.73874C210.228 10.3097 210.665 10.7538 211.224 11.0733C211.788 11.3882 212.43 11.5433 213.151 11.5433C213.877 11.5433 214.516 11.3882 215.068 11.0733C215.625 10.7538 216.06 10.3097 216.375 9.73874C216.694 9.17014 216.854 8.52164 216.854 7.79326C216.854 7.04843 216.694 6.39758 216.375 5.83837C216.06 5.27446 215.625 4.83743 215.068 4.52258C214.516 4.20303 213.877 4.04326 213.151 4.04326C212.43 4.04326 211.788 4.20303 211.224 4.52258C210.665 4.83743 210.228 5.27446 209.909 5.83837C209.594 6.39758 209.439 7.04843 209.439 7.79326Z" fill="white"/>
<path d="M223.461 15.1617V0.424835H226.929L232.531 7.89664V0.424835H236.723V15.1617H233.273L227.672 7.64288V15.1617H223.461Z" fill="white"/>
<path d="M246.888 15.4812C245.328 15.4812 243.955 15.1593 242.771 14.5132C241.587 13.8694 240.661 12.9671 239.999 11.8064C239.341 10.648 239.012 9.31111 239.012 7.79326C239.012 6.27775 239.341 4.94551 239.999 3.79889C240.661 2.64758 241.58 1.74532 242.752 1.09213C243.923 0.434233 245.281 0.105286 246.822 0.105286C248.074 0.105286 249.219 0.326151 250.252 0.76318C251.291 1.19551 252.172 1.80641 252.893 2.59589C253.619 3.38066 254.125 4.31346 254.407 5.39664H249.877C249.595 4.93376 249.19 4.56957 248.664 4.30641C248.138 4.03856 247.546 3.90228 246.888 3.90228C246.155 3.90228 245.509 4.0691 244.952 4.4004C244.4 4.727 243.97 5.18047 243.664 5.76318C243.356 6.34589 243.204 7.02258 243.204 7.79326C243.204 8.54044 243.349 9.20773 243.645 9.79514C243.939 10.3849 244.362 10.8478 244.914 11.1861C245.471 11.5198 246.141 11.6842 246.925 11.6842C247.771 11.6842 248.476 11.4939 249.04 11.1109C249.609 10.7232 250.001 10.2228 250.215 9.60717H246.155V6.61844H254.679C254.792 7.91074 254.689 9.0973 254.369 10.1805C254.054 11.259 253.551 12.1965 252.856 12.9906C252.16 13.7801 251.307 14.3957 250.299 14.8327C249.289 15.2651 248.152 15.4812 246.888 15.4812Z" fill="white"/>
</g>
<g clip-path="url(#clip1_6_1130)">
<path d="M226.003 173.073C213.203 179.56 196.416 184.982 175.212 182.995C156.944 181.276 141.956 179.176 130.706 172.632C133.387 160.082 139.925 152.392 140.344 152.138C147.237 158.017 161.487 162.135 178.134 162.429C178.206 162.435 178.281 162.435 178.356 162.435C178.625 162.445 178.887 162.445 179.153 162.448C179.462 162.451 179.769 162.451 180.078 162.451C180.369 162.451 180.656 162.451 180.947 162.448C181.237 162.448 181.522 162.445 181.809 162.435C196.144 162.21 208.728 159.148 216.391 154.563L216.425 154.623C216.425 154.623 223.272 159.592 226.003 173.073Z" fill="black"/>
<path d="M226.222 172.632C227.563 172.632 228.65 173.71 228.65 175.048C228.65 184.488 228.65 202.876 228.65 211.054C228.65 212.513 227.466 213.685 226.003 213.685C220.528 213.685 205.956 213.685 176.844 213.685C147.153 213.685 135.738 213.685 131.444 213.685C129.981 213.685 129.088 212.507 129.088 211.048C129.088 205.804 129.088 193.82 129.088 184.36V175.276C129.088 173.817 130.272 172.632 131.734 172.632C132.563 172.632 133.575 172.632 134.753 172.632C136.003 172.632 157.822 172.632 175.225 172.632C195.109 172.632 203.556 172.632 216.506 172.632C221.169 172.632 214.888 172.632 226.222 172.632Z" fill="#547355"/>
<path d="M222.044 177.923C223.256 177.923 224.238 178.901 224.238 180.11C224.238 186.988 224.238 199.601 224.238 205.857C224.238 207.317 223.063 208.495 221.6 208.495C216.475 208.495 203.325 208.495 177.475 208.495C151.225 208.495 140.8 208.495 136.741 208.495C135.278 208.495 134.369 207.31 134.369 205.851C134.369 201.67 134.369 193.52 134.369 186.657V180.567C134.369 179.104 135.553 177.92 137.013 177.92C137.709 177.92 138.534 177.92 139.481 177.92C151.903 177.92 160.306 177.92 176.016 177.92C193.963 177.92 201.588 177.92 213.278 177.92C217.484 177.92 211.816 177.923 222.044 177.923Z" fill="#E1EDCD"/>
<path d="M226.562 115.001C233.597 115.001 239.306 120.698 239.306 127.732C239.306 134.76 233.597 140.46 226.562 140.46C225.559 140.46 224.581 140.345 223.644 140.129L223.262 140.307C222.044 137.945 219.725 135.748 216.534 133.82C216.653 133.663 216.775 133.507 216.887 133.348L217.169 133.557C219.859 135.763 222.894 136.404 223.644 136.404C228.087 136.404 231.691 132.801 231.691 128.36C231.691 123.92 228.087 120.323 223.644 120.323C223.547 120.323 223.459 120.323 223.362 120.326L223.156 120.27C223.575 118.626 223.875 116.951 224.05 115.235L224.1 115.238C224.894 115.079 225.722 115.001 226.562 115.001Z" fill="black"/>
<path d="M223.644 120.323C228.088 120.323 231.691 123.92 231.691 128.36C231.691 132.801 228.088 136.404 223.644 136.404C222.894 136.404 219.859 135.763 217.169 133.557L216.888 133.348C219.813 129.423 221.966 125.01 223.156 120.27L223.363 120.326C223.459 120.323 223.547 120.323 223.644 120.323Z" fill="white"/>
<mask id="mask0_6_1130" style="mask-type:luminance" maskUnits="userSpaceOnUse" x="135" y="56" width="90" height="107">
<path d="M135.6 56.2665H224.4V162.679H135.6V56.2665Z" fill="white"/>
</mask>
<g mask="url(#mask0_6_1130)">
<path d="M140.344 152.138C137.509 149.726 135.919 147.017 135.919 144.151C135.919 142.713 136.319 141.313 137.078 139.97C138.337 137.735 140.587 135.657 143.625 133.82C143.512 133.673 143.391 133.517 143.284 133.367C140.359 129.445 138.2 125.029 137.003 120.285C136.581 118.642 136.281 116.951 136.106 115.238C135.978 114.042 135.919 112.82 135.919 111.595C135.919 93.3759 149.797 78.0447 168.634 73.5478C167 72.1384 165.859 68.9759 165.859 65.3009C165.859 60.3103 167.956 56.2665 170.544 56.2665C173.125 56.2665 175.225 60.3103 175.225 65.3009C175.225 65.7947 175.197 66.2759 175.159 66.7478C175.684 65.9509 176.281 65.1509 176.953 64.3665C180.803 59.8884 185.509 57.6259 187.472 59.3103C189.3 60.8822 188.097 65.3197 184.812 69.5353C186.037 68.6353 187.6 67.8447 189.378 67.2915C194.144 65.804 198.634 66.6009 199.403 69.0665C199.969 70.8759 198.369 73.0759 195.603 74.7103C212.331 80.3165 224.237 94.7103 224.237 111.595C224.237 112.82 224.178 114.035 224.05 115.235C223.875 116.951 223.575 118.626 223.156 120.27C221.966 125.01 219.812 129.423 216.887 133.348C216.775 133.507 216.653 133.663 216.534 133.82C219.725 135.748 222.044 137.945 223.262 140.307C223.903 141.548 224.237 142.832 224.237 144.151C224.237 148.017 221.341 151.607 216.391 154.563C208.728 159.148 196.144 162.21 181.809 162.435C199.553 162.054 212.766 155.863 213.778 148.485C214.816 140.867 210.547 139.207 206.844 136.96C210.547 132.135 213.059 124.292 213.059 118.004C213.059 101.404 193.487 86.0384 180.078 105.238C164.337 87.5009 146.384 99.379 146.384 115.973C146.384 122.27 148.903 131.97 152.609 136.801C152.519 136.682 149.784 139.579 149.553 139.854C145.622 144.517 145.85 149.757 150.344 153.995C157.312 160.57 168.703 162.242 178.134 162.429C161.487 162.135 147.237 158.017 140.344 152.138Z" fill="black"/>
</g>
<path d="M206.844 136.96C210.547 139.207 214.816 140.867 213.778 148.485C212.766 155.863 199.553 162.054 181.809 162.435C181.525 162.438 181.238 162.445 180.947 162.448C180.656 162.451 180.369 162.451 180.078 162.451C179.769 162.451 179.463 162.451 179.153 162.448C178.894 162.445 178.625 162.438 178.356 162.435C178.281 162.435 178.206 162.435 178.134 162.429C168.703 162.242 157.313 160.57 150.344 153.995C145.85 149.757 145.622 144.517 149.553 139.854C149.784 139.579 152.519 136.682 152.609 136.801C148.903 131.97 146.384 122.27 146.384 115.973C146.384 99.379 164.338 87.5009 180.078 105.238C193.488 86.0384 213.059 101.404 213.059 118.004C213.059 124.292 210.547 132.135 206.844 136.96Z" fill="white"/>
<path d="M143.284 133.367C143.391 133.517 143.512 133.673 143.625 133.82C140.587 135.657 138.337 137.735 137.078 139.97L136.559 140.129C135.622 140.345 134.647 140.46 133.641 140.46C126.603 140.46 120.897 134.76 120.897 127.732C120.897 120.698 126.603 115.001 133.641 115.001C134.484 115.001 135.309 115.079 136.106 115.238C136.281 116.951 136.581 118.642 137.003 120.285L136.837 120.326C136.747 120.323 136.653 120.323 136.559 120.323C132.112 120.323 128.512 123.92 128.512 128.36C128.512 132.801 132.112 136.404 136.559 136.404C137.306 136.404 140.35 135.763 143.034 133.557L143.284 133.367Z" fill="black"/>
<path d="M143.284 133.367L143.034 133.557C140.35 135.763 137.306 136.404 136.559 136.404C132.113 136.404 128.513 132.801 128.513 128.36C128.513 123.92 132.113 120.323 136.559 120.323C136.653 120.323 136.747 120.323 136.838 120.326L137.003 120.285C138.2 125.029 140.359 129.445 143.284 133.367Z" fill="white"/>
<path d="M212.05 179.442C212.05 185.51 207.122 190.429 201.053 190.429C194.978 190.429 190.056 185.51 190.056 179.442C190.056 173.376 194.978 168.454 201.053 168.454C207.122 168.454 212.05 173.376 212.05 179.442Z" fill="white"/>
<path d="M201.047 191.87C194.188 191.87 188.606 186.295 188.606 179.442C188.606 172.585 194.188 167.01 201.047 167.01C207.909 167.01 213.488 172.585 213.488 179.442C213.488 186.295 207.909 191.87 201.047 191.87ZM201.047 169.895C195.778 169.895 191.494 174.176 191.494 179.442C191.494 184.707 195.778 188.985 201.047 188.985C206.319 188.985 210.603 184.707 210.603 179.442C210.606 174.176 206.319 169.895 201.047 169.895Z" fill="black"/>
<path d="M168.378 179.442C168.378 185.51 163.45 190.429 157.381 190.429C151.306 190.429 146.384 185.51 146.384 179.442C146.384 173.376 151.306 168.454 157.381 168.454C163.45 168.454 168.378 173.376 168.378 179.442Z" fill="white"/>
<path d="M190.706 193.348C190.706 199.435 185.766 204.367 179.678 204.367C173.584 204.367 168.65 199.435 168.65 193.348C168.65 187.267 173.584 182.329 179.678 182.329C185.766 182.329 190.706 187.267 190.706 193.348Z" fill="#547355"/>
<path d="M157.381 191.87C150.519 191.87 144.941 186.295 144.941 179.442C144.941 172.585 150.519 167.01 157.381 167.01C164.237 167.01 169.816 172.585 169.816 179.442C169.816 186.295 164.237 191.87 157.381 191.87ZM157.381 169.895C152.109 169.895 147.822 174.176 147.822 179.442C147.822 184.707 152.109 188.985 157.381 188.985C162.647 188.985 166.934 184.707 166.934 179.442C166.934 174.176 162.647 169.895 157.381 169.895Z" fill="black"/>
<path d="M174.825 125.47C174.825 129.607 171.466 132.96 167.325 132.96C163.184 132.96 159.825 129.607 159.825 125.47C159.825 121.329 163.184 117.976 167.331 117.976C171.469 117.976 174.825 121.329 174.825 125.47Z" fill="black"/>
<path d="M201.297 125.47C201.297 129.607 197.938 132.96 193.794 132.96C189.653 132.96 186.297 129.607 186.297 125.47C186.297 121.329 189.653 117.976 193.794 117.976C197.938 117.976 201.297 121.329 201.297 125.47Z" fill="black"/>
<path d="M187.178 141.776V142.198C187.178 142.523 184.022 143.542 180.119 143.542C176.225 143.542 173.059 142.523 173.059 142.198V141.776H187.178Z" fill="black"/>
<path d="M182.747 192.504H181.078L181.309 193.423H182.538L182.747 192.504ZM182.406 193.988H181.453L181.744 195.151C181.775 195.32 181.809 195.507 181.85 195.717C181.894 195.923 181.934 196.135 181.975 196.351C181.997 196.135 182.022 195.923 182.053 195.717C182.081 195.504 182.113 195.317 182.141 195.151L182.406 193.988ZM180.422 193.423L180.191 192.504H179.172L178.941 193.423H180.422ZM177.975 193.988H177.006L177.272 195.151C177.3 195.32 177.331 195.51 177.359 195.726C177.391 195.938 177.422 196.151 177.453 196.373C177.491 196.151 177.528 195.938 177.569 195.726C177.613 195.51 177.65 195.32 177.678 195.151L177.975 193.988ZM176.875 193.423H178.119L178.35 192.504H176.666L176.875 193.423ZM179.316 191.932H180.047L179.881 191.263C179.856 191.129 179.822 190.979 179.784 190.804C179.747 190.629 179.713 190.457 179.684 190.282C179.653 190.457 179.619 190.629 179.578 190.804C179.544 190.979 179.513 191.129 179.484 191.263L179.316 191.932ZM183.75 192.504L183.519 193.423H184.972V193.72C184.972 193.788 184.944 193.848 184.891 193.904C184.838 193.96 184.772 193.988 184.684 193.988H183.375L182.531 197.317H181.391L180.559 193.988H178.797L177.959 197.317H176.819L175.975 193.988H174.384V193.423H175.834L175.603 192.504H174.384V192.198C174.384 192.132 174.409 192.073 174.463 192.017C174.516 191.96 174.588 191.932 174.672 191.932H175.459L174.813 189.382H175.641C175.734 189.382 175.816 189.404 175.881 189.454C175.95 189.498 175.991 189.557 176.003 189.635L176.531 191.932H178.494L179.078 189.635C179.088 189.57 179.128 189.51 179.2 189.46C179.269 189.407 179.35 189.382 179.441 189.382H179.988C180.081 189.382 180.163 189.404 180.228 189.454C180.294 189.498 180.334 189.557 180.35 189.635L180.928 191.932H182.878L183.406 189.635C183.422 189.567 183.463 189.507 183.528 189.46C183.6 189.407 183.678 189.382 183.772 189.382H184.544L183.897 191.932H184.972V192.504H183.75Z" fill="#FFD94F"/>
</g>
<path d="M101.419 257.345H102.595V266.697H101.419V257.345ZM94.4611 268.755H102.973V269.707H94.4611V268.755ZM94.4611 265.815H95.6091V269.259H94.4611V265.815ZM95.6511 259.753H96.6031V260.285C96.6031 262.553 95.1611 264.429 93.0471 265.157L92.4731 264.247C94.3491 263.631 95.6511 262.035 95.6511 260.285V259.753ZM95.8471 259.753H96.7991V260.285C96.7991 261.937 98.1151 263.435 100.005 264.023L99.4451 264.933C97.3031 264.247 95.8471 262.455 95.8471 260.285V259.753ZM92.7671 259.025H99.6551V259.963H92.7671V259.025ZM95.6511 257.387H96.7991V259.473H95.6511V257.387ZM106.178 258.157H114.088V259.095H106.178V258.157ZM104.75 263.589H116.188V264.541H104.75V263.589ZM109.86 264.219H111.022V270.001H109.86V264.219ZM113.542 258.157H114.676V259.249C114.676 260.565 114.676 262.049 114.2 264.191L113.052 264.037C113.542 261.993 113.542 260.523 113.542 259.249V258.157ZM120.566 267.425H132.032V268.391H120.566V267.425ZM125.704 264.569H126.866V267.943H125.704V264.569ZM125.704 259.977H126.726V260.257C126.726 262.847 124.374 264.527 121.63 265.003L121.182 264.079C123.66 263.687 125.704 262.217 125.704 260.257V259.977ZM125.858 259.977H126.866V260.257C126.866 262.217 128.91 263.687 131.388 264.079L130.94 265.003C128.196 264.527 125.858 262.847 125.858 260.257V259.977ZM121.616 259.319H130.94V260.285H121.616V259.319ZM125.704 257.597H126.866V259.669H125.704V257.597ZM142.713 257.331H143.833V269.987H142.713V257.331ZM140.571 262.399H143.007V263.365H140.571V262.399ZM139.843 257.611H140.935V269.343H139.843V257.611ZM133.543 265.899H134.369C136.217 265.899 137.477 265.829 138.947 265.521L139.059 266.487C137.547 266.809 136.273 266.865 134.369 266.865H133.543V265.899ZM133.543 258.871H138.247V259.823H134.691V266.333H133.543V258.871ZM152.242 258.423H153.194V260.691C153.194 263.603 151.626 266.305 149.554 267.355L148.84 266.403C150.716 265.507 152.242 263.085 152.242 260.691V258.423ZM152.438 258.423H153.39V260.691C153.39 263.001 154.902 265.325 156.778 266.193L156.078 267.117C154.02 266.109 152.438 263.505 152.438 260.691V258.423ZM158.094 257.317H159.256V270.001H158.094V257.317ZM168.996 268.895H167.792V261.909C167.792 261.638 167.792 261.409 167.792 261.223C167.801 261.036 167.81 260.863 167.82 260.705C167.829 260.537 167.838 260.364 167.848 260.187C167.698 260.336 167.563 260.462 167.442 260.565C167.32 260.667 167.166 260.798 166.98 260.957L165.916 261.825L165.272 260.999L167.974 258.899H168.996V268.895ZM174.418 258.759C175.108 258.759 175.631 259.034 175.986 259.585C176.34 260.126 176.518 260.891 176.518 261.881C176.518 262.87 176.345 263.645 176 264.205C175.664 264.755 175.136 265.031 174.418 265.031C173.979 265.031 173.606 264.905 173.298 264.653C172.99 264.401 172.756 264.041 172.598 263.575C172.448 263.099 172.374 262.534 172.374 261.881C172.374 260.891 172.537 260.126 172.864 259.585C173.19 259.034 173.708 258.759 174.418 258.759ZM174.418 259.627C174.063 259.627 173.802 259.818 173.634 260.201C173.475 260.574 173.396 261.134 173.396 261.881C173.396 262.627 173.475 263.192 173.634 263.575C173.802 263.957 174.063 264.149 174.418 264.149C174.782 264.149 175.052 263.962 175.23 263.589C175.407 263.206 175.496 262.637 175.496 261.881C175.496 261.134 175.407 260.574 175.23 260.201C175.052 259.818 174.782 259.627 174.418 259.627ZM180.816 258.899L175.272 268.895H174.194L179.738 258.899H180.816ZM180.536 262.763C180.993 262.763 181.376 262.889 181.684 263.141C181.992 263.383 182.225 263.738 182.384 264.205C182.552 264.662 182.636 265.222 182.636 265.885C182.636 266.874 182.463 267.649 182.118 268.209C181.782 268.759 181.254 269.035 180.536 269.035C180.097 269.035 179.724 268.909 179.416 268.657C179.108 268.405 178.874 268.045 178.716 267.579C178.566 267.103 178.492 266.538 178.492 265.885C178.492 264.895 178.655 264.13 178.982 263.589C179.308 263.038 179.826 262.763 180.536 262.763ZM180.536 263.645C180.181 263.645 179.92 263.831 179.752 264.205C179.593 264.578 179.514 265.138 179.514 265.885C179.514 266.641 179.593 267.21 179.752 267.593C179.92 267.966 180.181 268.153 180.536 268.153C180.9 268.153 181.17 267.966 181.348 267.593C181.525 267.219 181.614 266.65 181.614 265.885C181.614 265.138 181.525 264.578 181.348 264.205C181.17 263.831 180.9 263.645 180.536 263.645ZM192.097 265.381H193.245V270.001H192.097V265.381ZM186.959 264.975H198.397V265.941H186.959V264.975ZM192.083 259.501H193.105V259.823C193.105 262.007 190.739 263.617 188.079 264.023L187.673 263.099C189.955 262.791 192.083 261.405 192.083 259.823V259.501ZM192.237 259.501H193.245V259.823C193.245 261.391 195.387 262.791 197.655 263.099L197.235 264.023C194.589 263.631 192.237 261.979 192.237 259.823V259.501ZM188.065 258.885H197.291V259.837H188.065V258.885ZM192.097 257.331H193.245V259.221H192.097V257.331ZM208.042 257.317H209.218V269.987H208.042V257.317ZM208.896 262.455H211.234V263.421H208.896V262.455ZM204.808 258.689H205.942C205.942 262.287 204.29 265.535 200.202 267.593L199.558 266.697C203.058 264.919 204.808 262.217 204.808 258.871V258.689ZM200.146 258.689H205.41V259.641H200.146V258.689ZM221.649 257.331H222.769V269.987H221.649V257.331ZM219.325 257.597H220.417V269.357H219.325V257.597ZM217.575 261.615H219.829V262.553H217.575V261.615ZM217.477 264.513H219.745V265.451H217.477V264.513ZM211.989 259.501H218.219V260.439H211.989V259.501ZM215.083 261.307C216.623 261.307 217.743 262.497 217.743 264.233C217.743 265.955 216.623 267.159 215.083 267.159C213.557 267.159 212.437 265.955 212.437 264.233C212.437 262.497 213.557 261.307 215.083 261.307ZM215.083 262.287C214.145 262.287 213.459 263.085 213.459 264.233C213.459 265.367 214.145 266.165 215.083 266.165C216.035 266.165 216.707 265.367 216.707 264.233C216.707 263.085 216.035 262.287 215.083 262.287ZM214.523 257.653H215.671V260.033H214.523V257.653ZM225.078 263.379H225.89C227.878 263.379 229.054 263.337 230.468 263.057L230.58 264.009C229.124 264.289 227.92 264.345 225.89 264.345H225.078V263.379ZM225.078 258.255H229.978V259.207H226.198V263.897H225.078V258.255ZM225.848 260.775H229.824V261.685H225.848V260.775ZM234.094 257.331H235.2V265.003H234.094V257.331ZM232.05 260.635H234.444V261.587H232.05V260.635ZM231.308 257.569H232.4V264.933H231.308V257.569ZM226.716 265.675H235.2V269.987H234.052V266.627H226.716V265.675ZM249.979 257.331H251.099V269.987H249.979V257.331ZM245.373 261.867H247.795V262.833H245.373V261.867ZM247.445 257.625H248.537V269.343H247.445V257.625ZM242.937 259.291H243.833V260.901C243.833 263.673 242.769 266.291 240.907 267.467L240.193 266.599C241.957 265.535 242.937 263.225 242.937 260.901V259.291ZM243.175 259.291H244.071V260.901C244.071 263.099 245.023 265.297 246.759 266.305L246.045 267.159C244.197 266.039 243.175 263.547 243.175 260.901V259.291ZM240.543 258.801H246.325V259.767H240.543V258.801ZM258.56 265.311C261.248 265.311 262.97 266.193 262.97 267.649C262.97 269.091 261.248 269.959 258.56 269.959C255.858 269.959 254.15 269.091 254.15 267.649C254.15 266.193 255.858 265.311 258.56 265.311ZM258.56 266.221C256.572 266.221 255.298 266.767 255.298 267.649C255.298 268.517 256.572 269.063 258.56 269.063C260.548 269.063 261.808 268.517 261.808 267.649C261.808 266.767 260.548 266.221 258.56 266.221ZM254.248 257.961H262.396V258.913H254.248V257.961ZM252.89 263.225H264.314V264.163H252.89V263.225ZM257.58 260.789H258.728V263.491H257.58V260.789ZM261.724 257.961H262.858V259.039C262.858 260.061 262.858 261.083 262.522 262.399L261.374 262.259C261.724 260.957 261.724 260.033 261.724 259.039V257.961ZM267.001 266.081H266.203L265.853 258.899H267.351L267.001 266.081ZM265.727 268.139C265.727 267.793 265.811 267.551 265.979 267.411C266.147 267.271 266.352 267.201 266.595 267.201C266.828 267.201 267.029 267.271 267.197 267.411C267.374 267.551 267.463 267.793 267.463 268.139C267.463 268.475 267.374 268.717 267.197 268.867C267.029 269.016 266.828 269.091 266.595 269.091C266.352 269.091 266.147 269.016 265.979 268.867C265.811 268.717 265.727 268.475 265.727 268.139Z" fill="white"/>
<defs>
<clipPath id="clip0_6_1130">
<rect width="150" height="15.7895" fill="white" transform="translate(105 0.105286)"/>
</clipPath>
<clipPath id="clip1_6_1130">
<rect width="118" height="158" fill="white" transform="translate(121 55.8948)"/>
</clipPath>
</defs>
</svg>
