<svg width="15" height="22" viewBox="0 0 15 22" fill="none" xmlns="http://www.w3.org/2000/svg">
<path d="M11.9251 14.8611C10.6279 15.5185 8.92657 16.068 6.77777 15.8666C4.92634 15.6924 3.40745 15.4796 2.26733 14.8164C2.53906 13.5446 3.2016 12.7652 3.24403 12.7395C3.94267 13.3352 5.38682 13.7526 7.07388 13.7824C7.08116 13.783 7.08877 13.783 7.09637 13.783C7.1236 13.784 7.1502 13.784 7.17712 13.7843C7.20848 13.7846 7.23951 13.7846 7.27087 13.7846C7.30032 13.7846 7.32946 13.7846 7.35891 13.7843C7.38836 13.7843 7.41718 13.784 7.44632 13.783C8.89902 13.7602 10.1744 13.4499 10.9509 12.9853L10.9544 12.9913C10.9544 12.9913 11.6483 13.4948 11.9251 14.8611Z" fill="#17171B"/>
<path d="M11.9472 14.8164C12.0831 14.8164 12.1933 14.9257 12.1933 15.0612C12.1933 16.018 12.1933 17.8814 12.1933 18.7102C12.1933 18.8581 12.0733 18.9769 11.9251 18.9769C11.3702 18.9769 9.89344 18.9769 6.94307 18.9769C3.93411 18.9769 2.77721 18.9769 2.34206 18.9769C2.19385 18.9769 2.10327 18.8575 2.10327 18.7096C2.10327 18.1782 2.10327 16.9636 2.10327 16.005V15.0843C2.10327 14.9364 2.2233 14.8164 2.37152 14.8164C2.45544 14.8164 2.55805 14.8164 2.67745 14.8164C2.80413 14.8164 5.01532 14.8164 6.77902 14.8164C8.79418 14.8164 9.65022 14.8164 10.9626 14.8164C11.4351 14.8164 10.7986 14.8164 11.9472 14.8164Z" fill="#547355"/>
<path d="M11.5233 15.3526C11.6461 15.3526 11.7456 15.4517 11.7456 15.5743C11.7456 16.2714 11.7456 17.5496 11.7456 18.1836C11.7456 18.3315 11.6265 18.4509 11.4783 18.4509C10.9589 18.4509 9.62623 18.4509 7.00649 18.4509C4.34622 18.4509 3.28971 18.4509 2.87831 18.4509C2.7301 18.4509 2.63794 18.3309 2.63794 18.183C2.63794 17.7592 2.63794 16.9333 2.63794 16.2378V15.6205C2.63794 15.4723 2.75797 15.3523 2.90587 15.3523C2.97649 15.3523 3.0601 15.3523 3.15606 15.3523C4.41494 15.3523 5.26654 15.3523 6.85859 15.3523C8.6774 15.3523 9.45014 15.3523 10.6349 15.3523C11.0612 15.3523 10.4867 15.3526 11.5233 15.3526Z" fill="#E1EDCD"/>
<path d="M11.9814 8.97583C12.6943 8.97583 13.2729 9.55317 13.2729 10.2661C13.2729 10.9783 12.6943 11.556 11.9814 11.556C11.8797 11.556 11.7806 11.5443 11.6856 11.5224L11.6469 11.5405C11.5234 11.301 11.2884 11.0784 10.9651 10.883C10.9771 10.8672 10.9895 10.8513 11.0009 10.8352L11.0294 10.8564C11.3021 11.08 11.6096 11.1449 11.6856 11.1449C12.1359 11.1449 12.5011 10.7797 12.5011 10.3297C12.5011 9.87969 12.1359 9.51517 11.6856 9.51517C11.6758 9.51517 11.6669 9.51517 11.6571 9.51549L11.6362 9.50979C11.6786 9.3432 11.709 9.17345 11.7267 8.99958L11.7318 8.9999C11.8123 8.98375 11.8962 8.97583 11.9814 8.97583Z" fill="#17171B"/>
<path d="M11.6857 9.51515C12.136 9.51515 12.5012 9.87967 12.5012 10.3297C12.5012 10.7797 12.136 11.1449 11.6857 11.1449C11.6097 11.1449 11.3022 11.08 11.0295 10.8564L11.001 10.8352C11.2974 10.4374 11.5156 9.9902 11.6363 9.50977L11.6572 9.51547C11.667 9.51515 11.6759 9.51515 11.6857 9.51515Z" fill="white"/>
<mask id="mask0_906_38069" style="mask-type:luminance" maskUnits="userSpaceOnUse" x="2" y="3" width="10" height="11">
<path d="M2.76343 3.02344H11.7628V13.8077H2.76343V3.02344Z" fill="white"/>
</mask>
<g mask="url(#mask0_906_38069)">
<path d="M3.24434 12.7395C2.9571 12.495 2.7959 12.2204 2.7959 11.93C2.7959 11.7843 2.83644 11.6424 2.91339 11.5062C3.04102 11.2798 3.26905 11.0692 3.57688 10.883C3.56548 10.8681 3.55313 10.8522 3.54236 10.837C3.24593 10.4396 3.02709 9.99209 2.90579 9.51134C2.86304 9.34476 2.83264 9.17342 2.8149 8.99987C2.80192 8.87858 2.7959 8.75475 2.7959 8.6306C2.7959 6.78424 4.20236 5.23052 6.11142 4.77479C5.94579 4.63195 5.8302 4.31145 5.8302 3.93902C5.8302 3.43325 6.0427 3.02344 6.30493 3.02344C6.56652 3.02344 6.77934 3.43325 6.77934 3.93902C6.77934 3.98905 6.77649 4.03783 6.77269 4.08565C6.8259 4.00489 6.88639 3.92381 6.95448 3.84432C7.34465 3.39049 7.8216 3.1612 8.02049 3.3319C8.20576 3.4912 8.08383 3.94092 7.75098 4.36814C7.87512 4.27693 8.03347 4.19681 8.21368 4.14075C8.69664 3.99 9.15174 4.07076 9.22965 4.32064C9.28697 4.50401 9.12482 4.72696 8.84454 4.8926C10.5398 5.46076 11.7465 6.91947 11.7465 8.6306C11.7465 8.75475 11.7404 8.87794 11.7275 8.99956C11.7097 9.17342 11.6793 9.34318 11.6369 9.50976C11.5162 9.99019 11.298 10.4374 11.0016 10.8351C10.9902 10.8513 10.9778 10.8671 10.9658 10.883C11.2891 11.0784 11.5241 11.301 11.6476 11.5404C11.7126 11.6662 11.7465 11.7963 11.7465 11.93C11.7465 12.3217 11.4529 12.6856 10.9512 12.9852C10.1747 13.4498 8.89933 13.7602 7.44663 13.783C9.24485 13.7443 10.5839 13.117 10.6865 12.3692C10.7916 11.5971 10.359 11.429 9.98371 11.2013C10.359 10.7123 10.6136 9.91735 10.6136 9.28015C10.6136 7.59784 8.63014 6.04063 7.27118 7.98643C5.67596 6.18885 3.85652 7.39262 3.85652 9.0743C3.85652 9.71245 4.11178 10.6955 4.48739 11.1851C4.47821 11.1731 4.20109 11.4666 4.17766 11.4945C3.77925 11.967 3.80237 12.4981 4.25778 12.9276C4.96402 13.5939 6.11839 13.7633 7.07419 13.7824C5.38713 13.7526 3.94298 13.3352 3.24434 12.7395Z" fill="#17171B"/>
</g>
<path d="M9.98265 11.2011C10.3579 11.4288 10.7906 11.597 10.6854 12.3691C10.5828 13.1168 9.24379 13.7442 7.44557 13.7829C7.41675 13.7832 7.38762 13.7838 7.35816 13.7841C7.32871 13.7844 7.29958 13.7844 7.27012 13.7844C7.23877 13.7844 7.20773 13.7844 7.17638 13.7841C7.15009 13.7838 7.12286 13.7832 7.09562 13.7829C7.08802 13.7829 7.08042 13.7829 7.07314 13.7822C6.11734 13.7632 4.96297 13.5938 4.25673 12.9275C3.80131 12.498 3.77819 11.9669 4.1766 11.4944C4.20004 11.4665 4.47715 11.1729 4.48633 11.185C4.11073 10.6954 3.85547 9.71232 3.85547 9.07417C3.85547 7.3925 5.67491 6.18872 7.27012 7.98631C8.62908 6.04051 10.6126 7.59772 10.6126 9.28003C10.6126 9.91723 10.3579 10.7121 9.98265 11.2011Z" fill="white"/>
<path d="M3.54154 10.8371C3.55231 10.8523 3.56466 10.8681 3.57606 10.883C3.26823 11.0692 3.0402 11.2798 2.91257 11.5063L2.86 11.5224C2.76499 11.5443 2.66618 11.556 2.56421 11.556C1.851 11.556 1.27271 10.9783 1.27271 10.2661C1.27271 9.55317 1.851 8.97583 2.56421 8.97583C2.64971 8.97583 2.73332 8.98375 2.81408 8.9999C2.83182 9.17345 2.86222 9.34478 2.90497 9.51137L2.88819 9.51549C2.879 9.51517 2.8695 9.51517 2.86 9.51517C2.40934 9.51517 2.0445 9.87969 2.0445 10.3297C2.0445 10.7797 2.40934 11.1449 2.86 11.1449C2.93569 11.1449 3.24416 11.08 3.5162 10.8564L3.54154 10.8371Z" fill="#17171B"/>
<path d="M3.54172 10.8369L3.51638 10.8563C3.24433 11.0798 2.93587 11.1448 2.86018 11.1448C2.40952 11.1448 2.04468 10.7796 2.04468 10.3296C2.04468 9.87955 2.40952 9.51503 2.86018 9.51503C2.86968 9.51503 2.87918 9.51503 2.88836 9.51535L2.90515 9.51123C3.02645 9.99198 3.24529 10.4395 3.54172 10.8369Z" fill="white"/>
<path d="M10.5107 15.5063C10.5107 16.1214 10.0112 16.6199 9.3962 16.6199C8.78054 16.6199 8.28174 16.1214 8.28174 15.5063C8.28174 14.8916 8.78054 14.3928 9.3962 14.3928C10.0112 14.3928 10.5107 14.8916 10.5107 15.5063Z" fill="white"/>
<path d="M9.39579 16.7659C8.70063 16.7659 8.13501 16.2009 8.13501 15.5064C8.13501 14.8116 8.70063 14.2466 9.39579 14.2466C10.0913 14.2466 10.6566 14.8116 10.6566 15.5064C10.6566 16.2009 10.0913 16.7659 9.39579 16.7659ZM9.39579 14.5389C8.86183 14.5389 8.42764 14.9728 8.42764 15.5064C8.42764 16.0401 8.86183 16.4736 9.39579 16.4736C9.93006 16.4736 10.3643 16.0401 10.3643 15.5064C10.3646 14.9728 9.93006 14.5389 9.39579 14.5389Z" fill="#17171B"/>
<path d="M6.0844 15.5063C6.0844 16.1214 5.58496 16.6199 4.96993 16.6199C4.35427 16.6199 3.85547 16.1214 3.85547 15.5063C3.85547 14.8916 4.35427 14.3928 4.96993 14.3928C5.58496 14.3928 6.0844 14.8916 6.0844 15.5063Z" fill="white"/>
<path d="M8.34757 16.9158C8.34757 17.5327 7.84687 18.0324 7.22994 18.0324C6.61237 18.0324 6.1123 17.5327 6.1123 16.9158C6.1123 16.2995 6.61237 15.7991 7.22994 15.7991C7.84687 15.7991 8.34757 16.2995 8.34757 16.9158Z" fill="#547355"/>
<path d="M4.97074 16.7659C4.27527 16.7659 3.70996 16.2009 3.70996 15.5064C3.70996 14.8116 4.27527 14.2466 4.97074 14.2466C5.66558 14.2466 6.23089 14.8116 6.23089 15.5064C6.23089 16.2009 5.66558 16.7659 4.97074 16.7659ZM4.97074 14.5389C4.43647 14.5389 4.00196 14.9728 4.00196 15.5064C4.00196 16.0401 4.43647 16.4736 4.97074 16.4736C5.50438 16.4736 5.93889 16.0401 5.93889 15.5064C5.93889 14.9728 5.50438 14.5389 4.97074 14.5389Z" fill="#17171B"/>
<path d="M6.73769 10.0368C6.73769 10.4561 6.39723 10.7959 5.97761 10.7959C5.55798 10.7959 5.21753 10.4561 5.21753 10.0368C5.21753 9.61716 5.55798 9.27734 5.97824 9.27734C6.39755 9.27734 6.73769 9.61716 6.73769 10.0368Z" fill="#17171B"/>
<path d="M9.42104 10.0368C9.42104 10.4561 9.08058 10.7959 8.66064 10.7959C8.24101 10.7959 7.90088 10.4561 7.90088 10.0368C7.90088 9.61716 8.24101 9.27734 8.66064 9.27734C9.08058 9.27734 9.42104 9.61716 9.42104 10.0368Z" fill="#17171B"/>
<path d="M7.98993 11.6892V11.732C7.98993 11.7649 7.67006 11.8681 7.27451 11.8681C6.8799 11.8681 6.55908 11.7649 6.55908 11.732V11.6892H7.98993Z" fill="#17171B"/>
<path d="M7.54036 16.8303H7.37124L7.39468 16.9234H7.51914L7.54036 16.8303ZM7.50584 16.9807H7.40925L7.4387 17.0985C7.44187 17.1156 7.44535 17.1346 7.44947 17.1559C7.4539 17.1768 7.45802 17.1983 7.46213 17.2202C7.46435 17.1983 7.46688 17.1768 7.47005 17.1559C7.4729 17.1343 7.47607 17.1153 7.47892 17.0985L7.50584 16.9807ZM7.30473 16.9234L7.2813 16.8303H7.17805L7.15462 16.9234H7.30473ZM7.05676 16.9807H6.95858L6.9855 17.0985C6.98835 17.1156 6.99152 17.135 6.99437 17.1568C6.99754 17.1784 7.0007 17.1999 7.00387 17.2224C7.00767 17.1999 7.01147 17.1784 7.01559 17.1568C7.02002 17.135 7.02382 17.1156 7.02667 17.0985L7.05676 16.9807ZM6.94528 16.9234H7.07133L7.09476 16.8303H6.92406L6.94528 16.9234ZM7.19262 16.7723H7.26673L7.24995 16.7046C7.24741 16.691 7.24393 16.6757 7.24013 16.658C7.23633 16.6403 7.23284 16.6229 7.22999 16.6051C7.22683 16.6229 7.22334 16.6403 7.21923 16.658C7.21574 16.6757 7.21257 16.691 7.20972 16.7046L7.19262 16.7723ZM7.64202 16.8303L7.61858 16.9234H7.76585V16.9535C7.76585 16.9605 7.763 16.9665 7.75761 16.9722C7.75223 16.9779 7.74558 16.9807 7.73671 16.9807H7.60402L7.51851 17.318H7.40291L7.31867 16.9807H7.14005L7.05518 17.318H6.93958L6.85407 16.9807H6.69287V16.9234H6.83982L6.81638 16.8303H6.69287V16.7993C6.69287 16.7926 6.6954 16.7866 6.70079 16.7809C6.70617 16.7752 6.71346 16.7723 6.72201 16.7723H6.80182L6.73626 16.5139H6.82018C6.82969 16.5139 6.83792 16.5161 6.84457 16.5212C6.85154 16.5256 6.85565 16.5317 6.85692 16.5396L6.91044 16.7723H7.10933L7.16855 16.5396C7.1695 16.5329 7.17362 16.5269 7.1809 16.5218C7.18787 16.5164 7.19611 16.5139 7.20529 16.5139H7.26071C7.27021 16.5139 7.27845 16.5161 7.2851 16.5212C7.29175 16.5256 7.29587 16.5317 7.29745 16.5396L7.35604 16.7723H7.55366L7.60718 16.5396C7.60877 16.5326 7.61288 16.5266 7.61953 16.5218C7.62682 16.5164 7.63474 16.5139 7.64424 16.5139H7.72246L7.6569 16.7723H7.76585V16.8303H7.64202Z" fill="#FFD94F"/>
</svg>
