<svg width="53" height="52" viewBox="0 0 53 52" fill="none" xmlns="http://www.w3.org/2000/svg">
<rect x="1" y="0.5" width="51" height="51" rx="25.5" fill="white"/>
<rect x="1" y="0.5" width="51" height="51" rx="25.5" stroke="#EFEFEF"/>
<g clip-path="url(#clip0_960_14940)">
<path d="M39.2923 21.6723H35.7249V17.8125H39.2923L38.532 19.7424L39.2923 21.6723Z" fill="#FD6050"/>
<path d="M39.2923 34.9478H35.7249V31.088H39.2923L38.532 33.0179L39.2923 34.9478Z" fill="#FD6050"/>
<path d="M16.416 12.549C15.7925 12.549 15.2871 13.0544 15.2871 13.6779V38.3221C15.2871 38.9456 15.7925 39.451 16.416 39.451H19.5122V12.549H16.416Z" fill="#FDCB50"/>
<path d="M34.7059 12.549H19.5122V39.451H34.7059C35.3294 39.451 35.8348 38.9455 35.8348 38.3221V13.6779C35.8348 13.0544 35.3294 12.549 34.7059 12.549Z" fill="#FD8F01"/>
<path d="M21.5229 25.9481C21.5229 21.0362 22.9056 16.4474 25.3024 12.549H19.5122V39.451H25.3663C22.9301 35.5304 21.5229 30.9036 21.5229 25.9481Z" fill="#FD6050"/>
<path d="M33.1419 18.6389C33.1013 17.5841 32.2469 16.7225 31.1925 16.6736C30.8412 16.6573 30.5083 16.7295 30.2142 16.8699C29.6971 17.1167 29.0974 17.1334 28.5833 16.8804C28.3111 16.7465 28.0047 16.6713 27.6807 16.6713C27.3568 16.6713 27.0504 16.7465 26.7781 16.8804C26.264 17.1333 25.6643 17.1166 25.1473 16.8699C24.8531 16.7295 24.5202 16.6573 24.169 16.6736C23.1146 16.7225 22.2601 17.5841 22.2196 18.6389C22.1797 19.674 22.9084 20.546 23.8806 20.7314V26.1214H31.4809V20.7314C32.4531 20.546 33.1818 19.674 33.1419 18.6389Z" fill="white"/>
<path d="M30.9377 35.3162H24.4239C24.1238 35.3162 23.8806 35.073 23.8806 34.773V32.7719C23.8806 32.4719 24.1238 32.2287 24.4239 32.2287H30.9377C31.2377 32.2287 31.4809 32.4719 31.4809 32.7719V34.773C31.481 35.073 31.2377 35.3162 30.9377 35.3162Z" fill="white"/>
<path d="M39.2923 22.2213C39.4739 22.2213 39.6438 22.1314 39.7461 21.9813C39.8484 21.8311 39.8697 21.6401 39.8031 21.4711L39.1221 19.7424L39.8031 18.0137C39.8697 17.8447 39.8483 17.6536 39.7461 17.5035C39.6439 17.3533 39.4739 17.2635 39.2923 17.2635H36.3836V13.6779C36.3837 12.7527 35.631 12 34.7058 12H16.4158C15.4907 12 14.738 12.7527 14.738 13.6779V17.2635H13.708C13.4048 17.2635 13.1589 17.5093 13.1589 17.8125C13.1589 18.1156 13.4048 18.3615 13.708 18.3615H14.738V20.48H13.708C13.4048 20.48 13.1589 20.7258 13.1589 21.029C13.1589 21.3322 13.4048 21.578 13.708 21.578H14.738V30.539H13.708C13.4048 30.539 13.1589 30.7849 13.1589 31.088C13.1589 31.3912 13.4048 31.6371 13.708 31.6371H14.738V33.7556H13.708C13.4048 33.7556 13.1589 34.0014 13.1589 34.3046C13.1589 34.6077 13.4048 34.8536 13.708 34.8536H14.738V38.3222C14.738 39.2474 15.4907 40.0001 16.4159 40.0001H34.7058C35.631 40.0001 36.3837 39.2474 36.3837 38.3222V35.4969H39.2923C39.4739 35.4969 39.6438 35.4071 39.7461 35.2569C39.8484 35.1068 39.8697 34.9157 39.8031 34.7467L39.1221 33.018L39.8031 31.2893C39.8697 31.1203 39.8483 30.9293 39.7461 30.7791C39.6439 30.629 39.4739 30.5391 39.2923 30.5391H36.3836V22.2214H39.2923V22.2213ZM38.4859 18.3614L38.0212 19.5411C37.9702 19.6704 37.9702 19.8143 38.0212 19.9435L38.4859 21.1232H36.3837V18.3614H38.4859V18.3614ZM15.836 38.3221V34.8535H16.866C17.1692 34.8535 17.415 34.6076 17.415 34.3045C17.415 34.0013 17.1692 33.7555 16.866 33.7555H15.836V31.6369H16.866C17.1692 31.6369 17.415 31.3911 17.415 31.0879C17.415 30.7848 17.1692 30.5389 16.866 30.5389H15.836V21.578H16.866C17.1692 21.578 17.415 21.3321 17.415 21.029C17.415 20.7258 17.1692 20.4799 16.866 20.4799H15.836V18.3614H16.866C17.1692 18.3614 17.415 18.1156 17.415 17.8124C17.415 17.5092 17.1692 17.2634 16.866 17.2634H15.836V13.6779C15.836 13.3582 16.0961 13.098 16.4158 13.098H18.9631V38.902H16.4158C16.0961 38.902 15.836 38.6418 15.836 38.3221ZM35.2856 38.3221C35.2856 38.6418 35.0255 38.902 34.7058 38.902H20.0611V13.098H34.7058C35.0255 13.098 35.2856 13.3582 35.2856 13.6779V38.3221ZM38.4859 31.637L38.0212 32.8167C37.9702 32.946 37.9702 33.0898 38.0212 33.2191L38.4859 34.3988H36.3837V31.6369H38.4859V31.637Z" fill="#052A75"/>
<path d="M31.2177 16.1252C30.7898 16.105 30.3609 16.1915 29.9774 16.3745C29.597 16.556 29.1772 16.5609 28.8254 16.3879C28.4673 16.2116 28.082 16.1223 27.6805 16.1223C27.2789 16.1223 26.8937 16.2116 26.5356 16.3879C26.1838 16.5608 25.7639 16.556 25.3835 16.3744C25.0002 16.1915 24.5708 16.1048 24.1433 16.1252C22.8083 16.1871 21.7221 17.2819 21.6707 18.6178C21.6432 19.3314 21.9002 20.0072 22.3944 20.5207C22.6628 20.7997 22.9819 21.01 23.3313 21.1445V26.1213C23.3313 26.4245 23.5771 26.6703 23.8803 26.6703H31.4807C31.7839 26.6703 32.0297 26.4245 32.0297 26.1213V21.1445C32.3792 21.01 32.6981 20.7997 32.9666 20.5207C33.4607 20.0072 33.7178 19.3314 33.6903 18.6178C33.6388 17.282 32.5527 16.1871 31.2177 16.1252ZM32.1754 19.7594C31.89 20.056 31.5062 20.2194 31.0947 20.2194C30.8721 20.2194 30.6582 20.1719 30.4588 20.0783C30.1846 19.9495 29.8574 20.0673 29.7284 20.3417C29.5995 20.6161 29.7175 20.9431 29.9919 21.0721C30.2892 21.2118 30.6047 21.2919 30.9316 21.312V25.5724H24.4293V21.312C24.7562 21.292 25.0717 21.2118 25.369 21.0721C25.6435 20.9431 25.7614 20.6161 25.6325 20.3417C25.5035 20.0673 25.1766 19.9494 24.9021 20.0783C24.7028 20.1719 24.4889 20.2194 24.2662 20.2194C23.8548 20.2194 23.471 20.056 23.1856 19.7594C22.9003 19.463 22.752 19.0725 22.7679 18.66C22.7976 17.8894 23.424 17.2577 24.1942 17.222C24.4451 17.2103 24.6867 17.2586 24.9105 17.3654C25.596 17.6927 26.3651 17.6956 27.0202 17.3731C27.2263 17.2718 27.4485 17.2204 27.6804 17.2204C27.9124 17.2204 28.1345 17.2718 28.3406 17.3731C28.9959 17.6955 29.7648 17.6927 30.4503 17.3654C30.6741 17.2586 30.915 17.2108 31.1667 17.222C31.9368 17.2578 32.5633 17.8894 32.593 18.66C32.609 19.0725 32.4606 19.463 32.1754 19.7594Z" fill="#052A75"/>
<path d="M31.4807 28.6599H23.8803C23.5771 28.6599 23.3313 28.9058 23.3313 29.209C23.3313 29.5121 23.5771 29.758 23.8803 29.758H31.4807C31.7839 29.758 32.0297 29.5121 32.0297 29.209C32.0297 28.9058 31.7839 28.6599 31.4807 28.6599Z" fill="#052A75"/>
<path d="M30.9374 31.6796H24.4236C23.8213 31.6796 23.3313 32.1696 23.3313 32.7719V34.773C23.3313 35.3753 23.8213 35.8653 24.4236 35.8653H30.9375C31.5398 35.8653 32.0298 35.3753 32.0298 34.773V32.7719C32.0297 32.1696 31.5397 31.6796 30.9374 31.6796ZM30.9317 34.7672H24.4293V32.7776H30.9317V34.7672Z" fill="#052A75"/>
</g>
<defs>
<clipPath id="clip0_960_14940">
<rect width="28" height="28" fill="white" transform="translate(12.5 12)"/>
</clipPath>
</defs>
</svg>
