<svg width="53" height="52" viewBox="0 0 53 52" fill="none" xmlns="http://www.w3.org/2000/svg">
<rect x="1" y="0.5" width="51" height="51" rx="25.5" fill="white"/>
<rect x="1" y="0.5" width="51" height="51" rx="25.5" stroke="#EFEFEF"/>
<g clip-path="url(#clip0_960_14868)">
<path d="M39.9531 24.1521H13.0469V27.7569H39.9531V24.1521Z" fill="#FDCB50"/>
<path d="M21.6946 24.1521H13.0469V27.7569H24.2569C23.2461 26.6839 22.3815 25.4717 21.6946 24.1521Z" fill="#FD8F01"/>
<path d="M14.5938 17.0739V18.8372C14.5938 19.8311 15.3992 20.6369 16.3928 20.6369C17.3864 20.6369 18.1919 19.8311 18.1919 18.8372V17.0739H14.5938Z" fill="#91B706"/>
<path d="M34.8081 17.0739V18.8372C34.8081 19.8311 35.6136 20.6369 36.6072 20.6369C37.6008 20.6369 38.4062 19.8311 38.4062 18.8372V17.0739H34.8081Z" fill="#B1D952"/>
<path d="M32.9515 24.1521H20.0488V24.151C20.0488 20.5919 22.9341 17.7066 26.4933 17.7066H26.507C30.0662 17.7066 32.9514 20.5919 32.9514 24.151V24.1521H32.9515Z" fill="#D2DCFD"/>
<path d="M18.4999 27.7569H15.6104V37.3737H18.4999V27.7569Z" fill="#FD8F01"/>
<path d="M37.39 27.7569H34.5005V37.3737H37.39V27.7569Z" fill="#FDCB50"/>
<path d="M26.5001 33.6821L16.3672 24.1521H36.633L26.5001 33.6821Z" fill="white"/>
<path d="M21.6947 24.1521H16.3672L26.5001 33.6821L29.0713 31.2639C25.9053 29.7614 23.309 27.2533 21.6947 24.1521Z" fill="#D2DCFD"/>
<path d="M39.9531 23.6052H37.1538V21.1193C38.1845 20.8723 38.9528 19.9431 38.9528 18.8378V14.6263C38.9528 14.3243 38.7079 14.0794 38.406 14.0794H34.8079C34.5059 14.0794 34.261 14.3243 34.261 14.6263V18.8377C34.261 19.943 35.0294 20.8722 36.06 21.1192V23.6051H33.477C33.2111 20.1587 30.459 17.4417 27.0469 17.1804V16.6099C27.0469 16.3079 26.802 16.0631 26.5 16.0631C26.198 16.0631 25.9531 16.3079 25.9531 16.6099V17.1804C22.5412 17.4417 19.7889 20.1588 19.5229 23.6052H16.9399V21.1193C17.9706 20.8723 18.739 19.9431 18.739 18.8378V14.6263C18.739 14.3243 18.4941 14.0794 18.1921 14.0794H14.594C14.292 14.0794 14.0471 14.3243 14.0471 14.6263V18.8377C14.0471 19.943 14.8155 20.8722 15.8461 21.1192V23.6051H13.0469C12.7449 23.6051 12.5 23.85 12.5 24.152V27.7568C12.5 28.0589 12.7449 28.3037 13.0469 28.3037H15.0633V37.3736C15.0633 37.6757 15.3082 37.9205 15.6102 37.9205H18.4997C18.8017 37.9205 19.0466 37.6757 19.0466 37.3736V28.3037H19.9832L26.1253 34.0805C26.2306 34.1795 26.3653 34.229 26.5 34.229C26.6347 34.229 26.7694 34.1795 26.8747 34.0805L33.0168 28.3037H33.9534V37.3736C33.9534 37.6757 34.1983 37.9205 34.5003 37.9205H37.3898C37.6918 37.9205 37.9367 37.6757 37.9367 37.3736V28.3037H39.9531C40.2551 28.3037 40.5 28.0589 40.5 27.7568V24.152C40.5 23.85 40.2551 23.6052 39.9531 23.6052ZM15.1409 18.8378V15.1732H17.6452V18.8377C17.6452 19.5282 17.0835 20.0899 16.393 20.0899C15.7026 20.09 15.1409 19.5282 15.1409 18.8378ZM35.3548 18.8378V15.1732H37.8591V18.8377C37.8591 19.5282 37.2974 20.0899 36.607 20.0899C35.9165 20.09 35.3548 19.5282 35.3548 18.8378ZM26.4931 18.2535H26.5069C29.5639 18.2535 32.1032 20.5872 32.3796 23.6052H20.6205C20.8968 20.5874 23.4363 18.2535 26.4931 18.2535ZM17.9528 36.8268H16.1571V28.3038H17.9528V36.8268ZM13.5938 27.21V24.6989H16.1503L18.8202 27.21H13.5938ZM26.5 32.9314L17.7468 24.6989H35.2532L26.5 32.9314ZM36.8429 36.8268H35.0472V28.3038H36.8429V36.8268ZM39.4062 27.21H34.1798L36.8497 24.6989H39.4062V27.21Z" fill="#052A75"/>
</g>
<defs>
<clipPath id="clip0_960_14868">
<rect width="28" height="28" fill="white" transform="translate(12.5 12)"/>
</clipPath>
</defs>
</svg>
