<svg width="53" height="52" viewBox="0 0 53 52" fill="none" xmlns="http://www.w3.org/2000/svg">
<rect x="1" y="0.5" width="51" height="51" rx="25.5" fill="white"/>
<rect x="1" y="0.5" width="51" height="51" rx="25.5" stroke="#EFEFEF"/>
<g clip-path="url(#clip0_960_14960)">
<path d="M39.368 26.7125L27.9943 38.0707C27.2729 38.7912 26.1032 38.7912 25.3817 38.0707L14.3492 27.0533C13.6277 26.3328 13.6277 25.1647 14.3492 24.4442L25.7229 13.086C26.4444 12.3655 27.6141 12.3655 28.3355 13.086L39.368 24.1035C40.0894 24.8239 40.0894 25.9921 39.368 26.7125Z" fill="white"/>
<path d="M26.6883 35.773L16.6504 25.7487L27.0295 15.3838L37.0675 25.408L26.6883 35.773Z" fill="#B1D952"/>
<path d="M31.0238 39.4531H14.9365C13.9169 39.4531 13.0903 38.6266 13.0903 37.6069V22.0285C13.0903 21.0089 13.9169 20.1823 14.9365 20.1823H31.0238C32.0434 20.1823 32.87 21.0088 32.87 22.0285V37.6069C32.8699 38.6266 32.0434 39.4531 31.0238 39.4531Z" fill="white"/>
<path d="M18.4786 27.1782C18.4786 24.6008 19.2324 22.1993 20.5315 20.1823H14.9365C13.9169 20.1823 13.0903 21.0088 13.0903 22.0285V37.6069C13.0903 38.6265 13.9169 39.4531 14.9365 39.4531H27.3183C22.1816 37.7392 18.4786 32.8912 18.4786 27.1782Z" fill="#D2DCFD"/>
<path d="M30.3193 36.906L30.3193 22.7295L15.641 22.7295L15.641 36.906H30.3193Z" fill="#FD7DA0"/>
<path d="M18.4788 27.1782C18.4788 25.6151 18.756 24.1167 19.264 22.7295H15.6411V36.9059H22.8868C20.1846 34.5348 18.4788 31.0557 18.4788 27.1782Z" fill="#DB4B86"/>
<path d="M22.98 32.6473L21.3403 33.5081C20.7275 33.8299 20.0113 33.3102 20.1283 32.6288L20.4415 30.8055L19.115 29.5142C18.6192 29.0316 18.8928 28.1908 19.5779 28.0914L21.4111 27.8254L22.231 26.1665C22.5374 25.5465 23.4227 25.5465 23.7291 26.1665L24.5489 27.8254L26.3821 28.0914C27.0672 28.1908 27.3408 29.0316 26.8451 29.5142L25.5186 30.8055L25.8317 32.6288C25.9488 33.3102 25.2325 33.8299 24.6197 33.5081L22.98 32.6473Z" fill="white"/>
<path d="M40.4561 25.408C40.4561 24.769 40.2069 24.1683 39.7546 23.7165L28.7221 12.699C27.7887 11.767 26.27 11.767 25.3366 12.699L18.4024 19.6237C18.3986 19.6276 18.3948 19.6315 18.3911 19.6355H14.9365C13.617 19.6355 12.5435 20.709 12.5435 22.0285V37.607C12.5435 38.9265 13.617 40 14.9365 40H31.0238C32.3433 40 33.4168 38.9265 33.4168 37.607V33.4287L39.7546 27.0996C40.2069 26.6478 40.4561 26.047 40.4561 25.408ZM32.323 37.6069C32.323 38.3234 31.7401 38.9062 31.0238 38.9062H14.9365C14.2201 38.9062 13.6373 38.3234 13.6373 37.6069V22.0285C13.6373 21.3121 14.2201 20.7293 14.9365 20.7293H31.0238C31.7401 20.7293 32.323 21.3121 32.323 22.0285V37.6069ZM33.4168 22.5354L36.2933 25.408L33.4168 28.2806V22.5354ZM23.5459 19.6355L27.0294 16.1567L30.5129 19.6355H23.5459ZM38.9817 26.3256L33.4168 31.8828V29.8264L37.4538 25.795C37.5565 25.6924 37.6142 25.5531 37.6142 25.408C37.6142 25.2628 37.5565 25.1236 37.4538 25.021L27.4158 14.9968C27.2023 14.7836 26.8564 14.7836 26.6429 14.9968L21.9979 19.6355H19.9387L26.1095 13.473C26.6167 12.9665 27.4421 12.9665 27.9492 13.473L38.9817 24.4904C39.2271 24.7355 39.3623 25.0614 39.3623 25.408C39.3623 25.7545 39.2271 26.0805 38.9817 26.3256Z" fill="#052A75"/>
<path d="M30.3195 22.1826H15.6411C15.3391 22.1826 15.0942 22.4275 15.0942 22.7295V36.9059C15.0942 37.2079 15.3391 37.4528 15.6411 37.4528H30.3195C30.6215 37.4528 30.8664 37.2079 30.8664 36.9059V22.7295C30.8664 22.4275 30.6215 22.1826 30.3195 22.1826ZM29.7726 36.359H16.188V23.2764H29.7726V36.359Z" fill="#052A75"/>
</g>
<defs>
<clipPath id="clip0_960_14960">
<rect width="28" height="28" fill="white" transform="translate(12.5 12)"/>
</clipPath>
</defs>
</svg>
