<svg width="53" height="52" viewBox="0 0 53 52" fill="none" xmlns="http://www.w3.org/2000/svg">
<rect x="1" y="0.5" width="51" height="51" rx="25.5" fill="white"/>
<rect x="1" y="0.5" width="51" height="51" rx="25.5" stroke="#EFEFEF"/>
<path d="M29.3587 30.2746H25.8198V28.4333H22.0883V30.2746H18.5494C16.6114 30.2746 15.0404 31.8434 15.0404 33.7785L15.0276 39.452H32.8548L32.8676 33.7785C32.8676 31.8434 31.2966 30.2746 29.3587 30.2746Z" fill="#67CCD1"/>
<path d="M22.4237 29.9496C22.4237 29.4373 22.4513 28.9314 22.505 28.4333H22.0884V30.2746H18.5494C16.6115 30.2746 15.0405 31.8434 15.0405 33.7785V39.4531H26.1347C23.8309 36.9441 22.4237 33.6109 22.4237 29.9496Z" fill="#27A2CC"/>
<path d="M23.954 32.6785C25.6381 32.6785 27.0925 31.6965 27.7742 30.2746H25.8197V28.4333H22.0883V30.2746H21.1006C21.5983 31.3126 22.6509 32.4744 22.6509 32.4744C23.0614 32.6069 23.4993 32.6785 23.954 32.6785Z" fill="#FDE0BE"/>
<path d="M29.5264 19.6817H29.2895V15.7149H18.6187V19.6817H18.3817C17.7188 19.8138 17.2192 20.398 17.2192 21.0989C17.2192 21.8876 17.852 22.5288 18.6384 22.5437V23.1251C18.6384 26.0567 21.0183 28.4333 23.9541 28.4333C26.8899 28.4333 29.2698 26.0567 29.2698 23.1251V22.5437C30.0561 22.5287 30.689 21.8876 30.689 21.0989C30.6889 20.398 30.1894 19.8138 29.5264 19.6817Z" fill="#FDE0BE"/>
<path d="M21.8556 19.4306C21.8556 18.1506 22.0088 16.9062 22.298 15.7149H18.6187V19.6817H18.3817C17.7188 19.8138 17.2192 20.398 17.2192 21.0988C17.2192 21.8876 17.852 22.5287 18.6384 22.5437V23.1251C18.6384 26.0567 21.0183 28.4332 23.9541 28.4332C24.1931 28.4332 24.4284 28.4175 24.659 28.387C22.8915 25.8457 21.8556 22.759 21.8556 19.4306Z" fill="#F7B073"/>
<path d="M18.6149 19.6818C18.9079 18.5081 19.7207 17.3514 20.8074 16.817C21.5461 18.5328 23.2369 19.6447 25.1072 19.6817H29.6716V16.2733C29.6716 14.2153 28.0009 12.5469 25.9399 12.5469H22.6312C21.1826 12.5469 19.8649 12.818 19.251 14.1283L19.0392 14.5805L18.1739 13.5646L17.885 15.3986C17.4796 17.1772 17.4058 18.3146 18.6149 19.6818Z" fill="#D46B5C"/>
<path d="M23.4412 12.5469H22.6312C21.1826 12.5469 19.8649 12.818 19.251 14.1283L19.0392 14.5805L18.1739 13.5646L17.885 15.3986C17.4796 17.1771 17.4058 18.3146 18.6149 19.6818C18.9079 18.5081 19.7207 17.3513 20.8075 16.8169C21.0643 17.4135 21.4363 17.937 21.8909 18.3678C22.0297 16.2913 22.5724 14.3251 23.4412 12.5469Z" fill="#B55348"/>
<path d="M23.1335 29.7127C23.1335 28.0353 22.0508 26.6756 20.7151 26.6756C19.3794 26.6756 18.2966 28.0353 18.2966 29.7127C18.2966 31.0234 18.9578 32.1402 19.8842 32.5658L19.4699 36.9392C19.4003 37.6733 19.9777 38.3079 20.7151 38.3079C21.4524 38.3079 22.0298 37.6733 21.9603 36.9392L21.546 32.5658C22.4723 32.1402 23.1335 31.0234 23.1335 29.7127Z" fill="#D2DCFD"/>
<path d="M21.2672 33.5702C21.8297 33.4976 22.3281 33.9349 22.3281 34.5012C22.3281 35.0196 21.9071 35.4399 21.3878 35.4399C21.9071 35.4399 22.3281 35.8602 22.3281 36.3786V36.5078C22.3281 37.0262 21.9071 37.4465 21.3878 37.4465C21.9071 37.4465 22.3281 37.8668 22.3281 38.3852V38.5144C22.3281 39.0328 21.9071 39.4531 21.3878 39.4531H17.6101V36.2859C17.6101 35.3632 18.2076 34.5463 19.088 34.2654L21.2672 33.5702Z" fill="#F7B073"/>
<path d="M34.4932 39.4531H31.947C30.0326 39.4531 28.4807 37.9012 28.4807 35.9869V33.5961H37.9594V35.9869C37.9594 37.9012 36.4075 39.4531 34.4932 39.4531Z" fill="#FDCB50"/>
<path d="M34.0186 30.9999C33.8295 30.9999 33.6456 30.9017 33.5443 30.7261L33.4702 30.5975C33.1392 30.0238 33.2471 29.3082 33.7325 28.8575C33.7971 28.7975 33.8341 28.7125 33.8341 28.6244C33.8341 28.3224 34.079 28.0775 34.3809 28.0775C34.6829 28.0775 34.9278 28.3224 34.9278 28.6244C34.9278 29.0156 34.7634 29.3927 34.4767 29.659C34.3673 29.7605 34.3431 29.9217 34.4176 30.051L34.4919 30.1798C34.6427 30.4414 34.5529 30.7758 34.2913 30.9267C34.2052 30.9763 34.1113 30.9999 34.0186 30.9999Z" fill="#FD6050"/>
<path d="M36.1071 32.2827C35.918 32.2827 35.7342 32.1846 35.6329 32.0091L35.5586 31.8805C35.2276 31.3066 35.3354 30.591 35.8208 30.1403C35.8854 30.0803 35.9224 29.9954 35.9224 29.9072C35.9224 29.6052 36.1673 29.3603 36.4693 29.3603C36.7713 29.3603 37.0162 29.6052 37.0162 29.9072C37.0162 30.2984 36.8517 30.6756 36.5651 30.9418C36.4557 31.0433 36.4314 31.2045 36.506 31.3338L36.5802 31.4624C36.7311 31.724 36.6415 32.0584 36.3798 32.2094C36.2938 32.2591 36.1997 32.2827 36.1071 32.2827Z" fill="#FD6050"/>
<path d="M26.0525 22.9906C26.3545 22.9906 26.5994 22.7457 26.5994 22.4437V21.3892C26.5994 21.0872 26.3545 20.8423 26.0525 20.8423C25.7505 20.8423 25.5056 21.0872 25.5056 21.3892V22.4437C25.5056 22.7457 25.7505 22.9906 26.0525 22.9906Z" fill="#052A75"/>
<path d="M21.8557 22.9906C22.1577 22.9906 22.4026 22.7457 22.4026 22.4437V21.3892C22.4026 21.0872 22.1577 20.8423 21.8557 20.8423C21.5537 20.8423 21.3088 21.0872 21.3088 21.3892V22.4437C21.3088 22.7457 21.5537 22.9906 21.8557 22.9906Z" fill="#052A75"/>
<path d="M37.9596 33.0492H33.3488C33.0026 31.1536 31.3312 29.7277 29.3588 29.7277H26.3667V28.4612C28.3994 27.5409 29.8167 25.4952 29.8167 23.1251V23.0055C30.635 22.7563 31.2358 21.9906 31.2358 21.0988C31.2358 20.3657 30.8319 19.7078 30.2187 19.3622V16.2733C30.2187 13.917 28.2992 12 25.94 12H22.6314C21.3291 12 19.7579 12.1891 18.9168 13.5932L18.5903 13.21C18.4519 13.0474 18.2315 12.9802 18.0258 13.0382C17.8201 13.0962 17.6671 13.2684 17.6339 13.4795L17.3478 15.2952C17.0157 16.7561 16.837 18.0183 17.6887 19.3627C17.0759 19.7084 16.6724 20.3661 16.6724 21.0988C16.6724 21.9907 17.2731 22.7563 18.0915 23.0055V23.1251C18.0915 24.3855 18.4956 25.6016 19.2391 26.6051C18.3498 27.2245 17.7499 28.3855 17.7499 29.7126C17.7499 29.7439 17.7502 29.775 17.7509 29.8061C15.8716 30.1792 14.4937 31.8303 14.4937 33.7785V39.4531C14.4937 39.7552 14.7385 40 15.0405 40H34.4933C36.7062 40 38.5065 38.1997 38.5065 35.9869V33.5961C38.5064 33.2941 38.2616 33.0492 37.9596 33.0492ZM18.4183 15.5201C18.421 15.5081 18.4234 15.496 18.4253 15.4837L18.5291 14.8248L18.6231 14.9351C18.7436 15.0767 18.9282 15.1473 19.1122 15.1224C19.2966 15.0977 19.4557 14.9809 19.5346 14.8125L19.7464 14.3603C20.1623 13.4725 21.0251 13.0938 22.6314 13.0938H25.94C27.6961 13.0938 29.1249 14.5201 29.1249 16.2733V19.1348H25.113C23.4503 19.0999 21.9579 18.1057 21.3099 16.6007C21.2507 16.4631 21.1376 16.3558 20.997 16.3039C20.8564 16.252 20.7007 16.2601 20.5663 16.3262C19.6858 16.7592 18.9327 17.5572 18.4613 18.52C18.0169 17.6571 18.1237 16.8126 18.4183 15.5201ZM19.1852 23.1251V22.5437C19.1852 22.2457 18.9467 22.0026 18.6488 21.9969C18.162 21.9877 17.766 21.5848 17.766 21.0989C17.766 20.6878 18.0476 20.3292 18.4421 20.2286C18.4421 20.2286 18.6345 20.2284 18.6443 20.228C18.909 20.2158 19.1245 20.0153 19.1603 19.7574C19.3916 18.8872 19.9255 18.0889 20.5873 17.5928C21.5083 19.1758 23.2169 20.1913 25.0965 20.2284C25.1001 20.2285 25.1037 20.2286 25.1073 20.2286H29.4657C29.8603 20.3291 30.1419 20.6878 30.1419 21.0989C30.1419 21.5848 29.746 21.9877 29.2593 21.9969C28.9614 22.0026 28.7228 22.2457 28.7228 22.5437V23.1251C28.7228 25.7505 26.5835 27.8864 23.9539 27.8864C23.7143 27.8864 23.4748 27.8686 23.2392 27.8333C22.7162 26.8111 21.7804 26.1287 20.7151 26.1287C20.5689 26.1287 20.4251 26.1415 20.2845 26.1664C19.5743 25.3129 19.1852 24.2403 19.1852 23.1251ZM20.7152 27.2224C21.7472 27.2224 22.5869 28.3395 22.5869 29.7127C22.5869 30.7733 22.0769 31.7201 21.3179 32.0688C21.1066 32.1659 20.9798 32.3859 21.0018 32.6174L21.0444 33.0672L20.3656 33.2838L20.4287 32.6174C20.4507 32.3859 20.3239 32.1659 20.1126 32.0688C19.3536 31.7201 18.8437 30.7732 18.8437 29.7127C18.8436 28.3395 19.6832 27.2224 20.7152 27.2224ZM18.1569 38.9062V36.286C18.1569 35.5985 18.5978 34.9959 19.2541 34.7865L21.3764 34.1093C21.5097 34.1048 21.6025 34.1673 21.6481 34.2074C21.6977 34.2511 21.7811 34.3473 21.7811 34.5011C21.7811 34.7172 21.6046 34.893 21.3877 34.893C21.0857 34.893 20.8408 35.1378 20.8408 35.4399C20.8408 35.7419 21.0857 35.9868 21.3877 35.9868C21.6047 35.9868 21.7811 36.1625 21.7811 36.3786V36.5078C21.7811 36.7239 21.6046 36.8997 21.3877 36.8997C21.0857 36.8997 20.8408 37.1445 20.8408 37.4465C20.8408 37.7486 21.0857 37.9934 21.3877 37.9934C21.6047 37.9934 21.7811 38.1692 21.7811 38.3853V38.5145C21.7811 38.7305 21.6046 38.9063 21.3877 38.9063H18.1569V38.9062ZM15.5873 33.7785C15.5873 32.3736 16.5691 31.1803 17.9156 30.8891C18.158 31.7273 18.6525 32.4417 19.3062 32.8691L19.2327 33.6453L18.9216 33.7445C17.81 34.0993 17.0631 35.1206 17.0631 36.286V38.9062H15.5873V33.7785ZM22.8224 38.9062C22.8566 38.7813 22.8749 38.65 22.8749 38.5144V38.3852C22.8749 38.0295 22.7491 37.7026 22.5396 37.4465C22.7491 37.1904 22.8749 36.8635 22.8749 36.5078V36.3786C22.8749 36.0229 22.7491 35.6959 22.5396 35.4398C22.7491 35.1838 22.8749 34.8568 22.8749 34.5011C22.8749 34.0743 22.691 33.6678 22.3703 33.3859C22.3039 33.3276 22.233 33.2757 22.1584 33.2306L22.1242 32.869C23.0685 32.2518 23.6806 31.0356 23.6806 29.7126C23.6806 29.4583 23.6585 29.21 23.6166 28.9705C23.7289 28.9769 23.8416 28.9801 23.9541 28.9801C24.4074 28.9801 24.8489 28.9284 25.2729 28.8307V30.2745C25.2729 30.5766 25.5178 30.8214 25.8198 30.8214H29.3587C30.7303 30.8214 31.9027 31.7648 32.2299 33.0492H28.4808C28.1788 33.0492 27.9339 33.294 27.9339 33.596V35.9868C27.9339 37.136 28.4194 38.1739 29.1962 38.9061H22.8224V38.9062ZM37.4127 35.9869C37.4127 37.5966 36.103 38.9062 34.4933 38.9062H31.9471C30.3373 38.9062 29.0277 37.5966 29.0277 35.9869V34.143H37.4126L37.4127 35.9869Z" fill="#052A75"/>
</svg>
