<svg width="53" height="52" viewBox="0 0 53 52" fill="none" xmlns="http://www.w3.org/2000/svg">
<rect x="1" y="0.5" width="51" height="51" rx="25.5" fill="white"/>
<rect x="1" y="0.5" width="51" height="51" rx="25.5" stroke="#EFEFEF"/>
<g clip-path="url(#clip0_960_16318)">
<path d="M30.5735 28.8536C31.684 28.8536 32.5843 27.9534 32.5843 26.8428C32.5843 25.7323 31.684 24.8321 30.5735 24.8321C29.463 24.8321 28.5627 25.7323 28.5627 26.8428C28.5627 27.9534 29.463 28.8536 30.5735 28.8536Z" fill="#FDE0BE"/>
<path d="M26.0251 25.1473C26.6504 24.8854 27.3696 25.18 27.6315 25.8053L28.2648 27.3175C28.6544 28.248 29.5647 28.8537 30.5735 28.8537C31.5823 28.8537 32.4925 28.2481 32.8822 27.3175L33.5155 25.8053C33.7774 25.18 34.4965 24.8854 35.1218 25.1473C35.7471 25.4092 36.0417 26.1283 35.7798 26.7536L34.6324 29.4934C34.3174 30.2454 33.7752 30.8801 33.0815 31.3085V33.7241H28.0654V31.3085C27.3717 30.8801 26.8294 30.2454 26.5145 29.4933L25.3671 26.7536C25.1052 26.1283 25.3998 25.4092 26.0251 25.1473Z" fill="#67CCD1"/>
<path d="M22.4253 28.8536C23.5358 28.8536 24.4361 27.9534 24.4361 26.8428C24.4361 25.7323 23.5358 24.8321 22.4253 24.8321C21.3148 24.8321 20.4146 25.7323 20.4146 26.8428C20.4146 27.9534 21.3148 28.8536 22.4253 28.8536Z" fill="#FDBEB9"/>
<path d="M26.9736 25.1473C26.3483 24.8854 25.6291 25.18 25.3673 25.8053L24.734 27.3175C24.3443 28.248 23.4341 28.8537 22.4253 28.8537C21.4164 28.8537 20.5063 28.2481 20.1165 27.3175L19.4832 25.8053C19.2214 25.18 18.5022 24.8854 17.8769 25.1473C17.2516 25.4092 16.957 26.1283 17.2189 26.7536L18.3663 29.4934C18.6813 30.2454 19.2236 30.8801 19.9173 31.3085V33.7241H24.9333V31.3085C25.627 30.8801 26.1693 30.2454 26.4842 29.4933L27.6317 26.7536C27.8935 26.1283 27.5989 25.4092 26.9736 25.1473Z" fill="#FD7DA0"/>
<path d="M18.3513 34.5797C19.4619 34.5797 20.3621 33.6794 20.3621 32.5689C20.3621 31.4584 19.4619 30.5581 18.3513 30.5581C17.2408 30.5581 16.3406 31.4584 16.3406 32.5689C16.3406 33.6794 17.2408 34.5797 18.3513 34.5797Z" fill="#FDE0BE"/>
<path d="M22.8996 30.8734C22.2743 30.6115 21.5552 30.9061 21.2933 31.5314L20.66 33.0436C20.2703 33.9741 19.3601 34.5797 18.3513 34.5797C17.3425 34.5797 16.4323 33.9742 16.0426 33.0436L15.4093 31.5314C15.1474 30.9061 14.4282 30.6115 13.8029 30.8734C13.1776 31.1352 12.883 31.8544 13.1449 32.4797L14.2924 35.2195C14.6073 35.9715 15.1496 36.6062 15.8433 37.0346V39.4501H20.8593V37.0346C21.553 36.6062 22.0953 35.9715 22.4103 35.2194L23.5577 32.4796C23.8195 31.8544 23.5249 31.1352 22.8996 30.8734Z" fill="#67CCD1"/>
<path d="M20.66 33.0436L21.2933 31.5314C21.5552 30.9061 22.2744 30.6115 22.8997 30.8734C23.525 31.1352 23.8195 31.8544 23.5577 32.4797L22.4102 35.2195C22.0953 35.9715 21.553 36.6062 20.8593 37.0346V38.6206C19.9474 38.0194 19.516 37.3319 19.1997 36.5767L18.3633 34.5795C19.3673 34.5747 20.2719 33.9704 20.66 33.0436Z" fill="#27A2CC"/>
<path d="M24.29 20.7683C24.9571 20.7683 25.4978 20.2276 25.4978 19.5605C25.4978 18.8935 24.9571 18.3528 24.29 18.3528C23.623 18.3528 23.0823 18.8935 23.0823 19.5605C23.0823 20.2276 23.623 20.7683 24.29 20.7683Z" fill="#B1D952"/>
<path d="M28.709 18.594C29.376 18.594 29.9168 18.0533 29.9168 17.3863C29.9168 16.7192 29.376 16.1785 28.709 16.1785C28.042 16.1785 27.5012 16.7192 27.5012 17.3863C27.5012 18.0533 28.042 18.594 28.709 18.594Z" fill="#B1D952"/>
<path d="M14.2573 20.3844C14.9244 20.3844 15.4651 19.8436 15.4651 19.1766C15.4651 18.5096 14.9244 17.9688 14.2573 17.9688C13.5903 17.9688 13.0496 18.5096 13.0496 19.1766C13.0496 19.8436 13.5903 20.3844 14.2573 20.3844Z" fill="#FD7DA0"/>
<path d="M38.7422 21.3595C39.4092 21.3595 39.95 20.8188 39.95 20.1518C39.95 19.4847 39.4092 18.944 38.7422 18.944C38.0752 18.944 37.5344 19.4847 37.5344 20.1518C37.5344 20.8188 38.0752 21.3595 38.7422 21.3595Z" fill="#FDCB50"/>
<path d="M34.6477 34.5797C35.7583 34.5797 36.6585 33.6794 36.6585 32.5689C36.6585 31.4584 35.7583 30.5581 34.6477 30.5581C33.5372 30.5581 32.637 31.4584 32.637 32.5689C32.637 33.6794 33.5372 34.5797 34.6477 34.5797Z" fill="#FDBEB9"/>
<path d="M30.0993 30.8734C30.7246 30.6115 31.4438 30.9061 31.7057 31.5314L32.339 33.0436C32.7287 33.9741 33.6389 34.5797 34.6477 34.5797C35.6565 34.5797 36.5667 33.9742 36.9564 33.0436L37.5897 31.5314C37.8516 30.9061 38.5707 30.6115 39.196 30.8734C39.8213 31.1352 40.1159 31.8544 39.8541 32.4797L38.7066 35.2195C38.3917 35.9715 37.8494 36.6062 37.1557 37.0346V39.4501H32.1396V37.0346C31.446 36.6062 30.9037 35.9715 30.5887 35.2194L29.4413 32.4796C29.1795 31.8544 29.474 31.1352 30.0993 30.8734Z" fill="#B1D952"/>
<path d="M32.339 33.0436L31.7057 31.5314C31.4438 30.9061 30.7246 30.6115 30.0993 30.8734C29.474 31.1352 29.1794 31.8544 29.4413 32.4797L30.5887 35.2195C30.9037 35.9715 31.446 36.6062 32.1397 37.0346V38.6206C33.0516 38.0194 33.483 37.3319 33.7993 36.5767L34.6357 34.5795C33.6317 34.5747 32.7272 33.9704 32.339 33.0436Z" fill="#91B706"/>
<path d="M26.4995 34.5797C27.6101 34.5797 28.5103 33.6794 28.5103 32.5689C28.5103 31.4584 27.6101 30.5581 26.4995 30.5581C25.389 30.5581 24.4888 31.4584 24.4888 32.5689C24.4888 33.6794 25.389 34.5797 26.4995 34.5797Z" fill="#D46B5C"/>
<path d="M31.0478 30.8734C30.4225 30.6115 29.7034 30.9061 29.4415 31.5314L28.8082 33.0436C28.4185 33.9741 27.5083 34.5797 26.4995 34.5797C25.4907 34.5797 24.5805 33.9742 24.1908 33.0436L23.5575 31.5314C23.2956 30.9061 22.5764 30.6115 21.9511 30.8734C21.3258 31.1352 21.0312 31.8544 21.2931 32.4797L22.4405 35.2195C22.7555 35.9715 23.2978 36.6062 23.9915 37.0346V39.4501H29.0075V37.0346C29.7012 36.6062 30.2435 35.9715 30.5585 35.2194L31.7059 32.4796C31.9678 31.8544 31.6731 31.1352 31.0478 30.8734Z" fill="#FDCB50"/>
<path d="M28.6867 39.4502C26.9189 38.2498 25.6381 36.3861 25.2018 34.2168C24.7585 33.948 24.3997 33.5426 24.1908 33.0436L23.5575 31.5314C23.2956 30.9061 22.5764 30.6115 21.9511 30.8734C21.3259 31.1352 21.0312 31.8544 21.2931 32.4797L22.4406 35.2195C22.7555 35.9715 23.2978 36.6062 23.9915 37.0346V39.4501L28.6867 39.4502Z" fill="#FD8F01"/>
<path d="M23.4117 21.0819C23.6824 21.2382 23.9828 21.3181 24.2872 21.3181C24.4398 21.3181 24.5934 21.298 24.7448 21.2575C25.6804 21.0067 26.2376 20.0416 25.987 19.1059C25.987 19.1058 25.9869 19.1057 25.9869 19.1056L24.8915 15.0177L28.3061 13.3376L28.9239 15.6431C28.7059 15.6159 28.4793 15.629 28.2542 15.6894C27.3186 15.9401 26.7614 16.9053 27.0121 17.8409C27.1335 18.2941 27.4242 18.673 27.8306 18.9076C28.1013 19.0639 28.4017 19.1437 28.7061 19.1437C28.8587 19.1437 29.0123 19.1237 29.1637 19.0831C30.0993 18.8324 30.6565 17.8672 30.4059 16.9315C30.4059 16.9314 30.4058 16.9314 30.4058 16.9313L29.1938 12.4077C29.1513 12.249 29.0399 12.1178 28.8903 12.0499C28.7407 11.982 28.5685 11.9847 28.4211 12.0572L24.0022 14.2315C23.7671 14.3472 23.6465 14.613 23.7143 14.8662L24.5051 17.8173C24.287 17.7902 24.0604 17.8033 23.8354 17.8636C22.8998 18.1143 22.3426 19.0795 22.5932 20.0151C22.7146 20.4684 23.0053 20.8473 23.4117 21.0819ZM28.8795 18.0226C28.7093 18.0681 28.532 18.0447 28.3796 17.9568C28.2273 17.8688 28.1182 17.7268 28.0727 17.5568C27.9787 17.2059 28.1876 16.844 28.5384 16.7499C28.5954 16.7347 28.6525 16.7274 28.7088 16.7274C28.9996 16.7274 29.2664 16.9218 29.3453 17.2156L29.3454 17.2158C29.4393 17.5667 29.2303 17.9286 28.8795 18.0226ZM24.1196 18.9242C24.1765 18.909 24.2336 18.9017 24.2899 18.9017C24.5807 18.9017 24.8475 19.096 24.9264 19.3899L24.9265 19.3901C25.0205 19.7409 24.8115 20.1029 24.4607 20.1969C24.2905 20.2424 24.1131 20.219 23.9608 20.1311C23.8084 20.0431 23.6994 19.9011 23.6538 19.7311C23.5597 19.3802 23.7687 19.0182 24.1196 18.9242Z" fill="#052A75"/>
<path d="M13.8028 20.8735C13.9545 20.9142 14.1069 20.9335 14.257 20.9335C15.0174 20.9335 15.7151 20.4347 15.9402 19.6764C15.9455 19.6617 15.9502 19.6467 15.9543 19.6313L16.9936 15.753L18.1366 16.3155C18.4086 16.4494 18.7377 16.3373 18.8715 16.0652C19.0054 15.7932 18.8933 15.4642 18.6213 15.3303L16.8786 14.4727C16.7311 14.4002 16.559 14.3975 16.4094 14.4654C16.2598 14.5332 16.1485 14.6646 16.106 14.8233L15.3152 17.7745C15.14 17.6419 14.9372 17.54 14.7122 17.4796C13.7768 17.229 12.8114 17.7862 12.5606 18.7218C12.4392 19.1751 12.5015 19.6486 12.7361 20.0549C12.9707 20.4614 13.3495 20.752 13.8028 20.8735ZM13.6211 19.0062C13.7152 18.6552 14.0773 18.4462 14.4279 18.5403C14.7788 18.6343 14.9877 18.9962 14.8938 19.347V19.3471V19.3472C14.7998 19.698 14.4378 19.9068 14.087 19.8129C13.917 19.7674 13.7749 19.6584 13.687 19.506C13.599 19.3536 13.5756 19.1761 13.6211 19.0062Z" fill="#052A75"/>
<path d="M38.0929 21.7841C38.3031 21.8677 38.523 21.9095 38.7427 21.9095C38.9785 21.9095 39.2142 21.8613 39.4373 21.7652C39.8683 21.5796 40.2012 21.2372 40.3746 20.8012C40.5481 20.3652 40.5414 19.8878 40.3558 19.4568L38.7674 15.7693L40.0129 15.5021C40.3094 15.4386 40.4982 15.1467 40.4346 14.8502C40.3711 14.5538 40.0789 14.3651 39.7827 14.4285L37.8837 14.8358C37.723 14.8702 37.5863 14.9748 37.5109 15.1208C37.4356 15.2668 37.4296 15.4388 37.4945 15.5898L38.7028 18.3948C38.48 18.3998 38.2581 18.4475 38.0473 18.5383C37.6163 18.7239 37.2835 19.0662 37.11 19.5023C36.9366 19.9383 36.9433 20.4157 37.1289 20.8467C37.3145 21.2777 37.6569 21.6106 38.0929 21.7841ZM38.1303 19.9083C38.1953 19.7447 38.3201 19.6164 38.4817 19.5467C38.5654 19.5107 38.6538 19.4927 38.7422 19.4927C38.8246 19.4927 38.907 19.5084 38.9859 19.5397C39.1494 19.6048 39.2777 19.7296 39.3473 19.8912C39.417 20.0529 39.4195 20.2319 39.3544 20.3954C39.2893 20.5589 39.1646 20.6873 39.0029 20.7569C38.6692 20.9004 38.2811 20.7461 38.1373 20.4124C38.0677 20.2508 38.0652 20.0717 38.1303 19.9083Z" fill="#052A75"/>
<path d="M39.4083 30.367C38.9706 30.1838 38.4878 30.1818 38.0486 30.3617C37.6095 30.5415 37.2668 30.8817 37.0835 31.3193L36.991 31.5401C36.6375 30.7382 35.8844 30.1511 34.9852 30.0321C35.0403 29.9255 35.0923 29.817 35.139 29.7055L36.2864 26.9657C36.4697 26.528 36.4716 26.0452 36.2918 25.6061C36.1119 25.167 35.7718 24.8242 35.3341 24.641C34.8964 24.4577 34.4136 24.4558 33.9745 24.6356C33.5354 24.8155 33.1926 25.1556 33.0094 25.5933L32.9169 25.8141C32.5199 24.9136 31.6193 24.2831 30.5737 24.2831C29.5281 24.2831 28.6274 24.9137 28.2305 25.8142L28.1434 25.6061L28.1427 25.6064C27.9703 25.1855 27.6376 24.8302 27.1858 24.641C26.748 24.4577 26.2651 24.4558 25.8262 24.6356C25.3871 24.8155 25.0443 25.1556 24.861 25.5933L24.7685 25.8141C24.3716 24.9136 23.4709 24.2831 22.4253 24.2831C21.3797 24.2831 20.4791 24.9136 20.0822 25.8141L19.9897 25.5932C19.6112 24.6898 18.5685 24.2626 17.6649 24.6409C17.2272 24.8242 16.8871 25.167 16.7072 25.6061C16.5274 26.0452 16.5293 26.5281 16.7126 26.9657L17.86 29.7055C17.9067 29.817 17.9587 29.9256 18.0137 30.0322C17.1146 30.1512 16.3615 30.7383 16.008 31.5402L15.9155 31.3194C15.7322 30.8817 15.3894 30.5416 14.9504 30.3617C14.5113 30.1818 14.0284 30.1838 13.5907 30.3671C12.6872 30.7454 12.26 31.7883 12.6384 32.6919L13.7858 35.4317C14.1067 36.1978 14.6249 36.848 15.2941 37.3282V39.4503C15.2941 39.7535 15.54 39.9992 15.8431 39.9992H20.8591C21.1622 39.9992 21.4081 39.7535 21.4081 39.4503V37.3282C21.8031 37.0448 22.1449 36.7018 22.4252 36.311C22.7054 36.7017 23.0473 37.0448 23.4423 37.3282V39.4503C23.4423 39.7535 23.6881 39.9992 23.9913 39.9992H29.0073C29.3105 39.9992 29.5563 39.7535 29.5563 39.4503V37.3282C29.9513 37.0448 30.2931 36.7018 30.5734 36.311C30.8537 36.7018 31.1955 37.0448 31.5905 37.3282V39.4503C31.5905 39.7535 31.8363 39.9992 32.1395 39.9992H37.1555C37.4587 39.9992 37.7045 39.7535 37.7045 39.4503V37.3282C38.3738 36.848 38.892 36.1977 39.2128 35.4316L40.3602 32.6919C40.5435 32.2541 40.5455 31.7713 40.3656 31.3322C40.186 30.893 39.8459 30.5503 39.4083 30.367ZM36.1097 32.5689C36.1097 33.375 35.4539 34.0307 34.6479 34.0307C33.8418 34.0307 33.1861 33.375 33.1861 32.5689C33.1861 31.7629 33.8418 31.1072 34.6479 31.1072C35.4539 31.1072 36.1097 31.7629 36.1097 32.5689ZM34.0222 26.0173C34.0922 25.8502 34.2231 25.7203 34.3908 25.6516C34.5585 25.583 34.7429 25.5836 34.9101 25.6537C35.0772 25.7237 35.2071 25.8546 35.2758 26.0223C35.3445 26.19 35.3438 26.3744 35.2738 26.5416L34.1264 29.2813C33.9664 29.6634 33.7396 30.0073 33.4534 30.306C32.945 30.5754 32.5379 31.0111 32.3047 31.5402C32.3047 31.5402 32.2184 31.3338 32.2178 31.3322C32.0379 30.893 31.6978 30.5503 31.2601 30.367C30.3568 29.9888 29.3138 30.4159 28.9353 31.3194L28.8428 31.5402C28.6096 31.0111 28.2026 30.5755 27.6942 30.306C27.4508 30.0521 27.2506 29.7653 27.0978 29.4501L27.8336 27.6934C28.3441 28.7373 29.4005 29.4027 30.5738 29.4027C31.8074 29.4027 32.9124 28.6675 33.3889 27.5296L34.0222 26.0173ZM26.4996 31.1072C27.3057 31.1072 27.9614 31.7629 27.9614 32.5689C27.9614 33.375 27.3057 34.0307 26.4996 34.0307C25.6936 34.0307 25.0379 33.375 25.0379 32.5689C25.0379 31.7629 25.6936 31.1072 26.4996 31.1072ZM30.5738 25.3811C31.3799 25.3811 32.0356 26.0368 32.0356 26.8428C32.0356 27.6489 31.3799 28.3046 30.5738 28.3046C29.7677 28.3046 29.112 27.6489 29.112 26.8428C29.112 26.0368 29.7678 25.3811 30.5738 25.3811ZM22.4256 25.3811C23.2316 25.3811 23.8874 26.0368 23.8874 26.8428C23.8874 27.6489 23.2316 28.3046 22.4256 28.3046C21.6195 28.3046 20.9638 27.6489 20.9638 26.8428C20.9638 26.0368 21.6195 25.3811 22.4256 25.3811ZM17.7256 26.5415C17.6556 26.3743 17.6549 26.1899 17.7236 26.0223C17.7922 25.8546 17.9221 25.7237 18.0893 25.6537C18.4344 25.5093 18.8327 25.6724 18.9772 26.0174L19.6105 27.5296C20.087 28.6675 21.192 29.4027 22.4256 29.4027C23.6591 29.4027 24.7641 28.6675 25.2406 27.5296L25.8739 26.0174C25.9439 25.8502 26.0748 25.7203 26.2425 25.6517C26.4103 25.583 26.5946 25.5837 26.7618 25.6537C27.1069 25.7982 27.27 26.1965 27.1255 26.5416L25.9781 29.2814C25.8181 29.6634 25.5914 30.0074 25.3052 30.306C24.7968 30.5754 24.3897 31.0111 24.1565 31.5402L24.064 31.3194C23.6856 30.4159 22.6428 29.9886 21.7392 30.3671C21.2874 30.5562 20.9548 30.9115 20.7823 31.3325L20.6946 31.5402C20.4613 31.0111 20.0543 30.5755 19.5459 30.306C19.2597 30.0074 19.0329 29.6635 18.8729 29.2814L17.7256 26.5415ZM18.3515 31.1072C19.1576 31.1072 19.8133 31.7629 19.8133 32.5689C19.8133 33.375 19.1576 34.0307 18.3515 34.0307C17.5454 34.0307 16.8896 33.375 16.8896 32.5689C16.8896 31.7629 17.5455 31.1072 18.3515 31.1072ZM20.571 36.5676C20.4091 36.6676 20.3105 36.8443 20.3105 37.0347V38.9012H16.3925V37.0347C16.3925 36.8443 16.2939 36.6676 16.132 36.5676C15.5322 36.1971 15.0713 35.6576 14.7989 35.0075L13.6515 32.2677C13.507 31.9226 13.6702 31.5243 14.0152 31.3798C14.1824 31.3098 14.3667 31.309 14.5345 31.3777C14.7023 31.4464 14.8331 31.5763 14.9031 31.7435L15.5364 33.2557C16.013 34.3935 17.118 35.1287 18.3515 35.1287H18.3517C19.5248 35.1286 20.5812 34.4633 21.0917 33.4194L21.8273 35.176C21.5491 35.7509 21.118 36.2297 20.571 36.5676ZM28.7192 36.5676C28.5573 36.6676 28.4587 36.8443 28.4587 37.0347V38.9012H24.5406V37.0347C24.5406 36.8443 24.442 36.6676 24.2802 36.5676C23.6803 36.1971 23.2195 35.6576 22.9472 35.0075L21.7997 32.2677C21.6552 31.9226 21.8184 31.5243 22.1634 31.3798C22.5086 31.2353 22.9068 31.3985 23.0514 31.7435L23.6847 33.2558C24.1612 34.3935 25.2662 35.1287 26.4997 35.1287C27.7333 35.1287 28.8383 34.3935 29.3147 33.2557L29.9481 31.7435C30.0925 31.3984 30.4909 31.2353 30.836 31.3798C31.0031 31.4498 31.133 31.5808 31.2017 31.7484C31.2704 31.9161 31.2697 32.1005 31.1997 32.2677L30.0523 35.0075C29.7799 35.6576 29.319 36.1971 28.7192 36.5676ZM39.3478 32.2677L38.2004 35.0074C37.9281 35.6576 37.4672 36.1971 36.8674 36.5675C36.7055 36.6675 36.6069 36.8443 36.6069 37.0346V38.9012H32.6889V37.0346C32.6889 36.8443 32.5903 36.6675 32.4284 36.5675C31.8814 36.2297 31.4504 35.7509 31.172 35.176L31.9077 33.4195C32.4182 34.4634 33.4747 35.1287 34.6479 35.1287C35.8814 35.1287 36.9864 34.3935 37.4629 33.2557L38.0962 31.7434C38.1662 31.5763 38.2971 31.4464 38.4649 31.3777C38.6324 31.309 38.8169 31.3097 38.9841 31.3797C39.1513 31.4497 39.2811 31.5807 39.3499 31.7484C39.4186 31.9161 39.4179 32.1005 39.3478 32.2677Z" fill="#052A75"/>
</g>
<defs>
<clipPath id="clip0_960_16318">
<rect width="28" height="28" fill="white" transform="translate(12.5 12)"/>
</clipPath>
</defs>
</svg>
