<svg width="29" height="29" viewBox="0 0 29 29" fill="none" xmlns="http://www.w3.org/2000/svg">
<path d="M28 23C28 23.6593 27.6903 24.3293 27.0439 24.9843C26.3954 25.6414 25.4322 26.2561 24.2025 26.7831C21.7449 27.8363 18.3149 28.5 14.5 28.5C10.6851 28.5 7.25508 27.8363 4.79746 26.7831C3.56777 26.2561 2.60457 25.6414 1.95606 24.9843C1.30968 24.3293 1 23.6593 1 23C1 22.3407 1.30968 21.6707 1.95606 21.0157C2.60457 20.3586 3.56777 19.7439 4.79746 19.2169C7.25508 18.1637 10.6851 17.5 14.5 17.5C18.3149 17.5 21.7449 18.1637 24.2025 19.2169C25.4322 19.7439 26.3954 20.3586 27.0439 21.0157C27.6903 21.6707 28 22.3407 28 23Z" fill="#FFA31F" stroke="#FFA31F"/>
<path d="M7 10.5C7 14.5 12 19.1667 14.5 21C17 19 22 14.1 22 10.5C22 6 17.5 3 14.5 3C11.5 3 7 5.5 7 10.5Z" fill="white"/>
<path d="M16.9899 10.86C17.3248 10.399 17.5257 9.85428 17.5704 9.28619C17.615 8.7181 17.5018 8.14872 17.243 7.64099C16.9843 7.13327 16.5902 6.70697 16.1044 6.40924C15.6185 6.11151 15.0597 5.95393 14.4899 5.95393C13.92 5.95393 13.3613 6.11151 12.8754 6.40924C12.3895 6.70697 11.9954 7.13327 11.7367 7.64099C11.478 8.14872 11.3647 8.7181 11.4094 9.28619C11.4541 9.85428 11.655 10.399 11.9899 10.86C11.5651 11.1307 11.1868 11.4684 10.8699 11.86C10.7871 11.967 10.7263 12.0893 10.6908 12.2198C10.6554 12.3504 10.6459 12.4866 10.6631 12.6208C10.6803 12.755 10.7237 12.8845 10.791 13.0019C10.8582 13.1193 10.9479 13.2223 11.0549 13.305C11.1619 13.3877 11.2842 13.4486 11.4147 13.484C11.5453 13.5195 11.6815 13.5289 11.8157 13.5118C11.9499 13.4946 12.0794 13.4511 12.1968 13.3839C12.3141 13.3167 12.4171 13.227 12.4999 13.12C12.7441 12.8096 13.0554 12.5584 13.4104 12.3852C13.7653 12.212 14.1549 12.1214 14.5499 12.12C14.9449 12.1214 15.3344 12.212 15.6894 12.3852C16.0444 12.5584 16.3557 12.8096 16.5999 13.12C16.694 13.236 16.8129 13.3295 16.9479 13.3935C17.0829 13.4575 17.2305 13.4905 17.3799 13.49C17.5673 13.4891 17.7508 13.4356 17.9093 13.3355C18.0678 13.2354 18.195 13.0927 18.2763 12.9238C18.3576 12.7549 18.3898 12.5665 18.3692 12.3802C18.3487 12.1939 18.2761 12.0171 18.1599 11.87C17.8287 11.4707 17.4333 11.1293 16.9899 10.86ZM14.4999 10.13C14.286 10.1299 14.077 10.0668 13.8987 9.94871C13.7204 9.83062 13.5808 9.66269 13.4972 9.46584C13.4137 9.26899 13.3899 9.05191 13.4288 8.84163C13.4677 8.63136 13.5676 8.43717 13.7161 8.28326C13.8646 8.12935 14.055 8.02251 14.2638 7.97604C14.4725 7.92957 14.6903 7.94553 14.89 8.02193C15.0898 8.09833 15.2626 8.2318 15.3871 8.40571C15.5115 8.57962 15.582 8.78629 15.5899 9C15.5953 9.14647 15.571 9.29252 15.5187 9.42942C15.4663 9.56631 15.3869 9.69124 15.2851 9.79673C15.1834 9.90222 15.0614 9.98611 14.9265 10.0434C14.7915 10.1006 14.6465 10.1301 14.4999 10.13ZM22.9599 9.63C22.8195 8.16891 22.3031 6.76908 21.4611 5.56681C20.619 4.36455 19.48 3.40083 18.1549 2.76949C16.8298 2.13815 15.3638 1.86072 13.8996 1.9642C12.4354 2.06768 11.023 2.54856 9.79988 3.36C8.74908 4.06264 7.86693 4.98929 7.21682 6.07339C6.56672 7.15748 6.16478 8.3721 6.03988 9.63C5.91736 10.8797 6.07455 12.1409 6.50005 13.3223C6.92555 14.5036 7.60868 15.5755 8.49988 16.46L13.7999 21.77C13.8928 21.8637 14.0034 21.9381 14.1253 21.9889C14.2472 22.0397 14.3779 22.0658 14.5099 22.0658C14.6419 22.0658 14.7726 22.0397 14.8945 21.9889C15.0163 21.9381 15.1269 21.8637 15.2199 21.77L20.4999 16.46C21.3911 15.5755 22.0742 14.5036 22.4997 13.3223C22.9252 12.1409 23.0824 10.8797 22.9599 9.63ZM19.0999 15.05L14.4999 19.65L9.89988 15.05C9.22197 14.372 8.70268 13.5523 8.37935 12.6498C8.05601 11.7472 7.93667 10.7842 8.02988 9.83C8.1237 8.8611 8.43164 7.92516 8.93145 7.08984C9.43126 6.25452 10.1104 5.5407 10.9199 5C11.9808 4.29523 13.2262 3.91929 14.4999 3.91929C15.7736 3.91929 17.0189 4.29523 18.0799 5C18.8869 5.53861 19.5646 6.24928 20.0642 7.08093C20.5639 7.91259 20.8732 8.8446 20.9699 9.81C21.0661 10.7674 20.9483 11.7343 20.6249 12.6405C20.3014 13.5468 19.7805 14.3698 19.0999 15.05Z" fill="#17171B"/>
</svg>
