<svg width="29" height="29" viewBox="0 0 29 29" fill="none" xmlns="http://www.w3.org/2000/svg">
<path d="M28 23C28 23.6593 27.6903 24.3293 27.0439 24.9843C26.3954 25.6414 25.4322 26.2561 24.2025 26.7831C21.7449 27.8363 18.3149 28.5 14.5 28.5C10.6851 28.5 7.25508 27.8363 4.79746 26.7831C3.56777 26.2561 2.60457 25.6414 1.95606 24.9843C1.30968 24.3293 1 23.6593 1 23C1 22.3407 1.30968 21.6707 1.95606 21.0157C2.60457 20.3586 3.56777 19.7439 4.79746 19.2169C7.25508 18.1637 10.6851 17.5 14.5 17.5C18.3149 17.5 21.7449 18.1637 24.2025 19.2169C25.4322 19.7439 26.3954 20.3586 27.0439 21.0157C27.6903 21.6707 28 22.3407 28 23Z" fill="#782ADE" stroke="#782ADE"/>
<rect x="3.5" y="1" width="22" height="22" rx="3" fill="white"/>
<path d="M10.5 21H6.5C6.23478 21 5.98043 20.8946 5.79289 20.7071C5.60536 20.5196 5.5 20.2652 5.5 20V16C5.5 15.7348 5.39464 15.4804 5.20711 15.2929C5.01957 15.1054 4.76522 15 4.5 15C4.23478 15 3.98043 15.1054 3.79289 15.2929C3.60536 15.4804 3.5 15.7348 3.5 16V20C3.5 20.7956 3.81607 21.5587 4.37868 22.1213C4.94129 22.6839 5.70435 23 6.5 23H10.5C10.7652 23 11.0196 22.8946 11.2071 22.7071C11.3946 22.5196 11.5 22.2652 11.5 22C11.5 21.7348 11.3946 21.4804 11.2071 21.2929C11.0196 21.1054 10.7652 21 10.5 21ZM24.5 15C24.2348 15 23.9804 15.1054 23.7929 15.2929C23.6054 15.4804 23.5 15.7348 23.5 16V20C23.5 20.2652 23.3946 20.5196 23.2071 20.7071C23.0196 20.8946 22.7652 21 22.5 21H18.5C18.2348 21 17.9804 21.1054 17.7929 21.2929C17.6054 21.4804 17.5 21.7348 17.5 22C17.5 22.2652 17.6054 22.5196 17.7929 22.7071C17.9804 22.8946 18.2348 23 18.5 23H22.5C23.2956 23 24.0587 22.6839 24.6213 22.1213C25.1839 21.5587 25.5 20.7956 25.5 20V16C25.5 15.7348 25.3946 15.4804 25.2071 15.2929C25.0196 15.1054 24.7652 15 24.5 15ZM22.5 1H18.5C18.2348 1 17.9804 1.10536 17.7929 1.29289C17.6054 1.48043 17.5 1.73478 17.5 2C17.5 2.26522 17.6054 2.51957 17.7929 2.70711C17.9804 2.89464 18.2348 3 18.5 3H22.5C22.7652 3 23.0196 3.10536 23.2071 3.29289C23.3946 3.48043 23.5 3.73478 23.5 4V8C23.5 8.26522 23.6054 8.51957 23.7929 8.70711C23.9804 8.89464 24.2348 9 24.5 9C24.7652 9 25.0196 8.89464 25.2071 8.70711C25.3946 8.51957 25.5 8.26522 25.5 8V4C25.5 3.20435 25.1839 2.44129 24.6213 1.87868C24.0587 1.31607 23.2956 1 22.5 1ZM4.5 9C4.76522 9 5.01957 8.89464 5.20711 8.70711C5.39464 8.51957 5.5 8.26522 5.5 8V4C5.5 3.73478 5.60536 3.48043 5.79289 3.29289C5.98043 3.10536 6.23478 3 6.5 3H10.5C10.7652 3 11.0196 2.89464 11.2071 2.70711C11.3946 2.51957 11.5 2.26522 11.5 2C11.5 1.73478 11.3946 1.48043 11.2071 1.29289C11.0196 1.10536 10.7652 1 10.5 1H6.5C5.70435 1 4.94129 1.31607 4.37868 1.87868C3.81607 2.44129 3.5 3.20435 3.5 4V8C3.5 8.26522 3.60536 8.51957 3.79289 8.70711C3.98043 8.89464 4.23478 9 4.5 9ZM12.5 5H8.5C8.23478 5 7.98043 5.10536 7.79289 5.29289C7.60536 5.48043 7.5 5.73478 7.5 6V10C7.5 10.2652 7.60536 10.5196 7.79289 10.7071C7.98043 10.8946 8.23478 11 8.5 11H12.5C12.7652 11 13.0196 10.8946 13.2071 10.7071C13.3946 10.5196 13.5 10.2652 13.5 10V6C13.5 5.73478 13.3946 5.48043 13.2071 5.29289C13.0196 5.10536 12.7652 5 12.5 5ZM11.5 9H9.5V7H11.5V9ZM16.5 11H20.5C20.7652 11 21.0196 10.8946 21.2071 10.7071C21.3946 10.5196 21.5 10.2652 21.5 10V6C21.5 5.73478 21.3946 5.48043 21.2071 5.29289C21.0196 5.10536 20.7652 5 20.5 5H16.5C16.2348 5 15.9804 5.10536 15.7929 5.29289C15.6054 5.48043 15.5 5.73478 15.5 6V10C15.5 10.2652 15.6054 10.5196 15.7929 10.7071C15.9804 10.8946 16.2348 11 16.5 11ZM17.5 7H19.5V9H17.5V7ZM12.5 13H8.5C8.23478 13 7.98043 13.1054 7.79289 13.2929C7.60536 13.4804 7.5 13.7348 7.5 14V18C7.5 18.2652 7.60536 18.5196 7.79289 18.7071C7.98043 18.8946 8.23478 19 8.5 19H12.5C12.7652 19 13.0196 18.8946 13.2071 18.7071C13.3946 18.5196 13.5 18.2652 13.5 18V14C13.5 13.7348 13.3946 13.4804 13.2071 13.2929C13.0196 13.1054 12.7652 13 12.5 13ZM11.5 17H9.5V15H11.5V17ZM16.5 16C16.7652 16 17.0196 15.8946 17.2071 15.7071C17.3946 15.5196 17.5 15.2652 17.5 15C17.7652 15 18.0196 14.8946 18.2071 14.7071C18.3946 14.5196 18.5 14.2652 18.5 14C18.5 13.7348 18.3946 13.4804 18.2071 13.2929C18.0196 13.1054 17.7652 13 17.5 13H16.5C16.2348 13 15.9804 13.1054 15.7929 13.2929C15.6054 13.4804 15.5 13.7348 15.5 14V15C15.5 15.2652 15.6054 15.5196 15.7929 15.7071C15.9804 15.8946 16.2348 16 16.5 16ZM20.5 13C20.2348 13 19.9804 13.1054 19.7929 13.2929C19.6054 13.4804 19.5 13.7348 19.5 14V17C19.2348 17 18.9804 17.1054 18.7929 17.2929C18.6054 17.4804 18.5 17.7348 18.5 18C18.5 18.2652 18.6054 18.5196 18.7929 18.7071C18.9804 18.8946 19.2348 19 19.5 19H20.5C20.7652 19 21.0196 18.8946 21.2071 18.7071C21.3946 18.5196 21.5 18.2652 21.5 18V14C21.5 13.7348 21.3946 13.4804 21.2071 13.2929C21.0196 13.1054 20.7652 13 20.5 13ZM16.5 17C16.3022 17 16.1089 17.0586 15.9444 17.1685C15.78 17.2784 15.6518 17.4346 15.5761 17.6173C15.5004 17.8 15.4806 18.0011 15.5192 18.1951C15.5578 18.3891 15.653 18.5673 15.7929 18.7071C15.9327 18.847 16.1109 18.9422 16.3049 18.9808C16.4989 19.0194 16.7 18.9996 16.8827 18.9239C17.0654 18.8482 17.2216 18.72 17.3315 18.5556C17.4414 18.3911 17.5 18.1978 17.5 18C17.5 17.7348 17.3946 17.4804 17.2071 17.2929C17.0196 17.1054 16.7652 17 16.5 17Z" fill="#17171B"/>
</svg>
