<svg width="32" height="32" viewBox="0 0 32 32" fill="none" xmlns="http://www.w3.org/2000/svg">
<rect x="1" y="1" width="30" height="30" rx="15" fill="#FFA31F"/>
<rect x="1" y="1" width="30" height="30" rx="15" stroke="#FFA31F" stroke-width="2"/>
<path fill-rule="evenodd" clip-rule="evenodd" d="M21.1402 17.02L17.0202 21.1333C16.8953 21.2575 16.7263 21.3272 16.5502 21.3272C16.3741 21.3272 16.2051 21.2575 16.0802 21.1333L10.6668 15.7267V10.6667H15.7268L21.1402 16.08C21.202 16.1423 21.2508 16.2162 21.284 16.2974C21.3172 16.3786 21.334 16.4656 21.3335 16.5533C21.3328 16.7282 21.2633 16.8958 21.1402 17.02ZM12.4446 12.1685C12.6091 12.0586 12.8024 12 13.0002 12C13.2654 12 13.5197 12.1053 13.7073 12.2929C13.8948 12.4804 14.0002 12.7348 14.0002 13C14.0002 13.1978 13.9415 13.3911 13.8316 13.5556C13.7218 13.72 13.5656 13.8482 13.3829 13.9239C13.2001 13.9996 12.9991 14.0194 12.8051 13.9808C12.6111 13.9422 12.4329 13.847 12.2931 13.7071C12.1532 13.5672 12.058 13.3891 12.0194 13.1951C11.9808 13.0011 12.0006 12.8 12.0763 12.6173C12.152 12.4346 12.2802 12.2784 12.4446 12.1685Z" fill="#FFA31F"/>
<path fill-rule="evenodd" clip-rule="evenodd" d="M16.4735 9.52666L22.0802 15.14V15.1733C22.4547 15.5483 22.6651 16.0567 22.6651 16.5867C22.6651 17.1167 22.4547 17.625 22.0802 18L17.9668 22.08C17.5918 22.4545 17.0835 22.6649 16.5535 22.6649C16.0235 22.6649 15.5152 22.4545 15.1402 22.08L9.52684 16.4733C9.46505 16.411 9.41617 16.3372 9.38299 16.2559C9.34982 16.1747 9.333 16.0877 9.33351 16V9.99999C9.33351 9.82318 9.40375 9.65361 9.52877 9.52859C9.65379 9.40356 9.82336 9.33332 10.0002 9.33332H16.0002C16.0879 9.33282 16.1749 9.34963 16.2561 9.38281C16.3373 9.41599 16.4112 9.46487 16.4735 9.52666ZM17.0202 21.1333L21.1402 17.02C21.2633 16.8958 21.3328 16.7282 21.3335 16.5533C21.334 16.4656 21.3172 16.3786 21.284 16.2974C21.2508 16.2162 21.202 16.1423 21.1402 16.08L15.7268 10.6667H10.6668V15.7267L16.0802 21.1333C16.2051 21.2575 16.3741 21.3272 16.5502 21.3272C16.7263 21.3272 16.8953 21.2575 17.0202 21.1333Z" fill="white"/>
<path d="M13.0002 12C12.8024 12 12.6091 12.0586 12.4446 12.1685C12.2802 12.2784 12.152 12.4346 12.0763 12.6173C12.0006 12.8 11.9808 13.0011 12.0194 13.1951C12.058 13.3891 12.1532 13.5672 12.2931 13.7071C12.4329 13.847 12.6111 13.9422 12.8051 13.9808C12.9991 14.0194 13.2001 13.9996 13.3829 13.9239C13.5656 13.8482 13.7218 13.72 13.8316 13.5556C13.9415 13.3911 14.0002 13.1978 14.0002 13C14.0002 12.7348 13.8948 12.4804 13.7073 12.2929C13.5197 12.1053 13.2654 12 13.0002 12Z" fill="white"/>
</svg>
