<svg width="53" height="52" viewBox="0 0 53 52" fill="none" xmlns="http://www.w3.org/2000/svg">
<rect x="1" y="0.5" width="51" height="51" rx="25.5" fill="white"/>
<rect x="1" y="0.5" width="51" height="51" rx="25.5" stroke="#EFEFEF"/>
<g clip-path="url(#clip0_960_16196)">
<path d="M26.5 39.4531C33.93 39.4531 39.9531 33.43 39.9531 26C39.9531 18.57 33.93 12.5469 26.5 12.5469C19.07 12.5469 13.0469 18.57 13.0469 26C13.0469 33.43 19.07 39.4531 26.5 39.4531Z" fill="#FDE0BE"/>
<path d="M31.5267 35.9802C23.2386 35.9802 16.5198 29.2614 16.5198 20.9733C16.5198 19.2991 16.7942 17.6891 17.3001 16.1853C14.6827 18.6398 13.0469 22.1286 13.0469 26C13.0469 33.43 19.07 39.4531 26.5 39.4531C30.3714 39.4531 33.8602 37.8173 36.3147 35.1999C34.8109 35.7057 33.2009 35.9802 31.5267 35.9802Z" fill="#F7B073"/>
<path d="M31.1686 35.9763C31.4396 35.8183 31.6915 35.6251 31.9171 35.3994C32.2588 35.0578 32.6643 34.7868 33.1107 34.6019C34.0121 34.2285 34.7283 33.5123 35.1017 32.6108C35.2866 32.1645 35.5576 31.7589 35.8992 31.4173C36.5892 30.7274 36.9768 29.7916 36.9768 28.8159C36.9768 28.3327 37.072 27.8543 37.2569 27.408C37.6303 26.5065 37.6303 25.4936 37.2569 24.5922C37.072 24.1458 36.9768 23.6674 36.9768 23.1843C36.9768 22.2086 36.5892 21.2728 35.8992 20.5829C35.5576 20.2412 35.2866 19.8357 35.1017 19.3893C34.7283 18.4879 34.0121 17.7717 33.1107 17.3983C32.6643 17.2134 32.2588 16.9424 31.9171 16.6008C31.2272 15.9108 30.2914 15.5232 29.3157 15.5232C28.8325 15.5232 28.3541 15.428 27.9078 15.2431C27.0063 14.8697 25.9935 14.8697 25.092 15.2431C24.6456 15.428 24.1672 15.5232 23.6841 15.5232C22.7084 15.5232 21.7726 15.9108 21.0827 16.6008C20.7411 16.9424 20.3355 17.2134 19.8891 17.3983C18.9877 17.7717 18.2715 18.4879 17.8981 19.3893C17.7132 19.8357 17.4422 20.2412 17.1006 20.5829C16.8749 20.8085 16.6816 21.0605 16.5237 21.3314V27.8723L24.5239 35.8725L31.1686 35.9763Z" fill="#FD6050"/>
<path d="M16.5243 21.3317C16.1993 21.8894 16.023 22.5276 16.023 23.1842C16.023 23.6673 15.9278 24.1457 15.7429 24.5921C15.3695 25.4935 15.3695 26.5064 15.7429 27.4079C15.9278 27.8542 16.023 28.3326 16.023 28.8158C16.023 29.7915 16.4106 30.7272 17.1006 31.4172C17.4422 31.7588 17.7132 32.1644 17.8981 32.6107C18.2715 33.5122 18.9877 34.2284 19.8891 34.6018C20.3355 34.7867 20.7411 35.0577 21.0827 35.3993C21.7726 36.0892 22.7084 36.4769 23.6841 36.4769C24.1673 36.4769 24.6457 36.572 25.092 36.7569C25.9935 37.1303 27.0064 37.1303 27.9079 36.7569C28.3542 36.572 28.8326 36.4769 29.3158 36.4769C29.9724 36.4769 30.6106 36.3007 31.1683 35.9755C23.165 35.788 16.712 29.335 16.5243 21.3317Z" fill="#DB4B86"/>
<path d="M20.9815 25.1764C21.9823 25.1764 22.7936 24.3651 22.7936 23.3643C22.7936 22.3635 21.9823 21.5522 20.9815 21.5522C19.9807 21.5522 19.1694 22.3635 19.1694 23.3643C19.1694 24.3651 19.9807 25.1764 20.9815 25.1764Z" fill="#FD8F01"/>
<path d="M23.6177 32.5199C24.7168 32.5199 25.6077 31.6289 25.6077 30.5299C25.6077 29.4308 24.7168 28.5399 23.6177 28.5399C22.5186 28.5399 21.6277 29.4308 21.6277 30.5299C21.6277 31.6289 22.5186 32.5199 23.6177 32.5199Z" fill="#FD8F01"/>
<path d="M32.6226 28.7389C33.6234 28.7389 34.4347 27.9276 34.4347 26.9268C34.4347 25.926 33.6234 25.1147 32.6226 25.1147C31.6218 25.1147 30.8105 25.926 30.8105 26.9268C30.8105 27.9276 31.6218 28.7389 32.6226 28.7389Z" fill="#FD8F01"/>
<path d="M19.0706 27.663C18.937 27.3104 18.4375 27.2112 18.1787 27.4853C17.8347 27.8191 18.0859 28.4263 18.5654 28.4188C18.9425 28.4304 19.2258 28.0069 19.0706 27.663Z" fill="#67CCD1"/>
<path d="M28.4408 33.7049C28.308 33.3513 27.8072 33.2542 27.5493 33.5272C27.2052 33.8606 27.4567 34.4678 27.936 34.4607C28.3127 34.4724 28.5961 34.0483 28.4408 33.7049Z" fill="#67CCD1"/>
<path d="M30.7426 32.6041C30.6799 32.2316 30.2101 32.0379 29.9026 32.2562C29.5428 32.4837 29.5997 33.0631 29.9973 33.216C30.3871 33.389 30.836 33.0197 30.7426 32.6041Z" fill="#67CCD1"/>
<path d="M24.1227 17.909C23.9901 17.5557 23.4897 17.4575 23.2313 17.7313C22.8882 18.0657 23.1385 18.6708 23.618 18.6647C23.9947 18.6753 24.2783 18.2529 24.1227 17.909Z" fill="#67CCD1"/>
<path d="M28.8286 20.9113C28.3492 20.9175 28.0977 20.3119 28.4414 19.9773C28.6456 19.7662 29.0109 19.7661 29.2151 19.9773C29.5586 20.3122 29.3076 20.9169 28.8286 20.9113Z" fill="#67CCD1"/>
<path d="M28.7366 18.4586C28.3597 18.4691 28.0761 18.0469 28.2313 17.7023C28.4071 17.257 29.0657 17.2568 29.2413 17.7023C29.3962 18.0461 29.1137 18.4695 28.7366 18.4586Z" fill="#67CCD1"/>
<path d="M36.3995 16.1005C33.7552 13.4562 30.2395 12 26.5 12C22.7605 12 19.2448 13.4562 16.6005 16.1005C13.9563 18.7448 12.5 22.2605 12.5 26C12.5 29.7395 13.9563 33.2552 16.6005 35.8995C19.2448 38.5438 22.7605 40 26.5 40C30.2395 40 33.7552 38.5438 36.3995 35.8995C39.0437 33.2552 40.5 29.7395 40.5 26C40.5 22.2605 39.0437 18.7448 36.3995 16.1005ZM27.0469 13.1059C30.1073 13.2327 32.9771 14.4214 35.2308 16.4958L27.0469 24.6797V13.1059ZM35.6261 35.1261C33.1884 37.5638 29.9474 38.9062 26.5 38.9062C23.0526 38.9062 19.8116 37.5638 17.3739 35.1261C14.9362 32.6884 13.5938 29.4474 13.5938 26C13.5938 22.5526 14.9362 19.3116 17.3739 16.8739C19.6822 14.5656 22.711 13.2401 25.9531 13.1059V26C25.9531 26.2212 26.0864 26.4206 26.2907 26.5053C26.3584 26.5333 26.4295 26.5469 26.4999 26.5469C26.6422 26.5469 26.7821 26.4913 26.8867 26.3867L36.0042 17.2692C38.2018 19.6566 39.4062 22.7356 39.4062 26C39.4062 29.4474 38.0638 32.6884 35.6261 35.1261Z" fill="#052A75"/>
</g>
<defs>
<clipPath id="clip0_960_16196">
<rect width="28" height="28" fill="white" transform="translate(12.5 12)"/>
</clipPath>
</defs>
</svg>
