<svg width="53" height="52" viewBox="0 0 53 52" fill="none" xmlns="http://www.w3.org/2000/svg">
<rect x="1" y="0.5" width="51" height="51" rx="25.5" fill="white"/>
<rect x="1" y="0.5" width="51" height="51" rx="25.5" stroke="#EFEFEF"/>
<g clip-path="url(#clip0_960_15092)">
<path d="M21.7044 14.9647H38.7432C39.4103 14.9647 39.951 15.5055 39.951 16.1725C39.951 16.8396 39.4103 17.3804 38.7432 17.3804H21.7044C21.0374 17.3804 20.4966 16.8396 20.4966 16.1725C20.4966 15.5055 21.0374 14.9647 21.7044 14.9647Z" fill="#F7B073"/>
<path d="M28.457 14.9647H23.3515C23.3938 15.1456 23.457 15.3244 23.5437 15.4977C23.9411 16.2926 23.9411 17.2415 23.5437 18.0364C22.4698 20.1842 22.4698 22.7486 23.5437 24.8963C23.9411 25.6911 23.9411 26.6401 23.5437 27.4349C22.947 28.6282 23.4307 30.0793 24.624 30.6759C24.9708 30.8493 25.3394 30.9315 25.7025 30.9315C26.5886 30.9315 27.4417 30.442 27.865 29.5955C28.9389 27.4478 28.9389 24.8833 27.865 22.7356C27.4676 21.9408 27.4676 20.9918 27.865 20.197C28.6779 18.5712 28.8749 16.7066 28.457 14.9647Z" fill="#FDE0BE"/>
<path d="M19.0346 18.8813L13.0488 20.4851L15.0686 28.0234L21.0543 26.4196L19.0346 18.8813Z" fill="#B1D952"/>
<path d="M35.6799 29.0402C37.0121 26.7327 36.9882 22.4543 34.6808 21.1221C32.3733 19.7899 28.6561 21.9084 27.3239 24.2158C25.9917 26.5232 26.7823 29.4738 29.0898 30.806C31.3971 32.1382 34.3477 31.3476 35.6799 29.0402Z" fill="white"/>
<path d="M26.7551 27.468H31.5865C31.5865 25.363 30.684 23.4649 29.246 22.1397C28.4404 22.7374 27.7563 23.4665 27.3237 24.2158C26.837 25.0589 26.6348 25.9878 26.6853 26.8923C26.7306 27.077 26.7551 27.2696 26.7551 27.468Z" fill="#D2DCFD"/>
<path d="M30.2939 28.72C31.4494 29.3871 32.9268 28.9912 33.5938 27.8358C34.2609 26.6804 33.865 25.203 32.7096 24.5359C32.132 24.2024 31.4737 24.1346 30.8766 24.2946L30.2939 28.72Z" fill="#FDCB50"/>
<path d="M31.5867 27.468C31.5867 26.3328 31.3238 25.258 30.8564 24.3006C30.2675 24.4639 29.7396 24.849 29.4099 25.4201C29.0358 26.0681 28.9961 26.8172 29.2371 27.468H31.5867Z" fill="#FD8F01"/>
<path d="M29.171 27.468C29.171 24.7997 27.008 22.6367 24.3397 22.6367C21.6714 22.6367 19.5083 24.7997 19.5083 27.468H29.171Z" fill="#FDE0BE"/>
<path d="M23.5353 27.468C23.5353 24.7997 21.3722 22.6367 18.7039 22.6367C16.0356 22.6367 13.8726 24.7997 13.8726 27.468H23.5353Z" fill="#FDE0BE"/>
<path d="M21.7044 12.549H38.7432C39.4103 12.549 39.951 13.0898 39.951 13.7569C39.951 14.4239 39.4103 14.9647 38.7432 14.9647H21.7044C21.0374 14.9647 20.4966 14.4239 20.4966 13.7569C20.4966 13.0898 21.0374 12.549 21.7044 12.549Z" fill="#F7B073"/>
<path d="M13.0488 27.468C13.0488 32.3848 16.3622 36.5273 20.8777 37.7856V39.451H29.3102V37.7856C33.8257 36.5273 37.1391 32.3848 37.1391 27.4681L13.0488 27.468Z" fill="#67CCD1"/>
<path d="M20.2554 27.468H13.0488C13.0488 32.3848 16.3622 36.5272 20.8777 37.7856V39.451H29.3102V37.7856C29.3471 37.7754 29.3837 37.7643 29.4205 37.7537C24.8165 36.1897 21.292 32.291 20.2554 27.468Z" fill="#27A2CC"/>
<path d="M23.1597 33.4373H35.3224C35.9318 32.5311 36.4061 31.5266 36.7171 30.4527H21.2627L20.1328 32.6061L23.1597 33.4373Z" fill="white"/>
<path d="M14.8655 33.4373H23.1596C22.4081 32.5317 21.7686 31.5298 21.2627 30.4527H13.4707C13.7817 31.5266 14.256 32.5311 14.8655 33.4373Z" fill="#D2DCFD"/>
<path d="M24.7702 22.8603C24.4389 21.5214 24.5962 20.1047 25.213 18.8711C25.7893 17.7186 25.8661 16.3634 25.424 15.153L26.4554 14.7763C27.0007 16.2691 26.9059 17.9406 26.1951 19.3622C25.695 20.3623 25.5675 21.511 25.8361 22.5965L24.7702 22.8603Z" fill="#FDCB50"/>
<path d="M27.3044 27.468H26.2064C26.2064 26.4387 25.369 25.6014 24.3397 25.6014C23.9983 25.6014 23.6646 25.6942 23.3745 25.8699L22.8057 24.9307C23.2672 24.6512 23.7977 24.5034 24.3397 24.5034C25.9745 24.5033 27.3044 25.8333 27.3044 27.468Z" fill="#FDCB50"/>
<path d="M21.6687 27.468H20.5706C20.5706 26.4387 19.7333 25.6014 18.704 25.6014C17.6747 25.6014 16.8373 26.4387 16.8373 27.468H15.7393C15.7393 25.8333 17.0692 24.5033 18.704 24.5033C20.3387 24.5033 21.6687 25.8333 21.6687 27.468Z" fill="#FDCB50"/>
<path d="M40.5 13.7569C40.5 12.7881 39.7119 12 38.7431 12H21.7044C20.7356 12 19.9475 12.7881 19.9475 13.7569C19.9475 14.2245 20.1315 14.6496 20.4304 14.9647C20.1315 15.2798 19.9475 15.7049 19.9475 16.1725C19.9475 17.1413 20.7356 17.9294 21.7044 17.9294H22.985C22.3131 19.3409 22.0592 20.9445 22.2557 22.5064C22.0023 22.6131 21.7566 22.7396 21.5203 22.8855C20.7005 22.3799 19.7358 22.0877 18.704 22.0877C15.9225 22.0877 13.6273 24.2092 13.3514 26.9191H13.049C12.7458 26.9191 12.5 27.1649 12.5 27.4681C12.5 29.9771 13.3075 32.3512 14.8353 34.3339C16.2288 36.1424 18.1674 37.5017 20.3289 38.1943V39.451C20.3289 39.7542 20.5747 40 20.8779 40H29.3103C29.6135 40 29.8593 39.7542 29.8593 39.451V38.1942C32.0208 37.5017 33.9595 36.1423 35.3529 34.3338C36.8807 32.3512 37.6882 29.977 37.6882 27.468C37.6882 27.1648 37.4424 26.919 37.1392 26.919H36.9861C37.1742 25.8384 37.1647 24.7009 36.9506 23.7091C36.6424 22.2813 35.9524 21.2223 34.9553 20.6466C33.7983 19.9786 32.2642 19.9983 30.6355 20.7023C29.7766 21.0736 28.9498 21.6151 28.2517 22.2472C28.0402 21.6618 28.0749 21.0044 28.3558 20.4425C28.7525 19.6491 29.0141 18.7994 29.1373 17.9294H38.7431C39.7119 17.9294 40.5 17.1413 40.5 16.1725C40.5 15.7049 40.316 15.2798 40.0171 14.9647C40.316 14.6496 40.5 14.2245 40.5 13.7569ZM21.7044 13.098H38.7431C39.1064 13.098 39.402 13.3936 39.402 13.7569C39.402 14.1201 39.1064 14.4157 38.7431 14.4157H21.7044C21.3411 14.4157 21.0455 14.1201 21.0455 13.7569C21.0455 13.3936 21.3411 13.098 21.7044 13.098ZM21.0455 16.1725C21.0455 15.8093 21.3411 15.5137 21.7044 15.5137H22.9511C22.982 15.5916 23.0151 15.6685 23.0524 15.7433C23.2225 16.0833 23.3014 16.4584 23.291 16.8314H21.7043C21.3411 16.8314 21.0455 16.5358 21.0455 16.1725ZM24.3397 23.1857C26.5148 23.1857 28.3151 24.8163 28.5856 26.919H24.0565C23.9254 25.6315 23.3383 24.4771 22.4599 23.6197C23.0412 23.3347 23.6798 23.1857 24.3397 23.1857ZM18.704 23.1857C20.8791 23.1857 22.6794 24.8162 22.9499 26.919H14.458C14.7285 24.8163 16.5288 23.1857 18.704 23.1857ZM34.4832 33.6636C33.1477 35.3967 31.2583 36.6728 29.163 37.2567C28.9256 37.3229 28.7614 37.5391 28.7614 37.7856V38.902H21.4269V37.7856C21.4269 37.5392 21.2627 37.3229 21.0253 37.2568C18.93 36.6728 17.0406 35.3968 15.7051 33.6637C14.4385 32.02 13.7206 30.078 13.6124 28.017H36.5759C36.4677 30.078 35.7498 32.02 34.4832 33.6636ZM34.4063 21.5975C35.3176 22.1236 35.7093 23.1622 35.8773 23.9408C36.075 24.8566 36.0702 25.9208 35.8696 26.9191H29.6923C29.5704 25.7221 29.0543 24.6403 28.2767 23.8051C29.7821 21.9535 32.682 20.6019 34.4063 21.5975ZM27.3738 19.9515C26.8995 20.9 26.8995 22.0327 27.3738 22.9812C27.385 23.0037 27.3956 23.0272 27.4067 23.05C26.536 22.4437 25.4787 22.0876 24.3397 22.0876C23.9955 22.0876 23.6559 22.1202 23.324 22.1834C23.1907 20.8434 23.4365 19.4779 24.0345 18.2819C24.466 17.4189 24.5036 16.4041 24.15 15.5137H28.0104C28.2785 17.0241 28.0573 18.5844 27.3738 19.9515ZM38.7431 16.8314H29.2189C29.2221 16.392 29.1904 15.9514 29.1233 15.5137H38.7431C39.1064 15.5137 39.402 15.8093 39.402 16.1725C39.402 16.5358 39.1064 16.8314 38.7431 16.8314Z" fill="#052A75"/>
</g>
<defs>
<clipPath id="clip0_960_15092">
<rect width="28" height="28" fill="white" transform="translate(12.5 12)"/>
</clipPath>
</defs>
</svg>
