<svg width="12" height="12" viewBox="0 0 12 12" fill="none" xmlns="http://www.w3.org/2000/svg">
<path d="M10.5 5.49976C10.3674 5.49976 10.2402 5.55243 10.1464 5.6462C10.0527 5.73997 10 5.86715 10 5.99976C10.006 6.93627 9.68515 7.84555 9.09283 8.57098C8.50051 9.29642 7.67377 9.79259 6.75498 9.97406C5.8362 10.1555 4.88289 10.0109 4.05925 9.56515C3.23561 9.11937 2.5932 8.40034 2.24266 7.53188C1.89212 6.66343 1.8554 5.69991 2.13881 4.80729C2.42222 3.91467 3.00804 3.14882 3.79535 2.64165C4.58267 2.13447 5.5222 1.91771 6.45213 2.02871C7.38206 2.13971 8.24418 2.57152 8.89 3.24976H7.69C7.55739 3.24976 7.43022 3.30243 7.33645 3.3962C7.24268 3.48997 7.19 3.61715 7.19 3.74976C7.19 3.88236 7.24268 4.00954 7.33645 4.10331C7.43022 4.19708 7.55739 4.24976 7.69 4.24976H9.955C10.0876 4.24976 10.2148 4.19708 10.3086 4.10331C10.4023 4.00954 10.455 3.88236 10.455 3.74976V1.49976C10.455 1.36715 10.4023 1.23997 10.3086 1.1462C10.2148 1.05243 10.0876 0.999756 9.955 0.999756C9.82239 0.999756 9.69522 1.05243 9.60145 1.1462C9.50768 1.23997 9.455 1.36715 9.455 1.49976V2.38476C8.62234 1.58878 7.54038 1.10473 6.39201 1.01442C5.24364 0.924109 4.09932 1.23308 3.15246 1.8891C2.20561 2.54512 1.51431 3.50796 1.19542 4.61485C0.876525 5.72174 0.949607 6.90479 1.40231 7.96402C1.855 9.02325 2.65955 9.89368 3.67995 10.4282C4.70035 10.9627 5.874 11.1285 7.00252 10.8975C8.13104 10.6665 9.1452 10.053 9.87357 9.16059C10.6019 8.26819 10.9998 7.15167 11 5.99976C11 5.86715 10.9473 5.73997 10.8536 5.6462C10.7598 5.55243 10.6326 5.49976 10.5 5.49976Z" fill="#5E5E5E"/>
</svg>
