<svg width="53" height="52" viewBox="0 0 53 52" fill="none" xmlns="http://www.w3.org/2000/svg">
<rect x="1" y="0.5" width="51" height="51" rx="25.5" fill="white"/>
<rect x="1" y="0.5" width="51" height="51" rx="25.5" stroke="#EFEFEF"/>
<g clip-path="url(#clip0_960_16009)">
<path d="M37.4619 37.67H15.5381C14.1622 37.67 13.0469 36.5546 13.0469 35.1787V34.6784H39.9531V35.1787C39.9531 36.5546 38.8378 37.67 37.4619 37.67Z" fill="#FD7DA0"/>
<path d="M38.2065 31.8993H14.7932V34.6785H38.2065V31.8993Z" fill="#FDCB50"/>
<path d="M22.2501 31.8993H14.7935V34.6785H24.2441C23.4794 33.8336 22.8092 32.9017 22.2501 31.8993Z" fill="#FD8F01"/>
<path d="M38.2067 31.5062C38.2067 25.0329 32.9655 19.7851 26.5001 19.7851C20.0347 19.7851 14.7935 25.0328 14.7935 31.5062V31.8993H38.2068V31.5062H38.2067Z" fill="white"/>
<path d="M20.3505 24.5697C20.3505 23.4546 20.4717 22.3678 20.7015 21.3217C17.1722 23.3404 14.7935 27.1452 14.7935 31.5062V31.8993H22.2502C21.0401 29.7297 20.3505 27.2302 20.3505 24.5697Z" fill="#D2DCFD"/>
<path d="M26.4999 19.7851C27.5024 19.7851 28.3151 18.9715 28.3151 17.9678C28.3151 16.9641 27.5024 16.1504 26.4999 16.1504C25.4975 16.1504 24.6848 16.9641 24.6848 17.9678C24.6848 18.9715 25.4975 19.7851 26.4999 19.7851Z" fill="#6864F7"/>
<path d="M37.2141 19.4612C36.9121 19.4612 36.6672 19.2163 36.6672 18.9144V18.406C36.6672 18.104 36.9121 17.8591 37.2141 17.8591C37.5161 17.8591 37.761 18.104 37.761 18.406V18.9144C37.761 19.2163 37.5162 19.4612 37.2141 19.4612Z" fill="#6864F7"/>
<path d="M37.2141 22.5418C36.9121 22.5418 36.6672 22.2969 36.6672 21.9949V21.4866C36.6672 21.1846 36.9121 20.9397 37.2141 20.9397C37.5161 20.9397 37.761 21.1846 37.761 21.4866V21.9949C37.761 22.2969 37.5162 22.5418 37.2141 22.5418Z" fill="#6864F7"/>
<path d="M39.0086 20.7473H38.5002C38.1983 20.7473 37.9534 20.5024 37.9534 20.2004C37.9534 19.8985 38.1983 19.6536 38.5002 19.6536H39.0086C39.3106 19.6536 39.5555 19.8985 39.5555 20.2004C39.5555 20.5024 39.3106 20.7473 39.0086 20.7473Z" fill="#6864F7"/>
<path d="M35.9281 20.7473H35.4197C35.1177 20.7473 34.8728 20.5024 34.8728 20.2004C34.8728 19.8985 35.1177 19.6536 35.4197 19.6536H35.9281C36.23 19.6536 36.4749 19.8985 36.4749 20.2004C36.4749 20.5024 36.2301 20.7473 35.9281 20.7473Z" fill="#6864F7"/>
<path d="M18.8815 19.7428C18.6476 19.7428 18.4395 19.594 18.3639 19.3726L18.2128 18.9301C17.974 18.2307 17.4137 17.6704 16.7143 17.4315L16.2718 17.2805C16.0504 17.2048 15.9016 16.9968 15.9016 16.7629C15.9016 16.529 16.0504 16.321 16.2718 16.2453L16.7143 16.0942C17.4137 15.8554 17.974 15.2951 18.2129 14.5957L18.3639 14.1532C18.4395 13.9318 18.6476 13.783 18.8815 13.783C19.1154 13.783 19.3234 13.9318 19.399 14.1532L19.5501 14.5957C19.789 15.2951 20.3492 15.8554 21.0487 16.0943L21.4912 16.2453C21.7125 16.321 21.8613 16.529 21.8613 16.7629C21.8613 16.9968 21.7125 17.2048 21.4912 17.2805L21.0487 17.4316C20.3492 17.6704 19.789 18.2307 19.5501 18.9301L19.399 19.3726C19.3234 19.594 19.1154 19.7428 18.8815 19.7428ZM17.8239 16.7629C18.2469 17.0355 18.6089 17.3975 18.8815 17.8206C19.154 17.3975 19.516 17.0356 19.9391 16.7629C19.516 16.4904 19.1541 16.1285 18.8815 15.7053C18.6089 16.1284 18.2469 16.4903 17.8239 16.7629Z" fill="#FD6050"/>
<path d="M39.9531 34.1315H38.7535V31.5062C38.7535 28.2294 37.479 25.1487 35.1648 22.8317C33.3024 20.967 30.9461 19.7765 28.3913 19.3825C28.6867 18.9878 28.862 18.4979 28.862 17.9678C28.862 16.6641 27.8024 15.6035 26.5 15.6035C25.1976 15.6035 24.138 16.6641 24.138 17.9678C24.138 18.4979 24.3133 18.9878 24.6087 19.3825C22.0539 19.7765 19.6976 20.967 17.8352 22.8317C15.521 25.1487 14.2465 28.2294 14.2465 31.5062V34.1315H13.0469C12.7449 34.1315 12.5 34.3764 12.5 34.6784V35.1787C12.5 36.854 13.8629 38.2169 15.5381 38.2169H37.4619C39.1372 38.2169 40.5001 36.854 40.5001 35.1787V34.6784C40.5 34.3764 40.2551 34.1315 39.9531 34.1315ZM25.2318 17.9678C25.2318 17.2672 25.8007 16.6973 26.5 16.6973C27.1993 16.6973 27.7682 17.2672 27.7682 17.9678C27.7682 18.6683 27.1993 19.2382 26.5 19.2382C25.8007 19.2382 25.2318 18.6683 25.2318 17.9678ZM26.5 20.332C32.6021 20.332 37.576 25.2618 37.6588 31.3524H15.3412C15.424 25.2618 20.3979 20.332 26.5 20.332ZM15.3403 32.4462H37.6598V34.1315H15.3403V32.4462ZM37.4619 37.1232H15.5381C14.4816 37.1232 13.6191 36.2761 13.5943 35.2253H39.4057C39.3809 36.276 38.5185 37.1232 37.4619 37.1232Z" fill="#052A75"/>
</g>
<defs>
<clipPath id="clip0_960_16009">
<rect width="28" height="28" fill="white" transform="translate(12.5 12)"/>
</clipPath>
</defs>
</svg>
