<svg width="12" height="12" viewBox="0 0 12 12" fill="none" xmlns="http://www.w3.org/2000/svg">
<path d="M10.9997 4.83495C10.9682 4.74349 10.9107 4.66316 10.8344 4.6037C10.7581 4.54424 10.6661 4.5082 10.5697 4.49995L7.72474 4.08495L6.44974 1.49995C6.4088 1.41542 6.34488 1.34412 6.26529 1.29424C6.1857 1.24435 6.09367 1.2179 5.99974 1.2179L6.93974 4.75995C6.97577 4.83337 7.02924 4.89683 7.0955 4.94478C7.16175 4.99272 7.23875 5.02368 7.31975 5.03495L9.42475 5.33995L7.92475 6.83495C7.86611 6.89167 7.82224 6.96187 7.79696 7.03944C7.77169 7.117 7.76578 7.19958 7.77975 7.27995L8.13975 9.37495L6.25975 8.37495C6.1874 8.33643 6.0817 9.37995 5.99974 9.37995L8.54975 10.7199C8.61992 10.7595 8.69917 10.7802 8.77975 10.78C8.88566 10.7803 8.98896 10.7471 9.07475 10.6849C9.15232 10.6294 9.21237 10.5528 9.24781 10.4642C9.28325 10.3756 9.29259 10.2787 9.27474 10.1849L8.77474 7.34495L10.8397 5.34495C10.9119 5.28379 10.9653 5.2034 10.9936 5.11312C11.0219 5.02285 11.0241 4.92639 10.9997 4.83495Z" fill="#DBDBDB"/>
<path d="M7.79696 7.03944C7.82224 6.96187 7.86611 6.89167 7.92475 6.83495L9.42475 5.33995L7.31975 5.03495C7.23875 5.02368 7.16175 4.99272 7.0955 4.94478C7.02924 4.89683 6.97577 4.83337 6.93974 4.75995L5.99974 1.2179V9.37995C6.0817 9.37995 6.1874 8.33643 6.25975 8.37495L8.13975 9.37495L7.77975 7.27995C7.76578 7.19958 7.77169 7.117 7.79696 7.03944Z" fill="#DBDBDB"/>
<path d="M5.78974 8.37507C5.82539 8.35609 5.857 8.59983 5.88969 8.85198C5.92335 9.11157 5.95817 9.38007 5.99974 9.38007V1.21802L5.10975 4.75507C5.07372 4.82849 5.02025 4.89195 4.95399 4.9399C4.88774 4.98784 4.81074 5.01881 4.72974 5.03007L2.62474 5.33507L4.12475 6.83507C4.18338 6.89179 4.22725 6.96199 4.25253 7.03956C4.2778 7.11712 4.28371 7.1997 4.26975 7.28007L3.90974 9.37507L5.78974 8.37507Z" fill="#FFA31F"/>
<path fill-rule="evenodd" clip-rule="evenodd" d="M5.7342 1.29436C5.81379 1.24448 5.90582 1.21802 5.99974 1.21802L5.10975 4.75507C5.07372 4.82849 5.02025 4.89195 4.95399 4.9399C4.88774 4.98784 4.81074 5.01881 4.72974 5.03007L2.62474 5.33507L4.12475 6.83507C4.18338 6.89179 4.22725 6.96199 4.25253 7.03956C4.2778 7.11712 4.28371 7.1997 4.26975 7.28007L3.90974 9.37507L5.78974 8.37507C5.82539 8.35609 5.857 8.59983 5.88969 8.85198C5.92335 9.11157 5.95817 9.38007 5.99974 9.38007L3.43974 10.7151C3.35763 10.7586 3.26501 10.7784 3.17227 10.7722C3.07953 10.766 2.99035 10.7341 2.91474 10.6801C2.83717 10.6245 2.77712 10.5479 2.74168 10.4593C2.70624 10.3707 2.69689 10.2738 2.71474 10.1801L3.21474 7.34007L1.14974 5.34007C1.08547 5.27594 1.03988 5.19551 1.01786 5.10742C0.995837 5.01933 0.998217 4.92691 1.02474 4.84007C1.05372 4.75121 1.10703 4.67225 1.17862 4.61215C1.25021 4.55205 1.33721 4.51323 1.42974 4.50007L4.27474 4.08007L5.54975 1.50007C5.59069 1.41554 5.65461 1.34424 5.7342 1.29436Z" fill="#FFA31F"/>
</svg>
