<svg width="16" height="16" viewBox="0 0 16 16" fill="none" xmlns="http://www.w3.org/2000/svg">
<path d="M14.6665 6.44667C14.6244 6.32473 14.5478 6.21762 14.446 6.13834C14.3443 6.05906 14.2217 6.011 14.0932 6.00001L10.2998 5.44667L8.59982 2.00001C8.54523 1.88729 8.46 1.79223 8.35388 1.72572C8.24777 1.65921 8.12506 1.62393 7.99982 1.62393C7.87458 1.62393 7.75188 1.65921 7.64576 1.72572C7.53965 1.79223 7.45441 1.88729 7.39982 2.00001L5.69982 5.44001L1.90649 6.00001C1.7831 6.01754 1.6671 6.06931 1.57166 6.14944C1.47621 6.22957 1.40513 6.33486 1.36649 6.45334C1.33112 6.56912 1.32794 6.69235 1.35731 6.8098C1.38667 6.92725 1.44746 7.03449 1.53316 7.12001L4.28649 9.78667L3.61982 13.5733C3.59602 13.6983 3.60848 13.8275 3.65574 13.9456C3.70299 14.0638 3.78306 14.1659 3.88649 14.24C3.9873 14.3121 4.1062 14.3546 4.22985 14.3629C4.3535 14.3711 4.477 14.3447 4.58649 14.2867L7.99982 12.5067L11.3998 14.2933C11.4934 14.3461 11.5991 14.3737 11.7065 14.3733C11.8477 14.3738 11.9854 14.3295 12.0998 14.2467C12.2033 14.1726 12.2833 14.0704 12.3306 13.9523C12.3778 13.8342 12.3903 13.705 12.3665 13.58L11.6998 9.79334L14.4532 7.12667C14.5494 7.04512 14.6206 6.93794 14.6583 6.81757C14.6961 6.6972 14.6989 6.56859 14.6665 6.44667ZM10.5665 9.11334C10.4883 9.18896 10.4298 9.28257 10.3961 9.38599C10.3624 9.48941 10.3545 9.59951 10.3732 9.70667L10.8532 12.5L8.34649 11.1667C8.25003 11.1153 8.14243 11.0884 8.03316 11.0884C7.92388 11.0884 7.81628 11.1153 7.71982 11.1667L5.21316 12.5L5.69316 9.70667C5.71178 9.59951 5.7039 9.48941 5.6702 9.38599C5.6365 9.28257 5.57801 9.18896 5.49982 9.11334L3.49982 7.11334L6.30649 6.70667C6.41449 6.69165 6.51715 6.65037 6.60549 6.58644C6.69382 6.52251 6.76513 6.4379 6.81316 6.34001L7.99982 3.80001L9.25316 6.34667C9.30118 6.44456 9.37249 6.52918 9.46082 6.59311C9.54916 6.65703 9.65182 6.69832 9.75982 6.71334L12.5665 7.12001L10.5665 9.11334Z" fill="#FFA31F"/>
<path d="M10.5665 9.11334C10.4883 9.18896 10.4298 9.28257 10.3961 9.38599C10.3624 9.48941 10.3545 9.59951 10.3732 9.70667L10.8532 12.5L8.34649 11.1667C8.25003 11.1153 8.14243 11.0884 8.03316 11.0884C7.92388 11.0884 7.81628 11.1153 7.71982 11.1667L5.21316 12.5L5.69316 9.70667C5.71178 9.59951 5.7039 9.48941 5.6702 9.38599C5.6365 9.28257 5.57801 9.18896 5.49982 9.11334L3.49982 7.11334L6.30649 6.70667C6.41449 6.69165 6.51715 6.65037 6.60549 6.58644C6.69382 6.52251 6.76513 6.4379 6.81316 6.34001L7.99982 3.80001L9.25316 6.34667C9.30118 6.44456 9.37249 6.52918 9.46082 6.59311C9.54916 6.65703 9.65182 6.69832 9.75982 6.71334L12.5665 7.12001L10.5665 9.11334Z" fill="#FFA31F"/>
</svg>
