<svg width="53" height="52" viewBox="0 0 53 52" fill="none" xmlns="http://www.w3.org/2000/svg">
<rect x="1" y="0.5" width="51" height="51" rx="25.5" fill="white"/>
<rect x="1" y="0.5" width="51" height="51" rx="25.5" stroke="#EFEFEF"/>
<g clip-path="url(#clip0_960_16127)">
<path d="M39.951 12.5491H13.0491V39.451H39.951V12.5491Z" fill="#67CCD1"/>
<path d="M36.442 37.3068C28.5023 37.3068 22.0659 30.8704 22.0659 22.9306C22.0659 18.8495 23.7668 15.1659 26.498 12.549H13.0491V39.451H39.951V36.8746C38.8278 37.1564 37.6526 37.3068 36.442 37.3068Z" fill="#27A2CC"/>
<path d="M33.6255 37.0353V32.5709C33.6255 29.5844 35.623 27.0644 38.3549 26.2742L38.3548 25.6617C36.1482 24.8658 34.5708 22.7532 34.5708 20.2722V14.9647H39.9511V37.0353H33.6255Z" fill="#BC9AF4"/>
<path d="M19.3748 37.0353V32.5709C19.3748 29.5844 17.3772 27.0644 14.6453 26.2742L14.6455 25.6617C16.852 24.8658 18.4294 22.7532 18.4294 20.2722V14.9647H13.0491V37.0353H19.3748Z" fill="#BC9AF4"/>
<path d="M39.951 14.9647C39.951 16.4504 38.7466 17.6549 37.2608 17.6549C35.7751 17.6549 34.5706 16.4504 34.5706 14.9647C34.5706 16.4504 33.3662 17.6549 31.8804 17.6549C30.3947 17.6549 29.1902 16.4504 29.1902 14.9647C29.1902 16.4504 27.9858 17.6549 26.5001 17.6549C25.0143 17.6549 23.8099 16.4504 23.8099 14.9647C23.8099 16.4504 22.6054 17.6549 21.1197 17.6549C19.6339 17.6549 18.4295 16.4504 18.4295 14.9647C18.4295 16.4504 17.225 17.6549 15.7393 17.6549C14.2535 17.6549 13.0491 16.4504 13.0491 14.9647H39.951Z" fill="white"/>
<path d="M39.951 37.0353H13.0491V39.451H39.951V37.0353Z" fill="#FDCB50"/>
<path d="M16.1077 27.2078H13.0491V24.7921H16.1077C16.7747 24.7921 17.3155 25.3329 17.3155 26C17.3156 26.667 16.7748 27.2078 16.1077 27.2078Z" fill="white"/>
<path d="M36.8924 27.2078H39.951V24.7921H36.8924C36.2254 24.7921 35.6846 25.3329 35.6846 26C35.6846 26.667 36.2254 27.2078 36.8924 27.2078Z" fill="white"/>
<path d="M36.8924 27.2078H39.951V24.7921H36.8924C36.2254 24.7921 35.6846 25.3329 35.6846 26C35.6846 26.667 36.2254 27.2078 36.8924 27.2078Z" fill="white"/>
<path d="M39.951 12.549H13.0491V14.9647H39.951V12.549Z" fill="#FDCB50"/>
<path d="M27.049 17.6549H25.9509V37.0353H27.049V17.6549Z" fill="white"/>
<path d="M16.3724 32.6155C16.0692 32.6155 15.8234 32.3697 15.8234 32.0665C15.8234 30.3943 15.1935 28.8022 14.0498 27.5835C13.8423 27.3624 13.8533 27.015 14.0744 26.8075C14.2955 26.6 14.6429 26.611 14.8505 26.8321C16.1859 28.2551 16.9214 30.1141 16.9214 32.0665C16.9214 32.3697 16.6756 32.6155 16.3724 32.6155Z" fill="white"/>
<path d="M36.6276 32.6155C36.3245 32.6155 36.0786 32.3697 36.0786 32.0665C36.0786 30.114 36.8141 28.2551 38.1496 26.8322C38.3572 26.6111 38.7045 26.6 38.9257 26.8076C39.1467 27.015 39.1578 27.3625 38.9503 27.5836C37.8065 28.8022 37.1767 30.3943 37.1767 32.0666C37.1767 32.3697 36.9308 32.6155 36.6276 32.6155Z" fill="white"/>
<path d="M29.8056 25.6437C29.665 25.6437 29.5246 25.5902 29.4174 25.4829C29.203 25.2685 29.203 24.9209 29.4174 24.7065L31.7593 22.3646C31.9737 22.1502 32.3213 22.1502 32.5358 22.3646C32.7502 22.579 32.7502 22.9266 32.5358 23.141L30.1939 25.4829C30.0866 25.5902 29.9461 25.6437 29.8056 25.6437Z" fill="white"/>
<path d="M21.8239 30.678C21.6834 30.678 21.5429 30.6244 21.4357 30.5172C21.2213 30.3028 21.2213 29.9551 21.4357 29.7407L23.41 27.7664C23.6245 27.552 23.972 27.552 24.1865 27.7664C24.4009 27.9808 24.4009 28.3284 24.1865 28.5428L22.2122 30.5172C22.1049 30.6243 21.9645 30.678 21.8239 30.678Z" fill="white"/>
<path d="M29.2128 30.7088C29.0723 30.7088 28.9318 30.6552 28.8246 30.548C28.6102 30.3336 28.6102 29.9859 28.8246 29.7715L32.112 26.4842C32.3265 26.2698 32.674 26.2699 32.8885 26.4842C33.1028 26.6986 33.1028 27.0463 32.8885 27.2607L29.6011 30.548C29.4938 30.6552 29.3533 30.7088 29.2128 30.7088Z" fill="white"/>
<path d="M20.5771 26.9001C20.4365 26.9001 20.2961 26.8465 20.1889 26.7392C19.9745 26.5249 19.9745 26.1772 20.1889 25.9628L23.4762 22.6755C23.6907 22.4611 24.0383 22.4612 24.2527 22.6755C24.4671 22.8899 24.4671 23.2375 24.2527 23.452L20.9653 26.7393C20.8581 26.8464 20.7176 26.9001 20.5771 26.9001Z" fill="white"/>
<path d="M39.951 12H13.049C12.7459 12 12.5 12.2458 12.5 12.549V39.451C12.5 39.7542 12.7459 40 13.049 40H39.951C40.2541 40 40.5 39.7542 40.5 39.451V12.549C40.5 12.2458 40.2541 12 39.951 12ZM13.598 17.3924C14.1693 17.8969 14.9189 18.2039 15.7392 18.2039C16.5593 18.2039 17.309 17.8973 17.8803 17.393V20.2723C17.8803 21.8186 17.2061 23.2549 16.0244 24.2432H13.598V17.3924ZM13.6697 15.5137H17.8087C17.5656 16.4292 16.7301 17.1059 15.7392 17.1059C14.7483 17.1059 13.9128 16.4292 13.6697 15.5137ZM21.1196 18.2039C22.2391 18.2039 23.2277 17.6331 23.8098 16.7672C24.3919 17.6331 25.3805 18.2039 26.5 18.2039C27.6195 18.2039 28.6081 17.6331 29.1902 16.7672C29.7723 17.6331 30.7609 18.2039 31.8804 18.2039C32.7006 18.2039 33.4504 17.8972 34.0217 17.3927V20.2722C34.0217 21.9239 34.656 23.4721 35.7866 24.6361C35.3897 24.9585 35.1355 25.45 35.1355 26C35.1355 26.4455 35.3025 26.8525 35.5767 27.1625C33.999 28.5054 33.0763 30.4752 33.0763 32.5709V36.4863H19.9237V32.5709C19.9237 30.4752 19.0011 28.5053 17.4233 27.1625C17.6976 26.8525 17.8645 26.4455 17.8645 26C17.8645 25.45 17.6103 24.9585 17.2134 24.6361C18.3441 23.4721 18.9783 21.924 18.9783 20.2722V17.3928C19.5496 17.8972 20.2994 18.2039 21.1196 18.2039ZM19.0501 15.5137H23.1891C22.946 16.4292 22.1105 17.1059 21.1196 17.1059C20.1287 17.1059 19.2932 16.4292 19.0501 15.5137ZM24.4305 15.5137H28.5695C28.3264 16.4292 27.4909 17.1059 26.5 17.1059C25.5091 17.1059 24.6736 16.4292 24.4305 15.5137ZM29.8109 15.5137H33.9499C33.7068 16.4292 32.8713 17.1059 31.8804 17.1059C30.8895 17.1059 30.054 16.4292 29.8109 15.5137ZM13.598 25.3412H16.1077C16.4709 25.3412 16.7665 25.6367 16.7665 26C16.7665 26.3633 16.4709 26.6588 16.1077 26.6588H13.598V25.3412ZM13.598 27.7569H16.1077C16.2003 27.7569 16.2913 27.7495 16.3801 27.7356C17.9156 28.8674 18.8257 30.6573 18.8257 32.5709V36.4863H13.598V27.7569ZM39.402 38.902H13.598V37.5843H39.402V38.902ZM39.402 36.4863H34.1744V32.5709C34.1744 30.6573 35.0844 28.8674 36.6199 27.7356C36.7087 27.7495 36.7997 27.7569 36.8924 27.7569H39.402V36.4863ZM39.402 26.6588H36.8924C36.5291 26.6588 36.2336 26.3633 36.2336 26C36.2336 25.6367 36.5291 25.3412 36.8924 25.3412H39.402V26.6588ZM39.402 24.2431H36.9756C35.7939 23.2548 35.1198 21.8185 35.1198 20.2722V17.393C35.691 17.8973 36.4407 18.2039 37.2608 18.2039C38.0811 18.2039 38.8307 17.8969 39.402 17.3924V24.2431ZM35.1913 15.5137H39.3303C39.0872 16.4292 38.2517 17.1059 37.2608 17.1059C36.2699 17.1059 35.4344 16.4292 35.1913 15.5137ZM39.402 14.4157H13.598V13.098H39.402V14.4157Z" fill="#052A75"/>
</g>
<defs>
<clipPath id="clip0_960_16127">
<rect width="28" height="28" fill="white" transform="translate(12.5 12)"/>
</clipPath>
</defs>
</svg>
