<svg width="32" height="32" viewBox="0 0 32 32" fill="none" xmlns="http://www.w3.org/2000/svg">
<rect x="1" y="1" width="30" height="30" rx="15" fill="#FFA31F"/>
<rect x="1" y="1" width="30" height="30" rx="15" stroke="#FFA31F" stroke-width="2"/>
<path fill-rule="evenodd" clip-rule="evenodd" d="M21.1397 17.0199L17.0197 21.1333C16.8948 21.2574 16.7258 21.3271 16.5497 21.3271C16.3736 21.3271 16.2046 21.2574 16.0797 21.1333L10.6664 15.7266L10.6664 10.6666L15.7264 10.6666L21.1397 16.0799C21.2015 16.1422 21.2504 16.2161 21.2835 16.2973C21.3167 16.3786 21.3335 16.4655 21.333 16.5533C21.3323 16.7282 21.2628 16.8958 21.1397 17.0199ZM12.4441 12.1685C12.6086 12.0586 12.8019 11.9999 12.9997 11.9999C13.2649 11.9999 13.5193 12.1053 13.7068 12.2928C13.8943 12.4804 13.9997 12.7347 13.9997 12.9999C13.9997 13.1977 13.941 13.3911 13.8312 13.5555C13.7213 13.7199 13.5651 13.8481 13.3824 13.9238C13.1996 13.9995 12.9986 14.0193 12.8046 13.9807C12.6106 13.9421 12.4324 13.8469 12.2926 13.707C12.1527 13.5672 12.0575 13.389 12.0189 13.195C11.9803 13.001 12.0001 12.8 12.0758 12.6172C12.1515 12.4345 12.2797 12.2783 12.4441 12.1685Z" fill="#FFA31F"/>
<path fill-rule="evenodd" clip-rule="evenodd" d="M16.473 9.5266L22.0797 15.1399L22.0797 15.1733C22.4542 15.5483 22.6646 16.0566 22.6646 16.5866C22.6646 17.1166 22.4542 17.6249 22.0797 17.9999L17.9664 22.0799C17.5914 22.4545 17.083 22.6648 16.553 22.6648C16.023 22.6648 15.5147 22.4545 15.1397 22.0799L9.52635 16.4733C9.46456 16.411 9.41568 16.3371 9.3825 16.2559C9.34933 16.1746 9.33251 16.0877 9.33302 15.9999L9.33302 9.99993C9.33302 9.82312 9.40326 9.65355 9.52828 9.52853C9.65331 9.4035 9.82287 9.33326 9.99969 9.33326L15.9997 9.33326C16.0874 9.33276 16.1744 9.34957 16.2556 9.38275C16.3368 9.41593 16.4107 9.46481 16.473 9.5266ZM17.0197 21.1333L21.1397 17.0199C21.2628 16.8958 21.3323 16.7282 21.333 16.5533C21.3335 16.4655 21.3167 16.3786 21.2835 16.2973C21.2504 16.2161 21.2015 16.1422 21.1397 16.0799L15.7264 10.6666L10.6664 10.6666L10.6664 15.7266L16.0797 21.1333C16.2046 21.2574 16.3736 21.3271 16.5497 21.3271C16.7258 21.3271 16.8948 21.2574 17.0197 21.1333Z" fill="white"/>
<path d="M12.9997 11.9999C12.8019 11.9999 12.6086 12.0586 12.4441 12.1685C12.2797 12.2783 12.1515 12.4345 12.0758 12.6172C12.0001 12.8 11.9803 13.001 12.0189 13.195C12.0575 13.389 12.1527 13.5672 12.2926 13.707C12.4324 13.8469 12.6106 13.9421 12.8046 13.9807C12.9986 14.0193 13.1996 13.9995 13.3824 13.9238C13.5651 13.8481 13.7213 13.7199 13.8312 13.5555C13.941 13.3911 13.9997 13.1977 13.9997 12.9999C13.9997 12.7347 13.8943 12.4804 13.7068 12.2928C13.5193 12.1053 13.2649 11.9999 12.9997 11.9999Z" fill="white"/>
</svg>
