<svg width="34" height="33" viewBox="0 0 34 33" fill="none" xmlns="http://www.w3.org/2000/svg">
<circle cx="17.333" cy="16.5" r="16.5" fill="#FFA31F"/>
<path d="M25.9571 23.5183C23.5991 24.7135 20.5065 25.7123 16.6004 25.3462C13.2349 25.0295 10.4739 24.6427 8.40137 23.4372C8.89531 21.1252 10.0997 19.7084 10.1768 19.6618C11.4468 20.7446 14.072 21.5034 17.1387 21.5575C17.1519 21.5587 17.1657 21.5587 17.1795 21.5587C17.2291 21.5604 17.2774 21.5604 17.3263 21.561C17.3833 21.5616 17.4398 21.5616 17.4968 21.5616C17.5503 21.5616 17.6033 21.5616 17.6568 21.561C17.7103 21.561 17.7627 21.5604 17.8157 21.5587C20.4564 21.5172 22.7747 20.953 24.1863 20.1085L24.1926 20.1194C24.1926 20.1194 25.454 21.0348 25.9571 23.5183Z" fill="#17171B"/>
<path d="M25.9973 23.4371C26.2443 23.4371 26.4446 23.6357 26.4446 23.8821C26.4446 25.6213 26.4446 29.0087 26.4446 30.5152C26.4446 30.7841 26.2264 31 25.957 31C24.9484 31 22.2639 31 16.9008 31C11.4311 31 9.3281 31 8.5371 31C8.26768 31 8.10303 30.7829 8.10303 30.5141C8.10303 29.5481 8.10303 27.3403 8.10303 25.5977V23.9241C8.10303 23.6553 8.32122 23.4371 8.59064 23.4371C8.7432 23.4371 8.92972 23.4371 9.14676 23.4371C9.37704 23.4371 13.3965 23.4371 16.6026 23.4371C20.2657 23.4371 21.8218 23.4371 24.2075 23.4371C25.0664 23.4371 23.9093 23.4371 25.9973 23.4371Z" fill="#547355"/>
<path d="M25.2269 24.4118C25.4502 24.4118 25.631 24.592 25.631 24.8148C25.631 26.0819 25.631 28.4054 25.631 29.5579C25.631 29.8268 25.4145 30.0438 25.1451 30.0438C24.201 30.0438 21.7785 30.0438 17.0163 30.0438C12.1805 30.0438 10.26 30.0438 9.51215 30.0438C9.24272 30.0438 9.0752 29.8256 9.0752 29.5568C9.0752 28.7865 9.0752 27.2851 9.0752 26.0209V24.8989C9.0752 24.6294 9.29338 24.4112 9.56223 24.4112C9.69061 24.4112 9.8426 24.4112 10.017 24.4112C12.3054 24.4112 13.8535 24.4112 16.7475 24.4112C20.0537 24.4112 21.4584 24.4112 23.612 24.4112C24.3869 24.4112 23.3426 24.4118 25.2269 24.4118Z" fill="#E1EDCD"/>
<path d="M26.0593 12.8203C27.3552 12.8203 28.407 13.8698 28.407 15.1657C28.407 16.4604 27.3552 17.5105 26.0593 17.5105C25.8745 17.5105 25.6943 17.4892 25.5216 17.4495L25.4514 17.4823C25.2269 17.0471 24.7997 16.6423 24.2119 16.2871C24.2338 16.2584 24.2562 16.2296 24.277 16.2002L24.3288 16.2388C24.8245 16.6452 25.3835 16.7632 25.5216 16.7632C26.3403 16.7632 27.004 16.0995 27.004 15.2814C27.004 14.4633 26.3403 13.8007 25.5216 13.8007C25.5038 13.8007 25.4877 13.8007 25.4698 13.8013L25.4318 13.7909C25.509 13.4881 25.5642 13.1795 25.5965 12.8635L25.6057 12.8641C25.7519 12.8347 25.9045 12.8203 26.0593 12.8203Z" fill="#17171B"/>
<path d="M25.5215 13.8007C26.3401 13.8007 27.0039 14.4633 27.0039 15.2814C27.0039 16.0994 26.3401 16.7632 25.5215 16.7632C25.3833 16.7632 24.8243 16.6452 24.3287 16.2388L24.2769 16.2002C24.8157 15.4771 25.2124 14.6642 25.4317 13.7909L25.4697 13.8013C25.4875 13.8007 25.5037 13.8007 25.5215 13.8007Z" fill="white"/>
<mask id="mask0_885_2515" style="mask-type:luminance" maskUnits="userSpaceOnUse" x="9" y="2" width="17" height="20">
<path d="M9.30273 2H25.6616V21.6035H9.30273V2Z" fill="white"/>
</mask>
<g mask="url(#mask0_885_2515)">
<path d="M10.1765 19.6617C9.65436 19.2173 9.36133 18.7182 9.36133 18.1902C9.36133 17.9254 9.43502 17.6675 9.57491 17.42C9.80692 17.0083 10.2214 16.6255 10.781 16.287C10.7603 16.2599 10.7378 16.2312 10.7182 16.2035C10.1794 15.481 9.78158 14.6676 9.56109 13.7937C9.48338 13.4909 9.42811 13.1794 9.39587 12.8639C9.37227 12.6434 9.36133 12.4183 9.36133 12.1927C9.36133 8.83637 11.918 6.01201 15.3883 5.18359C15.0872 4.92395 14.8771 4.34135 14.8771 3.66433C14.8771 2.74495 15.2633 2 15.74 2C16.2155 2 16.6024 2.74495 16.6024 3.66433C16.6024 3.75529 16.5972 3.84395 16.5903 3.93088C16.687 3.78408 16.797 3.6367 16.9208 3.4922C17.63 2.66723 18.497 2.25043 18.8585 2.56073C19.1953 2.8503 18.9737 3.66779 18.3686 4.4444C18.5943 4.2786 18.8822 4.13295 19.2097 4.03105C20.0877 3.75702 20.9149 3.90382 21.0565 4.35804C21.1607 4.69137 20.866 5.09666 20.3565 5.39775C23.4382 6.43054 25.6316 9.08219 25.6316 12.1927C25.6316 12.4183 25.6206 12.6423 25.597 12.8633C25.5648 13.1794 25.5095 13.488 25.4324 13.7908C25.2131 14.6641 24.8164 15.477 24.2776 16.2001C24.2568 16.2294 24.2344 16.2582 24.2125 16.287C24.8003 16.6422 25.2275 17.0469 25.452 17.4821C25.57 17.7107 25.6316 17.9473 25.6316 18.1902C25.6316 18.9024 25.0979 19.5638 24.186 20.1085C22.7744 20.953 20.4561 21.5172 17.8154 21.5586C21.0842 21.4884 23.5182 20.3479 23.7047 18.9887C23.8959 17.5852 23.1095 17.2795 22.4273 16.8656C23.1095 15.9767 23.5723 14.5317 23.5723 13.3734C23.5723 10.3153 19.9668 7.48464 17.4965 11.0217C14.5967 7.75406 11.2893 9.94227 11.2893 12.9992C11.2893 14.1592 11.7533 15.9462 12.4361 16.8362C12.4194 16.8143 11.9157 17.348 11.8731 17.3987C11.1489 18.2576 11.1909 19.223 12.0187 20.0037C13.3025 21.2149 15.4009 21.5229 17.1384 21.5575C14.0717 21.5034 11.4465 20.7446 10.1765 19.6617Z" fill="#17171B"/>
</g>
<path d="M22.426 16.8656C23.1082 17.2795 23.8946 17.5852 23.7035 18.9887C23.517 20.3479 21.0829 21.4884 17.8142 21.5586C17.7618 21.5592 17.7088 21.5603 17.6553 21.5609C17.6017 21.5615 17.5488 21.5615 17.4952 21.5615C17.4382 21.5615 17.3818 21.5615 17.3248 21.5609C17.277 21.5603 17.2275 21.5592 17.178 21.5586C17.1642 21.5586 17.1504 21.5586 17.1371 21.5575C15.3997 21.5229 13.3013 21.2149 12.0175 20.0037C11.1896 19.223 11.1476 18.2576 11.8718 17.3986C11.9144 17.348 12.4182 16.8143 12.4349 16.8362C11.7521 15.9462 11.2881 14.1592 11.2881 12.9992C11.2881 9.94226 14.5954 7.75405 17.4952 11.0217C19.9655 7.48462 23.5711 10.3153 23.5711 13.3734C23.5711 14.5317 23.1082 15.9767 22.426 16.8656Z" fill="white"/>
<path d="M10.7175 16.2037C10.7371 16.2313 10.7596 16.2601 10.7803 16.2871C10.2207 16.6256 9.80621 17.0085 9.5742 17.4201L9.47864 17.4495C9.30593 17.4892 9.12631 17.5105 8.94094 17.5105C7.64448 17.5105 6.59326 16.4604 6.59326 15.1657C6.59326 13.8698 7.64448 12.8203 8.94094 12.8203C9.09638 12.8203 9.24836 12.8347 9.39516 12.8641C9.4274 13.1795 9.48267 13.491 9.56039 13.7938L9.52988 13.8013C9.51318 13.8007 9.49591 13.8007 9.47864 13.8007C8.65943 13.8007 7.99623 14.4633 7.99623 15.2814C7.99623 16.0995 8.65943 16.7632 9.47864 16.7632C9.61623 16.7632 10.177 16.6452 10.6715 16.2388L10.7175 16.2037Z" fill="#17171B"/>
<path d="M10.7179 16.2036L10.6718 16.2387C10.1773 16.6452 9.61658 16.7632 9.47899 16.7632C8.65978 16.7632 7.99658 16.0994 7.99658 15.2814C7.99658 14.4633 8.65978 13.8007 9.47899 13.8007C9.49626 13.8007 9.51354 13.8007 9.53023 13.8012L9.56074 13.7938C9.78123 14.6677 10.179 15.4811 10.7179 16.2036Z" fill="white"/>
<path d="M23.3862 24.6914C23.3862 25.8094 22.4783 26.7156 21.3603 26.7156C20.2412 26.7156 19.3345 25.8094 19.3345 24.6914C19.3345 23.574 20.2412 22.6673 21.3603 22.6673C22.4783 22.6673 23.3862 23.574 23.3862 24.6914Z" fill="white"/>
<path d="M21.3592 26.9809C20.0956 26.9809 19.0674 25.9538 19.0674 24.6913C19.0674 23.4283 20.0956 22.4012 21.3592 22.4012C22.6234 22.4012 23.6511 23.4283 23.6511 24.6913C23.6511 25.9538 22.6234 26.9809 21.3592 26.9809ZM21.3592 22.9326C20.3886 22.9326 19.5993 23.7213 19.5993 24.6913C19.5993 25.6614 20.3886 26.4495 21.3592 26.4495C22.3304 26.4495 23.1197 25.6614 23.1197 24.6913C23.1203 23.7213 22.3304 22.9326 21.3592 22.9326Z" fill="#17171B"/>
<path d="M15.3398 24.6914C15.3398 25.8094 14.4319 26.7156 13.314 26.7156C12.1948 26.7156 11.2881 25.8094 11.2881 24.6914C11.2881 23.574 12.1948 22.6673 13.314 22.6673C14.4319 22.6673 15.3398 23.574 15.3398 24.6914Z" fill="white"/>
<path d="M19.4534 27.2535C19.4534 28.3749 18.5432 29.2834 17.4218 29.2834C16.2992 29.2834 15.3901 28.3749 15.3901 27.2535C15.3901 26.1332 16.2992 25.2236 17.4218 25.2236C18.5432 25.2236 19.4534 26.1332 19.4534 27.2535Z" fill="#547355"/>
<path d="M13.3153 26.9809C12.0511 26.9809 11.0234 25.9538 11.0234 24.6913C11.0234 23.4283 12.0511 22.4012 13.3153 22.4012C14.5783 22.4012 15.606 23.4283 15.606 24.6913C15.606 25.9538 14.5783 26.9809 13.3153 26.9809ZM13.3153 22.9326C12.3441 22.9326 11.5542 23.7213 11.5542 24.6913C11.5542 25.6614 12.3441 26.4495 13.3153 26.4495C14.2853 26.4495 15.0752 25.6614 15.0752 24.6913C15.0752 23.7213 14.2853 22.9326 13.3153 22.9326Z" fill="#17171B"/>
<path d="M16.5275 14.7488C16.5275 15.511 15.9086 16.1287 15.1458 16.1287C14.383 16.1287 13.7642 15.511 13.7642 14.7488C13.7642 13.986 14.383 13.3683 15.147 13.3683C15.9092 13.3683 16.5275 13.986 16.5275 14.7488Z" fill="#17171B"/>
<path d="M21.4054 14.7488C21.4054 15.511 20.7865 16.1287 20.0232 16.1287C19.2604 16.1287 18.6421 15.511 18.6421 14.7488C18.6421 13.986 19.2604 13.3683 20.0232 13.3683C20.7865 13.3683 21.4054 13.986 21.4054 14.7488Z" fill="#17171B"/>
<path d="M18.8041 17.7525V17.8303C18.8041 17.8901 18.2227 18.0778 17.5036 18.0778C16.7863 18.0778 16.2031 17.8901 16.2031 17.8303V17.7525H18.8041Z" fill="#17171B"/>
<path d="M17.9868 27.098H17.6794L17.722 27.2672H17.9483L17.9868 27.098ZM17.9241 27.3714H17.7485L17.802 27.5856C17.8078 27.6167 17.8141 27.6512 17.8216 27.6898C17.8297 27.7278 17.8372 27.7669 17.8446 27.8067C17.8487 27.7669 17.8533 27.7278 17.859 27.6898C17.8642 27.6506 17.87 27.6161 17.8752 27.5856L17.9241 27.3714ZM17.5585 27.2672L17.5159 27.098H17.3283L17.2857 27.2672H17.5585ZM17.1078 27.3714H16.9293L16.9782 27.5856C16.9834 27.6167 16.9892 27.6518 16.9943 27.6915C17.0001 27.7307 17.0059 27.7698 17.0116 27.8107C17.0185 27.7698 17.0254 27.7307 17.0329 27.6915C17.041 27.6518 17.0479 27.6167 17.0531 27.5856L17.1078 27.3714ZM16.9051 27.2672H17.1342L17.1768 27.098H16.8665L16.9051 27.2672ZM17.3547 26.9926H17.4894L17.4589 26.8694C17.4543 26.8447 17.448 26.817 17.4411 26.7848C17.4342 26.7526 17.4278 26.7209 17.4227 26.6887C17.4169 26.7209 17.4106 26.7526 17.4031 26.7848C17.3968 26.817 17.391 26.8447 17.3858 26.8694L17.3547 26.9926ZM18.1716 27.098L18.129 27.2672H18.3967V27.3219C18.3967 27.3346 18.3916 27.3455 18.3818 27.3559C18.372 27.3662 18.3599 27.3714 18.3438 27.3714H18.1026L17.9471 27.9845H17.737L17.5839 27.3714H17.2592L17.1049 27.9845H16.8948L16.7393 27.3714H16.4463V27.2672H16.7134L16.6708 27.098H16.4463V27.0416C16.4463 27.0295 16.4509 27.0185 16.4607 27.0082C16.4705 26.9978 16.4837 26.9926 16.4993 26.9926H16.6443L16.5252 26.5229H16.6777C16.695 26.5229 16.71 26.5269 16.722 26.5361C16.7347 26.5442 16.7422 26.5551 16.7445 26.5695L16.8418 26.9926H17.2033L17.311 26.5695C17.3127 26.5574 17.3202 26.5465 17.3334 26.5373C17.3461 26.5275 17.3611 26.5229 17.3778 26.5229H17.4785C17.4958 26.5229 17.5107 26.5269 17.5228 26.5361C17.5349 26.5442 17.5424 26.5551 17.5453 26.5695L17.6518 26.9926H18.011L18.1083 26.5695C18.1112 26.5568 18.1187 26.5459 18.1308 26.5373C18.144 26.5275 18.1584 26.5229 18.1757 26.5229H18.3179L18.1987 26.9926H18.3967V27.098H18.1716Z" fill="#FFD94F"/>
</svg>
