<svg width="53" height="52" viewBox="0 0 53 52" fill="none" xmlns="http://www.w3.org/2000/svg">
<rect x="1" y="0.5" width="51" height="51" rx="25.5" fill="white"/>
<rect x="1" y="0.5" width="51" height="51" rx="25.5" stroke="#EFEFEF"/>
<g clip-path="url(#clip0_960_16284)">
<path fill-rule="evenodd" clip-rule="evenodd" d="M26.4997 39.4507C33.9283 39.4507 39.9504 33.4286 39.9504 26C39.9504 23.6326 39.338 21.4086 38.2642 19.4763L39.436 18.3045C39.863 17.8775 39.863 17.1787 39.436 16.7517L35.748 13.0638C35.321 12.6367 34.6222 12.6368 34.1952 13.0638L33.0234 14.2356C31.0913 13.1616 28.8671 12.5493 26.4997 12.5493C19.0712 12.5493 13.0491 18.5714 13.0491 26C13.0491 28.3674 13.6614 30.5916 14.7353 32.5237L13.5634 33.6955C13.1365 34.1224 13.1364 34.8213 13.5634 35.2483L17.2514 38.9362C17.6784 39.3633 18.3772 39.3633 18.8042 38.9362L19.9761 37.7644C21.9084 38.8382 24.1324 39.4507 26.4997 39.4507Z" fill="#D2DCFD"/>
<path fill-rule="evenodd" clip-rule="evenodd" d="M26.4997 39.4507C27.4523 39.4507 28.3814 39.351 29.278 39.1627C23.5651 36.0279 19.6921 29.9567 19.6921 22.9805C19.6921 19.3643 20.7335 15.9917 22.5315 13.1447C17.04 14.8379 13.0491 19.9527 13.0491 26C13.0491 28.3674 13.6614 30.5916 14.7353 32.5237L13.5634 33.6955C13.1365 34.1224 13.1364 34.8213 13.5634 35.2483L17.2514 38.9362C17.6784 39.3633 18.3772 39.3633 18.8042 38.9362L19.9761 37.7644C21.9084 38.8382 24.1324 39.4507 26.4997 39.4507Z" fill="#93B2F4"/>
<path d="M34.0695 33.57C38.2502 29.3892 38.2502 22.6108 34.0695 18.4301C29.8887 14.2493 23.1103 14.2493 18.9296 18.4301C14.7488 22.6108 14.7488 29.3892 18.9296 33.57C23.1103 37.7507 29.8887 37.7507 34.0695 33.57Z" fill="#FD6050"/>
<path fill-rule="evenodd" clip-rule="evenodd" d="M25.7881 36.6815C20.2075 36.3151 15.7942 31.6733 15.7942 26C15.7942 22.234 17.7391 18.9226 20.6789 17.0143C20.0395 18.8858 19.6921 20.8925 19.6921 22.9805C19.6921 28.4179 22.0452 33.3054 25.7881 36.6815Z" fill="#BC3C85"/>
<path fill-rule="evenodd" clip-rule="evenodd" d="M39.5902 37.3435L35.7733 33.5266C35.0412 32.7945 34.4617 32.3537 34.4331 29.8674C34.4287 29.4792 34.3793 29.0814 34.286 28.6821C33.4613 31.0774 31.5771 32.9616 29.1819 33.7862C29.5811 33.8795 29.9789 33.9288 30.3672 33.9333C32.8535 33.9619 33.2943 34.5414 34.0264 35.2734L37.8433 39.0904C38.3237 39.5707 39.1098 39.5708 39.5902 39.0904C40.0706 38.61 40.0706 37.8238 39.5902 37.3435Z" fill="white"/>
<path fill-rule="evenodd" clip-rule="evenodd" d="M24.275 24.5082C23.7017 23.935 23.4677 23.0661 23.6784 22.2818C23.8555 21.6246 23.4663 20.9484 22.8091 20.7713C22.1519 20.5943 21.4757 20.9835 21.2986 21.6406C20.8544 23.2939 21.3203 25.0298 22.5321 26.2441C23.0115 26.7253 23.7902 26.7269 24.2715 26.2476C24.7527 25.7683 24.7543 24.9895 24.275 24.5082Z" fill="#FDE0BE"/>
<path fill-rule="evenodd" clip-rule="evenodd" d="M26.6996 29.3133C26.1264 29.8865 25.2574 30.1206 24.4731 29.9099C23.816 29.7328 23.1397 30.122 22.9627 30.7792C22.7856 31.4363 23.1748 32.1126 23.832 32.2896C25.4852 32.7338 27.2211 32.268 28.4354 31.0561C28.9167 30.5768 28.9183 29.798 28.4389 29.3168C27.9596 28.8356 27.1808 28.834 26.6996 29.3133Z" fill="#FDE0BE"/>
<path d="M29.3674 26.3593C29.8538 25.8728 29.8538 25.0842 29.3674 24.5978C28.8809 24.1113 28.0923 24.1113 27.6059 24.5978C27.1194 25.0842 27.1194 25.8728 27.6059 26.3593C28.0923 26.8457 28.8809 26.8457 29.3674 26.3593Z" fill="#B1D952"/>
<path fill-rule="evenodd" clip-rule="evenodd" d="M28.2245 21.0687C29.0353 21.0687 29.8152 21.5176 30.2207 22.2212C30.5602 22.8111 31.3136 23.0141 31.9035 22.6746C32.4933 22.3351 32.6964 21.5817 32.3569 20.9919C31.5019 19.5087 29.945 18.6106 28.2295 18.6089C27.5503 18.6075 26.9984 19.1571 26.9971 19.8363C26.9957 20.5156 27.5453 21.0674 28.2245 21.0687Z" fill="#FDE0BE"/>
<path d="M39.9783 36.9552L37.5803 34.5573C39.4648 32.1183 40.4993 29.0919 40.4993 26C40.4993 23.7636 39.9614 21.5517 38.9405 19.5763L39.8242 18.6927C40.4663 18.0506 40.4663 17.0057 39.8242 16.3635L36.1362 12.6756C35.826 12.3653 35.4123 12.1945 34.9715 12.1945C34.5307 12.1945 34.1171 12.3653 33.8069 12.6756L32.9234 13.5591C30.9483 12.5382 28.7364 12.0003 26.4997 12.0003C22.7602 12.0003 19.2446 13.4565 16.6004 16.1008C13.9562 18.745 12.5 22.2606 12.5 26C12.5 28.2367 13.0379 30.4486 14.0588 32.4237L13.1752 33.3073C12.533 33.9495 12.5331 34.9944 13.1752 35.6365L16.8632 39.3245C17.5053 39.9666 18.5502 39.9667 19.1924 39.3245L20.0761 38.4409C22.0516 39.4619 24.2633 39.9997 26.4997 39.9997C29.5932 39.9997 32.6174 38.9656 35.057 37.0807L37.455 39.4786C37.791 39.8147 38.2391 39.9997 38.7166 39.9997C38.7166 39.9997 38.7167 39.9997 38.7166 39.9997C39.1941 39.9997 39.6423 39.8146 39.9783 39.4786C40.6739 38.7829 40.6739 37.6509 39.9783 36.9552ZM26.4997 38.9017C24.31 38.9017 22.1464 38.3425 20.2427 37.2846C20.0284 37.1655 19.7612 37.2029 19.5878 37.3762L18.4159 38.548C18.2019 38.7622 17.8536 38.7621 17.6395 38.548L13.9516 34.8601C13.7375 34.6461 13.7375 34.2977 13.9516 34.0837L15.1234 32.9119C15.2967 32.7385 15.3342 32.4713 15.2151 32.2569C14.1572 30.3536 13.598 28.19 13.598 26C13.598 18.886 19.3857 13.0983 26.4997 13.0983C28.6898 13.0983 30.8533 13.6575 32.7566 14.7154C32.9709 14.8344 33.2382 14.7971 33.4116 14.6237L34.5834 13.4519C34.6862 13.3491 34.8241 13.2925 34.9716 13.2925C35.1191 13.2925 35.2569 13.3491 35.3598 13.452L39.0478 17.1399C39.2618 17.354 39.2618 17.7023 39.0478 17.9163L37.8759 19.0881C37.7026 19.2615 37.6651 19.5287 37.7842 19.743C38.8421 21.6466 39.4013 23.8102 39.4013 26C39.4013 28.8025 38.4793 31.5462 36.7969 33.7739L36.1613 33.1383C36.1231 33.1001 36.0852 33.0626 36.0479 33.0256C35.895 32.8742 35.7548 32.7354 35.6298 32.581C37.0201 30.6533 37.7543 28.3805 37.7543 26C37.7543 19.7942 32.7055 14.7454 26.4997 14.7454C20.2939 14.7454 15.245 19.7942 15.245 26C15.245 32.2058 20.2939 37.2546 26.4997 37.2546C28.8479 37.2546 31.1761 36.5016 33.0806 35.13C33.235 35.255 33.3739 35.3953 33.5253 35.5483C33.5623 35.5857 33.5997 35.6234 33.638 35.6617L34.2736 36.2973C32.0454 37.9799 29.3034 38.9017 26.4997 38.9017ZM34.5963 27.6011C34.3033 27.5225 34.0025 27.6965 33.9239 27.9893C33.2155 30.6332 31.133 32.7158 28.4891 33.4243C28.1962 33.5027 28.0223 33.8038 28.1008 34.0967C28.1666 34.342 28.3884 34.5037 28.6308 34.5037C28.6778 34.5037 28.7257 34.4976 28.7732 34.4849C28.921 34.4453 29.0672 34.4019 29.2117 34.355C29.5978 34.4352 29.9838 34.478 30.3608 34.4824C31.0121 34.4898 31.5028 34.5337 31.888 34.6088C30.2808 35.6117 28.3975 36.1567 26.4997 36.1567C20.8993 36.1567 16.3431 31.6005 16.3431 26.0001C16.3431 20.3997 20.8993 15.8435 26.4997 15.8435C32.1001 15.8435 36.6563 20.3997 36.6563 26.0001C36.6563 27.9265 36.1235 29.7746 35.1088 31.3903C35.0335 31.0049 34.9895 30.5137 34.982 29.8613C34.9777 29.4843 34.9348 29.0983 34.8547 28.7121C34.9017 28.5675 34.945 28.4214 34.9846 28.2737C35.063 27.9806 34.8892 27.6796 34.5963 27.6011ZM39.2018 38.7021C39.0732 38.8308 38.9009 38.9017 38.7166 38.9017C38.5323 38.9017 38.36 38.8308 38.2313 38.7021L34.4144 34.8853C34.3775 34.8484 34.3413 34.8118 34.3056 34.7757C33.5717 34.0345 32.9569 33.5465 31.2009 33.4174C32.2936 32.723 33.2226 31.7939 33.9171 30.7013C34.0462 32.4572 34.5342 33.072 35.2753 33.8058C35.3114 33.8416 35.348 33.8778 35.3849 33.9147L39.2018 37.7316C39.4694 37.9992 39.4694 38.4346 39.2018 38.7021Z" fill="#052A75"/>
<path d="M24.4931 19.0483C24.1899 19.0483 23.9438 18.8025 23.9438 18.4993C23.9438 18.196 24.1895 17.9502 24.4927 17.9502H24.4931C24.7962 17.9502 25.0421 18.196 25.0421 18.4993C25.0421 18.8025 24.7963 19.0483 24.4931 19.0483Z" fill="#FDE0BE"/>
<path d="M18.3786 26.7481C18.0754 26.7481 17.8293 26.5023 17.8293 26.1991C17.8293 25.8959 18.075 25.6501 18.3782 25.6501H18.3786C18.6817 25.6501 18.9276 25.8959 18.9276 26.1991C18.9276 26.5023 18.6818 26.7481 18.3786 26.7481Z" fill="#FDE0BE"/>
<path d="M19.3869 30.9068C19.0837 30.9068 18.8376 30.661 18.8376 30.3578C18.8376 30.0546 19.0833 29.8088 19.3864 29.8088H19.3869C19.69 29.8088 19.9359 30.0546 19.9359 30.3578C19.9359 30.661 19.6901 30.9068 19.3869 30.9068Z" fill="#FDE0BE"/>
<path d="M33.6852 25.7496C33.3821 25.7496 33.136 25.5038 33.136 25.2006C33.136 24.8974 33.3816 24.6516 33.6848 24.6516H33.6852C33.9884 24.6516 34.2342 24.8974 34.2342 25.2006C34.2342 25.5038 33.9884 25.7496 33.6852 25.7496Z" fill="#FDE0BE"/>
</g>
<defs>
<clipPath id="clip0_960_16284">
<rect width="28" height="28" fill="white" transform="translate(12.5 12)"/>
</clipPath>
</defs>
</svg>
