<svg width="48" height="48" viewBox="0 0 48 48" fill="none" xmlns="http://www.w3.org/2000/svg">
<path d="M44 19.3398C43.8736 18.974 43.6439 18.6527 43.3386 18.4148C43.0333 18.177 42.6656 18.0328 42.28 17.9998L30.9 16.3398L25.8 5.9998C25.6362 5.66166 25.3805 5.37649 25.0621 5.17695C24.7438 4.97741 24.3757 4.87158 24 4.87158L27.76 19.0398C27.904 19.3335 28.118 19.5873 28.383 19.7791C28.648 19.9709 28.956 20.0947 29.28 20.1398L37.7 21.3598L31.7 27.3398C31.4654 27.5667 31.2899 27.8475 31.1888 28.1577C31.0877 28.468 31.0641 28.7983 31.12 29.1198L32.56 37.4998L25.04 33.4998C24.7506 33.3457 24.3278 37.5198 24 37.5198L34.2 42.8798C34.4807 43.0382 34.7977 43.1209 35.12 43.1198C35.5436 43.1213 35.9568 42.9883 36.3 42.7398C36.6102 42.5175 36.8505 42.2111 36.9922 41.8567C37.134 41.5023 37.1714 41.1148 37.1 40.7398L35.1 29.3798L43.36 21.3798C43.6487 21.1352 43.8621 20.8136 43.9754 20.4525C44.0887 20.0914 44.0972 19.7056 44 19.3398Z" fill="#DBDBDB"/>
<path d="M31.1888 28.1577C31.2899 27.8475 31.4654 27.5667 31.7 27.3398L37.7 21.3598L29.28 20.1398C28.956 20.0947 28.648 19.9709 28.383 19.7791C28.118 19.5873 27.904 19.3335 27.76 19.0398L24 4.87158V37.5198C24.3278 37.5198 24.7506 33.3457 25.04 33.4998L32.56 37.4998L31.12 29.1198C31.0641 28.7983 31.0877 28.468 31.1888 28.1577Z" fill="#DBDBDB"/>
<path d="M23.159 33.5003C23.3016 33.4244 23.428 34.3993 23.5588 35.4079C23.6934 36.4463 23.8327 37.5203 23.999 37.5203V4.87207L20.439 19.0203C20.2949 19.314 20.081 19.5678 19.816 19.7596C19.551 19.9514 19.243 20.0752 18.919 20.1203L10.499 21.3403L16.499 27.3403C16.7335 27.5672 16.909 27.848 17.0101 28.1582C17.1112 28.4685 17.1349 28.7988 17.079 29.1203L15.639 37.5003L23.159 33.5003Z" fill="#FFA31F"/>
<path fill-rule="evenodd" clip-rule="evenodd" d="M22.9368 5.17744C23.2551 4.9779 23.6233 4.87207 23.999 4.87207L20.439 19.0203C20.2949 19.314 20.081 19.5678 19.816 19.7596C19.551 19.9514 19.243 20.0752 18.919 20.1203L10.499 21.3403L16.499 27.3403C16.7335 27.5672 16.909 27.848 17.0101 28.1582C17.1112 28.4685 17.1349 28.7988 17.079 29.1203L15.639 37.5003L23.159 33.5003C23.3016 33.4244 23.428 34.3993 23.5588 35.4079C23.6934 36.4463 23.8327 37.5203 23.999 37.5203L13.759 42.8603C13.4305 43.0344 13.06 43.1136 12.6891 43.0889C12.3181 43.0641 11.9614 42.9365 11.659 42.7203C11.3487 42.498 11.1085 42.1916 10.9667 41.8372C10.825 41.4828 10.7876 41.0952 10.859 40.7203L12.859 29.3603L4.59898 21.3603C4.34189 21.1037 4.15952 20.782 4.07143 20.4297C3.98335 20.0773 3.99287 19.7076 4.09898 19.3603C4.2149 19.0048 4.42813 18.689 4.71448 18.4486C5.00083 18.2082 5.34882 18.0529 5.71898 18.0003L17.099 16.3203L22.199 6.00029C22.3627 5.66215 22.6185 5.37697 22.9368 5.17744Z" fill="#FFA31F"/>
</svg>
