<svg width="48" height="48" viewBox="0 0 48 48" fill="none" xmlns="http://www.w3.org/2000/svg">
<path d="M44 19.3398C43.8736 18.974 43.6439 18.6527 43.3386 18.4148C43.0333 18.177 42.6656 18.0328 42.28 17.9998L30.9 16.3398L25.8 5.9998C25.6362 5.66166 25.3805 5.37649 25.0621 5.17695C24.7438 4.97741 24.3757 4.87158 24 4.87158C23.6242 4.87158 23.2561 4.97741 22.9378 5.17695C22.6194 5.37649 22.3637 5.66166 22.2 5.9998L17.1 16.3198L5.71995 17.9998C5.3498 18.0524 5.0018 18.2077 4.71546 18.4481C4.42911 18.6885 4.21587 19.0044 4.09995 19.3598C3.99384 19.7072 3.98432 20.0768 4.07241 20.4292C4.1605 20.7815 4.34287 21.1033 4.59995 21.3598L12.86 29.3598L10.86 40.7198C10.7886 41.0948 10.8259 41.4823 10.9677 41.8367C11.1095 42.1911 11.3497 42.4975 11.66 42.7198C11.9624 42.936 12.3191 43.0636 12.6901 43.0884C13.061 43.1131 13.4315 43.034 13.76 42.8598L24 37.5198L34.2 42.8798C34.4806 43.0382 34.7977 43.1209 35.12 43.1198C35.5436 43.1213 35.9568 42.9883 36.3 42.7398C36.6102 42.5175 36.8505 42.2111 36.9922 41.8567C37.134 41.5023 37.1714 41.1148 37.1 40.7398L35.1 29.3798L43.36 21.3798C43.6487 21.1352 43.8621 20.8136 43.9754 20.4525C44.0887 20.0914 44.0972 19.7056 44 19.3398ZM31.7 27.3398C31.4654 27.5667 31.2899 27.8475 31.1888 28.1577C31.0877 28.468 31.0641 28.7983 31.12 29.1198L32.56 37.4998L25.04 33.4998C24.7506 33.3457 24.4278 33.2651 24.1 33.2651C23.7721 33.2651 23.4493 33.3457 23.16 33.4998L15.64 37.4998L17.08 29.1198C17.1358 28.7983 17.1122 28.468 17.0111 28.1577C16.91 27.8475 16.7345 27.5667 16.5 27.3398L10.5 21.3398L18.92 20.1198C19.244 20.0747 19.552 19.9509 19.817 19.7591C20.082 19.5673 20.2959 19.3135 20.44 19.0198L24 11.3998L27.76 19.0398C27.904 19.3335 28.118 19.5873 28.383 19.7791C28.648 19.9709 28.956 20.0947 29.28 20.1398L37.7 21.3598L31.7 27.3398Z" fill="#FFA31F"/>
<path d="M31.7 27.3398C31.4654 27.5667 31.2899 27.8475 31.1888 28.1577C31.0877 28.468 31.0641 28.7983 31.12 29.1198L32.56 37.4998L25.04 33.4998C24.7506 33.3457 24.4278 33.2651 24.1 33.2651C23.7721 33.2651 23.4493 33.3457 23.16 33.4998L15.64 37.4998L17.08 29.1198C17.1358 28.7983 17.1122 28.468 17.0111 28.1577C16.91 27.8475 16.7345 27.5667 16.5 27.3398L10.5 21.3398L18.92 20.1198C19.244 20.0747 19.552 19.9509 19.817 19.7591C20.082 19.5673 20.2959 19.3135 20.44 19.0198L24 11.3998L27.76 19.0398C27.904 19.3335 28.118 19.5873 28.383 19.7791C28.648 19.9709 28.956 20.0947 29.28 20.1398L37.7 21.3598L31.7 27.3398Z" fill="#FFA31F"/>
</svg>
