<svg width="53" height="52" viewBox="0 0 53 52" fill="none" xmlns="http://www.w3.org/2000/svg">
<rect x="1" y="0.5" width="51" height="51" rx="25.5" fill="white"/>
<rect x="1" y="0.5" width="51" height="51" rx="25.5" stroke="#EFEFEF"/>
<g clip-path="url(#clip0_960_15289)">
<path d="M39.9507 30.0625H13.0503V32.9172H39.9507V30.0625Z" fill="#D46B5C"/>
<path d="M17.9911 32.9172H15.356V35.3328H17.9911V32.9172Z" fill="#D46B5C"/>
<path d="M37.535 32.9172H34.8999V35.3328H37.535V32.9172Z" fill="#D46B5C"/>
<path d="M13.5207 24.8537L17.2738 18.353C18.5715 16.1053 21.8158 16.1053 23.1136 18.353L26.8667 24.8537C28.2033 27.1687 26.5326 30.0625 23.8594 30.0625H16.528C13.8549 30.0625 12.1841 27.1687 13.5207 24.8537Z" fill="white"/>
<path d="M16.6064 19.509L13.5207 24.8537C12.1841 27.1687 13.8548 30.0625 16.5281 30.0625H23.7745C19.7741 28.1291 16.939 24.1652 16.6064 19.509Z" fill="#D2DCFD"/>
<path d="M22.7996 30.0625V25.8511H18.8462L18.605 28.7109L22.7996 30.0625Z" fill="#93B2F4"/>
<path d="M18.8461 25.8511H17.5879V30.0625H22.7995V29.5372C21.2331 28.6038 19.884 27.3438 18.8461 25.8511Z" fill="#6864F7"/>
<path d="M34.838 23.2147H30.3278C27.5041 23.2147 25.2151 25.5038 25.2151 28.3274C25.2151 29.2857 25.9919 30.0625 26.9502 30.0625H38.2157C39.1739 30.0625 39.9507 29.2857 39.9507 28.3274C39.9507 25.5038 37.6616 23.2147 34.838 23.2147Z" fill="white"/>
<path d="M34.8379 23.2147H30.3278C27.8904 23.2147 25.8516 24.9204 25.3394 27.2032C26.0382 27.5788 26.8225 27.7772 27.6237 27.7772C28.0116 27.7772 28.4036 27.7306 28.7915 27.6352C30.025 27.3317 31.3006 27.1778 32.5829 27.1778C33.865 27.1778 35.1406 27.3317 36.3743 27.6353C36.7622 27.7307 37.154 27.7772 37.542 27.7772C38.3431 27.7772 39.1274 27.5787 39.8264 27.2031C39.3139 24.9203 37.2753 23.2147 34.8379 23.2147Z" fill="#D2DCFD"/>
<path d="M25.8271 24.5574L25.8298 24.5604C26.427 25.2284 27.3444 25.5037 28.2145 25.2896C29.614 24.9453 31.077 24.7623 32.5829 24.7623C34.0887 24.7623 35.5517 24.9453 36.9513 25.2896C37.8213 25.5037 38.7387 25.2284 39.3359 24.5604L39.3386 24.5574C40.3853 23.3865 40.0454 21.5486 38.6552 20.818C36.8407 19.8646 34.7749 19.3249 32.5829 19.3249C30.3908 19.3249 28.325 19.8646 26.5106 20.818C25.1204 21.5486 24.7804 23.3865 25.8271 24.5574Z" fill="#FD7DA0"/>
<path d="M31.1476 19.4029C29.4889 19.5841 27.9235 20.0755 26.5106 20.818C25.1203 21.5485 24.7804 23.3865 25.8271 24.5573L25.8299 24.5604C26.427 25.2284 27.3444 25.5036 28.2145 25.2896C29.614 24.9452 31.077 24.7622 32.5829 24.7622C33.3107 24.7622 34.0284 24.8054 34.7339 24.8885C33.0131 23.5067 31.7355 21.5961 31.1476 19.4029Z" fill="#DB4B86"/>
<path d="M18.1376 22.3426C17.8815 22.3426 17.6524 22.1625 17.6 21.9018C17.5402 21.6045 17.7327 21.3151 18.03 21.2554L18.7366 21.1132C19.0337 21.0533 19.3233 21.2459 19.3831 21.5432C19.4428 21.8404 19.2503 22.1299 18.9531 22.1896L18.2464 22.3317C18.2099 22.3391 18.1735 22.3426 18.1376 22.3426Z" fill="#93B2F4"/>
<path d="M21.1767 20.4093C21.1396 20.4093 21.1019 20.4055 21.0642 20.3976L20.3585 20.2506C20.0617 20.1888 19.8712 19.898 19.933 19.6011C19.9948 19.3043 20.2857 19.1136 20.5825 19.1756L21.2882 19.3227C21.585 19.3845 21.7754 19.6753 21.7136 19.9722C21.6597 20.2312 21.4313 20.4093 21.1767 20.4093Z" fill="#93B2F4"/>
<path d="M22.0175 23.3412C21.9244 23.3412 21.83 23.3175 21.7436 23.2676L21.1193 22.9072C20.8567 22.7556 20.7668 22.4198 20.9184 22.1572C21.0699 21.8947 21.4056 21.8047 21.6683 21.9563L22.2926 22.3167C22.5551 22.4683 22.6451 22.8041 22.4935 23.0666C22.3919 23.2428 22.2072 23.3412 22.0175 23.3412Z" fill="#93B2F4"/>
<path d="M35.0317 25.4749C34.7399 25.4749 34.497 25.2452 34.4837 24.9508C34.4004 23.1117 34.0503 21.305 33.443 19.5805C33.3422 19.2946 33.4924 18.9811 33.7783 18.8803C34.0644 18.7797 34.3778 18.9298 34.4785 19.2158C35.1217 21.0417 35.4924 22.9545 35.5806 24.9011C35.5942 25.204 35.3598 25.4607 35.0569 25.4744C35.0485 25.4748 35.04 25.4749 35.0317 25.4749Z" fill="#FDE0BE"/>
<path d="M31.1731 25.3653C30.9258 25.3653 30.7013 25.197 30.6401 24.9461C30.2225 23.2319 29.5632 21.586 28.6808 20.054C28.5294 19.7913 28.6198 19.4556 28.8825 19.3043C29.1453 19.1529 29.481 19.2433 29.6322 19.506C30.5666 21.1281 31.2646 22.8709 31.7069 24.6862C31.7787 24.9807 31.5981 25.2777 31.3035 25.3495C31.2598 25.3602 31.2161 25.3653 31.1731 25.3653Z" fill="#FDE0BE"/>
<path d="M39.522 25.1498C39.6007 25.0789 39.6762 25.0034 39.7478 24.9232C40.3581 24.2405 40.6148 23.3323 40.4521 22.4315C40.2886 21.5261 39.7266 20.7609 38.9104 20.332C36.9732 19.314 34.7851 18.7759 32.5828 18.7759C30.3804 18.7759 28.1923 19.314 26.255 20.332C25.8908 20.5234 25.5777 20.7821 25.3276 21.09L23.5889 18.0784C22.8802 16.851 21.611 16.1182 20.1936 16.1182C18.7762 16.1182 17.507 16.851 16.7983 18.0784L13.0452 24.5792C12.3183 25.8383 12.3183 27.3417 13.0452 28.6007C13.2437 28.9446 13.4855 29.2503 13.7612 29.5135H13.0502C12.7471 29.5135 12.5012 29.7592 12.5012 30.0625V32.9172C12.5012 33.2204 12.7471 33.4662 13.0502 33.4662H14.807V35.3327C14.807 35.6359 15.0528 35.8817 15.356 35.8817H17.9911C18.2943 35.8817 18.5401 35.6359 18.5401 35.3327V33.4662H34.3509V35.3327C34.3509 35.6359 34.5968 35.8817 34.8999 35.8817H37.5351C37.8382 35.8817 38.0841 35.6359 38.0841 35.3327V33.4662H39.9506C40.2538 33.4662 40.4996 33.2204 40.4996 32.9172V30.0625C40.4996 29.8274 40.3516 29.6274 40.1439 29.5491C40.3688 29.1955 40.4996 28.7766 40.4996 28.3274C40.4996 27.1911 40.1551 26.0831 39.522 25.1498ZM25.7939 22.6267C25.8969 22.0566 26.2512 21.5744 26.7658 21.304C28.5462 20.3684 30.5577 19.874 32.5828 19.874C34.6079 19.874 36.6193 20.3685 38.3997 21.304C38.9143 21.5745 39.2685 22.0566 39.3716 22.6268C39.4738 23.1924 39.3126 23.7628 38.9265 24.1947C38.4674 24.7081 37.761 24.9235 37.0823 24.7566C35.6172 24.3961 34.1034 24.2134 32.5828 24.2134C31.0621 24.2134 29.5482 24.3961 28.0832 24.7566C27.4047 24.9235 26.6981 24.7082 26.2369 24.1923L26.2351 24.1903C25.8527 23.7616 25.6918 23.1918 25.7939 22.6267ZM13.996 25.1282L17.7492 18.6275C18.2594 17.7438 19.1732 17.2162 20.1936 17.2162C21.214 17.2162 22.1278 17.7438 22.638 18.6275L24.7456 22.278C24.7337 22.3287 24.7227 22.3798 24.7134 22.4315C24.5506 23.3324 24.8087 24.2421 25.4191 24.9248C25.4898 25.0039 25.5655 25.0801 25.6432 25.1502C25.0105 26.0834 24.666 27.1913 24.666 28.3274C24.666 28.6858 24.7492 29.025 24.8969 29.3271C24.5699 29.4497 24.2189 29.5135 23.8594 29.5135H16.528C15.471 29.5135 14.5245 28.9671 13.9961 28.0518C13.4676 27.1364 13.4676 26.0435 13.996 25.1282ZM17.4421 34.7838H15.905V33.4662H17.4421V34.7838ZM36.9861 34.7838H35.4489V33.4662H36.9861V34.7838ZM39.4016 32.3683H13.5992V30.6115H39.4016V32.3683ZM38.2155 29.5135H26.95C26.296 29.5135 25.764 28.9814 25.764 28.3274C25.764 27.3932 26.0523 26.4823 26.5821 25.721C26.9134 25.8453 27.2665 25.9103 27.6255 25.9103C27.8645 25.9103 28.1063 25.8816 28.3456 25.8227C29.7248 25.4833 31.1505 25.3113 32.5828 25.3113C34.0151 25.3113 35.4408 25.4833 36.8201 25.8227C37.4185 25.9699 38.0312 25.9282 38.5835 25.7209C39.1133 26.4822 39.4017 27.3932 39.4017 28.3275C39.4016 28.9814 38.8695 29.5135 38.2155 29.5135Z" fill="#052A75"/>
<path d="M33.2412 28.196C33.141 28.196 33.0396 28.1686 32.9487 28.1111L32.2982 27.7004C32.0418 27.5385 31.9652 27.1994 32.1271 26.943C32.289 26.6867 32.628 26.6101 32.8844 26.772L33.5349 27.1827C33.7913 27.3446 33.8678 27.6837 33.706 27.9401C33.6015 28.1054 33.4233 28.196 33.2412 28.196Z" fill="#93B2F4"/>
<path d="M36.4106 28.196C36.3834 28.196 36.3559 28.194 36.3281 28.1898L35.5674 28.0752C35.2676 28.03 35.0611 27.7504 35.1063 27.4506C35.1515 27.1508 35.4316 26.9446 35.7309 26.9895L36.4917 27.1041C36.7915 27.1493 36.9979 27.4289 36.9528 27.7287C36.9118 28.0008 36.6776 28.196 36.4106 28.196Z" fill="#93B2F4"/>
</g>
<defs>
<clipPath id="clip0_960_15289">
<rect width="28" height="28" fill="white" transform="translate(12.5 12)"/>
</clipPath>
</defs>
</svg>
