<svg width="53" height="52" viewBox="0 0 53 52" fill="none" xmlns="http://www.w3.org/2000/svg">
<rect x="1" y="0.5" width="51" height="51" rx="25.5" fill="white"/>
<rect x="1" y="0.5" width="51" height="51" rx="25.5" stroke="#EFEFEF"/>
<g clip-path="url(#clip0_960_16389)">
<path d="M26.5001 39.451C33.9288 39.451 39.951 33.4288 39.951 26C39.951 18.5712 33.9288 12.549 26.5001 12.549C19.0713 12.549 13.0491 18.5712 13.0491 26C13.0491 33.4288 19.0713 39.451 26.5001 39.451Z" fill="#D2DCFD"/>
<path d="M26.5001 37.0353C32.5948 37.0353 37.5354 32.0946 37.5354 26C37.5354 19.9054 32.5948 14.9647 26.5001 14.9647C20.4055 14.9647 15.4648 19.9054 15.4648 26C15.4648 32.0946 20.4055 37.0353 26.5001 37.0353Z" fill="#FD8F01"/>
<path d="M21.7046 23.5975C21.7046 20.3231 22.9346 17.3364 24.9568 15.0726C19.593 15.8234 15.4648 20.4292 15.4648 26C15.4648 32.0946 20.4055 37.0353 26.5001 37.0353C28.1914 37.0353 29.7935 36.6543 31.2262 35.9743C25.7453 34.5255 21.7046 29.5337 21.7046 23.5975Z" fill="#FD6050"/>
<path d="M18.1959 28.1286C18.0646 26.4889 18.0779 25.1374 18.3923 23.5531C18.5636 22.6899 19.4453 22.1644 20.2884 22.4166L20.2959 22.4189C21.0376 22.6407 21.4866 23.3913 21.3346 24.1505C21.071 25.4666 21.0681 26.5467 21.1801 27.8904C21.2473 28.6978 20.6563 29.4109 19.8509 29.4991C19.0116 29.5909 18.2633 28.9703 18.1959 28.1286Z" fill="#FDE0BE"/>
<path d="M35.0169 26.9488C34.5842 28.5359 34.1133 29.8028 33.2802 31.1865C32.8263 31.9404 31.8188 32.1358 31.1111 31.6126L31.1048 31.608C30.4823 31.1477 30.3145 30.2893 30.715 29.6267C31.4093 28.4779 31.7784 27.4629 32.1287 26.1609C32.3393 25.3785 33.1371 24.9081 33.9247 25.0983C34.7455 25.2965 35.2389 26.1342 35.0169 26.9488Z" fill="#FDE0BE"/>
<path d="M26.5596 28.2205C27.2792 29.6996 27.7592 30.9632 28.0436 32.553C28.1985 33.4193 27.569 34.23 26.6919 34.3023L26.684 34.3029C25.9124 34.3665 25.2208 33.8311 25.0859 33.0687C24.8519 31.747 24.4611 30.7401 23.8673 29.5295C23.5105 28.8021 23.8011 27.9227 24.519 27.5472C25.2672 27.1559 26.1903 27.4612 26.5596 28.2205Z" fill="#FDE0BE"/>
<path d="M31.4604 17.9597C32.6997 20.1061 31.9643 22.8507 29.8178 24.09C27.6714 25.3292 24.9268 24.5938 23.6876 22.4474C22.4483 20.3009 22.6478 16.6281 24.7943 15.3889C26.9407 14.1497 30.2212 15.8133 31.4604 17.9597Z" fill="white"/>
<path d="M27.574 22.2104C28.6824 22.2104 29.5809 21.3119 29.5809 20.2036C29.5809 19.0952 28.6824 18.1967 27.574 18.1967C26.4657 18.1967 25.5671 19.0952 25.5671 20.2036C25.5671 21.3119 26.4657 22.2104 27.574 22.2104Z" fill="#FD8F01"/>
<path d="M36.3995 16.1005C33.7552 13.4563 30.2395 12 26.5 12C22.7605 12 19.2448 13.4563 16.6005 16.1005C13.9563 18.7448 12.5 22.2605 12.5 26C12.5 29.7395 13.9563 33.2552 16.6005 35.8995C19.2448 38.5437 22.7605 40 26.5 40C30.2395 40 33.7552 38.5437 36.3995 35.8995C39.0437 33.2552 40.5 29.7395 40.5 26C40.5 22.2605 39.0438 18.7448 36.3995 16.1005ZM35.6231 35.1231C33.1862 37.5599 29.9463 38.902 26.5 38.902C23.0537 38.902 19.8138 37.5599 17.3769 35.1231C14.9401 32.6862 13.598 29.4463 13.598 26C13.598 22.5537 14.9401 19.3138 17.3769 16.8769C19.8138 14.4401 23.0537 13.098 26.5 13.098C29.9463 13.098 33.1862 14.4401 35.6231 16.8769C38.0599 19.3138 39.402 22.5537 39.402 26C39.402 29.4463 38.0599 32.6862 35.6231 35.1231Z" fill="#052A75"/>
<path d="M26.5001 14.4157C20.1125 14.4157 14.9158 19.6124 14.9158 26C14.9158 32.3876 20.1125 37.5843 26.5001 37.5843C32.8877 37.5843 38.0844 32.3876 38.0844 26C38.0844 19.6124 32.8877 14.4157 26.5001 14.4157ZM23.5164 18.6443C23.6731 17.3567 24.239 16.3435 25.0689 15.8643C25.4708 15.6323 25.9502 15.5165 26.4734 15.5165C27.0305 15.5165 27.6373 15.6479 28.2527 15.9098C29.4071 16.4013 30.4286 17.2703 30.9852 18.2342C32.071 20.115 31.4244 22.5286 29.5436 23.6145C28.9248 23.9718 28.2487 24.1415 27.5808 24.1414C26.2187 24.1413 24.8919 23.4349 24.1632 22.1729C23.6066 21.2089 23.3649 19.8898 23.5164 18.6443ZM26.5001 36.4863C20.7179 36.4863 16.0138 31.7822 16.0138 26C16.0138 21.3202 19.0955 17.347 23.3359 16.002C22.8596 16.6705 22.5467 17.5236 22.4264 18.5116C22.2471 19.9851 22.5408 21.559 23.2122 22.722C24.1441 24.336 25.8405 25.2394 27.5826 25.2393C28.4364 25.2393 29.3014 25.0223 30.0925 24.5655C32.4976 23.1769 33.3246 20.0904 31.936 17.6853C31.7127 17.2986 31.4289 16.9254 31.0997 16.578C34.5825 18.2851 36.9864 21.8669 36.9864 26C36.9864 31.7822 32.2822 36.4863 26.5001 36.4863Z" fill="#052A75"/>
<path d="M21.3291 33.2527C21.1862 33.2527 21.0436 33.1973 20.936 33.087C20.7243 32.8699 20.7286 32.5224 20.9456 32.3107L21.3942 31.8731C21.6113 31.6613 21.9589 31.6657 22.1706 31.8827C22.3823 32.0998 22.378 32.4474 22.161 32.6591L21.7124 33.0966C21.6057 33.2008 21.4673 33.2527 21.3291 33.2527Z" fill="#F7B073"/>
<path d="M29.0811 28.0582C28.9383 28.0582 28.7957 28.0029 28.688 27.8926L28.3416 27.5374C28.1299 27.3204 28.1341 26.9728 28.3512 26.7611C28.5683 26.5494 28.9157 26.5536 29.1276 26.7707L29.4741 27.1258C29.6858 27.3429 29.6815 27.6904 29.4645 27.9022C29.3576 28.0063 29.2193 28.0582 29.0811 28.0582Z" fill="#F7B073"/>
</g>
<defs>
<clipPath id="clip0_960_16389">
<rect width="28" height="28" fill="white" transform="translate(12.5 12)"/>
</clipPath>
</defs>
</svg>
