<svg width="53" height="52" viewBox="0 0 53 52" fill="none" xmlns="http://www.w3.org/2000/svg">
<rect x="1" y="0.5" width="51" height="51" rx="25.5" fill="white"/>
<rect x="1" y="0.5" width="51" height="51" rx="25.5" stroke="#EFEFEF"/>
<g clip-path="url(#clip0_960_15601)">
<path d="M38.5803 21.3301H14.4197V38.0804H38.5803V21.3301Z" fill="#FDCB50"/>
<path fill-rule="evenodd" clip-rule="evenodd" d="M14.4197 21.3301H38.5804V25.965C38.4003 25.9862 38.2171 25.9974 38.0313 25.9974C37.3467 25.9974 36.6959 25.8491 36.1095 25.5828C35.5229 25.8491 34.8721 25.9974 34.1876 25.9974C33.503 25.9974 32.8522 25.8491 32.2657 25.5828C31.6792 25.8491 31.0284 25.9974 30.3438 25.9974C29.6592 25.9974 29.0084 25.8491 28.4219 25.5828C27.8355 25.8491 27.1847 25.9974 26.5 25.9974C25.8155 25.9974 25.1646 25.8491 24.5782 25.5828C23.9916 25.8491 23.3408 25.9974 22.6563 25.9974C21.9717 25.9974 21.3209 25.8491 20.7344 25.5828C20.1479 25.8491 19.4971 25.9974 18.8125 25.9974C18.1279 25.9974 17.4771 25.8491 16.8906 25.5828C16.3042 25.8491 15.6534 25.9974 14.9687 25.9974C14.783 25.9974 14.5998 25.9862 14.4197 25.965L14.4197 21.3301Z" fill="#FD8F01"/>
<path fill-rule="evenodd" clip-rule="evenodd" d="M13.0469 13.9196C22.0156 13.9196 30.9844 13.9196 39.9531 13.9196V21.3301C39.9531 22.3871 39.0883 23.252 38.0312 23.252C36.9742 23.252 36.1094 22.3871 36.1094 21.3301C36.1094 22.3871 35.2446 23.252 34.1875 23.252C33.1305 23.252 32.2656 22.3871 32.2656 21.3301C32.2656 22.3871 31.4008 23.252 30.3438 23.252C29.2867 23.252 28.4219 22.3871 28.4219 21.3301C28.4219 22.3871 27.5571 23.252 26.5 23.252C25.4429 23.252 24.5781 22.3871 24.5781 21.3301C24.5781 22.3871 23.7133 23.252 22.6562 23.252C21.5992 23.252 20.7344 22.3871 20.7344 21.3301C20.7344 22.3871 19.8695 23.252 18.8125 23.252C17.7554 23.252 16.8906 22.3871 16.8906 21.3301C16.8906 22.3871 16.0258 23.252 14.9687 23.252C13.9117 23.252 13.0469 22.3871 13.0469 21.3301V13.9196Z" fill="white"/>
<path fill-rule="evenodd" clip-rule="evenodd" d="M13.0469 13.9196H16.8906V21.3301C16.8906 22.3871 16.0258 23.252 14.9688 23.252C13.9117 23.252 13.0469 22.3871 13.0469 21.3301V13.9196Z" fill="#6864F7"/>
<path fill-rule="evenodd" clip-rule="evenodd" d="M20.7344 13.9196H24.5781V21.3301C24.5781 22.3871 23.7133 23.252 22.6563 23.252C21.5992 23.252 20.7344 22.3871 20.7344 21.3301V13.9196Z" fill="#FD6050"/>
<path fill-rule="evenodd" clip-rule="evenodd" d="M28.4219 13.9196H32.2656V21.3301C32.2656 22.3871 31.4008 23.252 30.3438 23.252C29.2867 23.252 28.4219 22.3871 28.4219 21.3301V13.9196Z" fill="#FD6050"/>
<path fill-rule="evenodd" clip-rule="evenodd" d="M36.1094 13.9196H39.9531V21.3301C39.9531 22.3871 39.0883 23.252 38.0313 23.252C36.9743 23.252 36.1094 22.3871 36.1094 21.3301V13.9196H36.1094Z" fill="#6864F7"/>
<path d="M40.5 21.3301V13.9196C40.5 13.6176 40.2552 13.3728 39.9531 13.3728H13.0469C12.7448 13.3728 12.5 13.6176 12.5 13.9196V21.3301C12.5 22.2979 13.0599 23.1375 13.8728 23.542V37.5334H13.0469C12.7448 37.5334 12.5 37.7783 12.5 38.0803C12.5 38.3824 12.7448 38.6272 13.0469 38.6272H39.9531C40.2552 38.6272 40.5 38.3824 40.5 38.0803C40.5 37.7783 40.2552 37.5334 39.9531 37.5334H39.1272V23.542C39.9401 23.1376 40.5 22.298 40.5 21.3301ZM13.5938 14.4665H39.4062V21.3301C39.4062 22.0883 38.7894 22.7051 38.0312 22.7051C37.2731 22.7051 36.6562 22.0883 36.6562 21.3301C36.6562 21.028 36.4114 20.7832 36.1094 20.7832C35.8073 20.7832 35.5625 21.028 35.5625 21.3301C35.5625 22.0883 34.9457 22.7051 34.1875 22.7051C33.4293 22.7051 32.8125 22.0883 32.8125 21.3301C32.8125 21.028 32.5676 20.7832 32.2656 20.7832C31.9636 20.7832 31.7187 21.028 31.7187 21.3301C31.7187 22.0883 31.1019 22.7051 30.3437 22.7051C29.5855 22.7051 28.9687 22.0883 28.9687 21.3301C28.9687 21.028 28.7239 20.7832 28.4218 20.7832C28.1198 20.7832 27.875 21.028 27.875 21.3301C27.875 22.0883 27.2581 22.7051 26.4999 22.7051C25.7418 22.7051 25.1249 22.0883 25.1249 21.3301C25.1249 21.028 24.8801 20.7832 24.5781 20.7832C24.276 20.7832 24.0312 21.028 24.0312 21.3301C24.0312 22.0883 23.4144 22.7051 22.6561 22.7051C21.898 22.7051 21.2812 22.0883 21.2812 21.3301C21.2812 21.028 21.0363 20.7832 20.7343 20.7832C20.4323 20.7832 20.1874 21.028 20.1874 21.3301C20.1874 22.0883 19.5706 22.7051 18.8124 22.7051C18.0542 22.7051 17.4374 22.0883 17.4374 21.3301C17.4374 21.028 17.1926 20.7832 16.8905 20.7832C16.5885 20.7832 16.3437 21.028 16.3437 21.3301C16.3437 22.0883 15.7268 22.7051 14.9686 22.7051C14.2105 22.7051 13.5938 22.0883 13.5938 21.3301V14.4665ZM17.7121 33.8709H21.367V37.5335H17.7121V33.8709ZM35.2879 37.5335H31.633V33.8709H35.2879V37.5335ZM38.0334 37.5335H36.3816V28.5754C36.3816 28.2733 36.1368 28.0285 35.8348 28.0285C35.5327 28.0285 35.2879 28.2733 35.2879 28.5754V32.7771H31.0861C30.7841 32.7771 30.5393 33.0219 30.5393 33.324V37.5335H27.0469V30.6703H31.0862C31.3882 30.6703 31.6331 30.4255 31.6331 30.1234C31.6331 29.8214 31.3882 29.5766 31.0862 29.5766H21.9138C21.6118 29.5766 21.3669 29.8214 21.3669 30.1234C21.3669 30.4255 21.6118 30.6703 21.9138 30.6703H25.9531V37.5335H22.4607V33.324C22.4607 33.0219 22.2158 32.7771 21.9138 32.7771H17.7121V28.5754C17.7121 28.2733 17.4673 28.0285 17.1652 28.0285C16.8632 28.0285 16.6184 28.2733 16.6184 28.5754V37.5335H14.9665V23.7988C14.9673 23.7988 14.968 23.7988 14.9688 23.7988C15.7444 23.7988 16.4377 23.4393 16.8906 22.878C17.3436 23.4393 18.0368 23.7988 18.8125 23.7988C19.5882 23.7988 20.2815 23.4393 20.7344 22.878C21.1873 23.4393 21.8805 23.7988 22.6562 23.7988C23.4319 23.7988 24.1252 23.4393 24.5782 22.878C25.0311 23.4393 25.7243 23.7988 26.5001 23.7988C27.2758 23.7988 27.969 23.4393 28.4219 22.878C28.8749 23.4393 29.5681 23.7988 30.3438 23.7988C31.1195 23.7988 31.8128 23.4393 32.2657 22.878C32.7186 23.4393 33.4119 23.7988 34.1876 23.7988C34.9633 23.7988 35.6565 23.4393 36.1095 22.878C36.5624 23.4393 37.2556 23.7988 38.0314 23.7988C38.0321 23.7988 38.0328 23.7988 38.0335 23.7988V37.5335H38.0334Z" fill="#052A75"/>
</g>
<defs>
<clipPath id="clip0_960_15601">
<rect width="28" height="28" fill="white" transform="translate(12.5 12)"/>
</clipPath>
</defs>
</svg>
