<svg width="124" height="40" viewBox="0 0 124 40" fill="none" xmlns="http://www.w3.org/2000/svg">
<g filter="url(#filter0_d_836_14515)">
<mask id="path-1-inside-1_836_14515" fill="white">
<path fill-rule="evenodd" clip-rule="evenodd" d="M16.2736 0.973694C9.77122 0.973694 4.5 6.24491 4.5 12.7473C4.5 19.2497 9.77121 24.5209 16.2736 24.5209H96.9481L101.819 31.1435L106.691 24.5209H107.726C114.229 24.5209 119.5 19.2497 119.5 12.7473C119.5 6.24491 114.229 0.973694 107.726 0.973694H16.2736Z"/>
</mask>
<path fill-rule="evenodd" clip-rule="evenodd" d="M16.2736 0.973694C9.77122 0.973694 4.5 6.24491 4.5 12.7473C4.5 19.2497 9.77121 24.5209 16.2736 24.5209H96.9481L101.819 31.1435L106.691 24.5209H107.726C114.229 24.5209 119.5 19.2497 119.5 12.7473C119.5 6.24491 114.229 0.973694 107.726 0.973694H16.2736Z" fill="#FFA31F"/>
<path d="M96.9481 24.5209L97.7536 23.9283L97.4539 23.5209H96.9481V24.5209ZM101.819 31.1435L101.014 31.736L101.819 32.8312L102.625 31.736L101.819 31.1435ZM106.691 24.5209V23.5209H106.185L105.885 23.9283L106.691 24.5209ZM5.5 12.7473C5.5 6.79719 10.3235 1.97369 16.2736 1.97369V-0.0263062C9.21893 -0.0263062 3.5 5.69262 3.5 12.7473H5.5ZM16.2736 23.5209C10.3235 23.5209 5.5 18.6974 5.5 12.7473H3.5C3.5 19.8019 9.21893 25.5209 16.2736 25.5209V23.5209ZM96.9481 23.5209H16.2736V25.5209H96.9481V23.5209ZM102.625 30.551L97.7536 23.9283L96.1425 25.1134L101.014 31.736L102.625 30.551ZM105.885 23.9283L101.014 30.551L102.625 31.736L107.496 25.1134L105.885 23.9283ZM107.726 23.5209H106.691V25.5209H107.726V23.5209ZM118.5 12.7473C118.5 18.6974 113.676 23.5209 107.726 23.5209V25.5209C114.781 25.5209 120.5 19.8019 120.5 12.7473H118.5ZM107.726 1.97369C113.676 1.97369 118.5 6.79719 118.5 12.7473H120.5C120.5 5.69262 114.781 -0.0263062 107.726 -0.0263062V1.97369ZM16.2736 1.97369H107.726V-0.0263062H16.2736V1.97369Z" fill="#FFA31F" mask="url(#path-1-inside-1_836_14515)"/>
</g>
<path d="M25.5238 11.5037C25.5238 11.8237 25.4638 12.1004 25.3438 12.3337C25.2238 12.567 25.0504 12.757 24.8238 12.9037C24.6038 13.0504 24.3438 13.1537 24.0438 13.2137V13.2537C24.6171 13.3204 25.0438 13.5004 25.3238 13.7937C25.6038 14.087 25.7438 14.4704 25.7438 14.9437C25.7438 15.357 25.6471 15.727 25.4538 16.0537C25.2604 16.3737 24.9604 16.6237 24.5538 16.8037C24.1538 16.9837 23.6371 17.0737 23.0038 17.0737C22.6304 17.0737 22.2838 17.0437 21.9638 16.9837C21.6438 16.9304 21.3371 16.8304 21.0438 16.6837V15.8637C21.3438 16.0104 21.6671 16.127 22.0138 16.2137C22.3604 16.2937 22.6938 16.3337 23.0138 16.3337C23.6538 16.3337 24.1138 16.2104 24.3938 15.9637C24.6804 15.7104 24.8238 15.3637 24.8238 14.9237C24.8238 14.6237 24.7438 14.3837 24.5838 14.2037C24.4304 14.017 24.2038 13.8804 23.9038 13.7937C23.6038 13.707 23.2438 13.6637 22.8238 13.6637H22.1338V12.9137H22.8338C23.2271 12.9137 23.5538 12.857 23.8138 12.7437C24.0804 12.6304 24.2804 12.4737 24.4138 12.2737C24.5538 12.067 24.6238 11.8304 24.6238 11.5637C24.6238 11.217 24.5071 10.9504 24.2738 10.7637C24.0404 10.5704 23.7238 10.4737 23.3238 10.4737C23.0704 10.4737 22.8404 10.5004 22.6338 10.5537C22.4271 10.6004 22.2338 10.6704 22.0538 10.7637C21.8804 10.8504 21.7038 10.9537 21.5238 11.0737L21.0838 10.4737C21.2571 10.3404 21.4538 10.217 21.6738 10.1037C21.9004 9.99036 22.1504 9.90036 22.4238 9.83369C22.6971 9.76703 22.9938 9.73369 23.3138 9.73369C24.0604 9.73369 24.6138 9.90036 24.9738 10.2337C25.3404 10.567 25.5238 10.9904 25.5238 11.5037ZM27.3664 14.1837L27.0464 13.5337C28.7864 13.2537 30.2464 12.2037 30.2464 10.8237H27.3564V10.1637H30.2464V8.94369H31.0764V10.1637H33.9564V10.8237H31.0764C31.0764 12.2037 32.5364 13.2537 34.2764 13.5337L33.9564 14.1837C32.5164 13.9237 31.2264 13.2037 30.6664 12.1037C30.0964 13.2037 28.8064 13.9237 27.3664 14.1837ZM31.0764 15.9037H34.7364V16.5837H26.5964V15.9037H30.2464V13.8637H31.0764V15.9037ZM39.2356 13.0437V10.2037H36.7156V13.0437H39.2356ZM40.0356 9.54369V13.6937H35.9156V9.54369H40.0356ZM37.7456 14.6937V16.8437H42.9056V17.5137H36.9256V14.6937H37.7456ZM42.5056 11.4737H43.8256V12.1637H42.5056V15.3037H41.6856V8.73369H42.5056V11.4737ZM46.5248 14.9837C47.2248 14.9837 47.6848 14.0737 47.6848 12.6037C47.6848 11.1637 47.2248 10.2537 46.5248 10.2537C45.8048 10.2537 45.3548 11.1637 45.3548 12.6037C45.3548 14.0737 45.8048 14.9837 46.5248 14.9837ZM49.5548 12.2337V8.94369H50.3348V17.2737H49.5548V12.9037H48.4248C48.3548 14.6637 47.6248 15.7437 46.5248 15.7437C45.3548 15.7437 44.6048 14.5437 44.6048 12.6037C44.6048 10.6937 45.3548 9.49369 46.5248 9.49369C47.6048 9.49369 48.3248 10.5437 48.4248 12.2337H49.5548ZM51.3348 8.74369H52.1148V17.7137H51.3348V8.74369ZM58.9717 9.52369V11.1337C58.9717 12.7737 60.0417 14.4237 61.3717 15.0237L60.8817 15.6837C59.8617 15.1837 59.0017 14.1237 58.5717 12.8437C58.1617 14.1937 57.3017 15.3137 56.2517 15.8537L55.7517 15.1837C57.0717 14.5537 58.1617 12.8337 58.1617 11.1337V9.52369H58.9717ZM62.3117 8.74369H63.1317V17.7337H62.3117V8.74369ZM69.9509 13.1337L69.5309 13.7737C68.5309 13.4237 67.7609 12.6937 67.3709 11.7737C66.9909 12.7737 66.1809 13.5637 65.1309 13.9537L64.7009 13.3037C66.0509 12.8337 66.9509 11.6737 66.9509 10.3937V10.0337H64.9409V9.37369H69.7509V10.0337H67.7709V10.3837C67.7709 11.5737 68.6309 12.6837 69.9509 13.1337ZM65.8609 15.2937V14.6337H71.7009V17.7237H70.8809V15.2937H65.8609ZM73.0309 11.1037V11.7837H71.7009V14.1537H70.8809V8.75369H71.7009V11.1037H73.0309ZM76.3202 15.0337C77.1402 15.0337 77.7302 14.4537 77.7302 13.6537C77.7302 12.8437 77.1402 12.2637 76.3202 12.2637C75.5102 12.2637 74.9202 12.8437 74.9202 13.6537C74.9202 14.4537 75.5102 15.0337 76.3202 15.0337ZM76.3202 11.5837C77.6002 11.5837 78.5102 12.4437 78.5102 13.6537C78.5102 14.8737 77.6002 15.7137 76.3202 15.7137C75.0602 15.7137 74.1502 14.8737 74.1502 13.6537C74.1502 12.4437 75.0602 11.5837 76.3202 11.5837ZM76.7202 8.85369V10.1837H78.9302V10.8437H73.6402V10.1837H75.9002V8.85369H76.7202ZM82.0702 12.4337V13.1237H80.6002V17.7137H79.7802V8.75369H80.6002V12.4337H82.0702ZM83.1694 9.71369H87.3694C87.3694 12.3037 86.1794 14.5837 83.1994 16.0437L82.7594 15.3737C85.1694 14.2237 86.3694 12.5037 86.5394 10.3737H83.1694V9.71369ZM89.1794 8.74369H89.9994V17.7137H89.1794V8.74369ZM93.4062 17.6737H103.406V7.67369H93.4062V17.6737Z" fill="#17171B"/>
<defs>
<filter id="filter0_d_836_14515" x="0.5" y="0.973694" width="123" height="47" filterUnits="userSpaceOnUse" color-interpolation-filters="sRGB">
<feFlood flood-opacity="0" result="BackgroundImageFix"/>
<feColorMatrix in="SourceAlpha" type="matrix" values="0 0 0 0 0 0 0 0 0 0 0 0 0 0 0 0 0 0 127 0" result="hardAlpha"/>
<feOffset dy="4"/>
<feGaussianBlur stdDeviation="2"/>
<feComposite in2="hardAlpha" operator="out"/>
<feColorMatrix type="matrix" values="0 0 0 0 0 0 0 0 0 0 0 0 0 0 0 0 0 0 0.04 0"/>
<feBlend mode="normal" in2="BackgroundImageFix" result="effect1_dropShadow_836_14515"/>
<feBlend mode="normal" in="SourceGraphic" in2="effect1_dropShadow_836_14515" result="shape"/>
</filter>
</defs>
</svg>
