<svg width="124" height="40" viewBox="0 0 124 40" fill="none" xmlns="http://www.w3.org/2000/svg">
<g filter="url(#filter0_d_6_1351)">
<mask id="path-1-inside-1_6_1351" fill="white">
<path fill-rule="evenodd" clip-rule="evenodd" d="M16.2736 0.894714C9.77122 0.894714 4.5 6.16593 4.5 12.6683C4.5 19.1707 9.77121 24.4419 16.2736 24.4419H96.9481L101.819 31.0645L106.691 24.4419H107.726C114.229 24.4419 119.5 19.1707 119.5 12.6683C119.5 6.16593 114.229 0.894714 107.726 0.894714H16.2736Z"/>
</mask>
<path fill-rule="evenodd" clip-rule="evenodd" d="M16.2736 0.894714C9.77122 0.894714 4.5 6.16593 4.5 12.6683C4.5 19.1707 9.77121 24.4419 16.2736 24.4419H96.9481L101.819 31.0645L106.691 24.4419H107.726C114.229 24.4419 119.5 19.1707 119.5 12.6683C119.5 6.16593 114.229 0.894714 107.726 0.894714H16.2736Z" fill="#FFA31F"/>
<path d="M96.9481 24.4419L97.7536 23.8494L97.4539 23.4419H96.9481V24.4419ZM101.819 31.0645L101.014 31.6571L101.819 32.7522L102.625 31.6571L101.819 31.0645ZM106.691 24.4419V23.4419H106.185L105.885 23.8494L106.691 24.4419ZM5.5 12.6683C5.5 6.71821 10.3235 1.89471 16.2736 1.89471V-0.105286C9.21893 -0.105286 3.5 5.61364 3.5 12.6683H5.5ZM16.2736 23.4419C10.3235 23.4419 5.5 18.6184 5.5 12.6683H3.5C3.5 19.723 9.21893 25.4419 16.2736 25.4419V23.4419ZM96.9481 23.4419H16.2736V25.4419H96.9481V23.4419ZM102.625 30.472L97.7536 23.8494L96.1425 25.0344L101.014 31.6571L102.625 30.472ZM105.885 23.8494L101.014 30.472L102.625 31.6571L107.496 25.0344L105.885 23.8494ZM107.726 23.4419H106.691V25.4419H107.726V23.4419ZM118.5 12.6683C118.5 18.6184 113.676 23.4419 107.726 23.4419V25.4419C114.781 25.4419 120.5 19.723 120.5 12.6683H118.5ZM107.726 1.89471C113.676 1.89471 118.5 6.71821 118.5 12.6683H120.5C120.5 5.61364 114.781 -0.105286 107.726 -0.105286V1.89471ZM16.2736 1.89471H107.726V-0.105286H16.2736V1.89471Z" fill="#FFA31F" mask="url(#path-1-inside-1_6_1351)"/>
</g>
<path d="M25.5238 11.4247C25.5238 11.7447 25.4638 12.0214 25.3438 12.2547C25.2238 12.488 25.0504 12.678 24.8238 12.8247C24.6038 12.9714 24.3438 13.0747 24.0438 13.1347V13.1747C24.6171 13.2414 25.0438 13.4214 25.3238 13.7147C25.6038 14.008 25.7438 14.3914 25.7438 14.8647C25.7438 15.278 25.6471 15.648 25.4538 15.9747C25.2604 16.2947 24.9604 16.5447 24.5538 16.7247C24.1538 16.9047 23.6371 16.9947 23.0038 16.9947C22.6304 16.9947 22.2838 16.9647 21.9638 16.9047C21.6438 16.8514 21.3371 16.7514 21.0438 16.6047V15.7847C21.3438 15.9314 21.6671 16.048 22.0138 16.1347C22.3604 16.2147 22.6938 16.2547 23.0138 16.2547C23.6538 16.2547 24.1138 16.1314 24.3938 15.8847C24.6804 15.6314 24.8238 15.2847 24.8238 14.8447C24.8238 14.5447 24.7438 14.3047 24.5838 14.1247C24.4304 13.938 24.2038 13.8014 23.9038 13.7147C23.6038 13.628 23.2438 13.5847 22.8238 13.5847H22.1338V12.8347H22.8338C23.2271 12.8347 23.5538 12.778 23.8138 12.6647C24.0804 12.5514 24.2804 12.3947 24.4138 12.1947C24.5538 11.988 24.6238 11.7514 24.6238 11.4847C24.6238 11.138 24.5071 10.8714 24.2738 10.6847C24.0404 10.4914 23.7238 10.3947 23.3238 10.3947C23.0704 10.3947 22.8404 10.4214 22.6338 10.4747C22.4271 10.5214 22.2338 10.5914 22.0538 10.6847C21.8804 10.7714 21.7038 10.8747 21.5238 10.9947L21.0838 10.3947C21.2571 10.2614 21.4538 10.138 21.6738 10.0247C21.9004 9.91138 22.1504 9.82138 22.4238 9.75471C22.6971 9.68805 22.9938 9.65471 23.3138 9.65471C24.0604 9.65471 24.6138 9.82138 24.9738 10.1547C25.3404 10.488 25.5238 10.9114 25.5238 11.4247ZM26.5664 15.8447H34.7564V16.5347H26.5664V15.8447ZM30.2364 13.8047H31.0664V16.2147H30.2364V13.8047ZM30.2364 10.5247H30.9664V10.7247C30.9664 12.5747 29.2864 13.7747 27.3264 14.1147L27.0064 13.4547C28.7764 13.1747 30.2364 12.1247 30.2364 10.7247V10.5247ZM30.3464 10.5247H31.0664V10.7247C31.0664 12.1247 32.5264 13.1747 34.2964 13.4547L33.9764 14.1147C32.0164 13.7747 30.3464 12.5747 30.3464 10.7247V10.5247ZM27.3164 10.0547H33.9764V10.7447H27.3164V10.0547ZM30.2364 8.82471H31.0664V10.3047H30.2364V8.82471ZM35.8856 9.44471H40.0356V13.6347H35.8856V9.44471ZM39.2256 10.1147H36.6956V12.9647H39.2256V10.1147ZM41.6956 8.62471H42.5256V15.2547H41.6956V8.62471ZM42.2656 11.3847H43.8656V12.0747H42.2656V11.3847ZM36.8956 16.7947H42.9356V17.4747H36.8956V16.7947ZM36.8956 14.6247H37.7256V17.0847H36.8956V14.6247ZM48.1248 12.1447H49.8348V12.8347H48.1248V12.1447ZM51.3448 8.63471H52.1448V17.6747H51.3448V8.63471ZM49.5548 8.82471H50.3448V17.2247H49.5548V8.82471ZM46.4948 9.38471C47.6648 9.38471 48.4248 10.5947 48.4248 12.5347C48.4248 14.4747 47.6648 15.6847 46.4948 15.6847C45.3248 15.6847 44.5748 14.4747 44.5748 12.5347C44.5748 10.5947 45.3248 9.38471 46.4948 9.38471ZM46.4948 10.1547C45.7848 10.1547 45.3348 11.0747 45.3348 12.5347C45.3348 13.9947 45.7848 14.9147 46.4948 14.9147C47.2148 14.9147 47.6648 13.9947 47.6648 12.5347C47.6648 11.0747 47.2148 10.1547 46.4948 10.1547ZM58.1417 9.41471H58.8217V11.0347C58.8217 13.1147 57.7017 15.0447 56.2217 15.7947L55.7117 15.1147C57.0517 14.4747 58.1417 12.7447 58.1417 11.0347V9.41471ZM58.2817 9.41471H58.9617V11.0347C58.9617 12.6847 60.0417 14.3447 61.3817 14.9647L60.8817 15.6247C59.4117 14.9047 58.2817 13.0447 58.2817 11.0347V9.41471ZM62.3217 8.62471H63.1517V17.6847H62.3217V8.62471ZM66.9309 9.56471H67.6109V10.2947C67.6109 11.9547 66.6109 13.3347 65.1009 13.8747L64.6609 13.2247C66.0309 12.7447 66.9309 11.5847 66.9309 10.2947V9.56471ZM67.0809 9.56471H67.7609V10.2847C67.7609 11.4847 68.6309 12.5947 69.9609 13.0447L69.5309 13.6947C68.0409 13.1747 67.0809 11.8447 67.0809 10.2847V9.56471ZM64.9209 9.26471H69.7509V9.94471H64.9209V9.26471ZM70.8909 8.63471H71.7209V14.0747H70.8909V8.63471ZM71.4909 11.0147H73.0609V11.7047H71.4909V11.0147ZM65.8509 14.5547H71.7209V17.6747H70.8909V15.2447H65.8509V14.5547ZM79.7802 8.63471H80.6102V17.6747H79.7802V8.63471ZM80.4102 12.3447H82.0902V13.0447H80.4102V12.3447ZM73.6102 10.0747H78.9402V10.7547H73.6102V10.0747ZM76.3102 11.5047C77.5902 11.5047 78.5102 12.3647 78.5102 13.5847C78.5102 14.8047 77.5902 15.6647 76.3102 15.6647C75.0402 15.6647 74.1102 14.8047 74.1102 13.5847C74.1102 12.3647 75.0402 11.5047 76.3102 11.5047ZM76.3102 12.1947C75.4902 12.1947 74.9002 12.7647 74.9002 13.5847C74.9002 14.3947 75.4902 14.9747 76.3102 14.9747C77.1302 14.9747 77.7202 14.3947 77.7202 13.5847C77.7202 12.7647 77.1302 12.1947 76.3102 12.1947ZM75.8802 8.74471H76.7102V10.3847H75.8802V8.74471ZM89.1894 8.63471H90.0194V17.6747H89.1894V8.63471ZM86.5394 9.60471H87.3594C87.3594 12.2247 86.1794 14.5147 83.1594 15.9947L82.7194 15.3247C85.3294 14.0647 86.5394 12.1447 86.5394 9.74471V9.60471ZM83.1294 9.60471H86.8994V10.2847H83.1294V9.60471ZM93.4062 17.5947H103.406V7.59471H93.4062V17.5947Z" fill="white"/>
<defs>
<filter id="filter0_d_6_1351" x="0.5" y="0.894714" width="123" height="47" filterUnits="userSpaceOnUse" color-interpolation-filters="sRGB">
<feFlood flood-opacity="0" result="BackgroundImageFix"/>
<feColorMatrix in="SourceAlpha" type="matrix" values="0 0 0 0 0 0 0 0 0 0 0 0 0 0 0 0 0 0 127 0" result="hardAlpha"/>
<feOffset dy="4"/>
<feGaussianBlur stdDeviation="2"/>
<feComposite in2="hardAlpha" operator="out"/>
<feColorMatrix type="matrix" values="0 0 0 0 0 0 0 0 0 0 0 0 0 0 0 0 0 0 0.04 0"/>
<feBlend mode="normal" in2="BackgroundImageFix" result="effect1_dropShadow_6_1351"/>
<feBlend mode="normal" in="SourceGraphic" in2="effect1_dropShadow_6_1351" result="shape"/>
</filter>
</defs>
</svg>
