<svg width="53" height="52" viewBox="0 0 53 52" fill="none" xmlns="http://www.w3.org/2000/svg">
<rect x="1" y="0.5" width="51" height="51" rx="25.5" fill="white"/>
<rect x="1" y="0.5" width="51" height="51" rx="25.5" stroke="#EFEFEF"/>
<path d="M38.6882 12.549H14.3118V31.2157H38.6882V12.549Z" fill="#FD6050"/>
<path d="M18.1719 16.8386C18.1719 15.3643 18.3372 13.9288 18.6496 12.549H14.3118V31.2157H24.5776C20.6449 27.676 18.1719 22.5462 18.1719 16.8386Z" fill="#BC3C85"/>
<path d="M29.5093 18.0226C29.2551 18.0226 29.0097 18.0608 28.7788 18.1319H28.7668C28.3082 17.3578 27.4649 16.8386 26.4999 16.8386C25.5349 16.8386 24.6917 17.3578 24.2331 18.1319H24.2211C23.9901 18.0609 23.7448 18.0226 23.4906 18.0226C22.1204 18.0226 21.0098 19.1333 21.0098 20.5034C21.0098 21.8736 22.1205 22.9842 23.4906 22.9842V26.9262H29.5094V22.9842C30.8795 22.9842 31.9902 21.8735 31.9902 20.5034C31.9902 19.1334 30.8794 18.0226 29.5093 18.0226Z" fill="white"/>
<path d="M29.5093 24.5055H23.4905V26.9262H29.5093V24.5055Z" fill="#D2DCFD"/>
<path d="M31.0644 36.8157L26.5 34.1804V39.451L31.0644 36.8157Z" fill="#FD7DA0"/>
<path d="M22.9415 23.4834V26.9261C22.9415 27.2293 23.1873 27.4752 23.4905 27.4752H29.5093C29.8125 27.4752 30.0583 27.2293 30.0583 26.9261V23.4834C31.4678 23.2243 32.5391 21.9866 32.5391 20.5034C32.5391 18.8328 31.18 17.4736 29.5093 17.4736C29.3403 17.4736 29.1725 17.488 29.0073 17.5156C28.4243 16.7701 27.5175 16.2896 26.4999 16.2896C25.4824 16.2896 24.5755 16.7701 23.9925 17.5156C23.8273 17.488 23.6595 17.4736 23.4905 17.4736C21.8198 17.4736 20.4607 18.8328 20.4607 20.5035C20.4607 21.9866 21.532 23.2243 22.9415 23.4834ZM23.4476 18.5727C23.3634 18.8581 23.3174 19.1597 23.3174 19.4721C23.3174 19.7752 23.5632 20.0211 23.8664 20.0211C24.1697 20.0211 24.4154 19.7752 24.4154 19.4721C24.4154 18.3227 25.3505 17.3876 26.4999 17.3876C27.6493 17.3876 28.5844 18.3227 28.5844 19.4721C28.5844 19.7752 28.8302 20.0211 29.1334 20.0211C29.4366 20.0211 29.6824 19.7752 29.6824 19.4721C29.6824 19.1598 29.6364 18.8581 29.5522 18.5727C30.5976 18.5957 31.4411 19.4526 31.4411 20.5034C31.4411 21.5686 30.5745 22.4352 29.5093 22.4352C29.2061 22.4352 28.9603 22.6811 28.9603 22.9842V26.3772H24.0395V22.9842C24.0395 22.6811 23.7937 22.4352 23.4905 22.4352C22.4253 22.4352 21.5587 21.5686 21.5587 20.5034C21.5587 19.4526 22.4022 18.5957 23.4476 18.5727Z" fill="#052A75"/>
<path d="M38.6882 36.2667H31.2115L26.7745 33.7049C26.6046 33.6068 26.3953 33.6068 26.2254 33.7049C26.0556 33.803 25.9509 33.9843 25.9509 34.1804V36.2667H14.3117C14.0085 36.2667 13.7627 36.5125 13.7627 36.8157C13.7627 37.1188 14.0085 37.3647 14.3117 37.3647H25.9509V39.451C25.9509 39.6471 26.0556 39.8284 26.2254 39.9264C26.3104 39.9755 26.4051 40 26.5 40C26.5948 40 26.6895 39.9755 26.7745 39.9264L31.2115 37.3647H38.6882C38.9914 37.3647 39.2372 37.1188 39.2372 36.8157C39.2372 36.5125 38.9914 36.2667 38.6882 36.2667ZM27.049 38.5001V35.1313L29.9664 36.8157L27.049 38.5001Z" fill="#052A75"/>
<path d="M38.6882 12H14.3117C14.0085 12 13.7627 12.2459 13.7627 12.549V31.2157C13.7627 31.5189 14.0085 31.7647 14.3117 31.7647H38.6882C38.9914 31.7647 39.2372 31.5189 39.2372 31.2157V12.549C39.2372 12.2459 38.9914 12 38.6882 12ZM38.1392 30.6667H14.8607V13.098H38.1392V30.6667Z" fill="#052A75"/>
</svg>
