<svg width="53" height="52" viewBox="0 0 53 52" fill="none" xmlns="http://www.w3.org/2000/svg">
<rect x="1" y="0.5" width="51" height="51" rx="25.5" fill="white"/>
<rect x="1" y="0.5" width="51" height="51" rx="25.5" stroke="#EFEFEF"/>
<g clip-path="url(#clip0_960_16045)">
<path d="M20.7139 33.3892L20.7135 33.3893C19.8577 33.3476 19.0139 33.0142 18.3507 32.3882C17.5024 31.5875 17.1178 30.4894 17.1944 29.4181C16.1567 29.4922 15.094 29.1337 14.3007 28.3404C12.9043 26.944 12.8525 24.713 14.1438 23.2538C14.142 23.252 14.1401 23.2504 14.1383 23.2486C12.6873 21.7976 12.6873 19.4451 14.1383 17.9941C15.5893 16.5431 17.9417 16.5431 19.3927 17.9941C19.3946 17.9959 19.3962 17.9978 19.398 17.9996C20.8572 16.7083 23.0882 16.7602 24.4845 18.1566C24.6823 18.3543 24.8529 18.5688 24.9967 18.7955V33.3893L20.7139 33.3892Z" fill="#B1D952"/>
<path d="M20.7139 33.3892C20.7139 33.3892 19.0139 33.0142 18.3508 32.3883C17.5025 31.5876 17.1178 30.4895 17.1944 29.4181C16.406 29.4744 15.6033 29.2803 14.915 28.836C14.9459 28.8364 14.9766 28.8372 15.0075 28.8372C18.9943 28.8372 22.2263 25.6052 22.2263 21.6184C22.2263 19.9715 21.6744 18.4537 20.7459 17.239C22.023 16.8395 23.4728 17.1448 24.4845 18.1567C24.6823 18.3544 24.8529 18.5689 24.9967 18.7956V33.3893L20.7139 33.3892Z" fill="#91B706"/>
<path d="M32.2832 33.249L32.2837 33.2492C34.016 32.4163 35.2116 30.6449 35.2116 28.5942V27.0768C37.9882 25.9673 39.95 23.2531 39.95 20.0805C39.95 15.921 36.578 12.549 32.4185 12.549C28.2589 12.549 24.887 15.921 24.887 20.0805L24.998 33.2492L32.2832 33.249Z" fill="#FDBEB9"/>
<path d="M32.2832 33.249L32.2837 33.2492C34.016 32.4163 35.2117 30.6449 35.2117 28.5942V27.0768C35.4617 26.9769 35.7049 26.8635 35.9408 26.7384C35.9361 26.7384 35.9314 26.7385 35.9267 26.7385C31.2133 26.7385 27.3925 22.9176 27.3925 18.2044C27.3925 16.446 27.9245 14.812 28.836 13.4541C26.4842 14.7283 24.887 17.2178 25.0418 19.9257L25.1515 33.4484L32.2832 33.249Z" fill="#FD7DA0"/>
<path d="M33.9236 19.4791C34.0585 18.6481 33.4941 17.865 32.6631 17.7301C31.832 17.5953 31.049 18.1596 30.9141 18.9907C30.7793 19.8217 31.3436 20.6048 32.1747 20.7396C33.0057 20.8745 33.7887 20.3102 33.9236 19.4791Z" fill="#FDE0BE"/>
<path d="M26.5002 29.0705C23.3418 28.1574 20.7126 29.3526 20.7126 33.523C20.7126 36.7193 23.2875 40.1898 26.5002 39.3105C29.7129 40.1898 32.2877 36.7193 32.2877 33.523C32.2877 29.3526 29.6586 28.1574 26.5002 29.0705Z" fill="#FD6050"/>
<path d="M32.4186 21.4583C31.1926 21.4583 30.1953 20.4609 30.1953 19.235C30.1953 18.0091 31.1926 17.0118 32.4186 17.0118C33.6445 17.0118 34.6418 18.0091 34.6418 19.235C34.6418 20.4609 33.6445 21.4583 32.4186 21.4583ZM32.4186 18.1097C31.7981 18.1097 31.2933 18.6145 31.2933 19.235C31.2933 19.8555 31.7981 20.3603 32.4186 20.3603C33.0391 20.3603 33.5439 19.8555 33.5439 19.235C33.5439 18.6145 33.039 18.1097 32.4186 18.1097Z" fill="#052A75"/>
<path d="M32.4185 12C28.8191 12 25.7624 14.3657 24.7202 17.6238C23.2441 16.2854 21.0347 16.1584 19.421 17.284C18.6689 16.6831 17.7423 16.3569 16.7655 16.3569C15.6264 16.3569 14.5555 16.8005 13.75 17.606C12.9446 18.4114 12.501 19.4823 12.501 20.6214C12.501 21.5982 12.8271 22.5248 13.428 23.2769C12.2629 24.9472 12.4395 27.2557 13.9125 28.7287C14.6474 29.4637 15.6195 29.8994 16.6448 29.9673C16.7146 31.0362 17.1826 32.0407 17.9739 32.7875C18.5823 33.3618 19.3495 33.7401 20.1735 33.8808C20.2802 35.8997 21.2779 37.8933 22.7771 39.0373C23.9098 39.9017 25.1941 40.1907 26.5 39.8773C26.8418 39.9593 27.182 40 27.5184 40C28.4678 40 29.3867 39.6755 30.223 39.0373C31.7966 37.8366 32.8176 35.6998 32.8357 33.5802C33.6545 33.1221 34.3497 32.4692 34.8594 31.6749C35.449 30.756 35.7607 29.6906 35.7607 28.5942V27.4394C37.0952 26.8334 38.2352 25.8799 39.074 24.6642C40.0062 23.313 40.4991 21.7281 40.4991 20.0806C40.499 15.6249 36.8741 12 32.4185 12ZM17.7419 29.4573C17.7532 29.2984 17.695 29.1425 17.5825 29.0299C17.4699 28.9173 17.3139 28.8595 17.1552 28.8706C16.2374 28.9362 15.3381 28.6016 14.6889 27.9523C13.5079 26.7713 13.449 24.8673 14.5549 23.6177C14.7472 23.4004 14.7371 23.0709 14.532 22.8657C14.5285 22.8623 14.525 22.8588 14.5215 22.8554C13.9266 22.2579 13.599 21.4648 13.599 20.6214C13.599 19.7756 13.9284 18.9804 14.5264 18.3824C15.1245 17.7843 15.9196 17.4549 16.7655 17.4549C17.6091 17.4549 18.4024 17.7827 18.9999 18.3778C19.0033 18.3814 19.0069 18.3851 19.0097 18.3879C19.2148 18.593 19.5443 18.6031 19.7617 18.4109C21.0113 17.305 22.9153 17.364 24.0963 18.5449C24.2146 18.6633 24.323 18.7911 24.4208 18.9257C24.3666 19.303 24.3379 19.6885 24.3379 20.0806V27.4176L22.2518 25.3314L22.7672 22.3324C22.8186 22.0336 22.6179 21.7497 22.3191 21.6983C22.0202 21.6471 21.7365 21.8477 21.6851 22.1464L21.3011 24.3807L18.5127 21.5923C18.2983 21.378 17.9508 21.378 17.7363 21.5923C17.5219 21.8067 17.5219 22.1543 17.7363 22.3688L20.5233 25.1558L18.3257 25.5105C18.0264 25.5588 17.8229 25.8407 17.8712 26.14C17.9148 26.4096 18.1478 26.6016 18.4125 26.6016C18.4416 26.6016 18.471 26.5992 18.5007 26.5944L21.481 26.1134L23.6854 28.3179C23.0303 28.4357 22.4444 28.6811 21.9515 29.0516C21.2198 29.6018 20.3625 30.684 20.1937 32.7667C19.6449 32.643 19.1373 32.376 18.7276 31.9892C18.033 31.3335 17.6737 30.4107 17.7419 29.4573ZM29.5569 38.1644C28.9349 38.639 27.9251 39.1313 26.6449 38.781C26.5975 38.768 26.5487 38.7616 26.5 38.7616C26.4512 38.7616 26.4025 38.768 26.3551 38.781C25.0749 39.1313 24.065 38.639 23.4431 38.1644C22.1382 37.1687 21.2614 35.3035 21.2614 33.523C21.2614 31.8358 21.7282 30.5929 22.6113 29.929C23.4856 29.2717 24.8125 29.1541 26.3475 29.5979C26.3962 29.6119 26.448 29.6194 26.4987 29.6194C26.4995 29.6194 26.5005 29.6194 26.5014 29.6194C26.551 29.6194 26.604 29.6119 26.6525 29.5979C28.1876 29.154 29.5143 29.2717 30.3888 29.929C31.2718 30.5929 31.7386 31.8357 31.7386 33.523C31.7385 35.3034 30.8618 37.1687 29.5569 38.1644ZM35.0079 26.567C34.7994 26.6503 34.6627 26.8522 34.6627 27.0768V28.5942C34.6627 30.077 33.9358 31.4678 32.7588 32.3273C32.5132 30.5292 31.7269 29.5615 31.0485 29.0514C30.0382 28.2918 28.6366 28.0583 27.049 28.3723V27.9297C27.049 26.7986 27.9693 25.8783 29.1005 25.8783C29.4036 25.8783 29.6494 25.6325 29.6494 25.3293C29.6494 25.0262 29.4036 24.7803 29.1005 24.7803C27.3639 24.7803 25.9511 26.1931 25.9511 27.9297V28.3723C25.777 28.3379 25.6053 28.3101 25.436 28.2889V20.0805C25.436 19.6856 25.4694 19.2983 25.5327 18.9211C25.5376 18.8998 25.5411 18.8783 25.5434 18.8566C26.1237 15.588 28.9857 13.098 32.4185 13.098C36.2687 13.098 39.401 16.2303 39.401 20.0805C39.401 22.9545 37.6766 25.5006 35.0079 26.567Z" fill="#052A75"/>
</g>
<defs>
<clipPath id="clip0_960_16045">
<rect width="28" height="28" fill="white" transform="translate(12.5 12)"/>
</clipPath>
</defs>
</svg>
