<svg width="53" height="52" viewBox="0 0 53 52" fill="none" xmlns="http://www.w3.org/2000/svg">
<rect x="1" y="0.5" width="51" height="51" rx="25.5" fill="white"/>
<rect x="1" y="0.5" width="51" height="51" rx="25.5" stroke="#EFEFEF"/>
<g clip-path="url(#clip0_960_15154)">
<path d="M18.1223 34.3825L13.0627 32.696L18.1223 31.0095L19.8089 25.9499L21.4954 31.0095L26.555 32.696L21.4954 34.3825L19.8089 39.4421L18.1223 34.3825Z" fill="#FDCB50"/>
<path d="M17.834 31.1056L13.0627 32.696L18.1223 34.3825L19.8089 39.4421L21.4954 34.3825L21.5932 34.35C19.858 33.9789 18.4455 32.7381 17.834 31.1056Z" fill="#FD8F01"/>
<path d="M26.7314 32.1668L21.9364 30.5684L20.3381 25.7735C20.2621 25.5457 20.0489 25.392 19.8088 25.392C19.5687 25.392 19.3555 25.5457 19.2796 25.7735L17.6813 30.5684L12.8863 32.1668C12.6586 32.2427 12.5049 32.4559 12.5049 32.696C12.5049 32.9361 12.6585 33.1492 12.8863 33.2252L17.6813 34.8235L19.2797 39.6185C19.3556 39.8463 19.5688 40 19.8089 40C20.049 40 20.2622 39.8464 20.3381 39.6185L21.9365 34.8235L26.7315 33.2252C27.237 33.0543 27.2374 32.3377 26.7314 32.1668ZM21.319 33.8533C21.1525 33.9088 21.0217 34.0395 20.9662 34.2062L19.8088 37.6781L18.6515 34.2062C18.596 34.0396 18.4653 33.9088 18.2987 33.8533L14.8268 32.696L18.2988 31.5387C18.4653 31.4832 18.5961 31.3525 18.6516 31.1858L19.8089 27.7139L20.9663 31.1858C21.0218 31.3524 21.1525 31.4832 21.3191 31.5387L24.7909 32.696L21.319 33.8533Z" fill="#052A75"/>
<path d="M22.3703 23.6068C22.51 23.6068 22.65 23.5546 22.7583 23.4496C25.6616 20.6377 29.3122 18.8744 33.3155 18.3507C33.621 18.3107 33.8362 18.0306 33.7962 17.7252C33.7563 17.4196 33.4756 17.2046 33.1708 17.2444C31.0738 17.5188 29.0464 18.1233 27.1448 19.0414C25.2414 19.9603 23.5044 21.1739 21.9822 22.6482C21.6229 22.9939 21.8751 23.61 22.3703 23.6068Z" fill="#FDCB50"/>
<path d="M36.5663 18.2096C37.1334 18.2296 37.7027 18.2931 38.2645 18.3551C38.9555 18.3352 39.024 17.3554 38.336 17.244C37.7677 17.1698 37.1884 17.1196 36.6143 17.0949C35.8743 17.0929 35.8281 18.148 36.5663 18.2096Z" fill="#FDCB50"/>
<path d="M38.3744 24.0322C37.8014 23.9162 37.2133 23.8378 36.6268 23.7992C35.8868 23.78 35.817 24.8344 36.5536 24.9125C37.1299 24.9406 37.6995 25.049 38.2643 25.1369C38.9311 25.1207 39.0316 24.184 38.3744 24.0322Z" fill="#FDCB50"/>
<path d="M33.1321 24.0339C30.2468 24.6208 27.6108 26.1905 25.7093 28.454C25.5111 28.6899 25.5418 29.0418 25.7777 29.24C25.8822 29.3278 26.0096 29.3707 26.1362 29.3707C26.2953 29.3707 26.4533 29.303 26.5636 29.1716C28.3036 27.1004 30.7153 25.664 33.3545 25.1272C34.0714 24.9523 33.8659 23.9163 33.1321 24.0339Z" fill="#FDCB50"/>
<path d="M40.4755 21.684C40.5563 21.3867 40.3809 21.0802 40.0836 20.9993C33.9879 19.3005 27.1835 21.4143 23.1468 26.3017C22.9486 26.5375 22.9793 26.8894 23.2152 27.0876C23.4498 27.285 23.8022 27.256 24.0011 27.0192C27.7638 22.4629 34.1089 20.4921 39.7908 22.0759C40.0879 22.1565 40.3946 21.9812 40.4755 21.684Z" fill="#FDCB50"/>
<path d="M39.9374 35.4852H38.8217V34.3695C38.8217 34.0614 38.5719 33.8117 38.2638 33.8117C37.9558 33.8117 37.706 34.0614 37.706 34.3695V35.4852H36.5903C36.2823 35.4852 36.0325 35.735 36.0325 36.043C36.0325 36.3511 36.2823 36.6009 36.5903 36.6009H37.706V37.7166C37.706 38.0247 37.9558 38.2744 38.2638 38.2744C38.5719 38.2744 38.8217 38.0247 38.8217 37.7166V36.6009H39.9374C40.6774 36.5716 40.6771 35.5145 39.9374 35.4852Z" fill="#FDCB50"/>
<path d="M23.2019 14.7892H24.3176V15.9049C24.3176 16.213 24.5673 16.4627 24.8754 16.4627C25.1835 16.4627 25.4332 16.213 25.4332 15.9049V14.7892H26.5489C26.857 14.7892 27.1068 14.5395 27.1068 14.2314C27.1068 13.9233 26.857 13.6735 26.5489 13.6735H25.4332V12.5578C25.4332 12.2497 25.1835 12 24.8754 12C24.5673 12 24.3176 12.2497 24.3176 12.5578V13.6735H23.2019C22.4619 13.7029 22.4621 14.76 23.2019 14.7892Z" fill="#FDCB50"/>
<path d="M31.26 14.751C31.6199 15.0002 32.1343 14.7241 32.1274 14.2869C32.1337 13.8498 31.62 13.5742 31.26 13.8234C30.9318 14.0302 30.9333 14.5435 31.26 14.751Z" fill="#FDCB50"/>
<path d="M19.3401 19.5212C19.479 19.8828 19.9828 19.9821 20.2493 19.7019C20.5633 19.3977 20.3944 18.8388 19.9637 18.7608C19.5368 18.6675 19.1647 19.1205 19.3401 19.5212Z" fill="#FDCB50"/>
<path d="M32.0846 29.1289C31.9243 28.7215 31.3423 28.6647 31.1056 29.033C30.8573 29.3959 31.1309 29.9048 31.5697 29.9004C31.957 29.9081 32.2419 29.484 32.0846 29.1289Z" fill="#FDCB50"/>
<path d="M38.7787 29.1289C38.6392 28.7677 38.1367 28.6674 37.8694 28.9482C37.5187 29.293 37.7731 29.9035 38.2639 29.9004C38.651 29.9083 38.9359 29.4838 38.7787 29.1289Z" fill="#FDCB50"/>
</g>
<defs>
<clipPath id="clip0_960_15154">
<rect width="28" height="28" fill="white" transform="translate(12.5 12)"/>
</clipPath>
</defs>
</svg>
