<svg width="14" height="14" viewBox="0 0 14 14" fill="none" xmlns="http://www.w3.org/2000/svg">
<path fill-rule="evenodd" clip-rule="evenodd" d="M1.5 0C0.671573 0 0 0.671573 0 1.5V12.5C0 13.3284 0.671573 14 1.5 14H7.58579C7.98361 14 8.36514 13.842 8.64645 13.5607L13.5607 8.64645C13.842 8.36514 14 7.98361 14 7.58579V1.5C14 0.671573 13.3284 0 12.5 0H1.5ZM7.5 8.5V12.8964C7.5 13.1192 7.76929 13.2307 7.92678 13.0732L13.0732 7.92678C13.2307 7.76929 13.1192 7.5 12.8964 7.5H8.5C7.94772 7.5 7.5 7.94772 7.5 8.5Z" fill="#F98585"/>
</svg>
