<svg width="20" height="20" viewBox="0 0 20 20" fill="none" xmlns="http://www.w3.org/2000/svg">
<path d="M15.7579 10.8334C15.5746 10.8334 15.3829 10.7751 15.1996 10.7334C14.8283 10.6516 14.4635 10.543 14.1079 10.4084C13.7213 10.2678 13.2964 10.2751 12.9149 10.4289C12.5333 10.5828 12.2222 10.8723 12.0413 11.2418L11.8579 11.6168C11.045 11.1633 10.2967 10.6027 9.63294 9.95009C8.9835 9.2867 8.42323 8.54154 7.96627 7.73343L8.33294 7.50009C8.70241 7.31919 8.99192 7.00803 9.14576 6.6265C9.29961 6.24497 9.30691 5.82002 9.16627 5.43343C9.03396 5.07711 8.92538 4.71242 8.84127 4.34176C8.7996 4.15009 8.76627 3.96676 8.74127 3.77509C8.64007 3.18811 8.33262 2.65655 7.87429 2.27613C7.41595 1.89571 6.83685 1.69143 6.24127 1.70009H3.74127C3.38898 1.69963 3.04056 1.77363 2.71887 1.91725C2.39717 2.06086 2.10947 2.27084 1.8746 2.53343C1.63601 2.80217 1.45816 3.1192 1.35318 3.4629C1.2482 3.8066 1.21856 4.1689 1.26627 4.52509C1.7052 8.0143 3.29325 11.2581 5.77994 13.7448C8.26662 16.2314 11.5104 17.8195 14.9996 18.2584C15.1078 18.2667 15.2164 18.2667 15.3246 18.2584C15.9876 18.2584 16.6235 17.995 17.0924 17.5262C17.5612 17.0574 17.8246 16.4215 17.8246 15.7584V13.2584C17.8159 12.6769 17.6048 12.1167 17.2276 11.674C16.8504 11.2314 16.3307 10.9342 15.7579 10.8334ZM16.1663 15.8334C16.1676 15.9542 16.1427 16.0739 16.0933 16.1841C16.0438 16.2943 15.971 16.3924 15.8798 16.4717C15.7886 16.551 15.6813 16.6095 15.5653 16.6432C15.4493 16.6768 15.3274 16.6849 15.2079 16.6668C12.0964 16.2607 9.20552 14.8402 6.98294 12.6251C4.7621 10.3875 3.34397 7.47796 2.9496 4.35009C2.9315 4.22787 2.9408 4.10315 2.97683 3.98497C3.01286 3.86679 3.07473 3.75809 3.15794 3.66676C3.2351 3.57892 3.32988 3.50829 3.43612 3.45948C3.54236 3.41066 3.65769 3.38475 3.7746 3.38343H6.2746C6.46839 3.37911 6.65762 3.44249 6.80972 3.56265C6.96182 3.68281 7.06728 3.85224 7.10794 4.04176C7.14127 4.26954 7.18294 4.49454 7.23294 4.71676C7.3292 5.15605 7.45732 5.58774 7.61627 6.00843L6.4496 6.55009C6.34985 6.59586 6.26012 6.66088 6.18557 6.74142C6.11101 6.82196 6.0531 6.91644 6.01516 7.01942C5.97722 7.12241 5.96 7.23187 5.96448 7.34153C5.96896 7.45119 5.99505 7.55888 6.04127 7.65843C7.2406 10.2274 9.30564 12.2924 11.8746 13.4918C12.0775 13.5751 12.3051 13.5751 12.5079 13.4918C12.7147 13.4148 12.8826 13.259 12.9746 13.0584L13.4996 11.8918C13.9304 12.0458 14.3701 12.1738 14.8163 12.2751C15.0329 12.3251 15.2663 12.3668 15.4913 12.4001C15.6793 12.4424 15.8468 12.5486 15.9653 12.7005C16.0838 12.8525 16.146 13.0408 16.1413 13.2334L16.1663 15.8334Z" fill="#5E5E5E"/>
<path d="M16.1663 15.8334C16.1676 15.9542 16.1427 16.0739 16.0933 16.1841C16.0438 16.2943 15.971 16.3924 15.8798 16.4717C15.7886 16.551 15.6813 16.6095 15.5653 16.6432C15.4493 16.6768 15.3274 16.6849 15.2079 16.6668C12.0964 16.2607 9.20552 14.8402 6.98294 12.6251C4.7621 10.3875 3.34397 7.47796 2.9496 4.35009C2.9315 4.22787 2.9408 4.10315 2.97683 3.98497C3.01286 3.86679 3.07473 3.75809 3.15794 3.66676C3.2351 3.57892 3.32988 3.50829 3.43612 3.45948C3.54236 3.41066 3.65769 3.38475 3.7746 3.38343H6.2746C6.46839 3.37911 6.65762 3.44249 6.80972 3.56265C6.96182 3.68281 7.06728 3.85224 7.10794 4.04176C7.14127 4.26954 7.18294 4.49454 7.23294 4.71676C7.3292 5.15605 7.45732 5.58774 7.61627 6.00843L6.4496 6.55009C6.34985 6.59586 6.26012 6.66088 6.18557 6.74142C6.11101 6.82196 6.0531 6.91644 6.01516 7.01942C5.97722 7.12241 5.96 7.23187 5.96448 7.34153C5.96896 7.45119 5.99505 7.55888 6.04127 7.65843C7.2406 10.2274 9.30564 12.2924 11.8746 13.4918C12.0775 13.5751 12.3051 13.5751 12.5079 13.4918C12.7147 13.4148 12.8826 13.259 12.9746 13.0584L13.4996 11.8918C13.9304 12.0458 14.3701 12.1738 14.8163 12.2751C15.0329 12.3251 15.2663 12.3668 15.4913 12.4001C15.6793 12.4424 15.8468 12.5486 15.9653 12.7005C16.0838 12.8525 16.146 13.0408 16.1413 13.2334L16.1663 15.8334Z" fill="#5E5E5E"/>
</svg>
