<svg width="20" height="20" viewBox="0 0 20 20" fill="none" xmlns="http://www.w3.org/2000/svg">
<path fill-rule="evenodd" clip-rule="evenodd" d="M10.0003 16.6667C8.68179 16.6667 7.39286 16.2757 6.29653 15.5431C5.2002 14.8106 4.34572 13.7694 3.84113 12.5512C3.33655 11.333 3.20453 9.99259 3.46176 8.69939C3.719 7.40618 4.35393 6.2183 5.28628 5.28594C6.21863 4.35359 7.40652 3.71866 8.69973 3.46142C9.99293 3.20419 11.3334 3.33621 12.5516 3.84079C13.7697 4.34538 14.8109 5.19986 15.5435 6.29619C16.276 7.39252 16.667 8.68145 16.667 9.99999C16.667 11.7681 15.9646 13.4638 14.7144 14.714C13.4641 15.9643 11.7684 16.6667 10.0003 16.6667ZM10.8337 9.16666H12.5003C12.7213 9.16666 12.9333 9.25445 13.0896 9.41073C13.2459 9.56702 13.3337 9.77898 13.3337 9.99999C13.3337 10.221 13.2459 10.433 13.0896 10.5892C12.9333 10.7455 12.7213 10.8333 12.5003 10.8333H10.0003C9.77932 10.8333 9.56735 10.7455 9.41107 10.5892C9.25479 10.433 9.167 10.221 9.167 9.99999V5.83332C9.167 5.61231 9.25479 5.40035 9.41107 5.24407C9.56735 5.08779 9.77932 4.99999 10.0003 4.99999C10.2213 4.99999 10.4333 5.08779 10.5896 5.24407C10.7459 5.40035 10.8337 5.61231 10.8337 5.83332V9.16666Z" fill="#5E5E5E"/>
<path fill-rule="evenodd" clip-rule="evenodd" d="M5.37058 3.07108C6.74099 2.1554 8.35215 1.66666 10.0003 1.66666C11.0947 1.66666 12.1783 1.8822 13.1894 2.30099C14.2004 2.71978 15.1191 3.33361 15.8929 4.10743C16.6667 4.88125 17.2805 5.79991 17.6993 6.81096C18.1181 7.82201 18.3337 8.90564 18.3337 9.99999C18.3337 11.6482 17.8449 13.2593 16.9292 14.6297C16.0136 16.0002 14.7121 17.0683 13.1894 17.699C11.6666 18.3297 9.99109 18.4947 8.37458 18.1732C6.75807 17.8517 5.27321 17.058 4.10777 15.8925C2.94234 14.7271 2.14866 13.2423 1.82712 11.6257C1.50558 10.0092 1.6706 8.33368 2.30133 6.81096C2.93206 5.28824 4.00017 3.98675 5.37058 3.07108ZM6.29653 15.5431C7.39286 16.2757 8.68179 16.6667 10.0003 16.6667C11.7684 16.6667 13.4641 15.9643 14.7144 14.714C15.9646 13.4638 16.667 11.7681 16.667 9.99999C16.667 8.68145 16.276 7.39252 15.5435 6.29619C14.8109 5.19986 13.7697 4.34538 12.5516 3.84079C11.3334 3.33621 9.99293 3.20419 8.69973 3.46142C7.40652 3.71866 6.21863 4.35359 5.28628 5.28594C4.35393 6.2183 3.719 7.40618 3.46176 8.69939C3.20453 9.99259 3.33655 11.333 3.84113 12.5512C4.34572 13.7694 5.2002 14.8106 6.29653 15.5431Z" fill="#5E5E5E"/>
</svg>
