<svg width="18" height="18" viewBox="0 0 18 18" fill="none" xmlns="http://www.w3.org/2000/svg">
<path d="M12 15H6C5.40326 15 4.83097 14.7629 4.40901 14.341C3.98705 13.919 3.75 13.3467 3.75 12.75V5.25C3.75 5.05109 3.67098 4.86032 3.53033 4.71967C3.38968 4.57902 3.19891 4.5 3 4.5C2.80109 4.5 2.61032 4.57902 2.46967 4.71967C2.32902 4.86032 2.25 5.05109 2.25 5.25V12.75C2.25 13.7446 2.64509 14.6984 3.34835 15.4017C4.05161 16.1049 5.00544 16.5 6 16.5H12C12.1989 16.5 12.3897 16.421 12.5303 16.2803C12.671 16.1397 12.75 15.9489 12.75 15.75C12.75 15.5511 12.671 15.3603 12.5303 15.2197C12.3897 15.079 12.1989 15 12 15ZM15.75 6.705C15.7422 6.6361 15.7271 6.56822 15.705 6.5025V6.435C15.6689 6.35788 15.6208 6.287 15.5625 6.225L11.0625 1.725C11.0005 1.66666 10.9296 1.61856 10.8525 1.5825H10.785L10.545 1.5H7.5C6.90326 1.5 6.33097 1.73705 5.90901 2.15901C5.48705 2.58097 5.25 3.15326 5.25 3.75V11.25C5.25 11.8467 5.48705 12.419 5.90901 12.841C6.33097 13.2629 6.90326 13.5 7.5 13.5H13.5C14.0967 13.5 14.669 13.2629 15.091 12.841C15.5129 12.419 15.75 11.8467 15.75 11.25V6.75C15.75 6.75 15.75 6.75 15.75 6.705ZM11.25 4.0575L13.1925 6H12C11.8011 6 11.6103 5.92098 11.4697 5.78033C11.329 5.63968 11.25 5.44891 11.25 5.25V4.0575ZM14.25 11.25C14.25 11.4489 14.171 11.6397 14.0303 11.7803C13.8897 11.921 13.6989 12 13.5 12H7.5C7.30109 12 7.11032 11.921 6.96967 11.7803C6.82902 11.6397 6.75 11.4489 6.75 11.25V3.75C6.75 3.55109 6.82902 3.36032 6.96967 3.21967C7.11032 3.07902 7.30109 3 7.5 3H9.75V5.25C9.75 5.84674 9.98705 6.41903 10.409 6.84099C10.831 7.26295 11.4033 7.5 12 7.5H14.25V11.25Z" fill="#5E5E5E"/>
</svg>
