<svg width="20" height="20" viewBox="0 0 20 20" fill="none" xmlns="http://www.w3.org/2000/svg">
<path d="M16.7996 4.16665C15.911 3.28724 14.7374 2.75438 13.4904 2.66422C12.2435 2.57406 11.0054 2.93255 9.99958 3.67499C8.93929 2.88635 7.61957 2.52874 6.30618 2.67418C4.99279 2.81962 3.78328 3.4573 2.92122 4.45881C2.05917 5.46031 1.6086 6.75125 1.66025 8.07166C1.7119 9.39208 2.26193 10.6439 3.19958 11.575L8.19958 16.6167C8.66833 17.0848 9.30374 17.3478 9.96625 17.3478C10.6287 17.3478 11.2642 17.0848 11.7329 16.6167L16.7329 11.575C17.2254 11.0939 17.6179 10.5202 17.8879 9.88685C18.1579 9.25354 18.3001 8.57311 18.3063 7.88468C18.3125 7.19624 18.1825 6.51337 17.924 5.8753C17.6654 5.23724 17.2833 4.65656 16.7996 4.16665ZM15.6246 10.3833L10.6246 15.3833C10.5471 15.4614 10.4549 15.5234 10.3534 15.5657C10.2518 15.608 10.1429 15.6298 10.0329 15.6298C9.9229 15.6298 9.81398 15.608 9.71243 15.5657C9.61088 15.5234 9.51871 15.4614 9.44125 15.3833L4.44125 10.3833C3.78771 9.71527 3.42175 8.81787 3.42175 7.88332C3.42175 6.94876 3.78771 6.05136 4.44125 5.38332C5.10721 4.72581 6.00539 4.35713 6.94125 4.35713C7.8771 4.35713 8.77528 4.72581 9.44125 5.38332C9.51871 5.46143 9.61088 5.52342 9.71243 5.56573C9.81398 5.60804 9.9229 5.62982 10.0329 5.62982C10.1429 5.62982 10.2518 5.60804 10.3534 5.56573C10.4549 5.52342 10.5471 5.46143 10.6246 5.38332C11.3085 4.83906 12.1689 4.56559 13.0416 4.61506C13.9143 4.66454 14.7383 5.03349 15.3563 5.65157C15.9744 6.26965 16.3434 7.0936 16.3928 7.96629C16.4423 8.83898 16.1688 9.69935 15.6246 10.3833Z" fill="#5E5E5E"/>
<path d="M15.6246 10.3833L10.6246 15.3833C10.5471 15.4614 10.4549 15.5234 10.3534 15.5657C10.2518 15.608 10.1429 15.6298 10.0329 15.6298C9.9229 15.6298 9.81398 15.608 9.71243 15.5657C9.61088 15.5234 9.51871 15.4614 9.44125 15.3833L4.44125 10.3833C3.78771 9.71527 3.42175 8.81787 3.42175 7.88332C3.42175 6.94876 3.78771 6.05136 4.44125 5.38332C5.10721 4.72581 6.00539 4.35713 6.94125 4.35713C7.8771 4.35713 8.77528 4.72581 9.44125 5.38332C9.51871 5.46143 9.61088 5.52342 9.71243 5.56573C9.81398 5.60804 9.9229 5.62982 10.0329 5.62982C10.1429 5.62982 10.2518 5.60804 10.3534 5.56573C10.4549 5.52342 10.5471 5.46143 10.6246 5.38332C11.3085 4.83906 12.1689 4.56559 13.0416 4.61506C13.9143 4.66454 14.7383 5.03349 15.3563 5.65157C15.9744 6.26965 16.3434 7.0936 16.3928 7.96629C16.4423 8.83898 16.1688 9.69935 15.6246 10.3833Z" fill="#5E5E5E"/>
</svg>
