<svg width="20" height="20" viewBox="0 0 20 20" fill="none" xmlns="http://www.w3.org/2000/svg">
<path fill-rule="evenodd" clip-rule="evenodd" d="M5.28563 3.61928C6.53587 2.36904 8.23156 1.66666 9.99967 1.66666C11.7678 1.66666 13.4635 2.36904 14.7137 3.61928C15.964 4.86952 16.6663 6.56521 16.6663 8.33332C16.6663 12.8333 10.833 17.9167 10.5413 18.1333C10.3904 18.2624 10.1983 18.3334 9.99967 18.3334C9.80105 18.3334 9.60895 18.2624 9.45801 18.1333L9.45662 18.1321C9.18717 17.8986 3.33301 12.8253 3.33301 8.33332C3.33301 6.56521 4.03539 4.86952 5.28563 3.61928ZM4.99967 8.33332C4.99967 11.1167 8.22467 14.7083 9.99967 16.375C11.7747 14.7167 14.9997 11.1167 14.9997 8.33332C14.9997 7.00724 14.4729 5.73547 13.5352 4.79779C12.5975 3.86011 11.3258 3.33332 9.99967 3.33332C8.67359 3.33332 7.40182 3.86011 6.46414 4.79779C5.52646 5.73547 4.99967 7.00724 4.99967 8.33332Z" fill="#5E5E5E"/>
<path fill-rule="evenodd" clip-rule="evenodd" d="M9.99967 16.375C8.22467 14.7083 4.99967 11.1167 4.99967 8.33332C4.99967 7.00724 5.52646 5.73547 6.46414 4.79779C7.40182 3.86011 8.67359 3.33332 9.99967 3.33332C11.3258 3.33332 12.5975 3.86011 13.5352 4.79779C14.4729 5.73547 14.9997 7.00724 14.9997 8.33332C14.9997 11.1167 11.7747 14.7167 9.99967 16.375ZM8.14777 5.56176C8.69594 5.19549 9.3404 4.99999 9.99967 4.99999C10.8837 4.99999 11.7316 5.35118 12.3567 5.9763C12.9818 6.60142 13.333 7.44927 13.333 8.33332C13.333 8.99259 13.1375 9.63706 12.7712 10.1852C12.405 10.7334 11.8844 11.1606 11.2753 11.4129C10.6662 11.6652 9.99598 11.7312 9.34937 11.6026C8.70277 11.474 8.10883 11.1565 7.64265 10.6903C7.17648 10.2242 6.85901 9.63023 6.73039 8.98362C6.60177 8.33702 6.66778 7.6668 6.92008 7.05771C7.17237 6.44862 7.59961 5.92803 8.14777 5.56176Z" fill="#5E5E5E"/>
</svg>
